<svg width="15" height="12" viewBox="0 0 15 12" fill="none" xmlns="http://www.w3.org/2000/svg">
<path d="M6 0.4C6 0.179086 6.17909 0 6.4 0H8.6C8.82091 0 9 0.179086 9 0.4V6.6C9 6.82091 8.82091 7 8.6 7H6.4C6.17909 7 6 6.82091 6 6.6V0.4Z" fill="#3E3F3F"/>
<path d="M0 11.4C0 11.1791 0.179086 11 0.4 11H14.6C14.8209 11 15 11.1791 15 11.4V11.6C15 11.8209 14.8209 12 14.6 12H0.4C0.179086 12 0 11.8209 0 11.6V11.4Z" fill="#3E3F3F"/>
<path d="M7.80237 9.65085C7.64286 9.83504 7.35714 9.83504 7.19763 9.65085L4.17607 6.16186C3.95172 5.9028 4.13574 5.5 4.47845 5.5L10.5216 5.5C10.8643 5.5 11.0483 5.9028 10.8239 6.16186L7.80237 9.65085Z" fill="#3E3F3F"/>
</svg>
