<svg width="121" height="36" viewBox="0 0 121 36" fill="none" xmlns="http://www.w3.org/2000/svg">
<path d="M119.426 31.2251C119.426 33.0798 117.909 34.584 116.037 34.584H4.98395C3.10953 34.5855 1.58881 33.0828 1.58582 31.2251V4.44114C1.58881 2.58347 3.10804 1.07929 4.98395 1.07781H116.033C117.907 1.07781 119.426 2.58347 119.426 4.43967V31.2251Z" fill="white"/>
<path d="M116.034 35.3649H4.98395C2.67525 35.3649 0.802329 33.5117 0.797852 31.2251V4.44114C0.800836 2.15307 2.67376 0.298354 4.98395 0.296875H116.033C118.341 0.299833 120.214 2.15307 120.219 4.44114V31.2251C120.22 33.5087 118.34 35.3649 116.034 35.3649Z" fill="#A6A6A6"/>
<path d="M119.426 31.2251C119.426 33.0798 117.909 34.584 116.037 34.584H4.98395C3.10953 34.5855 1.58881 33.0828 1.58582 31.2251V4.44114C1.58881 2.58347 3.10804 1.07929 4.98395 1.07781H116.033C117.907 1.07781 119.426 2.58347 119.426 4.43967V31.2251Z" fill="black"/>
<path d="M27.4635 17.646C27.4381 14.8196 29.7991 13.4441 29.9065 13.3805C28.5694 11.4488 26.4965 11.1841 25.7682 11.1634C24.0266 10.9815 22.3387 12.1958 21.4522 12.1958C20.5658 12.1958 19.1823 11.1811 17.7094 11.2107C15.8156 11.2403 14.0441 12.3259 13.0711 14.0135C11.0654 17.4537 12.5607 22.5091 14.4829 25.2897C15.444 26.6519 16.5677 28.1723 18.0377 28.1191C19.4763 28.0614 20.0136 27.211 21.7492 27.211C23.4849 27.211 23.9729 28.1191 25.4727 28.0851C27.0158 28.0614 27.9888 26.717 28.9156 25.3429C30.0259 23.7825 30.4721 22.2444 30.49 22.166C30.4542 22.1541 27.4934 21.033 27.4635 17.646ZM24.631 9.33381C25.404 8.37539 25.9338 7.07088 25.7876 5.74862C24.6683 5.79742 23.2685 6.51624 22.4611 7.45395C21.7477 8.28073 21.1105 9.63405 21.2747 10.9075C22.5327 11.0007 23.8236 10.2789 24.631 9.33529V9.33381Z" fill="white"/>
<path d="M48.2955 27.9239H46.2853L45.1839 24.4954H41.3575L40.3083 27.9239H38.3518L42.1439 16.2542H44.4855L48.2955 27.9239ZM44.8526 23.0578L43.8572 20.011C43.7512 19.7004 43.5542 18.9668 43.2632 17.8131H43.2274C43.111 18.3101 42.9245 19.0422 42.6678 20.011L41.6888 23.0578H44.8526ZM58.0302 23.6125C58.0302 25.0442 57.6377 26.1742 56.8527 27.0054C56.1498 27.7449 55.2768 28.1132 54.2351 28.1132C53.1099 28.1132 52.301 27.7153 51.81 26.9196V31.3345H49.9237V22.2725C49.9237 21.3732 49.8998 20.4518 49.8535 19.5066H51.513L51.619 20.8407H51.6548C52.2846 19.8365 53.2397 19.3336 54.5202 19.3336C55.5215 19.3336 56.3588 19.7255 57.0273 20.5109C57.6959 21.2978 58.0317 22.3301 58.0317 23.6125H58.0302ZM56.108 23.6805C56.108 22.8611 55.9215 22.1867 55.5484 21.6542C55.141 21.1011 54.5918 20.8245 53.9053 20.8245C53.4397 20.8245 53.0173 20.9783 52.6383 21.283C52.2592 21.5906 52.0115 21.99 51.8951 22.4869C51.8429 22.6733 51.8145 22.8641 51.807 23.0563V24.46C51.807 25.0708 51.9966 25.587 52.3756 26.01C52.7547 26.4315 53.2472 26.6415 53.8516 26.6415C54.562 26.6415 55.1156 26.3694 55.5111 25.8281C55.9081 25.2853 56.1066 24.5694 56.1066 23.6805H56.108ZM67.7993 23.6125C67.7993 25.0442 67.4068 26.1742 66.6218 27.0054C65.9189 27.7449 65.0458 28.1132 64.0027 28.1132C62.8774 28.1132 62.0686 27.7153 61.5776 26.9196V31.3345H59.6912V22.2725C59.6912 21.3732 59.6674 20.4518 59.6211 19.5066H61.2806L61.3866 20.8407H61.4224C62.0507 19.8365 63.0058 19.3336 64.2877 19.3336C65.2891 19.3336 66.1248 19.7255 66.7964 20.5109C67.4635 21.2978 67.8008 22.3301 67.8008 23.6125H67.7993ZM65.8756 23.6805C65.8756 22.8611 65.6891 22.1867 65.316 21.6542C64.9086 21.1011 64.3623 20.8245 63.6744 20.8245C63.2087 20.8245 62.7864 20.9783 62.4059 21.283C62.0268 21.5906 61.7805 21.99 61.6641 22.4869C61.6059 22.7191 61.5761 22.907 61.5761 23.0563V24.46C61.5761 25.0708 61.7671 25.587 62.1432 26.01C62.5223 26.43 63.0147 26.6415 63.6206 26.6415C64.3325 26.6415 64.8847 26.3694 65.2802 25.8281C65.6771 25.2853 65.8756 24.5694 65.8756 23.6805ZM78.7204 24.6493C78.7204 25.6432 78.3697 26.4507 77.6728 27.0734C76.9057 27.7538 75.8357 28.0954 74.4642 28.0954C73.1972 28.0954 72.1809 27.8529 71.4138 27.3677L71.8496 25.8088C72.6778 26.294 73.5867 26.5365 74.5761 26.5365C75.288 26.5365 75.8402 26.3768 76.2356 26.0603C76.6311 25.7423 76.8311 25.3178 76.8311 24.7883C76.8311 24.3135 76.6654 23.9171 76.3401 23.5932C76.0133 23.2708 75.473 22.9691 74.7149 22.694C72.6525 21.9323 71.6212 20.8171 71.6212 19.3513C71.6212 18.3944 71.9854 17.609 72.7136 16.9967C73.4419 16.3844 74.406 16.0782 75.6059 16.0782C76.6774 16.0782 77.5713 16.2631 78.2802 16.6329L77.8071 18.1563C77.14 17.7984 76.3864 17.6194 75.5447 17.6194C74.8791 17.6194 74.3567 17.7821 73.9837 18.1045C73.6688 18.3929 73.5106 18.7449 73.5106 19.162C73.5106 19.622 73.6926 20.0051 74.0538 20.3053C74.3672 20.5819 74.9388 20.8822 75.7655 21.2046C76.7803 21.6098 77.525 22.0817 78.0026 22.623C78.4831 23.1643 78.7219 23.8417 78.7219 24.6463L78.7204 24.6493ZM84.9749 20.9103H82.8946V24.9954C82.8946 26.0351 83.2617 26.5528 83.9959 26.5528C84.3332 26.5528 84.6123 26.5247 84.8347 26.4655L84.8869 27.8854C84.5153 28.023 84.0258 28.0925 83.4199 28.0925C82.6752 28.0925 82.0917 27.8677 81.6723 27.4166C81.253 26.9654 81.0425 26.2111 81.0425 25.1477V20.9058H79.8039V19.5022H81.0425V17.9611L82.8961 17.4064V19.5007H84.9764V20.9073L84.9749 20.9103ZM94.3411 23.645C94.3411 24.9392 93.968 26.0011 93.2218 26.8309C92.4428 27.6857 91.4041 28.1117 90.1117 28.1117C88.8193 28.1117 87.8716 27.702 87.1314 26.8841C86.3912 26.0647 86.0211 25.0309 86.0211 23.7855C86.0211 22.5402 86.4031 21.4131 87.1657 20.5834C87.9298 19.7522 88.9581 19.3366 90.2505 19.3366C91.5429 19.3366 92.498 19.7463 93.2546 20.5656C93.9784 21.3599 94.3396 22.3863 94.3396 23.645H94.3411ZM92.3846 23.6879C92.3846 22.9173 92.2159 22.2562 91.8786 21.703C91.4832 21.0345 90.9161 20.7002 90.1833 20.7002C89.4506 20.7002 88.8476 21.0345 88.4537 21.703C88.1149 22.2562 87.9477 22.9291 87.9477 23.7234C87.9477 24.5176 88.1164 25.1581 88.4537 25.7097C88.8611 26.3783 89.4312 26.7125 90.1684 26.7125C90.9056 26.7125 91.4548 26.3709 91.8637 25.6935C92.21 25.127 92.3846 24.4614 92.3846 23.6894V23.6879ZM100.476 21.1513C100.279 21.1158 100.081 21.0996 99.8807 21.0996C99.2166 21.0996 98.7033 21.3466 98.3421 21.845C98.0287 22.2828 97.8705 22.8374 97.8705 23.5075V27.9224H95.9842V22.1571C95.9856 21.2741 95.9677 20.3911 95.9289 19.5081H97.572L97.6407 21.1188H97.6929C97.8929 20.5656 98.2063 20.119 98.6361 19.7847C99.0301 19.4933 99.5076 19.3351 100 19.3336C100.175 19.3336 100.331 19.3454 100.472 19.3676V21.1513H100.476ZM108.916 23.3167C108.92 23.6006 108.898 23.8846 108.847 24.1641H103.186C103.207 24.9954 103.482 25.6328 104.007 26.0706C104.485 26.4611 105.101 26.6578 105.859 26.6578C106.698 26.6578 107.462 26.5262 108.15 26.2599L108.445 27.5571C107.641 27.9046 106.693 28.0777 105.598 28.0777C104.282 28.0777 103.248 27.6931 102.495 26.927C101.745 26.1594 101.369 25.1285 101.369 23.8373C101.369 22.5461 101.718 21.5122 102.418 20.6692C103.151 19.7699 104.141 19.3203 105.388 19.3203C106.634 19.3203 107.538 19.7699 108.168 20.6692C108.666 21.3821 108.917 22.2665 108.917 23.3152L108.916 23.3167ZM107.116 22.8315C107.129 22.2769 107.005 21.7992 106.749 21.3939C106.422 20.8733 105.919 20.613 105.246 20.613C104.629 20.613 104.127 20.8659 103.744 21.3747C103.43 21.7785 103.243 22.2651 103.186 22.8286H107.116V22.8315Z" fill="white"/>
<path d="M40.8128 12.1277C40.2874 12.1277 39.8338 12.1026 39.4562 12.0597V6.41714C39.9845 6.33579 40.5188 6.29586 41.053 6.29734C43.217 6.29734 44.2139 7.3519 44.2139 9.07202C44.2139 11.0554 43.0364 12.1277 40.8128 12.1277ZM41.1291 7.02059C40.8366 7.02059 40.5889 7.03834 40.3815 7.07975V11.369C40.4934 11.3867 40.7068 11.3941 41.0083 11.3941C42.426 11.3941 43.2334 10.594 43.2334 9.09716C43.2334 7.76159 42.5036 7.02059 41.1291 7.02059ZM47.3195 12.1706C46.1002 12.1706 45.3093 11.2684 45.3093 10.0437C45.3093 8.8191 46.1166 7.85625 47.3881 7.85625C48.5895 7.85625 49.3984 8.71557 49.3984 9.97571C49.3984 11.2359 48.5656 12.1706 47.3195 12.1706ZM47.3553 8.52773C46.6852 8.52773 46.2554 9.14893 46.2554 10.0171C46.2554 10.8853 46.6942 11.4902 47.3463 11.4902C47.9985 11.4902 48.4373 10.8262 48.4373 10.0009C48.4373 9.17555 48.0075 8.52921 47.3553 8.52921V8.52773ZM56.3543 7.94055L55.0485 12.0759H54.1978L53.6576 10.2804C53.5233 9.84112 53.4113 9.39593 53.3218 8.94482H53.3039C53.2352 9.39593 53.1069 9.84704 52.9696 10.2804L52.395 12.0759H51.5354L50.3072 7.94055H51.2608L51.7339 9.9062C51.8458 10.3751 51.9399 10.8158 52.0175 11.2344H52.0354C52.104 10.8868 52.2145 10.452 52.3786 9.91507L52.9711 7.94055H53.7262L54.2933 9.87218C54.4306 10.341 54.5425 10.7995 54.6291 11.2344H54.6545C54.7142 10.8084 54.8097 10.3573 54.938 9.87218L55.4454 7.94055H56.3558H56.3543ZM61.1597 12.0759H60.2315V9.70061C60.2315 8.96996 59.9479 8.60316 59.3898 8.60316C58.8316 8.60316 58.4615 9.07202 58.4615 9.61631V12.0759H57.5333V9.12231C57.5333 8.75698 57.5243 8.36504 57.4989 7.93907H58.3153L58.3585 8.57802H58.3839C58.6331 8.13579 59.139 7.85477 59.7076 7.85477C60.5837 7.85477 61.1597 8.51886 61.1597 9.59856V12.0759ZM63.7176 12.0759H62.7894V6.04294H63.7176V12.0759ZM67.0993 12.1691C65.8801 12.1691 65.0891 11.2669 65.0891 10.0423C65.0891 8.81762 65.8965 7.85477 67.168 7.85477C68.3708 7.85477 69.1782 8.71409 69.1782 9.97423C69.1782 11.2669 68.3455 12.1691 67.0993 12.1691ZM67.1337 8.52625C66.4636 8.52625 66.0338 9.14745 66.0338 10.0156C66.0338 10.8838 66.4726 11.4888 67.1232 11.4888C67.7739 11.4888 68.2141 10.8247 68.2141 9.99938C68.2141 9.1578 67.7873 8.52773 67.1337 8.52773V8.52625ZM72.8345 12.0759L72.7674 11.5997H72.742C72.4584 11.9828 72.0451 12.1691 71.5212 12.1691C70.7736 12.1691 70.2423 11.65 70.2423 10.9519C70.2423 9.93134 71.1347 9.40332 72.6823 9.40332V9.32641C72.6823 8.78213 72.3913 8.5085 71.8152 8.5085C71.4033 8.5085 71.0422 8.61056 70.7243 8.81614L70.5363 8.21122C70.9228 7.97309 71.4033 7.85329 71.9689 7.85329C73.0599 7.85329 73.6106 8.42272 73.6106 9.56454V11.088C73.6106 11.505 73.6285 11.8289 73.6702 12.0759H72.8345ZM72.7077 10.0156C71.6779 10.0156 71.1601 10.2626 71.1601 10.8498C71.1601 11.2832 71.4272 11.4962 71.7958 11.4962C72.2674 11.4962 72.7062 11.1397 72.7062 10.6546V10.0156H72.7077ZM78.116 12.0759L78.0727 11.4119H78.0474C77.7802 11.9133 77.3325 12.1691 76.7072 12.1691C75.7014 12.1691 74.9552 11.2921 74.9552 10.0585C74.9552 8.82502 75.7282 7.85329 76.7833 7.85329C77.3415 7.85329 77.737 8.03965 77.9608 8.41533H77.9787V6.04147H78.907V10.9608C78.907 11.3601 78.9174 11.7358 78.9413 12.0759H78.116ZM77.9787 9.64293C77.9787 9.06462 77.5922 8.57062 77.0012 8.57062C76.3132 8.57062 75.8924 9.17555 75.8924 10.026C75.8924 10.8764 76.3282 11.4311 76.9818 11.4311C77.5653 11.4311 77.9772 10.9282 77.9772 10.3336V9.64441L77.9787 9.64293ZM84.7944 12.1706C83.5751 12.1706 82.7856 11.2684 82.7856 10.0437C82.7856 8.8191 83.593 7.85625 84.8645 7.85625C86.0674 7.85625 86.8747 8.71557 86.8747 9.97571C86.8747 11.2684 86.0435 12.1706 84.7959 12.1706H84.7944ZM84.8287 8.52773C84.1601 8.52773 83.7303 9.14893 83.7303 10.0171C83.7303 10.8853 84.1691 11.4902 84.8197 11.4902C85.4704 11.4902 85.9107 10.8262 85.9107 10.0009C85.9122 9.15928 85.4838 8.52921 84.8287 8.52921V8.52773ZM91.8622 12.0774H90.934V9.70209C90.934 8.97145 90.6504 8.60464 90.0923 8.60464C89.5341 8.60464 89.1655 9.0735 89.1655 9.61778V12.0774H88.2373V9.12379C88.2373 8.75846 88.2283 8.36652 88.2029 7.94055H89.0193L89.0625 8.5795H89.0879C89.3371 8.13727 89.8431 7.85625 90.4102 7.85625C91.2862 7.85625 91.8622 8.52034 91.8622 9.60004V12.0774ZM98.1033 8.63127H97.0825V10.6398C97.0825 11.1515 97.2616 11.4059 97.6228 11.4059C97.7869 11.4059 97.9242 11.3882 98.0347 11.3631L98.06 12.0612C97.881 12.1292 97.6392 12.1632 97.3407 12.1632C96.6095 12.1632 96.1722 11.7639 96.1722 10.7167V8.63127H95.5633V7.94203H96.1722V7.18476L97.0825 6.91262V7.94203H98.1033V8.63274V8.63127ZM103.013 12.0774H102.086V9.71984C102.086 8.98032 101.804 8.60464 101.245 8.60464C100.764 8.60464 100.317 8.92855 100.317 9.58377V12.0774H99.3897V6.04294H100.317V8.52773H100.334C100.627 8.07663 101.049 7.85477 101.589 7.85477C102.473 7.85477 103.013 8.53513 103.013 9.61631V12.0774ZM108.044 10.2301H105.261C105.279 11.0125 105.801 11.4548 106.576 11.4548C106.987 11.4548 107.366 11.3867 107.701 11.2595L107.846 11.8985C107.45 12.0686 106.986 12.1543 106.446 12.1543C105.14 12.1543 104.367 11.3364 104.367 10.0704C104.367 8.80431 105.158 7.84885 106.341 7.84885C107.408 7.84885 108.077 8.63126 108.077 9.8145C108.083 9.95353 108.072 10.094 108.045 10.2316L108.044 10.2301ZM107.193 9.57489C107.193 8.93595 106.868 8.48632 106.276 8.48632C105.743 8.48632 105.322 8.9463 105.261 9.57489H107.193Z" fill="white"/>
</svg>
