<svg width="32" height="32" viewBox="0 0 32 32" fill="none" xmlns="http://www.w3.org/2000/svg">
<path d="M15.9556 31.9014C20.1866 31.9008 24.2442 30.2203 27.236 27.2292C30.2278 24.2382 31.9087 20.1816 31.9093 15.9517C31.9093 11.7214 30.2285 7.66432 27.2367 4.67286C24.2448 1.6814 20.187 0.000523487 15.9556 0C13.8596 -2.56709e-07 11.7842 0.412893 9.84785 1.21503C7.91151 2.01717 6.15222 3.19284 4.6705 4.67493C3.18878 6.15701 2.01367 7.91644 1.21229 9.8527C0.410907 11.789 -0.00103553 13.8641 1.95483e-06 15.9596C0.000525572 20.1899 1.68179 24.2467 4.67399 27.2378C7.6662 30.2289 11.7243 31.9093 15.9556 31.9093" fill="#0E76BB"/>
<path d="M25.6799 16.0563C25.6799 16.0405 25.6799 16.0227 25.6799 16.0069C25.6808 15.9898 25.6808 15.9727 25.6799 15.9556V15.9457C25.6808 15.9286 25.6808 15.9115 25.6799 15.8944C25.6799 15.8786 25.6799 15.8628 25.6799 15.845C25.6789 15.8418 25.6789 15.8384 25.6799 15.8352C25.6799 15.8174 25.668 15.7997 25.6621 15.7819C25.6562 15.7641 25.6621 15.7562 25.6621 15.7444C25.656 15.7306 25.6488 15.7174 25.6404 15.7049V15.6891C25.6404 15.6773 25.6285 15.6654 25.6206 15.6556C25.6107 15.6398 25.5969 15.6259 25.5851 15.6102C25.5756 15.5974 25.565 15.5855 25.5535 15.5746C25.5423 15.5626 25.5297 15.552 25.516 15.543L25.5041 15.5332L25.4745 15.5075C25.4644 15.5008 25.4539 15.4949 25.4429 15.4898L25.3936 15.4641H25.3817L7.01921 8.16039C6.91723 8.11979 6.80554 8.11012 6.69809 8.13258C6.59064 8.15505 6.49219 8.20864 6.41503 8.2867C6.33772 8.36436 6.28505 8.46311 6.26363 8.57056C6.2422 8.67801 6.25298 8.78939 6.29459 8.89075L9.17138 15.9852L6.29459 23.0777C6.25298 23.1791 6.2422 23.2904 6.26363 23.3979C6.28505 23.5053 6.33772 23.6041 6.41503 23.6818C6.51953 23.7871 6.66153 23.8467 6.80992 23.8475C6.87755 23.8461 6.94439 23.8327 7.00737 23.8081L25.3699 16.5044H25.3876C25.4121 16.4934 25.4359 16.4809 25.4587 16.4669C25.4824 16.4508 25.5048 16.433 25.5258 16.4136L25.5397 16.3978C25.5557 16.3813 25.5702 16.3635 25.5831 16.3445L25.5949 16.3306C25.5943 16.3261 25.5943 16.3214 25.5949 16.3169C25.6073 16.2971 25.6185 16.2767 25.6285 16.2556C25.6322 16.2493 25.6355 16.2427 25.6384 16.2359C25.6384 16.2359 25.6384 16.2122 25.6384 16.1984C25.6455 16.181 25.6514 16.1632 25.6562 16.1451C25.6444 16.142 25.6343 16.1343 25.6282 16.1237C25.6221 16.1132 25.6204 16.1006 25.6236 16.0889C25.6267 16.0771 25.6344 16.067 25.645 16.0609C25.6555 16.0548 25.6681 16.0531 25.6799 16.0563ZM22.2087 15.3911H10.1053L7.78531 9.64284L22.2087 15.3911ZM10.1053 16.5103H22.2087L7.77939 22.2506L10.1053 16.5103Z" fill="white"/>
</svg>
