<svg width="29" height="19" viewBox="0 0 29 19" fill="none" xmlns="http://www.w3.org/2000/svg">
<path d="M27.305 3.19778H2.04976C1.87301 3.19801 1.69795 3.16701 1.53458 3.10655C1.37121 3.04609 1.22274 2.95734 1.09767 2.84541C0.972597 2.73348 0.873374 2.60054 0.805675 2.45421C0.737976 2.30787 0.703131 2.15101 0.703131 1.9926C0.702613 1.8338 0.737062 1.67649 0.804505 1.52965C0.871947 1.38281 0.971057 1.24933 1.09616 1.13688C1.22125 1.02443 1.36988 0.935219 1.53352 0.874344C1.69716 0.813469 1.87259 0.782132 2.04976 0.782132H27.305C27.4861 0.775925 27.6666 0.802519 27.8359 0.860332C28.0052 0.918146 28.1598 1.00599 28.2903 1.11859C28.4209 1.2312 28.5247 1.36626 28.5956 1.51568C28.6666 1.6651 28.7031 1.82581 28.7031 1.98819C28.7031 2.15058 28.6666 2.31128 28.5956 2.4607C28.5247 2.61012 28.4209 2.74518 28.2903 2.85778C28.1598 2.97039 28.0052 3.05823 27.8359 3.11605C27.6666 3.17386 27.4861 3.20045 27.305 3.19425" fill="white"/>
<path d="M27.305 10.9917H2.04976C1.87259 10.9917 1.69716 10.9604 1.53352 10.8995C1.36988 10.8386 1.22125 10.7494 1.09616 10.637C0.971057 10.5245 0.871947 10.3911 0.804505 10.2442C0.737062 10.0974 0.702613 9.94004 0.703131 9.78125C0.703131 9.62284 0.737976 9.46598 0.805675 9.31964C0.873374 9.17331 0.972597 9.04037 1.09767 8.92844C1.22274 8.8165 1.37121 8.72776 1.53458 8.6673C1.69795 8.60684 1.87301 8.57584 2.04976 8.57607H27.305C27.4861 8.56986 27.6666 8.59647 27.8359 8.65428C28.0052 8.71209 28.1598 8.79993 28.2903 8.91253C28.4209 9.02514 28.5247 9.1602 28.5956 9.30962C28.6666 9.45904 28.7031 9.61975 28.7031 9.78213C28.7031 9.94452 28.6666 10.1052 28.5956 10.2546C28.5247 10.4041 28.4209 10.5391 28.2903 10.6517C28.1598 10.7643 28.0052 10.8522 27.8359 10.91C27.6666 10.9678 27.4861 10.9944 27.305 10.9882" fill="white"/>
<path d="M27.305 18.7804H2.04976C1.69261 18.7804 1.35009 18.6532 1.09755 18.4269C0.845008 18.2005 0.703131 17.8935 0.703131 17.5734C0.703131 17.415 0.737976 17.2582 0.805675 17.1118C0.873374 16.9655 0.972597 16.8325 1.09767 16.7206C1.22274 16.6087 1.37121 16.5199 1.53458 16.4595C1.69795 16.399 1.87301 16.368 2.04976 16.3682H27.305C27.4861 16.362 27.6666 16.3886 27.8359 16.4465C28.0052 16.5043 28.1598 16.5921 28.2903 16.7047C28.4209 16.8173 28.5247 16.9524 28.5956 17.1018C28.6666 17.2512 28.7031 17.4119 28.7031 17.5743C28.7031 17.7367 28.6666 17.8974 28.5956 18.0468C28.5247 18.1963 28.4209 18.3313 28.2903 18.4439C28.1598 18.5565 28.0052 18.6443 27.8359 18.7022C27.6666 18.76 27.4861 18.7866 27.305 18.7804Z" fill="white"/>
</svg>
