<svg width="25" height="33" viewBox="0 0 25 33" fill="none" xmlns="http://www.w3.org/2000/svg">
<path d="M9.31287 0.5C9.78256 0.654204 10.2836 0.748135 10.7164 0.97357C12.2288 1.76416 13.0445 3.0291 13.1228 4.74569C13.1416 5.14881 13.1251 5.55428 13.1251 6.00045C13.2645 6.00045 13.3741 6.00045 13.4845 6.00045C14.7346 6.00045 15.984 6.00593 17.2341 5.99654C17.5175 5.99419 17.7343 6.08969 17.9284 6.28459C20.0256 8.38474 22.1298 10.4794 24.216 12.5905C24.3725 12.7486 24.4868 13.0265 24.4876 13.2488C24.5025 18.8103 24.5017 24.3718 24.497 29.9333C24.4954 31.4143 23.4089 32.4969 21.9325 32.4977C15.6419 32.5008 9.35045 32.5008 3.0598 32.4977C1.59987 32.4977 0.504721 31.4159 0.503156 29.9568C0.498459 22.8227 0.499242 15.6887 0.503938 8.5546C0.504721 7.07831 1.5983 6.0075 3.07938 6.00124C3.49505 5.99967 3.9115 6.00124 4.37649 6.00124C4.37649 5.71396 4.3851 5.43765 4.37492 5.16133C4.33187 3.91988 4.69587 2.82401 5.54522 1.90584C6.2247 1.17161 7.0576 0.715259 8.04942 0.558707C8.09717 0.550879 8.14179 0.520352 8.18719 0.5C8.56216 0.5 8.93791 0.5 9.31287 0.5ZM6.81572 7.24895C5.59923 7.24895 4.42424 7.24895 3.24924 7.24895C2.24099 7.24895 1.75565 7.73427 1.75565 8.74403C1.75565 15.7521 1.75565 22.7601 1.75565 29.769C1.75565 30.7584 2.24569 31.2491 3.23202 31.2499C9.40759 31.2499 15.5832 31.2499 21.7587 31.2499C22.7513 31.2499 23.2453 30.7623 23.2453 29.7791C23.2461 24.5519 23.2453 19.3238 23.2453 14.0965V13.749C21.992 13.749 20.7849 13.749 19.5786 13.749C17.8635 13.7482 16.7519 12.6398 16.7464 10.9193C16.7425 9.81562 16.7464 8.71193 16.7464 7.60746C16.7464 7.49631 16.7464 7.38594 16.7464 7.26618H13.1322C13.1322 7.39455 13.1322 7.50648 13.1322 7.61842C13.1298 8.68062 13.1439 9.74283 13.122 10.805C13.0852 12.5882 11.2057 14.0676 9.45691 13.7075C7.83884 13.374 6.82041 12.1287 6.81728 10.4739C6.81493 9.41328 6.81728 8.35265 6.81728 7.24895H6.81572ZM6.81728 5.98715C6.81728 5.56759 6.80554 5.18247 6.81963 4.79813C6.86816 3.46588 8.15119 2.58527 9.39428 3.02362C10.1881 3.30385 10.6718 4.04668 10.6734 5.00713C10.6765 6.7566 10.675 8.50685 10.6742 10.2563C10.6742 10.8387 10.4503 11.1432 10.0291 11.1416C9.61034 11.1401 9.39193 10.8356 9.39193 10.2485C9.39193 8.54051 9.39193 6.83174 9.39193 5.12376C9.39193 4.9993 9.3935 4.87328 9.37941 4.7496C9.3434 4.42867 9.09447 4.19776 8.77821 4.1821C8.451 4.16566 8.19032 4.35666 8.12066 4.67994C8.09013 4.82083 8.07838 4.96799 8.0776 5.11202C8.07447 6.80983 8.07369 8.50763 8.0776 10.2054C8.0776 10.4442 8.09247 10.6845 8.12222 10.9209C8.24043 11.8602 9.24477 12.6148 10.174 12.4707C11.2237 12.3079 11.8727 11.5627 11.875 10.4974C11.8797 8.67436 11.8727 6.8521 11.8781 5.02905C11.8805 4.17114 11.6096 3.42517 11.0476 2.77313C10.0495 1.61465 8.09091 1.44244 6.88773 2.38645C5.6916 3.32498 5.53582 4.59462 5.65481 5.98636L6.81728 5.98715ZM22.2378 12.4989C20.8241 11.0845 19.4119 9.6716 17.9989 8.25715C17.9989 9.16437 17.9934 10.0974 18.0005 11.0297C18.0075 11.8719 18.5758 12.4723 19.4228 12.4934C20.3685 12.5169 21.3149 12.4989 22.2378 12.4989Z" fill="#0E76BB"/>
<path d="M12.4663 16.999C10.8733 16.999 9.28032 16.9974 7.68731 17.0006C7.39767 17.0006 7.18318 16.8879 7.05871 16.6264C6.94912 16.3963 6.96712 16.1435 7.15343 15.9932C7.31547 15.8624 7.55501 15.7638 7.76089 15.7615C9.41653 15.7435 11.0722 15.7513 12.727 15.7513C14.2472 15.7513 15.7674 15.7497 17.2877 15.7529C17.647 15.7536 17.8849 15.9478 17.9366 16.2577C17.9898 16.5755 17.8442 16.8573 17.5507 16.9552C17.4262 16.9967 17.2853 16.9982 17.1514 16.9982C15.5897 17.0014 14.028 16.999 12.4663 16.999Z" fill="#0E76BB"/>
<path d="M12.4977 20.2506C14.0805 20.2506 15.6633 20.2498 17.2454 20.2514C17.6039 20.2514 17.8481 20.4118 17.9264 20.685C18.0431 21.0936 17.7777 21.4756 17.3487 21.4952C17.0473 21.5093 16.7452 21.4991 16.443 21.4991C13.6006 21.4991 10.7583 21.4991 7.9151 21.4991C7.83213 21.4991 7.74836 21.5014 7.66539 21.4991C7.26929 21.4866 6.99374 21.2228 7 20.8651C7.00626 20.5191 7.27633 20.2608 7.65599 20.2537C8.07245 20.2459 8.4889 20.2514 8.90535 20.2514C10.1031 20.2514 11.3 20.2506 12.4977 20.2506Z" fill="#0E76BB"/>
<path d="M12.4781 25.9992C10.8953 25.9992 9.31241 25.9968 7.73036 26.0015C7.46029 26.0015 7.23797 25.9311 7.09315 25.6916C6.86536 25.315 7.09315 24.8282 7.52996 24.7593C7.6012 24.7483 7.67556 24.7507 7.74836 24.7507C10.9031 24.7507 14.0578 24.7507 17.2133 24.7507C17.5992 24.7507 17.8458 24.9033 17.9272 25.1828C18.0525 25.6148 17.7636 25.9929 17.2892 25.9968C16.4563 26.0039 15.6234 25.9992 14.7905 25.9992C14.0202 25.9992 13.2484 25.9992 12.4781 25.9992Z" fill="#0E76BB"/>
<path d="M9.31287 0.5C9.78256 0.654204 10.2836 0.748135 10.7164 0.97357C12.2288 1.76416 13.0445 3.0291 13.1228 4.74569C13.1416 5.14881 13.1251 5.55428 13.1251 6.00045C13.2645 6.00045 13.3741 6.00045 13.4845 6.00045C14.7346 6.00045 15.984 6.00593 17.2341 5.99654C17.5175 5.99419 17.7343 6.08969 17.9284 6.28459C20.0256 8.38474 22.1298 10.4794 24.216 12.5905C24.3725 12.7486 24.4868 13.0265 24.4876 13.2488C24.5025 18.8103 24.5017 24.3718 24.497 29.9333C24.4954 31.4143 23.4089 32.4969 21.9325 32.4977C15.6419 32.5008 9.35045 32.5008 3.0598 32.4977C1.59987 32.4977 0.504721 31.4159 0.503156 29.9568C0.498459 22.8227 0.499242 15.6887 0.503938 8.5546C0.504721 7.07831 1.5983 6.0075 3.07938 6.00124C3.49505 5.99967 3.9115 6.00124 4.37649 6.00124C4.37649 5.71396 4.3851 5.43765 4.37492 5.16133C4.33187 3.91988 4.69587 2.82401 5.54522 1.90584C6.2247 1.17161 7.0576 0.715259 8.04942 0.558707C8.09717 0.550879 8.14179 0.520352 8.18719 0.5C8.56216 0.5 8.93791 0.5 9.31287 0.5ZM6.81572 7.24895C5.59923 7.24895 4.42424 7.24895 3.24924 7.24895C2.24099 7.24895 1.75565 7.73427 1.75565 8.74403C1.75565 15.7521 1.75565 22.7601 1.75565 29.769C1.75565 30.7584 2.24569 31.2491 3.23202 31.2499C9.40759 31.2499 15.5832 31.2499 21.7587 31.2499C22.7513 31.2499 23.2453 30.7623 23.2453 29.7791C23.2461 24.5519 23.2453 19.3238 23.2453 14.0965V13.749C21.992 13.749 20.7849 13.749 19.5786 13.749C17.8635 13.7482 16.7519 12.6398 16.7464 10.9193C16.7425 9.81562 16.7464 8.71193 16.7464 7.60746C16.7464 7.49631 16.7464 7.38594 16.7464 7.26618H13.1322C13.1322 7.39455 13.1322 7.50648 13.1322 7.61842C13.1298 8.68062 13.1439 9.74283 13.122 10.805C13.0852 12.5882 11.2057 14.0676 9.45691 13.7075C7.83884 13.374 6.82041 12.1287 6.81728 10.4739C6.81493 9.41328 6.81728 8.35265 6.81728 7.24895H6.81572ZM6.81728 5.98715C6.81728 5.56759 6.80554 5.18247 6.81963 4.79813C6.86816 3.46588 8.15119 2.58527 9.39428 3.02362C10.1881 3.30385 10.6718 4.04668 10.6734 5.00713C10.6765 6.7566 10.675 8.50685 10.6742 10.2563C10.6742 10.8387 10.4503 11.1432 10.0291 11.1416C9.61034 11.1401 9.39193 10.8356 9.39193 10.2485C9.39193 8.54051 9.39193 6.83174 9.39193 5.12376C9.39193 4.9993 9.3935 4.87328 9.37941 4.7496C9.3434 4.42867 9.09447 4.19776 8.77821 4.1821C8.451 4.16566 8.19032 4.35666 8.12066 4.67994C8.09013 4.82083 8.07838 4.96799 8.0776 5.11202C8.07447 6.80983 8.07369 8.50763 8.0776 10.2054C8.0776 10.4442 8.09247 10.6845 8.12222 10.9209C8.24043 11.8602 9.24477 12.6148 10.174 12.4707C11.2237 12.3079 11.8727 11.5627 11.875 10.4974C11.8797 8.67436 11.8727 6.8521 11.8781 5.02905C11.8805 4.17114 11.6096 3.42517 11.0476 2.77313C10.0495 1.61465 8.09091 1.44244 6.88773 2.38645C5.6916 3.32498 5.53582 4.59462 5.65481 5.98636L6.81728 5.98715ZM22.2378 12.4989C20.8241 11.0845 19.4119 9.6716 17.9989 8.25715C17.9989 9.16437 17.9934 10.0974 18.0005 11.0297C18.0075 11.8719 18.5758 12.4723 19.4228 12.4934C20.3685 12.5169 21.3149 12.4989 22.2378 12.4989Z" stroke="#0E76BB" stroke-width="0.4"/>
<path d="M12.4663 16.999C10.8733 16.999 9.28032 16.9974 7.68731 17.0006C7.39767 17.0006 7.18318 16.8879 7.05871 16.6264C6.94912 16.3963 6.96712 16.1435 7.15343 15.9932C7.31547 15.8624 7.55501 15.7638 7.76089 15.7615C9.41653 15.7435 11.0722 15.7513 12.727 15.7513C14.2472 15.7513 15.7674 15.7497 17.2877 15.7529C17.647 15.7536 17.8849 15.9478 17.9366 16.2577C17.9898 16.5755 17.8442 16.8573 17.5507 16.9552C17.4262 16.9967 17.2853 16.9982 17.1514 16.9982C15.5897 17.0014 14.028 16.999 12.4663 16.999Z" stroke="#0E76BB" stroke-width="0.4"/>
<path d="M12.4977 20.2506C14.0805 20.2506 15.6633 20.2498 17.2454 20.2514C17.6039 20.2514 17.8481 20.4118 17.9264 20.685C18.0431 21.0936 17.7777 21.4756 17.3487 21.4952C17.0473 21.5093 16.7452 21.4991 16.443 21.4991C13.6006 21.4991 10.7583 21.4991 7.9151 21.4991C7.83213 21.4991 7.74836 21.5014 7.66539 21.4991C7.26929 21.4866 6.99374 21.2228 7 20.8651C7.00626 20.5191 7.27633 20.2608 7.65599 20.2537C8.07245 20.2459 8.4889 20.2514 8.90535 20.2514C10.1031 20.2514 11.3 20.2506 12.4977 20.2506Z" stroke="#0E76BB" stroke-width="0.4"/>
<path d="M12.4781 25.9992C10.8953 25.9992 9.31241 25.9968 7.73036 26.0015C7.46029 26.0015 7.23797 25.9311 7.09315 25.6916C6.86536 25.315 7.09315 24.8282 7.52996 24.7593C7.6012 24.7483 7.67556 24.7507 7.74836 24.7507C10.9031 24.7507 14.0578 24.7507 17.2133 24.7507C17.5992 24.7507 17.8458 24.9033 17.9272 25.1828C18.0525 25.6148 17.7636 25.9929 17.2892 25.9968C16.4563 26.0039 15.6234 25.9992 14.7905 25.9992C14.0202 25.9992 13.2484 25.9992 12.4781 25.9992Z" stroke="#0E76BB" stroke-width="0.4"/>
</svg>
