<svg width="16" height="11" viewBox="0 0 16 11" fill="none" xmlns="http://www.w3.org/2000/svg">
<path fill-rule="evenodd" clip-rule="evenodd" d="M2.58042 0.121379C2.41858 0.283219 2.41858 0.545612 2.58042 0.707451L4.0902 2.21723C4.09016 2.21725 4.09013 2.21726 4.0901 2.21728L5.08523 3.21241C5.08525 3.21238 5.08527 3.21235 5.08529 3.21232L6.17635 4.30338C6.17633 4.30341 6.17631 4.30344 6.17629 4.30347L8.7635 6.89069C8.76354 6.89067 8.76357 6.89065 8.7636 6.89063L9.79464 7.92167C9.79461 7.92169 9.79458 7.92171 9.79455 7.92173L10.6125 8.73972C10.6126 8.73971 10.6126 8.7397 10.6126 8.73968L12.2333 10.3603C12.3951 10.5221 12.6575 10.5221 12.8193 10.3603C12.9812 10.1985 12.9812 9.93608 12.8193 9.77424L11.4401 8.395C13.9098 7.22729 15.4 5.26274 15.4 5.26274C11.6595 0.748841 7.81816 0.738974 4.90761 1.8625L3.16649 0.121379C3.00465 -0.0404598 2.74226 -0.0404598 2.58042 0.121379ZM5.6805 2.63538L6.75874 3.71363C7.05947 3.51992 7.41951 3.4072 7.80644 3.4072C8.86031 3.4072 9.71463 4.24331 9.71463 5.27471C9.71463 5.66782 9.59052 6.03256 9.37856 6.33345L10.4064 7.3613C10.8953 6.78807 11.1891 6.05234 11.1891 5.24999C11.1891 3.42043 9.66046 1.9373 7.77617 1.9373C6.98632 1.9373 6.25896 2.1979 5.6805 2.63538ZM0 5.26274C0 5.26274 1.01444 4.10133 2.66122 3.02685L4.39958 4.76521C4.37566 4.92344 4.36328 5.08531 4.36328 5.24999C4.36328 7.07954 5.89128 8.56267 7.77617 8.56267C7.91099 8.56267 8.04398 8.55509 8.17471 8.54034L8.81176 9.17739C6.3277 9.49187 3.29755 8.68939 0 5.26274Z" fill="white" fill-opacity="0.7"/>
</svg>
