<svg width="24" height="24" viewBox="0 0 24 24" fill="none" xmlns="http://www.w3.org/2000/svg">
<path d="M12 0C5.37 0 0 5.37 0 12C0 18.63 5.37 24 12 24C18.63 24 24 18.63 24 12C24 5.37 18.63 0 12 0ZM19.18 16.3C19.15 16.5 19.13 16.7 19.1 16.9C18.96 17.69 18.5 18.24 17.79 18.59C17.18 18.89 16.56 19.14 15.88 19.18C15.27 19.21 14.69 19.07 14.11 18.88C12.76 18.42 11.47 17.86 10.33 16.99C8.43 15.53 6.82 13.82 5.81 11.62C5.4 10.74 5.03 9.83 4.88 8.86C4.86 8.74 4.85 8.61 4.84 8.47C4.8 7.74 5.02 7.05 5.35 6.39C5.5 6.1 5.68 5.82 5.88 5.56C6.29 5.05 6.89 4.95 7.49 4.84C7.94 4.76 8.23 4.91 8.44 5.32C8.73 5.89 9.07 6.45 9.39 7.01C9.56 7.31 9.75 7.61 9.92 7.91C10.09 8.2 10.1 8.42 9.87 8.66C9.61 8.94 9.3 9.18 9.02 9.44C8.79 9.65 8.56 9.87 8.34 10.09C8.21 10.22 8.19 10.37 8.25 10.54C8.29 10.65 8.32 10.75 8.37 10.85C9.03 12.04 9.79 13.16 10.82 14.06C11.55 14.7 12.36 15.21 13.2 15.67C13.62 15.9 13.8 15.86 14.12 15.5C14.42 15.17 14.7 14.83 15 14.51C15.13 14.37 15.26 14.24 15.41 14.11C15.6 13.95 15.82 13.93 16.04 14.06C17 14.61 17.95 15.18 18.91 15.73C19.15 15.86 19.22 16.06 19.19 16.31L19.18 16.3Z" fill="white"/>
</svg>
