<svg width="24" height="25" viewBox="0 0 24 25" fill="none" xmlns="http://www.w3.org/2000/svg">
<path d="M17.1647 19.6169C16.8531 19.2952 16.3504 19.2148 15.9582 19.446C14.7618 20.1498 13.3542 20.5319 11.8562 20.5017C7.84462 20.4012 4.46646 17.1034 4.27543 13.0919C4.09446 9.24115 6.72862 5.95348 10.2878 5.12904C10.7804 5.01845 11.0921 4.54591 11.0418 4.04321L10.7804 1.78104C10.71 1.18785 10.147 0.785691 9.56387 0.90634C3.57165 2.17315 -0.78176 7.88385 0.123105 14.429C0.846998 19.6974 5.10992 23.9402 10.3782 24.6641C13.4447 25.0863 16.3202 24.3423 18.6427 22.8342C19.1755 22.4924 19.2459 21.7383 18.8035 21.2859L17.1748 19.627L17.1647 19.6169Z" fill="white"/>
<path d="M6.51749 12.569C6.51749 15.7059 9.07122 18.2596 12.2081 18.2596C15.3449 18.2596 17.8987 15.7059 17.8987 12.569C17.8987 12.4182 17.8886 12.2775 17.8786 12.1367L23.1972 9.53272C23.1972 9.53272 23.2072 9.53272 23.2173 9.52267C23.2675 9.50256 23.3078 9.4724 23.348 9.44223C23.3882 9.42213 23.4184 9.40202 23.4485 9.37186C23.4887 9.34169 23.5189 9.31153 23.5491 9.27131C23.5792 9.24115 23.6194 9.21099 23.6496 9.17077C23.6798 9.14061 23.6999 9.1004 23.72 9.07023C23.7501 9.03002 23.7803 8.9898 23.8004 8.94958C23.8205 8.90937 23.8406 8.86915 23.8607 8.82894C23.8808 8.78872 23.901 8.7485 23.911 8.70829C23.9211 8.65802 23.9311 8.6178 23.9412 8.56753C23.9412 8.52731 23.9613 8.4871 23.9713 8.43683C23.9713 8.38656 23.9713 8.34634 23.9713 8.29607C23.9713 8.2458 23.9713 8.20558 23.9713 8.15531C23.9713 8.1151 23.9613 8.07488 23.9512 8.03467C23.9512 7.9844 23.9412 7.93413 23.9211 7.8738V7.85369C23.911 7.81348 23.8909 7.78331 23.8708 7.7431C23.8607 7.70288 23.8507 7.66267 23.8306 7.6325C23.8306 7.6325 23.8306 7.62245 23.8205 7.6124C23.7904 7.56213 23.7602 7.52191 23.73 7.47164C23.7099 7.44148 23.6898 7.40126 23.6597 7.3711C23.6295 7.33088 23.5893 7.29067 23.5491 7.2605C23.5189 7.23034 23.4887 7.20018 23.4586 7.17002C23.4184 7.13985 23.3781 7.10969 23.3279 7.07953C23.2977 7.05942 23.2675 7.02926 23.2273 7.01921C23.1771 6.98904 23.1268 6.96894 23.0665 6.94883C23.0363 6.93877 23.0061 6.91867 22.976 6.90861C22.9157 6.8885 22.8553 6.87845 22.795 6.8684C22.7648 6.8684 22.7347 6.84829 22.7045 6.84829C22.6542 6.84829 22.5939 6.84829 22.5437 6.84829C22.5034 6.84829 22.4632 6.84829 22.423 6.84829C22.3828 6.84829 22.3325 6.85834 22.2923 6.8684C22.242 6.8684 22.1918 6.87845 22.1415 6.89856C22.1415 6.89856 22.1314 6.89856 22.1214 6.89856L16.2398 8.63791C15.2042 7.57218 13.7665 6.90861 12.1679 6.90861C9.031 6.90861 6.47727 9.46234 6.47727 12.5992L6.51749 12.569Z" fill="white"/>
<path d="M14.3295 5.07877C14.9126 5.24969 15.4757 5.48094 15.9985 5.7725C16.3805 5.98364 16.8631 5.90321 17.1748 5.59153L18.8237 3.94266C19.2761 3.49023 19.1957 2.72612 18.6527 2.37423C17.5066 1.65034 16.2297 1.10742 14.8624 0.805799C14.2289 0.665042 13.6358 1.14764 13.6358 1.7911V4.12364C13.6358 4.55596 13.9173 4.95812 14.3395 5.07877H14.3295Z" fill="white"/>
<path d="M22.986 13.9967H20.6535C20.2212 13.9967 19.819 14.2782 19.6984 14.7005C19.5274 15.2836 19.2962 15.8467 19.0046 16.3695C18.7935 16.7515 18.8739 17.2341 19.1856 17.5458L20.8345 19.1947C21.2869 19.6471 22.051 19.5667 22.4029 19.0238C23.1268 17.8776 23.6697 16.6007 23.9713 15.2334C24.1121 14.6 23.6295 14.0068 22.986 14.0068V13.9967Z" fill="white"/>
</svg>
