<svg width="41" height="45" viewBox="0 0 41 45" fill="none" xmlns="http://www.w3.org/2000/svg">
<path d="M1.92623 44.1423C2.48313 42.9613 3.09589 41.856 3.53616 40.6858C4.57029 37.9382 4.79289 35.1199 3.99368 32.2613C3.92879 32.0302 3.81954 31.7982 3.68155 31.6017C-4.54389 19.9123 1.69459 3.59535 15.6394 0.493316C27.0149 -2.03717 37.6725 5.45066 39.6874 16.469C41.3934 25.7973 36.1225 35.2827 27.3599 38.6438C27.2835 38.6734 27.2054 38.6981 27.0929 38.7367C27.2087 38.1742 27.3163 37.6339 27.4371 37.0961C27.4502 37.036 27.5307 36.9645 27.5931 36.9464C28.9082 36.5738 29.9842 35.7876 30.9485 34.874C31.7995 34.068 32.5642 33.1659 33.3166 32.2637C33.8481 31.6264 33.7306 30.8566 33.1269 30.4224C32.5486 30.0063 31.82 30.1584 31.3395 30.804C30.3333 32.156 29.1784 33.3493 27.7155 34.2144C27.5291 34.3246 27.3311 34.4143 27.1159 34.5253C26.697 33.6544 26.1114 32.9669 25.2875 32.4997C24.508 32.0589 23.6685 31.8418 22.7765 31.8394C20.9292 31.8344 19.081 31.8221 17.2337 31.8418C14.901 31.8665 13.1325 33.2226 12.6454 35.3246C12.4195 36.3 12.5436 37.2548 12.8015 38.2055C13.0578 39.1487 13.0504 39.152 12.2438 39.726C10.1435 41.2211 7.97333 42.5945 5.54036 43.4934C4.54812 43.8602 3.53123 44.1233 2.46424 44.1414C2.2745 44.1447 2.08558 44.1414 1.92787 44.1414L1.92623 44.1423ZM19.6568 9.97542C18.957 9.97542 18.3024 9.97953 17.6469 9.97378C17.2682 9.97049 16.9618 10.1152 16.8189 10.4631C16.7277 10.6851 16.5955 10.7156 16.3918 10.7476C15.4603 10.8932 14.5198 11.0075 13.6064 11.2304C10.3751 12.0174 8.0834 13.8966 6.97041 17.0981C6.54082 18.3342 6.2599 19.6072 6.20733 20.9107C6.15887 22.1237 6.05127 23.3721 6.26401 24.5514C6.95152 28.3656 10.1623 30.9347 14.0475 30.9347C17.9204 30.9347 21.7941 30.9356 25.667 30.9331C26.0497 30.9331 26.4333 30.9191 26.8145 30.8912C30.2873 30.637 33.3741 27.7776 33.793 24.3129C34.0969 21.7939 33.8193 19.3046 32.9568 16.9081C32.0237 14.3168 30.2397 12.5594 27.6523 11.612C26.3315 11.1284 24.9606 10.8981 23.5732 10.7337C23.4574 10.7197 23.2882 10.6555 23.2513 10.5684C23.0451 10.0873 22.6738 9.95815 22.1917 9.97131C21.5814 9.98776 20.9711 9.97542 20.3788 9.97542C20.3534 9.89072 20.3394 9.86522 20.3394 9.83973C20.3361 9.27804 20.3501 8.71553 20.3271 8.15466C20.3148 7.84956 20.3797 7.67932 20.6975 7.54856C21.4097 7.25579 21.7834 6.45397 21.6159 5.7204C21.4442 4.96956 20.7846 4.42925 20.0232 4.41774C19.2667 4.40623 18.5931 4.93091 18.4026 5.68175C18.2153 6.41696 18.5759 7.19494 19.2675 7.54198C19.3989 7.60777 19.5336 7.66452 19.6577 7.72126V9.97707L19.6568 9.97542Z" fill="#0E76BB"/>
<path d="M20.1489 16.6605C21.9544 16.6605 23.7606 16.6506 25.566 16.6637C27.0495 16.6744 28.4885 16.9113 29.7518 17.7534C31.0776 18.6383 31.7659 19.8456 31.5055 21.4895C31.3289 22.6005 30.7104 23.3966 29.6771 23.7766C28.9691 24.0373 28.2011 24.2404 27.4519 24.2675C25.4297 24.3391 23.4041 24.307 21.3794 24.2996C21.2562 24.2996 21.0927 24.1795 21.0196 24.0685C20.8709 23.8415 20.811 23.5488 20.6401 23.3456C20.4799 23.1548 20.2261 22.9336 20.0109 22.9303C19.7957 22.9279 19.4392 23.1392 19.385 23.3267C19.1181 24.2494 18.5102 24.3728 17.6576 24.33C16.1841 24.2552 14.7031 24.3276 13.227 24.2914C12.6036 24.2757 11.9711 24.191 11.3633 24.0488C10.1189 23.7568 9.148 23.1088 8.81944 21.7765C8.4761 20.3875 8.85394 19.1992 9.89218 18.2353C10.9181 17.283 12.1847 16.8233 13.5466 16.7517C15.361 16.6563 17.1821 16.6851 19.0006 16.6621C19.3834 16.6572 19.767 16.6621 20.1497 16.6621L20.1489 16.6605ZM17.1623 20.4558C17.1541 19.4064 16.3237 18.5857 15.2789 18.5931C14.2357 18.6005 13.4151 19.4344 13.4192 20.4837C13.4234 21.5249 14.262 22.353 15.306 22.3456C16.3533 22.3382 17.1706 21.5059 17.1623 20.4566V20.4558ZM22.8431 20.4508C22.8341 21.5018 23.6489 22.3366 24.6945 22.3448C25.741 22.353 26.5796 21.5298 26.5854 20.4878C26.5911 19.4385 25.7705 18.5988 24.7315 18.5914C23.6842 18.584 22.853 19.4031 22.8431 20.4508Z" fill="#0E76BB"/>
<path d="M20.0512 28.6944C18.847 28.6714 17.7422 28.4247 16.81 27.6525C16.6637 27.5307 16.529 27.3901 16.4108 27.2404C16.2432 27.0299 16.2407 26.7972 16.4477 26.6163C16.6523 26.4378 16.879 26.4608 17.0712 26.6557C18.2901 27.8877 19.7694 27.9691 21.3375 27.6081C21.9338 27.4707 22.4644 27.1886 22.8743 26.7141C23.0739 26.483 23.3154 26.4049 23.5536 26.6171C23.814 26.849 23.7261 27.1064 23.5166 27.3367C22.7659 28.1623 21.7884 28.5069 20.719 28.6484C20.489 28.6788 20.2549 28.6804 20.0512 28.6944Z" fill="#0E76BB"/>
</svg>
