<svg width="41" height="46" viewBox="0 0 41 46" fill="none" xmlns="http://www.w3.org/2000/svg">
<path d="M2.08224 45.1297C2.64105 43.9456 3.25591 42.8374 3.69768 41.664C4.73536 38.909 4.95872 36.0832 4.15677 33.2169C4.09165 32.9852 3.98204 32.7526 3.84357 32.5556C-4.41004 20.8348 1.84981 4.47413 15.8424 1.36378C27.2568 -1.17349 37.9509 6.33441 39.9727 17.3823C41.6846 26.7356 36.3956 36.2464 27.603 39.6165C27.5263 39.6462 27.448 39.671 27.3351 39.7097C27.4513 39.1457 27.5593 38.6039 27.6805 38.0647C27.6936 38.0045 27.7744 37.9327 27.8371 37.9146C29.1566 37.541 30.2363 36.7527 31.2039 35.8366C32.0578 35.0285 32.8252 34.1239 33.5801 33.2194C34.1134 32.5803 33.9955 31.8085 33.3897 31.3731C32.8095 30.9559 32.0784 31.1084 31.5963 31.7557C30.5866 33.1113 29.4278 34.3078 27.9599 35.1753C27.7728 35.2858 27.5741 35.3757 27.3582 35.487C26.9378 34.6137 26.3502 33.9244 25.5235 33.456C24.7413 33.014 23.899 32.7963 23.0039 32.7939C21.1503 32.7889 19.2958 32.7766 17.4422 32.7963C15.1014 32.8211 13.3269 34.1808 12.8381 36.2885C12.6115 37.2665 12.7359 38.2238 12.9947 39.177C13.2519 40.1228 13.2445 40.1261 12.4351 40.7017C10.3276 42.2008 8.15005 43.5779 5.70875 44.4791C4.71311 44.8469 3.69274 45.1108 2.62209 45.1289C2.4317 45.1322 2.24213 45.1289 2.08389 45.1289L2.08224 45.1297ZM19.8736 10.8713C19.1713 10.8713 18.5145 10.8754 17.8567 10.8697C17.4768 10.8664 17.1693 11.0115 17.0259 11.3603C16.9344 11.5829 16.8018 11.6134 16.5973 11.6456C15.6627 11.7916 14.719 11.9062 13.8025 12.1296C10.56 12.9188 8.26049 14.803 7.14369 18.0131C6.71263 19.2524 6.43075 20.5289 6.378 21.8359C6.32938 23.0522 6.22141 24.3039 6.43487 25.4864C7.12474 29.3108 10.3466 31.8868 14.2451 31.8868C18.1312 31.8868 22.0182 31.8876 25.9043 31.8852C26.2884 31.8852 26.6733 31.8712 27.0557 31.8431C30.5405 31.5883 33.6378 28.7212 34.0582 25.2472C34.3631 22.7215 34.0845 20.2255 33.2191 17.8226C32.2828 15.2243 30.4927 13.4622 27.8964 12.5122C26.5711 12.0274 25.1955 11.7965 23.8034 11.6316C23.6872 11.6176 23.5174 11.5532 23.4803 11.4658C23.2734 10.9835 22.9009 10.854 22.4171 10.8672C21.8047 10.8837 21.1923 10.8713 20.598 10.8713C20.5725 10.7864 20.5585 10.7608 20.5585 10.7353C20.5552 10.1721 20.5692 9.60804 20.5461 9.04566C20.5338 8.73974 20.5989 8.56905 20.9178 8.43794C21.6324 8.14439 22.0074 7.34041 21.8393 6.60488C21.667 5.85202 21.0052 5.31027 20.2412 5.29872C19.4821 5.28718 18.8062 5.81327 18.615 6.56612C18.4271 7.3033 18.7889 8.08337 19.4829 8.43134C19.6148 8.49731 19.7499 8.55421 19.8744 8.6111V10.873L19.8736 10.8713Z" fill="white"/>
<path d="M20.3673 17.5743C22.179 17.5743 23.9914 17.5644 25.803 17.5776C27.2915 17.5883 28.7355 17.8258 30.0031 18.6701C31.3334 19.5574 32.0241 20.7679 31.7628 22.4163C31.5856 23.5303 30.965 24.3285 29.9281 24.7094C29.2177 24.9708 28.447 25.1745 27.6954 25.2017C25.6662 25.2735 23.6337 25.2413 21.602 25.2339C21.4784 25.2339 21.3144 25.1135 21.241 25.0022C21.0918 24.7746 21.0317 24.481 20.8602 24.2774C20.6995 24.0861 20.4448 23.8642 20.2289 23.8609C20.0129 23.8585 19.6552 24.0704 19.6008 24.2584C19.333 25.1836 18.723 25.3073 17.8675 25.2644C16.3889 25.1894 14.9028 25.2619 13.4217 25.2256C12.7962 25.21 12.1615 25.125 11.5516 24.9824C10.303 24.6897 9.32874 24.0399 8.99906 22.704C8.65454 21.3113 9.03367 20.1198 10.0755 19.1534C11.1049 18.1985 12.3758 17.7375 13.7424 17.6658C15.563 17.5701 17.3903 17.599 19.2151 17.5759C19.5992 17.571 19.9841 17.5759 20.3682 17.5759L20.3673 17.5743ZM17.3705 21.3797C17.3623 20.3276 16.529 19.5046 15.4806 19.512C14.4339 19.5195 13.6105 20.3556 13.6146 21.4078C13.6187 22.4517 14.4603 23.2821 15.5078 23.2747C16.5587 23.2672 17.3788 22.4327 17.3705 21.3806V21.3797ZM23.0707 21.3748C23.0617 22.4286 23.8793 23.2656 24.9285 23.2738C25.9785 23.2821 26.8201 22.4567 26.8258 21.4119C26.8316 20.3597 26.0082 19.5178 24.9656 19.5104C23.9147 19.503 23.0806 20.3243 23.0707 21.3748Z" fill="white"/>
<path d="M20.2693 29.6405C19.061 29.6174 17.9524 29.37 17.0169 28.5957C16.8702 28.4737 16.7351 28.3327 16.6164 28.1826C16.4482 27.9715 16.4458 27.7382 16.6535 27.5568C16.8587 27.3778 17.0862 27.4009 17.279 27.5963C18.5022 28.8316 19.9866 28.9132 21.56 28.5512C22.1583 28.4135 22.6908 28.1307 23.1021 27.6549C23.3023 27.4232 23.5447 27.3448 23.7837 27.5576C24.045 27.7901 23.9568 28.0482 23.7466 28.2791C22.9933 29.107 22.0125 29.4525 20.9393 29.5943C20.7086 29.6248 20.4737 29.6265 20.2693 29.6405Z" fill="white"/>
</svg>
