
<svg width="48" height="48" viewBox="0 0 48 48" fill="none" xmlns="http://www.w3.org/2000/svg">
<path d="M15.7327 42.6777L15.6767 45.7148C15.8985 45.788 16.0918 45.9299 16.2291 46.1202C16.3664 46.3106 16.4407 46.5398 16.4414 46.7751V46.8137C18.535 47.5051 20.7129 47.9025 22.914 47.9949C22.9204 47.9741 22.9285 47.9539 22.9382 47.9345L16.2847 42.4257C16.1225 42.5511 15.9349 42.6389 15.7353 42.6828L15.7327 42.6777ZM25.0121 47.9396L25.035 48C27.236 47.9075 29.414 47.51 31.5076 46.8188V46.7803C31.5083 46.5449 31.5826 46.3157 31.7199 46.1254C31.8572 45.935 32.0505 45.7932 32.2723 45.7199L32.2073 42.6777C32.0075 42.6342 31.8198 42.5464 31.658 42.4206L25.0121 47.9396ZM8.86249 42.3975C8.84733 42.4749 8.8247 42.5507 8.79493 42.6237C10.5166 44.029 12.4228 45.1873 14.4594 46.0657C14.6026 45.8944 14.7929 45.7696 15.0062 45.7071L15.0623 42.6712C14.8396 42.6132 14.6341 42.502 14.463 42.347C14.2919 42.1919 14.1604 41.9976 14.0796 41.7805L8.86249 42.3975ZM32.8867 42.6712L32.9428 45.7071C33.1556 45.7699 33.3454 45.8946 33.4883 46.0657C35.5256 45.1873 37.4323 44.0286 39.1541 42.6224C39.1239 42.55 39.1013 42.4746 39.0865 42.3975L33.8605 41.778C33.7793 41.9948 33.6476 42.1889 33.4766 42.3439C33.3056 42.4989 33.1003 42.6103 32.8778 42.6687L32.8867 42.6712ZM16.8506 41.2317V41.278C16.8507 41.4964 16.801 41.7119 16.7053 41.9078L23.3563 47.4178C23.4401 47.3627 23.5311 47.3194 23.6265 47.2892V41.1919C23.4067 41.1387 23.2023 41.034 23.0302 40.8861C22.8581 40.7383 22.7231 40.5515 22.6361 40.341L16.8506 41.2317ZM24.3034 41.1983V47.2918C24.3987 47.3214 24.4892 47.3647 24.5723 47.4203L31.2246 41.9065C31.1279 41.7114 31.0781 41.4961 31.0793 41.278V41.2317L25.2925 40.3462C25.2055 40.5565 25.0705 40.7431 24.8984 40.8908C24.7262 41.0384 24.5219 41.1429 24.3021 41.1957L24.3034 41.1983ZM12.1931 37.6432C12.0003 37.6437 11.8094 37.6043 11.6323 37.5276L8.66748 41.5209C8.71063 41.5832 8.74856 41.649 8.78091 41.7176L14.0069 41.1071C14.0466 40.7813 14.196 40.4791 14.4301 40.2511L12.8024 37.5121C12.6146 37.5993 12.41 37.6432 12.2033 37.6407L12.1931 37.6432ZM18.6555 37.4556C18.5534 37.4555 18.4518 37.4417 18.3534 37.4145L16.4758 40.2922C16.5558 40.3784 16.6256 40.4737 16.6836 40.5762L22.5469 39.6765C22.557 39.5546 22.5827 39.4345 22.6234 39.3192L19.3603 37.2024C19.1603 37.3692 18.9087 37.4601 18.6491 37.4594L18.6555 37.4556ZM33.7637 40.5441C33.8644 40.7149 33.929 40.9048 33.9536 41.1019L39.1706 41.7188C39.2619 41.5159 39.4116 41.3453 39.6002 41.2292L38.4938 36.9415H38.4709C38.2003 36.9426 37.935 36.8659 37.7061 36.7204L33.7637 40.5441ZM13.5557 36.6703C13.5045 36.8204 13.4287 36.9607 13.3313 37.0854L15.0037 39.904C15.2988 39.8132 15.615 39.82 15.9061 39.9233L17.7862 37.0456C17.6944 36.9357 17.6251 36.8086 17.5822 36.6716L13.5557 36.6703ZM25.2428 39.1226C25.3333 39.2939 25.3888 39.4819 25.4059 39.6753L31.2692 40.575C31.3532 40.4278 31.4628 40.2971 31.593 40.1894L29.5408 36.1227C29.4814 36.1326 29.4213 36.1373 29.3611 36.1369C29.1586 36.1381 28.9596 36.083 28.7862 35.9775L25.2428 39.1226ZM19.7886 36.6703L22.9918 38.755C23.2326 38.5291 23.5425 38.3926 23.8705 38.3678C24.1985 38.3431 24.5251 38.4316 24.7966 38.6188L27.8851 35.8734C26.0878 36.3875 24.0268 36.6703 21.7031 36.6703H19.7886ZM39.8921 35.313C39.9007 35.3773 39.905 35.4422 39.9048 35.5071C39.9044 35.7687 39.8329 36.0251 39.6981 36.2485C39.5632 36.4719 39.3702 36.6538 39.14 36.7744L40.2452 41.0595C40.4184 41.0694 40.5871 41.1191 40.7384 41.2047L40.964 40.9798C43.2245 38.7248 45.0144 36.0363 46.2283 33.0728C46.1642 33.0213 46.1057 32.9631 46.0536 32.8993L39.8921 35.313ZM1.72585 33.0754C2.93879 36.038 4.72733 38.726 6.98622 40.9811L7.21311 41.206C7.38075 41.1092 7.57058 41.0583 7.76376 41.0582C7.88874 41.0586 8.01281 41.0798 8.13087 41.1212L11.0982 37.124C10.9554 36.9549 10.854 36.7543 10.8024 36.5383C10.7508 36.3224 10.7504 36.0972 10.8012 35.8811L1.92978 32.8607C1.8705 32.9402 1.80205 33.0122 1.72585 33.0754ZM32.9033 33.3003C32.1592 33.9172 31.3465 34.4447 30.4815 34.8722C30.4815 34.9159 30.4891 34.9583 30.4891 35.0007C30.4892 35.1505 30.4592 35.2988 30.4009 35.4367C30.3427 35.5745 30.2573 35.699 30.1501 35.8027L32.2022 39.8719C32.3097 39.8472 32.4196 39.8347 32.5298 39.8346C32.8002 39.8349 33.0651 39.9115 33.2946 40.0557L37.2357 36.232C37.119 36.0344 37.0515 35.8113 37.0388 35.5816C37.0262 35.352 37.0688 35.1227 37.1631 34.9133L34.8292 32.7527C34.6605 32.8518 34.4688 32.9041 34.2735 32.9044C34.0288 32.9048 33.7906 32.8244 33.5954 32.6756C33.3762 32.8916 33.1455 33.0998 32.9058 33.2977L32.9033 33.3003ZM41.7275 29.6038C41.6268 29.6041 41.5264 29.5933 41.428 29.5717L39.3338 34.3645C39.4525 34.4557 39.5572 34.564 39.6448 34.6858L45.8076 32.2733C45.8063 32.2481 45.8063 32.2228 45.8076 32.1975C45.8076 32.0659 45.8309 31.9353 45.8765 31.8119L42.6236 29.2915C42.3704 29.4959 42.0557 29.6074 41.7314 29.6077L41.7275 29.6038ZM2.02027 31.6641C2.10536 31.8273 2.14915 32.0092 2.14773 32.1936V32.2194L11.1071 35.2693C11.1469 35.2214 11.1895 35.1759 11.2346 35.1331L6.42284 28.555C6.21611 28.6413 5.99232 28.678 5.76913 28.6622C5.54594 28.6463 5.32947 28.5784 5.13676 28.4638L2.02027 31.6641ZM36.4901 27.9844H36.4353C36.1121 29.0381 35.6375 30.0383 35.0268 30.9534C35.2041 31.1142 35.3247 31.3287 35.3707 31.5647C35.4167 31.8006 35.3855 32.0453 35.2817 32.2618L37.5761 34.3825C37.8298 34.1792 38.1443 34.0687 38.4683 34.0689C38.5538 34.0695 38.639 34.0772 38.7232 34.092L40.8251 29.2799C40.6596 29.1462 40.5261 28.9765 40.4345 28.7836C40.343 28.5907 40.2957 28.3795 40.2961 28.1656L37.4359 27.4664C37.3344 27.6266 37.1945 27.7584 37.0293 27.8498C36.864 27.9412 36.6786 27.9893 36.4901 27.9895V27.9844ZM7.27557 26.9484C7.29316 27.0417 7.30257 27.1363 7.30363 27.2312C7.30351 27.5713 7.1833 27.9003 6.96456 28.1592L11.8387 34.8156C11.9556 34.7846 12.0761 34.7694 12.1969 34.7706V25.302C11.9552 25.2593 11.734 25.1379 11.5672 24.9562L7.27557 26.9484ZM42.9295 27.3944C43.0597 27.5944 43.1375 27.8243 43.1555 28.0628C43.1736 28.3013 43.1314 28.5406 43.0328 28.7581L46.2843 31.2798C46.4715 31.1489 46.6939 31.079 46.9216 31.0793H46.9382C47.6432 28.7855 48.0012 26.3976 48 23.9961C48 23.482 47.9843 22.9752 47.9528 22.4757C47.8672 22.4566 47.7842 22.4273 47.7055 22.3883L42.9295 27.3944ZM0.0025524 22.4718V25.6349C0.12595 27.4823 0.463901 29.3088 1.0095 31.0767H1.02733C1.20199 31.0774 1.37422 31.1183 1.53083 31.1963L4.65495 27.9921C4.51492 27.7718 4.43827 27.5166 4.43354 27.2549C4.42881 26.9933 4.49617 26.7355 4.62816 26.5102L0.285516 22.3703C0.196455 22.4215 0.100181 22.4588 0 22.4808L0.0025524 22.4718ZM37.3288 26.1464C37.4908 26.3345 37.5851 26.5723 37.5965 26.8212L40.4453 27.5114C40.5345 27.3395 40.6571 27.1874 40.8058 27.0642C40.9545 26.941 41.1262 26.8492 41.3107 26.7942L41.0418 21.6826C40.937 21.6646 40.8347 21.634 40.7372 21.5914L37.3288 26.1464ZM6.82054 21.7019L6.35529 25.8868C6.60525 25.977 6.82575 26.1348 6.9926 26.3431L11.2805 24.3522C11.2743 24.3044 11.2713 24.2563 11.2715 24.2082C11.2705 24.0979 11.2868 23.9882 11.32 23.883L7.60698 21.342C7.38923 21.5397 7.11644 21.6649 6.82565 21.7006L6.82054 21.7019ZM0.8591 21.549C0.841457 21.664 0.807091 21.7757 0.757123 21.8806L5.09086 26.0269C5.27125 25.9122 5.47447 25.8389 5.68611 25.8122L6.15136 21.6261C5.96447 21.5587 5.79343 21.453 5.64907 21.3156C5.50472 21.1782 5.39018 21.0122 5.31265 20.8279L0.8591 21.549ZM41.7186 21.6518L41.9876 26.7646C42.1487 26.7941 42.3035 26.8515 42.4452 26.9343L47.2225 21.9281C47.1563 21.8116 47.1131 21.6833 47.095 21.5503L42.6338 20.8318C42.5506 21.0279 42.4255 21.2032 42.2676 21.3451C42.1097 21.4871 41.9227 21.5922 41.7199 21.6531L41.7186 21.6518ZM36.1867 18.9437C36.7583 20.4933 37.0413 22.136 37.0216 23.7892V23.8599C37.0213 24.4297 36.9902 24.9991 36.9286 25.5655L40.2018 21.1955C39.9873 20.9397 39.8699 20.6154 39.8704 20.2804C39.8704 20.2245 39.8742 20.1687 39.8819 20.1133L36.3257 18.7985C36.2827 18.8508 36.2363 18.9002 36.1867 18.9463V18.9437ZM20.4412 18.5144V29.4817H22.1607C26.1376 29.4817 28.7047 27.8288 28.7047 24.0321V23.9627C28.7047 22.1338 28.0916 20.7971 27.0005 19.8974C25.8533 18.9527 24.1874 18.5144 22.1569 18.5144H20.4412ZM37.0853 13.6972H37.0305L36.0529 17.1675C36.2082 17.2685 36.3361 17.407 36.4251 17.5703C36.5141 17.7337 36.5614 17.9168 36.5627 18.1031V18.1571L40.119 19.4745C40.1868 19.371 40.2688 19.2775 40.3624 19.1969L37.4448 13.6522C37.3293 13.6814 37.2107 13.6961 37.0917 13.6959L37.0853 13.6972ZM7.71151 19.3113C7.94894 19.5748 8.08068 19.918 8.08114 20.274C8.08153 20.4495 8.05044 20.6237 7.98937 20.7881L11.7036 23.3265C11.8481 23.2132 12.0179 23.1373 12.1982 23.1054V13.2448C12.1027 13.2231 12.01 13.1908 11.9216 13.1484L7.71151 19.3113ZM0.224336 20.3665C0.452259 20.4746 0.638581 20.6552 0.754572 20.8806L5.21577 20.1634C5.22942 19.9625 5.28549 19.7668 5.38024 19.5895C5.47498 19.4121 5.60622 19.2573 5.76515 19.1352L2.97241 12.9877C2.93 12.9912 2.88737 12.9912 2.84495 12.9877C2.77309 12.9891 2.70131 12.9826 2.63082 12.9685C1.42623 15.2819 0.609633 17.7804 0.21413 20.3627L0.224336 20.3665ZM45.104 12.9877C45.0616 12.9901 45.019 12.9901 44.9766 12.9877L42.1915 19.1468C42.3498 19.2695 42.4805 19.4245 42.5752 19.6017C42.6699 19.7789 42.7263 19.9743 42.7409 20.175L47.2021 20.8922C47.3158 20.6656 47.5023 20.4844 47.7311 20.3781C47.3393 17.7944 46.5266 15.2938 45.3258 12.9775C45.2545 12.9879 45.1824 12.9914 45.1104 12.9877H45.104ZM31.4604 13.453V13.4659C32.9815 14.3209 34.2723 15.5378 35.2206 17.0107C35.2835 16.9975 35.3475 16.9902 35.4118 16.9888L36.3907 13.5186C36.1083 13.3598 35.8877 13.1093 35.7648 12.8078L31.4604 13.453ZM38.5015 12.5315C38.4404 12.8459 38.2776 13.1311 38.0388 13.3425L40.9577 18.8846C41.1607 18.8356 41.3716 18.8295 41.5771 18.8666L44.3635 12.705C44.2279 12.5831 44.1234 12.4302 44.0588 12.259L38.5015 12.5315ZM3.91056 12.1793C3.8501 12.378 3.73627 12.5559 3.58169 12.6934L6.36804 18.8627C6.62846 18.814 6.89708 18.8371 7.14555 18.9296L11.3888 12.7307C11.2315 12.5277 11.1327 12.2848 11.1033 12.0289L3.91056 12.1793ZM31.2004 7.13458L30.7747 12.2384C31.0271 12.3431 31.2335 12.5361 31.3559 12.7821L35.6565 12.1395C35.6774 11.9025 35.7567 11.6745 35.8872 11.4763L31.6809 6.97778C31.5308 7.06284 31.3667 7.11988 31.1965 7.14615L31.2004 7.13458ZM16.9602 7.16414C16.7661 7.1642 16.5739 7.12441 16.3955 7.04718L13.5519 10.8503C13.6841 10.9854 13.7889 11.1452 13.8603 11.3207H21.9772C22.2079 11.3207 22.436 11.3207 22.6604 11.3284L17.7722 6.90194C17.5343 7.06629 17.2524 7.15371 16.964 7.15257L16.9602 7.16414ZM24.8056 11.1369C24.8465 11.2431 24.8714 11.3549 24.8795 11.4685C26.4594 11.6266 28.0132 11.9855 29.5038 12.5366C29.6606 12.3568 29.8699 12.2317 30.1016 12.1793L30.5286 7.07674C30.3767 7.02566 30.2342 6.94967 30.1067 6.85182L24.8056 11.1369ZM6.98242 7.01119C5.73555 8.2561 4.62804 9.63533 3.67984 11.1241C3.77741 11.237 3.85229 11.368 3.90035 11.5097L11.1849 11.3541C11.2851 11.0859 11.4627 10.854 11.6947 10.6884L9.35577 5.73106C9.30544 5.73722 9.25479 5.74022 9.2041 5.74005C8.98201 5.74037 8.76475 5.67465 8.57951 5.55112C8.02632 6.01382 7.49228 6.50094 6.98242 7.01119ZM38.8481 5.73491L37.7112 10.9673C37.8906 11.0547 38.0499 11.1788 38.1792 11.3317C38.3084 11.4846 38.4047 11.663 38.4619 11.8554L44.0219 11.5829C44.066 11.4142 44.149 11.2583 44.264 11.1279C43.3157 9.63927 42.2083 8.26005 40.9615 7.01505C40.4516 6.50094 39.9176 6.01639 39.3644 5.55497C39.2084 5.65885 39.0293 5.72201 38.8431 5.73877L38.8481 5.73491ZM9.96377 5.44187L12.3231 10.4352C12.391 10.4249 12.4596 10.4197 12.5283 10.4198C12.6811 10.4204 12.8328 10.4447 12.9783 10.4917L15.8589 6.63589C15.6769 6.41728 15.5642 6.14865 15.5352 5.86472L10.2136 5.11284C10.1518 5.24151 10.0651 5.35644 9.95867 5.45087L9.96377 5.44187ZM32.4087 5.85573C32.3857 6.08888 32.3061 6.3127 32.1767 6.50736L36.383 11.0058C36.5888 10.8903 36.8193 10.8268 37.0548 10.8208L38.1879 5.58839C37.9901 5.47561 37.8309 5.30482 37.7316 5.0987L32.4087 5.85573ZM18.2387 5.05628C18.3461 5.26496 18.401 5.49707 18.3986 5.73218C18.3961 5.96728 18.3364 6.19818 18.2247 6.40454L23.0007 10.7308C23.1274 10.6117 23.2796 10.5238 23.4455 10.4737L23.6176 0.705618C23.5364 0.678882 23.4585 0.642647 23.3856 0.597654L18.2387 5.05628ZM24.2893 0.713329L24.1185 10.4879C24.211 10.5205 24.2996 10.5636 24.3824 10.6164L29.681 6.33257C29.5857 6.13285 29.538 5.91344 29.5418 5.69183C29.5456 5.47023 29.6007 5.25259 29.7027 5.05628L24.5596 0.592513C24.4759 0.645229 24.3854 0.685895 24.2906 0.713329H24.2893ZM10.2697 4.26584C10.2886 4.32147 10.3027 4.37867 10.3117 4.43678L15.6333 5.18867C15.7043 5.01184 15.8092 4.85085 15.942 4.7149C16.0747 4.57896 16.2327 4.47071 16.4069 4.39635C16.5812 4.32199 16.7682 4.28298 16.9574 4.28153C17.1466 4.28009 17.3342 4.31625 17.5096 4.38794C17.6121 4.42932 17.7096 4.48236 17.8002 4.54603L22.9459 0.0848283C22.9331 0.0565522 22.9229 0.0295614 22.9127 0C18.3829 0.190872 13.999 1.66974 10.2671 4.26584H10.2697ZM25.0006 0.0848283L30.1475 4.5486C30.4607 4.32705 30.8482 4.23984 31.2251 4.3061C31.6019 4.37237 31.9373 4.5867 32.1576 4.90205C32.22 4.99252 32.2725 5.08947 32.3144 5.19124L37.636 4.43935C37.645 4.38124 37.6591 4.32404 37.678 4.26841C33.9457 1.6738 29.5619 0.196297 25.0324 0.00642629C25.0222 0.0359877 25.012 0.0629785 24.9993 0.0912546" fill="#0E76BB"/>
</svg>
