<svg width="36" height="23" viewBox="0 0 36 23" fill="none" xmlns="http://www.w3.org/2000/svg">
<path d="M23.4821 11.5C23.4821 10.9366 23.3986 10.4076 23.2318 9.90148C22.7905 10.8446 21.8244 11.5 20.6795 11.5L20.3815 11.4771L20.143 11.5C18.9026 11.5 17.8889 10.5112 17.8889 9.30345L17.9009 9.07359L17.8889 8.78599C17.8889 7.69354 18.5688 6.75057 19.5347 6.3251C19.0099 6.164 18.4614 6.08366 17.8889 6.08366C14.8001 6.08366 12.2956 8.51005 12.2956 11.5001C12.2956 14.49 14.8001 16.9052 17.8889 16.9052C20.9778 16.9052 23.4821 14.49 23.4821 11.5ZM35.7778 11.5C35.7778 11.5 29.636 0 17.8292 0C6.07026 0 0 11.5 0 11.5C0 11.5 6.58299 23 17.9128 23C29.6239 23 35.7778 11.5 35.7778 11.5ZM9.58841 11.5C9.58841 7.06097 13.2974 3.46159 17.8889 3.46159C22.4804 3.46159 26.1892 7.06097 26.1892 11.5C26.1892 15.939 22.4804 19.5386 17.8889 19.5386C13.2974 19.5386 9.58841 15.939 9.58841 11.5Z" fill="#0E76BB"/>
</svg>
