<svg width="24" height="24" viewBox="0 0 24 24" fill="none" xmlns="http://www.w3.org/2000/svg">
<path d="M10.8662 11.2841H9.28138V12.4717H10.8662V11.2841Z" fill="white"/>
<path d="M20.4786 3.51724C18.2152 1.25379 15.2028 0 12 0C8.79724 0 5.78483 1.25379 3.52138 3.51724C1.25379 5.78069 0.00413793 8.7931 0 12C0 15.2028 1.25379 18.2152 3.51724 20.4828C5.78069 22.7503 8.7931 24 12 24C15.2028 24 18.2152 22.7462 20.4828 20.4786C22.7462 18.211 23.9959 15.1986 24 11.9959C23.9959 8.7931 22.7462 5.78069 20.4786 3.51724ZM8.23448 14.6193L5.04414 16.2248C4.96552 16.2662 4.87862 16.2828 4.79172 16.2828C4.73793 16.2828 4.68414 16.2745 4.63034 16.2579C4.49379 16.2166 4.37793 16.1297 4.30345 16.0055C4.23724 15.8897 4.22069 15.7614 4.24552 15.6372L4.86207 12.8483C4.36966 12.3807 3.96828 11.8345 3.66621 11.2262C3.33517 10.5517 3.15724 9.80276 3.15724 9.05379C3.15724 7.49379 3.88966 6.0331 5.22207 4.94069C6.60414 3.84414 8.33379 3.25241 10.0966 3.27724C11.8469 3.26069 13.5848 3.84414 14.9628 4.94069C16.2993 6.03724 17.0317 7.49793 17.0317 9.05793C17.0317 10.6179 16.2993 12.0786 14.9669 13.171C13.5848 14.2676 11.8552 14.8593 10.0924 14.8345C9.74069 14.8345 9.38897 14.8097 9.04552 14.7641C8.77655 14.731 8.50345 14.6814 8.23448 14.6193ZM19.3697 15.9062C19.1338 16.3862 18.8193 16.8166 18.4386 17.189L18.9145 19.349C18.9434 19.4731 18.9228 19.6055 18.8607 19.7172C18.7862 19.8455 18.6662 19.9366 18.5297 19.9738C18.4759 19.9903 18.4221 19.9945 18.3724 19.9945C18.2855 19.9945 18.1986 19.9738 18.12 19.9324L15.6207 18.6745C15.4055 18.72 15.2028 18.7572 15.0041 18.7821C14.7145 18.8193 14.4124 18.8317 14.1269 18.8359C13.1959 18.8359 12.2524 18.629 11.4041 18.24C10.5848 17.8676 9.86897 17.2841 9.33103 16.5559C9.28966 16.4979 9.25655 16.4317 9.24 16.3614C9.22345 16.291 9.22345 16.2166 9.24 16.1462C9.25241 16.0759 9.28138 16.0097 9.32276 15.9476C9.36414 15.8897 9.41793 15.84 9.48 15.7986C9.59586 15.7241 9.74069 15.6952 9.88552 15.72C10.0262 15.7448 10.1545 15.8234 10.2372 15.9393C10.6634 16.5145 11.2303 16.9697 11.8841 17.2634C12.5917 17.5903 13.3614 17.76 14.1559 17.7517C14.3793 17.7517 14.6276 17.7393 14.8634 17.7103C15.0952 17.6814 15.3269 17.6359 15.5545 17.5779C15.6869 17.5448 15.8317 17.5572 15.9517 17.6193L17.5945 18.4469L17.3007 17.1062C17.28 17.011 17.2841 16.9159 17.3172 16.8248C17.3462 16.7338 17.4041 16.6552 17.4786 16.5931C17.8552 16.2703 18.1614 15.8855 18.3807 15.4386C18.5793 15.0331 18.6869 14.5779 18.6869 14.1228C18.6869 13.6717 18.5834 13.2207 18.3848 12.8152C18.1655 12.3724 17.8634 11.9876 17.491 11.6648C17.4372 11.6193 17.3917 11.5614 17.3586 11.4952C17.3255 11.429 17.309 11.3628 17.3048 11.2883C17.3048 11.2138 17.3131 11.1434 17.3379 11.0772C17.3628 11.011 17.4041 10.949 17.4538 10.8993C17.5531 10.7959 17.6897 10.7379 17.8345 10.7297C17.9752 10.7214 18.1159 10.771 18.2276 10.8621C18.7117 11.2841 19.0966 11.789 19.3779 12.3641C19.6469 12.9103 19.7876 13.5186 19.7876 14.1269C19.7876 14.7393 19.6428 15.3517 19.3738 15.9021L19.3697 15.9062Z" fill="white"/>
<path d="M14.2428 5.76828C13.0676 4.84552 11.5945 4.34483 10.0966 4.36966C10.0634 4.36966 10.0345 4.36966 10.0014 4.36966C8.52828 4.36966 7.08828 4.87035 5.93379 5.78069C4.85793 6.66207 4.26207 7.8331 4.26207 9.07035C4.26207 9.65793 4.40276 10.2497 4.65931 10.7752C4.94483 11.3503 5.34207 11.8552 5.83035 12.269C5.90069 12.331 5.95862 12.4097 5.98759 12.5007C6.01655 12.5917 6.02483 12.691 6.00414 12.7821L5.56966 14.7559L8.20552 13.4276V13.5145C8.23448 13.5145 8.26345 13.5186 8.28828 13.5228C8.58621 13.6014 8.88 13.6593 9.17379 13.7007C9.47172 13.7379 9.78621 13.7628 10.08 13.7545C11.5779 13.771 13.0593 13.2745 14.2386 12.3476C15.3145 11.4745 15.9062 10.3076 15.9062 9.05793C15.9062 7.80828 15.3103 6.64966 14.2345 5.76414L14.2428 5.76828ZM10.8662 12.4717H9.28138V11.2841H10.8662V12.4717ZM12.3269 8.17655C12.2069 8.4 12.0497 8.6069 11.8552 8.7931L11.1559 9.52552C11.0483 9.62897 10.9614 9.74483 10.8952 9.8731C10.8455 9.99724 10.8248 10.1255 10.829 10.2538V10.651H9.33103V10.171C9.32276 9.97241 9.35172 9.77793 9.41793 9.58759C9.51724 9.3931 9.65379 9.21104 9.82345 9.04966L10.4855 8.38345C10.6179 8.25517 10.7338 8.11448 10.8248 7.96552C10.891 7.84966 10.9241 7.72138 10.9241 7.5931C10.9283 7.50621 10.9159 7.41931 10.8786 7.33655C10.8414 7.25379 10.7876 7.17931 10.7131 7.11724C10.6262 7.05517 10.5228 7.00552 10.411 6.97655C10.2993 6.94759 10.1834 6.93517 10.0676 6.94345C9.95172 6.93103 9.83586 6.94345 9.72414 6.97241C9.61241 7.00138 9.5131 7.05104 9.42621 7.11724C9.27724 7.27862 9.20276 7.4731 9.21517 7.67586H7.75448C7.77517 7.08414 7.98621 6.63724 8.38759 6.33103C8.78897 6.02483 9.36414 5.86759 10.1131 5.86759C10.5393 5.85931 10.9655 5.93379 11.3503 6.08276C11.6897 6.21517 11.9793 6.42207 12.1779 6.68276C12.3724 6.94345 12.4759 7.24552 12.4676 7.55172C12.4676 7.7669 12.4221 7.97793 12.3228 8.17655H12.3269Z" fill="white"/>
</svg>
