<svg width="63" height="39" viewBox="0 0 63 39" fill="none" xmlns="http://www.w3.org/2000/svg">
<path d="M28.6589 17.9121H26.598C26.527 17.6102 26.4756 16.9905 26.4532 16.6248C25.9778 17.7653 24.9831 18.1627 23.8764 18.1627C21.353 18.1627 20.5409 16.3362 20.5409 13.4306V5.37859C20.5409 2.57817 21.631 0.517578 24.6105 0.517578C28.2111 0.517578 28.5911 3.16439 28.5911 5.00489V5.5614H25.9471V4.87546C25.9471 3.9712 25.8156 2.92643 24.6074 2.92643C23.6448 2.92643 23.2333 3.59272 23.2333 4.96158V13.7317C23.2333 15.1041 23.6304 15.8215 24.586 15.8215C25.7323 15.8215 26.0118 14.8619 26.0118 13.0994V10.5969H24.512V8.32354H28.6589V17.9121Z" fill="black"/>
<rect x="31.4547" y="0.768555" width="2.64404" height="17.144" fill="black"/>
<path d="M44.8278 17.9121H42.767C42.696 17.6102 42.6446 16.9905 42.6222 16.6248C42.1467 17.7653 41.1521 18.1627 40.0453 18.1627C37.5219 18.1627 36.7098 16.3362 36.7098 13.4306V5.37859C36.7098 2.57817 37.7999 0.517578 40.7794 0.517578C44.3801 0.517578 44.7601 3.16439 44.7601 5.00489V5.5614H42.116V4.87546C42.116 3.9712 41.9846 2.92643 40.7764 2.92643C39.8137 2.92643 39.4022 3.59272 39.4022 4.96158V13.7317C39.4022 15.1041 39.7993 15.8215 40.755 15.8215C41.9012 15.8215 42.1807 14.8619 42.1807 13.0994V10.5969H40.6809V8.32354H44.8278V17.9121Z" fill="black"/>
<path d="M50.1627 13.3262L49.5624 17.9125H46.873L49.6347 0.768555H53.3703L56.2375 17.9125H53.4743L52.7999 13.3262H50.1627ZM52.4877 10.8947C52.0959 7.98326 51.7212 5.21961 51.5248 3.28115H51.4286C51.3545 4.69382 50.8393 8.36476 50.4973 10.8947H52.4877Z" fill="black"/>
<path d="M20.5407 21.416H27.219V23.8702H23.1845V28.3802H27.0274V30.8343H23.1845V38.56H20.5407V21.416Z" fill="black"/>
<rect x="29.4208" y="21.416" width="2.64379" height="17.144" fill="black"/>
<path d="M35.0411 21.416H38.5609C41.529 21.416 42.6695 22.805 42.6695 25.3191V25.9494C42.6695 28.3814 41.8275 29.0835 41.078 29.3945C41.843 29.6994 42.9868 30.3388 42.9868 32.8335V34.1334C42.9868 37.0325 41.7784 38.56 38.7941 38.56H35.0411V21.416ZM38.2628 28.3965C39.7414 28.3965 40.1839 27.9398 40.1839 26.24V25.5707C40.1839 24.1479 39.6775 23.599 38.4131 23.599H37.5947V28.3965H38.2628ZM37.5947 36.3994H38.4778C40.0038 36.3994 40.3851 35.7251 40.3851 34.0656V32.9242C40.3851 31.2519 39.961 30.5344 38.2761 30.5344H37.5947V36.3994Z" fill="black"/>
<path d="M51.7238 30.7276H47.9551V36.1275H52.2984L51.9638 38.5593H45.3109V21.415H51.932V23.8692H47.9551V28.2961H51.7238V30.7276Z" fill="black"/>
<path d="M56.8584 30.8935V38.56H54.2141V21.416H57.8765C60.4853 21.416 62.0251 22.4608 62.0251 25.547V26.2C62.0251 28.8342 60.9438 29.5045 60.2801 29.7765C61.28 30.2456 61.8519 30.9663 61.8519 33.2925C61.8519 34.7357 61.826 37.521 62.0088 38.56H59.4551C59.227 37.5243 59.2756 34.7082 59.2756 33.4628C59.2756 31.3727 59.0064 30.8935 57.4718 30.8935H56.8584ZM56.8584 28.7105H57.4648C58.8639 28.7105 59.3781 28.1833 59.3781 26.3188V25.7309C59.3781 24.4055 59.1041 23.599 57.6056 23.599H56.8584V28.7105Z" fill="black"/>
<path d="M16.8954 10.5964H5.62219C4.99442 10.5964 4.4855 10.0874 4.4855 9.45968C4.4855 8.83191 4.99442 8.32324 5.62219 8.32324H16.8954C16.918 8.32324 16.9367 8.34163 16.9367 8.36429V10.5551C16.9367 10.578 16.918 10.5964 16.8954 10.5964Z" fill="white"/>
<path d="M16.7921 6.04558H1.23434C0.606571 6.04558 0.0976562 5.53667 0.0976562 4.9089C0.0976562 4.28112 0.606571 3.77246 1.23434 3.77246H16.7921C16.872 3.77246 16.9367 3.83718 16.9367 3.917V5.90079C16.9367 5.98087 16.872 6.04558 16.7921 6.04558Z" fill="white"/>
<path d="M17.0326 15.1568H10.0871C9.45831 15.1568 8.94864 14.6471 8.94864 14.0183C8.94864 13.3896 9.45831 12.8799 10.0871 12.8799H17.0326C17.055 12.8799 17.0739 12.8983 17.0739 12.9212V15.1155C17.0739 15.1384 17.055 15.1568 17.0326 15.1568Z" fill="white"/>
</svg>
