<svg width="104" height="32" viewBox="0 0 104 32" fill="none" xmlns="http://www.w3.org/2000/svg">
<g id="Group 935">
<rect id="Rectangle 405" x="1" y="1" width="102" height="30" rx="5" fill="white" stroke="#0E76BB" stroke-width="0.5"/>
<g id="Vector">
<path d="M23.3161 15.23C23.2941 12.7996 25.3429 11.6169 25.4361 11.5622C24.2758 9.90132 22.4769 9.67368 21.845 9.65588C20.3336 9.49945 18.8689 10.5436 18.0997 10.5436C17.3304 10.5436 16.1299 9.67114 14.8517 9.69657C13.2083 9.72201 11.671 10.6555 10.8267 12.1065C9.08612 15.0646 10.3838 19.4115 12.0518 21.8024C12.8858 22.9736 13.861 24.281 15.1366 24.2352C16.385 24.1856 16.8512 23.4544 18.3574 23.4544C19.8635 23.4544 20.287 24.2352 21.5885 24.206C22.9276 24.1856 23.772 23.0296 24.5762 21.8481C25.5397 20.5064 25.927 19.1838 25.9425 19.1164C25.9114 19.1062 23.342 18.1423 23.3161 15.23ZM20.8581 8.08272C21.529 7.25863 21.9887 6.13694 21.8618 5C20.8905 5.04197 19.6758 5.66004 18.9751 6.46633C18.3561 7.17724 17.8031 8.34089 17.9456 9.43586C19.0373 9.51598 20.1575 8.89537 20.8581 8.08399V8.08272Z" fill="#0E76BB"/>
<path d="M41.3938 24.0673H39.6493L38.6936 21.1194H35.3731L34.4626 24.0673H32.7648L36.0556 14.0332H38.0875L41.3938 24.0673ZM38.4061 19.8833L37.5423 17.2635C37.4503 16.9964 37.2794 16.3656 37.0268 15.3737H36.9958C36.8948 15.801 36.7329 16.4305 36.5101 17.2635L35.6606 19.8833H38.4061ZM49.8414 20.3602C49.8414 21.5912 49.5008 22.5629 48.8196 23.2776C48.2096 23.9135 47.452 24.2301 46.5481 24.2301C45.5716 24.2301 44.8697 23.888 44.4436 23.2038V27H42.8067V19.208C42.8067 18.4348 42.7859 17.6425 42.7458 16.8298H44.1859L44.2778 17.9769H44.3089C44.8554 17.1134 45.6843 16.681 46.7954 16.681C47.6644 16.681 48.3909 17.018 48.9711 17.6933C49.5513 18.3699 49.8427 19.2576 49.8427 20.3602H49.8414ZM48.1733 20.4187C48.1733 19.7141 48.0115 19.1342 47.6877 18.6764C47.3341 18.2008 46.8576 17.9629 46.2618 17.9629C45.8578 17.9629 45.4913 18.0952 45.1623 18.3572C44.8334 18.6217 44.6184 18.9651 44.5174 19.3924C44.4721 19.5526 44.4475 19.7167 44.441 19.882V21.0889C44.441 21.6141 44.6055 22.058 44.9344 22.4217C45.2634 22.7841 45.6907 22.9647 46.2152 22.9647C46.8317 22.9647 47.3121 22.7307 47.6553 22.2653C47.9998 21.7985 48.172 21.183 48.172 20.4187H48.1733ZM58.3188 20.3602C58.3188 21.5912 57.9782 22.5629 57.297 23.2776C56.687 23.9135 55.9294 24.2301 55.0242 24.2301C54.0477 24.2301 53.3458 23.888 52.9197 23.2038V27H51.2828V19.208C51.2828 18.4348 51.262 17.6425 51.2219 16.8298H52.662L52.7539 17.9769H52.785C53.3302 17.1134 54.1591 16.681 55.2715 16.681C56.1405 16.681 56.8657 17.018 57.4485 17.6933C58.0274 18.3699 58.3201 19.2576 58.3201 20.3602H58.3188ZM56.6495 20.4187C56.6495 19.7141 56.4876 19.1342 56.1638 18.6764C55.8103 18.2008 55.3363 17.9629 54.7393 17.9629C54.3352 17.9629 53.9687 18.0952 53.6385 18.3572C53.3095 18.6217 53.0958 18.9651 52.9948 19.3924C52.9443 19.5921 52.9184 19.7536 52.9184 19.882V21.0889C52.9184 21.6141 53.0842 22.058 53.4105 22.4217C53.7395 22.7829 54.1668 22.9647 54.6926 22.9647C55.3104 22.9647 55.7895 22.7307 56.1327 22.2653C56.4772 21.7985 56.6495 21.183 56.6495 20.4187ZM67.796 21.2517C67.796 22.1063 67.4916 22.8007 66.8868 23.3361C66.2212 23.9211 65.2926 24.2149 64.1025 24.2149C63.003 24.2149 62.121 24.0063 61.4554 23.5892L61.8335 22.2487C62.5523 22.6659 63.341 22.8744 64.1996 22.8744C64.8173 22.8744 65.2965 22.7371 65.6397 22.4649C65.9829 22.1915 66.1564 21.8265 66.1564 21.3712C66.1564 20.963 66.0127 20.6222 65.7303 20.3437C65.4467 20.0664 64.9779 19.807 64.32 19.5704C62.5303 18.9155 61.6354 17.9566 61.6354 16.6963C61.6354 15.8735 61.9514 15.1982 62.5834 14.6717C63.2154 14.1452 64.052 13.8819 65.0932 13.8819C66.023 13.8819 66.7988 14.0409 67.4139 14.3588L67.0034 15.6687C66.4245 15.3609 65.7705 15.2071 65.0401 15.2071C64.4625 15.2071 64.0092 15.347 63.6855 15.6242C63.4122 15.8722 63.2749 16.1749 63.2749 16.5335C63.2749 16.929 63.4329 17.2584 63.7463 17.5166C64.0183 17.7544 64.5143 18.0125 65.2318 18.2898C66.1124 18.6382 66.7586 19.0439 67.173 19.5094C67.59 19.9749 67.7972 20.5573 67.7972 21.2491L67.796 21.2517ZM73.2235 18.0367H71.4182V21.5493C71.4182 22.4433 71.7368 22.8884 72.3739 22.8884C72.6666 22.8884 72.9088 22.8643 73.1018 22.8134L73.1471 24.0343C72.8246 24.1526 72.3999 24.2123 71.8741 24.2123C71.2278 24.2123 70.7215 24.019 70.3576 23.6311C69.9936 23.2433 69.811 22.5947 69.811 21.6803V18.0329H68.7362V16.826H69.811V15.5008L71.4195 15.0239V16.8247H73.2248V18.0342L73.2235 18.0367ZM81.3512 20.3882C81.3512 21.501 81.0275 22.4141 80.38 23.1275C79.7039 23.8626 78.8026 24.2289 77.6811 24.2289C76.5595 24.2289 75.7372 23.8766 75.0949 23.1733C74.4525 22.4688 74.1313 21.5798 74.1313 20.509C74.1313 19.4382 74.4629 18.4691 75.1246 17.7557C75.7877 17.0409 76.68 16.6836 77.8015 16.6836C78.923 16.6836 79.7519 17.0358 80.4085 17.7404C81.0366 18.4233 81.3499 19.3059 81.3499 20.3882H81.3512ZM79.6534 20.4251C79.6534 19.7625 79.5071 19.194 79.2144 18.7184C78.8712 18.1435 78.3791 17.8561 77.7432 17.8561C77.1074 17.8561 76.5842 18.1435 76.2423 18.7184C75.9483 19.194 75.8032 19.7726 75.8032 20.4556C75.8032 21.1385 75.9496 21.6892 76.2423 22.1635C76.5958 22.7384 77.0905 23.0258 77.7303 23.0258C78.37 23.0258 78.8466 22.732 79.2015 22.1495C79.5019 21.6625 79.6534 21.0902 79.6534 20.4263V20.4251ZM86.6752 18.244C86.5042 18.2135 86.332 18.1995 86.1585 18.1995C85.5822 18.1995 85.1367 18.4119 84.8233 18.8405C84.5513 19.2169 84.414 19.6938 84.414 20.2699V24.0661H82.7771V19.1088C82.7784 18.3496 82.7629 17.5903 82.7292 16.8311H84.155L84.2146 18.216H84.2599C84.4335 17.7404 84.7054 17.3563 85.0784 17.0689C85.4203 16.8184 85.8347 16.6823 86.2621 16.681C86.4136 16.681 86.5496 16.6912 86.6713 16.7103V18.244H86.6752ZM93.9987 20.1058C94.0026 20.35 93.9832 20.5942 93.9391 20.8346H89.027C89.0452 21.5493 89.2834 22.0974 89.7393 22.4738C90.1537 22.8096 90.6886 22.9787 91.3464 22.9787C92.0743 22.9787 92.7373 22.8655 93.3344 22.6366L93.5908 23.7519C92.8927 24.0508 92.0704 24.1996 91.1198 24.1996C89.9776 24.1996 89.0801 23.8689 88.4274 23.2102C87.776 22.5501 87.4496 21.6637 87.4496 20.5535C87.4496 19.4433 87.7527 18.5543 88.3601 17.8294C88.9959 17.0562 89.8559 16.6696 90.9372 16.6696C92.0186 16.6696 92.8034 17.0562 93.3499 17.8294C93.7824 18.4424 94 19.2029 94 20.1046L93.9987 20.1058ZM92.4369 19.6887C92.4485 19.2118 92.341 18.801 92.1183 18.4526C91.8347 18.0049 91.3982 17.7811 90.8142 17.7811C90.2793 17.7811 89.8429 17.9986 89.5114 18.436C89.2381 18.7832 89.0762 19.2016 89.027 19.6862H92.4369V19.6887Z" fill="#0E76BB"/>
<path d="M34.9004 10.4851C34.4445 10.4851 34.0508 10.4634 33.7232 10.4266V5.57483C34.1816 5.50488 34.6452 5.47055 35.1089 5.47182C36.9867 5.47182 37.8518 6.37858 37.8518 7.85762C37.8518 9.56304 36.83 10.4851 34.9004 10.4851ZM35.1749 6.0937C34.9211 6.0937 34.7061 6.10897 34.5261 6.14457V9.83265C34.6232 9.84791 34.8084 9.85427 35.07 9.85427C36.3003 9.85427 37.0009 9.16625 37.0009 7.87924C37.0009 6.73085 36.3677 6.0937 35.1749 6.0937ZM40.5468 10.5219C39.4887 10.5219 38.8024 9.74617 38.8024 8.69316C38.8024 7.64015 39.503 6.81224 40.6064 6.81224C41.6489 6.81224 42.3508 7.55113 42.3508 8.63466C42.3508 9.71819 41.6282 10.5219 40.5468 10.5219ZM40.5779 7.38962C39.9964 7.38962 39.6234 7.92375 39.6234 8.67027C39.6234 9.41679 40.0042 9.93693 40.5701 9.93693C41.136 9.93693 41.5168 9.36592 41.5168 8.65628C41.5168 7.94664 41.1438 7.39089 40.5779 7.39089V7.38962ZM48.387 6.88473L47.2539 10.4405H46.5157L46.0469 8.89664C45.9303 8.51893 45.8332 8.13613 45.7555 7.74825H45.7399C45.6804 8.13613 45.569 8.52402 45.4499 8.89664L44.9513 10.4405H44.2053L43.1395 6.88473H43.967L44.3775 8.57489C44.4747 8.97803 44.5563 9.35701 44.6236 9.71692H44.6391C44.6987 9.41806 44.7946 9.04416 44.937 8.58252L45.4511 6.88473H46.1064L46.5986 8.54564C46.7177 8.94878 46.8148 9.34302 46.8899 9.71692H46.912C46.9638 9.35066 47.0466 8.96277 47.158 8.54564L47.5983 6.88473H48.3883H48.387ZM52.5571 10.4405H51.7516V8.39812C51.7516 7.76987 51.5055 7.45448 51.0212 7.45448C50.5368 7.45448 50.2156 7.85762 50.2156 8.32563V10.4405H49.4101V7.90086C49.4101 7.58674 49.4023 7.24972 49.3803 6.88346H50.0887L50.1263 7.43286H50.1483C50.3646 7.0526 50.8036 6.81097 51.297 6.81097C52.0572 6.81097 52.5571 7.38199 52.5571 8.31036V10.4405ZM54.7768 10.4405H53.9713V5.25308H54.7768V10.4405ZM57.7114 10.5207C56.6533 10.5207 55.967 9.7449 55.967 8.69189C55.967 7.63888 56.6676 6.81097 57.771 6.81097C58.8148 6.81097 59.5154 7.54986 59.5154 8.63339C59.5154 9.7449 58.7928 10.5207 57.7114 10.5207ZM57.7412 7.38835C57.1597 7.38835 56.7867 7.92248 56.7867 8.669C56.7867 9.41552 57.1675 9.93566 57.7321 9.93566C58.2968 9.93566 58.6788 9.36465 58.6788 8.65501C58.6788 7.93138 58.3084 7.38962 57.7412 7.38962V7.38835ZM62.6883 10.4405L62.63 10.031H62.608C62.3619 10.3604 62.0032 10.5207 61.5486 10.5207C60.8998 10.5207 60.4388 10.0743 60.4388 9.47402C60.4388 8.59651 61.2132 8.14249 62.5562 8.14249V8.07636C62.5562 7.60836 62.3036 7.37308 61.8038 7.37308C61.4463 7.37308 61.1329 7.46083 60.8571 7.63761L60.6939 7.11746C61.0293 6.91271 61.4463 6.8097 61.9371 6.8097C62.8838 6.8097 63.3617 7.29932 63.3617 8.28111V9.59102C63.3617 9.94965 63.3772 10.2282 63.4135 10.4405H62.6883ZM62.5782 8.669C61.6846 8.669 61.2352 8.88138 61.2352 9.38626C61.2352 9.75889 61.467 9.94202 61.7869 9.94202C62.1962 9.94202 62.5769 9.63553 62.5769 9.21839V8.669H62.5782ZM67.2715 10.4405L67.2339 9.86953H67.2119C66.9801 10.3007 66.5916 10.5207 66.0489 10.5207C65.1761 10.5207 64.5285 9.76652 64.5285 8.70588C64.5285 7.64524 65.1994 6.8097 66.115 6.8097C66.5993 6.8097 66.9425 6.96994 67.1368 7.29296H67.1523V5.25181H67.9578V9.48165C67.9578 9.82502 67.9669 10.148 67.9876 10.4405H67.2715ZM67.1523 8.34852C67.1523 7.85126 66.8169 7.4265 66.3041 7.4265C65.707 7.4265 65.3418 7.94664 65.3418 8.6779C65.3418 9.40916 65.72 9.88606 66.2872 9.88606C66.7936 9.88606 67.151 9.45367 67.151 8.94242V8.34979L67.1523 8.34852ZM73.0668 10.5219C72.0088 10.5219 71.3237 9.74617 71.3237 8.69316C71.3237 7.64015 72.0243 6.81224 73.1277 6.81224C74.1715 6.81224 74.8721 7.55113 74.8721 8.63466C74.8721 9.74617 74.1508 10.5219 73.0681 10.5219H73.0668ZM73.0966 7.38962C72.5164 7.38962 72.1434 7.92375 72.1434 8.67027C72.1434 9.41679 72.5242 9.93693 73.0888 9.93693C73.6535 9.93693 74.0355 9.36592 74.0355 8.65628C74.0368 7.93265 73.6651 7.39089 73.0966 7.39089V7.38962ZM79.2002 10.4418H78.3946V8.39939C78.3946 7.77114 78.1486 7.45575 77.6642 7.45575C77.1799 7.45575 76.86 7.85889 76.86 8.3269V10.4418H76.0545V7.90213C76.0545 7.58801 76.0467 7.251 76.0247 6.88473H76.7331L76.7706 7.43413H76.7927C77.0089 7.05388 77.448 6.81224 77.9401 6.81224C78.7003 6.81224 79.2002 7.38326 79.2002 8.31164V10.4418ZM84.6161 7.47864H83.7303V9.20568C83.7303 9.6457 83.8857 9.86444 84.1991 9.86444C84.3415 9.86444 84.4607 9.84918 84.5565 9.82756L84.5785 10.4278C84.4231 10.4863 84.2133 10.5156 83.9543 10.5156C83.3197 10.5156 82.9403 10.1722 82.9403 9.27181V7.47864H82.4119V6.886H82.9403V6.23487L83.7303 6.00087V6.886H84.6161V7.47991V7.47864ZM88.8768 10.4418H88.0726V8.41465C88.0726 7.77877 87.8278 7.45575 87.3422 7.45575C86.9251 7.45575 86.5366 7.73426 86.5366 8.29765V10.4418H85.7324V5.25308H86.5366V7.38962H86.5522C86.806 7.00173 87.1725 6.81097 87.6413 6.81097C88.408 6.81097 88.8768 7.39598 88.8768 8.32563V10.4418ZM93.2424 8.8534H90.8271C90.8427 9.52616 91.2959 9.90641 91.9681 9.90641C92.3255 9.90641 92.6544 9.84791 92.9445 9.73854L93.0702 10.2879C92.727 10.4342 92.3242 10.5079 91.8554 10.5079C90.7222 10.5079 90.0514 9.80467 90.0514 8.71605C90.0514 7.62743 90.7378 6.80588 91.7647 6.80588C92.6907 6.80588 93.2709 7.47864 93.2709 8.49604C93.2761 8.61558 93.267 8.7364 93.2437 8.85467L93.2424 8.8534ZM92.5042 8.29002C92.5042 7.74062 92.2219 7.35401 91.7078 7.35401C91.2454 7.35401 90.8802 7.74952 90.8271 8.29002H92.5042Z" fill="#0E76BB"/>
</g>
</g>
</svg>
