<svg width="43" height="43" viewBox="0 0 43 43" fill="none" xmlns="http://www.w3.org/2000/svg">
<g id="Group 933">
<path id="Vector" d="M21.5 43C27.2022 43 32.6708 40.7348 36.7028 36.7028C40.7348 32.6708 43 27.2022 43 21.5C43 15.7978 40.7348 10.3292 36.7028 6.2972C32.6708 2.26517 27.2022 0 21.5 0C15.7978 0 10.3292 2.26517 6.2972 6.2972C2.26517 10.3292 0 15.7978 0 21.5C0 27.2022 2.26517 32.6708 6.2972 36.7028C10.3292 40.7348 15.7978 43 21.5 43Z" fill="#0E76BB"/>
<g id="Vector_2">
<path d="M32.5007 27.0531C32.5007 27.4449 32.343 27.8218 32.0621 28.0986C31.7813 28.3754 31.3989 28.5308 31.0014 28.5308H13.0008C12.6033 28.5287 12.2231 28.3711 11.9422 28.0943C11.6614 27.8175 11.5015 27.4428 11.4993 27.0531V15.9639C11.5036 15.5721 11.6614 15.1974 11.9422 14.9227C12.2231 14.6459 12.6033 14.4905 13.0008 14.4862H31.0014C31.3989 14.4862 31.7813 14.6417 32.0621 14.9185C32.343 15.1953 32.5007 15.5721 32.5007 15.9639V27.0531ZM31.0014 13H13.0008C12.2058 13 11.4432 13.313 10.8793 13.8666C10.3176 14.4202 10 15.1718 10 15.9554V27.0446C10 27.8282 10.3176 28.5798 10.8793 29.1334C11.441 29.687 12.2036 29.9979 13.0008 30H31.0014C31.7964 30 32.559 29.687 33.1207 29.1334C33.6824 28.5798 34 27.8282 34 27.0446V15.9639C34 15.1804 33.6824 14.4287 33.1207 13.8751C32.559 13.3215 31.7964 13.0106 31.0014 13.0085" fill="white"/>
<path d="M30.8307 16.9753C30.7681 16.9008 30.6925 16.8369 30.6061 16.7922C30.5196 16.7454 30.4246 16.7177 30.3274 16.707C30.2301 16.6964 30.1308 16.707 30.0357 16.7347C29.9406 16.7624 29.8542 16.8092 29.7786 16.871L22.0011 23.1395L14.2215 16.871C14.1459 16.8092 14.0573 16.7624 13.9623 16.7347C13.8672 16.707 13.7678 16.6964 13.6706 16.707C13.5734 16.7177 13.4762 16.7454 13.3897 16.7922C13.3033 16.839 13.2256 16.9008 13.1629 16.9753C13.0376 17.1265 12.9771 17.3224 12.9987 17.5161C13.0182 17.7099 13.1154 17.8909 13.2688 18.0144L21.5194 24.6683C21.6533 24.7769 21.8218 24.8344 21.9947 24.8344C22.1675 24.8344 22.336 24.7769 22.4699 24.6683L30.7184 18.0144C30.794 17.9526 30.8588 17.8781 30.9064 17.7929C30.9539 17.7078 30.982 17.6141 30.9928 17.5161C31.0036 17.4203 30.9928 17.3224 30.9647 17.2287C30.9366 17.135 30.8891 17.0498 30.8264 16.9753" fill="white"/>
<path d="M27.7802 22.8414C27.6398 22.703 27.4497 22.6264 27.2487 22.6264C27.0478 22.6264 26.8599 22.703 26.7173 22.8414C26.5769 22.9798 26.4991 23.1672 26.4991 23.3652C26.4991 23.5632 26.5769 23.7485 26.7173 23.889L29.7181 26.8466C29.8585 26.985 30.0508 27.0616 30.2496 27.0595C30.4483 27.0595 30.6384 26.9828 30.7789 26.8466C30.848 26.7784 30.9042 26.6975 30.943 26.606C30.9819 26.5165 31.0014 26.4207 31.0014 26.3228C31.0014 26.2248 30.9819 26.129 30.943 26.0396C30.9063 25.9501 30.8501 25.8692 30.7789 25.799L27.778 22.8414H27.7802Z" fill="white"/>
<path d="M16.2197 22.8414L13.2189 25.799C13.0785 25.9374 13.0007 26.1247 13.0007 26.3228C13.0007 26.5208 13.0785 26.706 13.2189 26.8466C13.3594 26.985 13.5516 27.0616 13.7504 27.0595C13.8476 27.0595 13.9448 27.0425 14.0377 27.0063C14.1285 26.9701 14.2106 26.9147 14.2797 26.8466L17.2805 23.889C17.3496 23.8209 17.4058 23.74 17.4447 23.6484C17.4836 23.559 17.503 23.4632 17.503 23.3652C17.503 23.2673 17.4836 23.1715 17.4447 23.082C17.4058 22.9926 17.3518 22.9117 17.2805 22.8414C17.1401 22.703 16.95 22.6264 16.7512 22.6264C16.5524 22.6264 16.3623 22.703 16.2197 22.8414Z" fill="white"/>
</g>
</g>
</svg>
