<svg width="43" height="43" viewBox="0 0 43 43" fill="none" xmlns="http://www.w3.org/2000/svg">
<g id="Group 931">
<path id="Vector" d="M21.5 43C27.2022 43 32.6708 40.7348 36.7028 36.7028C40.7348 32.6708 43 27.2022 43 21.5C43 15.7978 40.7348 10.3292 36.7028 6.2972C32.6708 2.26517 27.2022 0 21.5 0C15.7978 0 10.3292 2.26517 6.2972 6.2972C2.26517 10.3292 0 15.7978 0 21.5C0 27.2022 2.26517 32.6708 6.2972 36.7028C10.3292 40.7348 15.7978 43 21.5 43" fill="#0E76BB"/>
<path id="Vector_2" fill-rule="evenodd" clip-rule="evenodd" d="M27.2938 32.4265C26.4443 32.4265 25.6379 32.2633 24.8315 32.024C19.4124 30.4358 15.3481 27.0201 12.058 22.4948C10.8107 20.7651 9.6925 19.0246 9.28391 16.9143C8.85383 14.3688 9.57422 12.2149 11.4451 10.4744C12.0365 9.91961 13.8428 9.68029 14.574 10.0393C14.832 10.1589 15.0041 10.3874 15.1331 10.6811C15.8105 12.3128 16.4879 13.9445 17.1545 15.5763C17.2943 15.8808 17.219 16.2072 17.0792 16.5227C16.7351 17.2732 16.1868 17.8607 15.6169 18.5025C15.2083 18.9267 15.1868 19.3292 15.4987 19.8514C17.4233 23.0713 20.0683 25.421 23.509 26.8243C24.0466 27.0527 24.4337 26.9657 24.7778 26.5414C25.3691 25.8126 25.9712 25.0946 26.5196 24.344C26.8959 23.8328 27.3153 23.7566 27.8421 23.9959C29.0033 24.5072 30.1323 25.062 31.2828 25.6277C31.5408 25.7473 31.7882 25.8561 32.0462 25.9758C33.2074 26.5849 33.1859 26.5849 33.0892 27.8903C32.9064 30.3814 31.0247 31.665 28.7883 32.2633C28.2937 32.4265 27.7991 32.4265 27.283 32.4265H27.2938Z" fill="white"/>
</g>
</svg>
