<svg width="43" height="43" viewBox="0 0 43 43" fill="none" xmlns="http://www.w3.org/2000/svg">
<g id="Group 932">
<path id="Vector" d="M21.5 43C27.2022 43 32.6708 40.7348 36.7028 36.7028C40.7348 32.6708 43 27.2022 43 21.5C43 15.7978 40.7348 10.3292 36.7028 6.2972C32.6708 2.26517 27.2022 0 21.5 0C15.7978 0 10.3292 2.26517 6.2972 6.2972C2.26517 10.3292 0 15.7978 0 21.5C0 27.2022 2.26517 32.6708 6.2972 36.7028C10.3292 40.7348 15.7978 43 21.5 43Z" fill="#0E76BB"/>
<g id="Vector_2">
<path d="M28.1768 30.0003C28.1768 30.399 28.0168 30.7794 27.7316 31.0613C27.4464 31.3432 27.0614 31.499 26.658 31.499H16.0354C15.6319 31.499 15.247 31.3409 14.9617 31.0613C14.6765 30.7794 14.5165 30.399 14.5165 30.0003V11.9997C14.5165 11.601 14.6765 11.2206 14.9617 10.9387C15.247 10.6568 15.6319 10.501 16.0354 10.501H26.658C27.0614 10.501 27.4464 10.6591 27.7316 10.9387C28.0168 11.2206 28.1768 11.601 28.1768 11.9997V30.0003ZM26.658 9H16.0354C15.2307 9 14.4586 9.31624 13.8904 9.87998C13.32 10.4414 13 11.2045 13 11.9997V30.0003C13 30.7955 13.32 31.5586 13.8904 32.12C14.4586 32.6815 15.2307 32.9977 16.0354 33H26.658C27.4626 33 28.2348 32.6838 28.8052 32.12C29.3757 31.5586 29.6957 30.7955 29.6957 30.0003V11.9997C29.6957 11.2045 29.3733 10.4414 28.8052 9.87998C28.2348 9.31624 27.4626 9 26.658 9Z" fill="white"/>
<path d="M26.658 13.5007H16.0354C15.9357 13.5007 15.836 13.5191 15.7456 13.558C15.6528 13.5947 15.5693 13.6497 15.4998 13.7207C15.4302 13.7895 15.3722 13.872 15.3351 13.9636C15.298 14.0553 15.2772 14.1515 15.2772 14.2501C15.2772 14.3486 15.2957 14.4472 15.3351 14.5365C15.3722 14.6282 15.4302 14.7107 15.4998 14.7794C15.5693 14.8482 15.6551 14.9032 15.7456 14.9421C15.8383 14.9788 15.9357 14.9994 16.0354 14.9994H26.658C26.7578 14.9994 26.8575 14.9811 26.9479 14.9421C27.0407 14.9055 27.1241 14.8505 27.1937 14.7794C27.2633 14.7107 27.3212 14.6282 27.3583 14.5365C27.3954 14.4449 27.4163 14.3486 27.4163 14.2501C27.4163 14.1515 27.3978 14.053 27.3583 13.9636C27.3189 13.872 27.2633 13.7895 27.1937 13.7207C27.1241 13.652 27.0383 13.597 26.9479 13.558C26.8551 13.5213 26.7578 13.5007 26.658 13.5007Z" fill="white"/>
<path d="M26.6579 26.2489H16.0353C15.8335 26.2489 15.6411 26.3291 15.4973 26.4689C15.3558 26.6087 15.2747 26.8012 15.2747 27.0006C15.2747 27.1999 15.3558 27.3902 15.4973 27.5299C15.6387 27.6697 15.8335 27.7499 16.0353 27.7499H26.6579C26.8596 27.7499 27.0521 27.672 27.1958 27.5299C27.3373 27.3902 27.4185 27.1999 27.4185 27.0006C27.4185 26.8012 27.3373 26.611 27.1958 26.4689C27.0544 26.3291 26.8596 26.2489 26.6579 26.2489Z" fill="white"/>
<path d="M19.8289 12.7491H22.8643C22.964 12.7491 23.0637 12.7307 23.1541 12.6918C23.2469 12.6551 23.3304 12.6001 23.3999 12.5291C23.4695 12.4603 23.5251 12.3778 23.5646 12.2862C23.6017 12.1945 23.6225 12.0982 23.6225 11.9997C23.6225 11.9012 23.604 11.8026 23.5646 11.7133C23.5275 11.6216 23.4718 11.5391 23.3999 11.4703C23.3304 11.4016 23.2446 11.3466 23.1541 11.3076C23.0614 11.271 22.964 11.2503 22.8643 11.2503H19.8289C19.7292 11.2503 19.6295 11.2687 19.5391 11.3076C19.4463 11.3443 19.3628 11.3993 19.2933 11.4703C19.2237 11.5391 19.168 11.6216 19.1286 11.7133C19.0915 11.8049 19.0707 11.9012 19.0707 11.9997C19.0707 12.0982 19.0892 12.1968 19.1286 12.2862C19.1657 12.3778 19.2214 12.4603 19.2933 12.5291C19.3628 12.5978 19.4463 12.6528 19.5391 12.6918C19.6318 12.7284 19.7292 12.7491 19.8289 12.7491Z" fill="white"/>
<path d="M21.3478 28.4993C21.0463 28.4993 20.7565 28.6184 20.5432 28.8293C20.3298 29.0401 20.2092 29.3265 20.2092 29.6245C20.2092 29.9224 20.3298 30.2088 20.5432 30.4196C20.7565 30.6305 21.0463 30.7496 21.3478 30.7496C21.4962 30.7496 21.6446 30.7198 21.7837 30.6648C21.9229 30.6076 22.0481 30.5251 22.1524 30.4219C22.2591 30.3165 22.3426 30.1928 22.3982 30.0576C22.4562 29.9201 22.484 29.7757 22.484 29.6267C22.484 29.4801 22.4562 29.3334 22.3982 29.1959C22.3403 29.0584 22.2568 28.9347 22.1524 28.8316C22.0458 28.7261 21.9205 28.6436 21.7837 28.5887C21.6469 28.5314 21.4985 28.5039 21.3478 28.5039V28.4993Z" fill="white"/>
</g>
</g>
</svg>
