<svg width="148" height="82" viewBox="0 0 148 82" fill="none" xmlns="http://www.w3.org/2000/svg">
<path d="M142.52 46.15L127.74 52.27C130.4 58.84 131.91 65.99 131.98 73.49H147.98C147.92 63.82 145.97 54.6 142.52 46.14V46.15Z" fill="#F5F7F9"/>
<path d="M126.63 22.06L115.32 33.37C120.38 38.52 124.5 44.6 127.37 51.34L142.15 45.22C138.47 36.53 133.16 28.69 126.63 22.06Z" fill="#F5F7F9"/>
<path d="M0.00976562 74.49C0.269766 78.67 3.73977 81.99 7.97977 81.99C12.2198 81.99 15.6998 78.67 15.9498 74.49H0.00976562Z" fill="#FF6161"/>
<path d="M132.01 74.49C132.27 78.67 135.74 81.99 139.98 81.99C144.22 81.99 147.7 78.67 147.95 74.49H132H132.01Z" fill="#F5F7F9"/>
<path d="M5.46 46.15C2.01 54.6 0.06 63.82 0 73.49H16C16.06 65.99 17.57 58.84 20.24 52.27L5.46 46.15Z" fill="#FF6161"/>
<path d="M102.76 5.83001L96.6396 20.61C103.38 23.48 109.47 27.59 114.62 32.65L125.93 21.34C119.31 14.8 111.46 9.50001 102.77 5.82001L102.76 5.83001Z" fill="#F5F7F9"/>
<path d="M74.4902 0V16C81.9902 16.06 89.1502 17.56 95.7202 20.23L101.84 5.45C93.3802 2 84.1502 0.07 74.4902 0Z" fill="#F5F7F9"/>
<path d="M52.2596 20.23C58.8296 17.57 65.9896 16.07 73.4896 16V0C63.8196 0.06 54.5896 2 46.1396 5.45L52.2596 20.23Z" fill="#F5F7F9"/>
<path d="M33.3703 32.66C38.5203 27.6 44.6003 23.48 51.3403 20.61L45.2203 5.83002C36.5303 9.51002 28.6903 14.82 22.0703 21.35L33.3803 32.66H33.3703Z" fill="#FF6161"/>
<path d="M21.3501 22.06C14.8101 28.68 9.51008 36.52 5.83008 45.21L20.6101 51.33C23.4801 44.59 27.6001 38.51 32.6601 33.36L21.3501 22.05V22.06Z" fill="#FF6161"/>
</svg>
