<svg width="36" height="25" viewBox="0 0 36 25" fill="none" xmlns="http://www.w3.org/2000/svg">
<g filter="url(#filter0_i_1_7960)">
<path d="M34.5835 7.85972C34.5891 7.96194 34.5818 8.06597 34.5569 8.16931L32.3363 17.336C32.2244 17.7978 31.8233 18.1225 31.3623 18.125L18.0389 18.1944C18.0371 18.1944 18.0355 18.1944 18.0338 18.1944H4.71028C4.24679 18.1944 3.84292 17.8686 3.73095 17.4044L1.51038 8.20306C1.48481 8.09694 1.47741 7.99 1.48387 7.88514C0.624852 7.60583 0 6.77625 0 5.79861C0 4.59236 0.950804 3.61111 2.11963 3.61111C3.28845 3.61111 4.23925 4.59236 4.23925 5.79861C4.23925 6.47792 3.93766 7.08569 3.46542 7.48722L6.24556 10.3781C6.9482 11.1088 7.92323 11.5276 8.92073 11.5276C10.1002 11.5276 11.2247 10.9496 11.9329 9.98111L16.5019 3.73333C16.118 3.3375 15.8804 2.79056 15.8804 2.1875C15.8804 0.98125 16.8312 0 18 0C19.1688 0 20.1196 0.98125 20.1196 2.1875C20.1196 2.7725 19.8946 3.30347 19.5308 3.69639C19.5321 3.69806 19.5335 3.69945 19.5347 3.70125L24.0706 9.96625C24.7785 10.944 25.9071 11.5278 27.0899 11.5278C28.0966 11.5278 29.0432 11.1232 29.755 10.3885L32.5526 7.50125C32.0704 7.09986 31.7607 6.48625 31.7607 5.79861C31.7607 4.59236 32.7116 3.61111 33.8804 3.61111C35.0492 3.61111 36 4.59236 36 5.79861C36 6.75014 35.4072 7.55944 34.5835 7.85972ZM32.1197 21.4583C32.1197 20.8831 31.6678 20.4167 31.1103 20.4167H5.00191C4.44449 20.4167 3.99257 20.8831 3.99257 21.4583V23.9583C3.99257 24.5336 4.44449 25 5.00191 25H31.1103C31.6678 25 32.1197 24.5336 32.1197 23.9583V21.4583Z" fill="#FF6161"/>
</g>
<defs>
<filter id="filter0_i_1_7960" x="0" y="0" width="36" height="29" filterUnits="userSpaceOnUse" color-interpolation-filters="sRGB">
<feFlood flood-opacity="0" result="BackgroundImageFix"/>
<feBlend mode="normal" in="SourceGraphic" in2="BackgroundImageFix" result="shape"/>
<feColorMatrix in="SourceAlpha" type="matrix" values="0 0 0 0 0 0 0 0 0 0 0 0 0 0 0 0 0 0 127 0" result="hardAlpha"/>
<feOffset dy="4"/>
<feGaussianBlur stdDeviation="2"/>
<feComposite in2="hardAlpha" operator="arithmetic" k2="-1" k3="1"/>
<feColorMatrix type="matrix" values="0 0 0 0 0 0 0 0 0 0 0 0 0 0 0 0 0 0 0.25 0"/>
<feBlend mode="normal" in2="shape" result="effect1_innerShadow_1_7960"/>
</filter>
</defs>
</svg>
