<svg width="239" height="17" viewBox="0 0 239 17" fill="none" xmlns="http://www.w3.org/2000/svg">
<rect width="239" height="17" rx="8.5" fill="#F5F7F9"/>
<path d="M0 8.5C0 3.80558 3.80558 0 8.5 0H23V17H8.5C3.80558 17 0 13.1944 0 8.5Z" fill="#0E76BB"/>
<path d="M24 0H47V17H24V0Z" fill="#0E76BB"/>
<path d="M48 0H71V17H48V0Z" fill="#0E76BB"/>
<path d="M72 0H95V17H72V0Z" fill="#0E76BB"/>
<path d="M96 0H119V17H96V0Z" fill="#0E76BB"/>
<path d="M120 0H143V17H120V0Z" fill="#0E76BB"/>
<path d="M192 0H215V17H192V0Z" fill="#1DAF1A"/>
<path d="M168 0H191V17H168V0Z" fill="#1DAF1A"/>
<path d="M144 0H167V17H144V0Z" fill="#1DAF1A"/>
</svg>
