<svg width="18" height="21" viewBox="0 0 18 21" fill="none" xmlns="http://www.w3.org/2000/svg">
<path d="M12.3756 7.47818H5.61057V4.53512C5.61057 2.88338 7.12751 1.53956 8.99308 1.53956C10.8586 1.53956 12.3756 2.88338 12.3756 4.53512V7.47818ZM14.1026 7.47818V4.53512C14.1026 2.03603 11.8145 0 8.99308 0C6.17163 0 3.88122 2.02648 3.88122 4.53512V7.47818H0V20.3985L0.507956 20.5107C1.95219 20.8155 3.42093 20.9793 4.89482 21C6.36873 20.9797 7.83751 20.8159 9.28169 20.5107C10.6459 20.2267 12.0324 20.0725 13.4238 20.05C13.7979 20.05 14.1765 20.0643 14.5505 20.0906V18.5558C14.1788 18.5319 13.7979 18.5176 13.4238 18.5176C11.8902 18.5391 10.362 18.7093 8.85916 19.026C7.553 19.3001 6.22514 19.4487 4.89251 19.47C3.83095 19.4565 2.77193 19.3592 1.72473 19.1788V9.00819H16.2707V20.2815C17.118 20.4057 17.7091 20.5202 17.7206 20.5346L18 20.5966V7.46863L14.1026 7.47818Z" fill="white"/>
</svg>
