<svg width="76" height="47" viewBox="0 0 76 47" fill="none" xmlns="http://www.w3.org/2000/svg">
<path d="M35.0542 21.3712H32.5316C32.4307 20.8465 32.3701 20.3218 32.35 19.7971C31.7647 21.1896 30.5539 21.6739 29.1816 21.6739C26.094 21.6739 25.085 19.4339 25.085 15.8619V5.97345C25.085 2.54275 26.4169 0 30.0696 0C34.4891 0 34.9533 3.24907 34.9533 5.50929V6.19543H31.7042V5.34785C31.7042 4.23792 31.5427 2.94636 30.0696 2.94636C28.8789 2.94636 28.3744 3.77376 28.3744 5.44875V16.205C28.3744 17.88 28.8587 18.7679 30.0292 18.7679C31.4418 18.7679 31.7849 17.5974 31.7849 15.4179V12.3505H29.9485V9.56559H35.034V21.3309L35.0542 21.3712Z" fill="white"/>
<path d="M41.7325 0.343018H38.4834V21.3712H41.7325V0.343018Z" fill="white"/>
<path d="M54.8901 21.3713H52.3675C52.2666 20.8466 52.2061 20.3219 52.1859 19.7972C51.6007 21.1897 50.3898 21.6942 49.0175 21.6942C45.9299 21.6942 44.9209 19.4541 44.9209 15.8822V5.99371C44.9209 2.56301 46.2528 0.0202637 49.9055 0.0202637C54.325 0.0202637 54.7892 3.26933 54.7892 5.52956V6.2157H51.5401V5.36811C51.5401 4.25818 51.3787 2.96663 49.9055 2.96663C48.7148 2.96663 48.2103 3.79403 48.2103 5.46902V16.2253C48.2103 17.9002 48.6947 18.7882 49.8651 18.7882C51.2778 18.7882 51.6208 17.6177 51.6208 15.4382V12.3708H49.7844V9.58585H54.8699V21.3511L54.8901 21.3713Z" fill="white"/>
<path d="M61.4293 15.7408L60.6827 21.3712H57.373L60.7634 0.343018H65.3444L68.8558 21.3913H65.4655L64.6381 15.761H61.4092L61.4293 15.7408ZM64.2748 12.7541C63.7905 9.1821 63.3263 5.79177 63.0841 3.41046H62.9631C62.8823 5.14599 62.2366 9.64626 61.8128 12.7541H64.2546H64.2748Z" fill="white"/>
<path d="M25.085 25.6697H33.2783V28.6766H28.334V34.2061H33.0563V37.213H28.334V46.6978H25.085V25.6697Z" fill="white"/>
<path d="M39.2305 25.6697H35.9814V46.6978H39.2305V25.6697Z" fill="white"/>
<path d="M42.8833 25.6696H47.2019C50.8344 25.6696 52.2471 27.3648 52.2471 30.4524V31.2192C52.2471 34.206 51.2179 35.0737 50.2896 35.437C51.2381 35.8204 52.6305 36.5873 52.6305 39.6547V41.249C52.6305 44.8008 51.1573 46.6776 47.4845 46.6776H42.8833V25.6494V25.6696ZM46.8387 34.2262C48.6549 34.2262 49.1998 33.6611 49.1998 31.5825V30.7551C49.1998 28.9994 48.5742 28.3334 47.0203 28.3334H46.0113V34.2262H46.8387ZM46.0113 44.0541H47.101C48.9778 44.0541 49.442 43.2267 49.442 41.1885V39.796C49.442 37.7376 48.9173 36.8698 46.8589 36.8698H46.0315V44.0743L46.0113 44.0541Z" fill="white"/>
<path d="M63.3475 37.0918H58.7261V43.711H64.0538L63.6502 46.6977H55.4771V25.6494H63.6098V28.6563H58.7261V34.0849H63.3475V37.0716V37.0918Z" fill="white"/>
<path d="M69.6631 37.2936V46.6977H66.4141V25.6494H70.9143C74.123 25.6494 75.9998 26.941 75.9998 30.7147V31.522C75.9998 34.7509 74.6679 35.5782 73.8607 35.9011C75.0917 36.4864 75.798 37.3541 75.798 40.2198C75.798 41.9957 75.7577 45.4062 75.9998 46.6776H72.8718C72.5893 45.4062 72.6498 41.9553 72.6498 40.4216C72.6498 37.8587 72.327 37.2734 70.43 37.2734H69.6833L69.6631 37.2936ZM69.6631 34.6096H70.4098C72.1252 34.6096 72.7508 33.9638 72.7508 31.6834V30.9569C72.7508 29.3223 72.4077 28.3334 70.5713 28.3334H69.6631V34.6096Z" fill="white"/>
<path d="M20.6248 12.3909H6.80115C6.03429 12.3909 5.40869 11.7653 5.40869 10.9984C5.40869 10.2316 6.03429 9.60596 6.80115 9.60596H20.6248C20.6248 9.60596 20.6854 9.62614 20.6854 9.6665V12.3505C20.6854 12.3505 20.6652 12.4111 20.6248 12.4111" fill="white"/>
<path d="M20.4833 6.80079H1.39246C0.625598 6.80079 0 6.17519 0 5.40833C0 4.64147 0.625598 4.01587 1.39246 4.01587H20.4833C20.4833 4.01587 20.6649 4.09659 20.6649 4.19749V6.63934C20.6649 6.63934 20.5842 6.82097 20.4833 6.82097" fill="white"/>
<path d="M20.7861 18.001H12.2699C11.503 18.001 10.8774 17.3754 10.8774 16.6085C10.8774 15.8417 11.503 15.2161 12.2699 15.2161H20.7861C20.7861 15.2161 20.8265 15.2362 20.8466 15.2766V17.9606C20.8466 17.9606 20.8265 18.001 20.7861 18.0212" fill="white"/>
</svg>
