<svg width="225" height="180" viewBox="0 0 225 180" fill="none" xmlns="http://www.w3.org/2000/svg">
<path d="M89.5621 120.223L89.4055 128.779C90.0251 128.985 90.565 129.385 90.9485 129.921C91.332 130.457 91.5395 131.103 91.5416 131.766V131.874C97.389 133.822 103.472 134.942 109.62 135.202C109.638 135.143 109.66 135.086 109.688 135.032L91.1036 119.514C90.6507 119.867 90.1268 120.114 89.5692 120.238L89.5621 120.223ZM115.48 135.046L115.544 135.216C121.692 134.956 127.775 133.836 133.622 131.889V131.78C133.624 131.117 133.832 130.472 134.215 129.936C134.599 129.399 135.139 129 135.758 128.793L135.577 120.223C135.019 120.101 134.494 119.854 134.042 119.499L115.48 135.046ZM70.373 119.434C70.3307 119.652 70.2675 119.866 70.1843 120.071C74.993 124.03 80.3173 127.293 86.0055 129.767C86.4056 129.285 86.937 128.933 87.5329 128.757L87.6895 120.205C87.0675 120.042 86.4934 119.728 86.0156 119.292C85.5379 118.855 85.1705 118.308 84.9446 117.696L70.373 119.434ZM137.474 120.205L137.631 128.757C138.225 128.934 138.755 129.286 139.155 129.767C144.845 127.293 150.17 124.029 154.979 120.068C154.895 119.864 154.832 119.651 154.791 119.434L140.194 117.689C139.967 118.3 139.6 118.846 139.122 119.283C138.644 119.72 138.071 120.033 137.449 120.198L137.474 120.205ZM92.6843 116.15V116.28C92.6846 116.896 92.5457 117.503 92.2785 118.055L110.855 133.576C111.089 133.421 111.343 133.299 111.61 133.214V116.038C110.996 115.888 110.425 115.593 109.944 115.176C109.464 114.76 109.087 114.234 108.844 113.641L92.6843 116.15ZM113.5 116.056V133.221C113.767 133.305 114.02 133.427 114.252 133.583L132.832 118.051C132.562 117.501 132.423 116.895 132.426 116.28V116.15L116.263 113.655C116.02 114.248 115.643 114.774 115.162 115.19C114.682 115.606 114.111 115.9 113.497 116.049L113.5 116.056ZM79.6756 106.041C79.1371 106.043 78.6039 105.932 78.1092 105.715L69.8284 116.965C69.9489 117.14 70.0548 117.325 70.1452 117.519L84.7417 115.799C84.8525 114.881 85.2698 114.03 85.9237 113.388L81.3774 105.672C80.853 105.917 80.2814 106.041 79.7041 106.034L79.6756 106.041ZM97.7255 105.513C97.4404 105.512 97.1567 105.473 96.8817 105.397L91.6376 113.503C91.8611 113.746 92.0558 114.015 92.2179 114.304L108.595 111.769C108.623 111.426 108.694 111.087 108.808 110.763L99.6942 104.799C99.1355 105.269 98.4327 105.525 97.7077 105.523L97.7255 105.513ZM139.924 114.213C140.205 114.694 140.386 115.229 140.454 115.784L155.026 117.522C155.281 116.951 155.699 116.47 156.225 116.143L153.135 104.064H153.071C152.315 104.068 151.574 103.852 150.935 103.442L139.924 114.213ZM83.4814 103.3C83.3386 103.723 83.1268 104.119 82.8548 104.47L87.5257 112.41C88.3501 112.154 89.2333 112.173 90.0463 112.464L95.2975 104.358C95.0411 104.048 94.8475 103.69 94.7279 103.304L83.4814 103.3ZM116.124 110.209C116.377 110.691 116.532 111.221 116.58 111.765L132.956 114.3C133.191 113.885 133.497 113.517 133.861 113.214L128.129 101.758C127.963 101.786 127.795 101.799 127.627 101.798C127.061 101.801 126.506 101.646 126.021 101.349L116.124 110.209ZM100.89 103.3L109.837 109.173C110.51 108.537 111.375 108.152 112.291 108.082C113.208 108.013 114.12 108.262 114.878 108.789L123.504 101.056C118.485 102.504 112.728 103.3 106.238 103.3H100.89ZM157.041 99.477C157.065 99.6582 157.077 99.8409 157.076 100.024C157.075 100.761 156.875 101.483 156.499 102.112C156.122 102.742 155.583 103.254 154.94 103.594L158.027 115.665C158.511 115.693 158.982 115.833 159.405 116.074L160.035 115.44C166.348 109.088 171.348 101.515 174.738 93.1663C174.559 93.0211 174.396 92.8573 174.25 92.6775L157.041 99.477ZM50.4399 93.1735C53.8277 101.519 58.8233 109.092 65.1325 115.444L65.7662 116.078C66.2344 115.805 66.7646 115.661 67.3042 115.661C67.6533 115.662 67.9998 115.722 68.3296 115.839L76.6175 104.578C76.2185 104.102 75.9355 103.537 75.7914 102.929C75.6473 102.32 75.6461 101.686 75.788 101.077L51.0095 92.5688C50.8439 92.7927 50.6528 92.9957 50.4399 93.1735ZM137.521 93.8071C135.442 95.545 133.172 97.031 130.756 98.2351C130.756 98.3582 130.778 98.4777 130.778 98.5972C130.778 99.0193 130.694 99.437 130.531 99.8253C130.369 100.214 130.13 100.564 129.831 100.856L135.562 112.319C135.863 112.25 136.17 112.215 136.477 112.214C137.233 112.215 137.973 112.431 138.614 112.837L149.621 102.066C149.295 101.509 149.107 100.881 149.071 100.234C149.036 99.5869 149.155 98.9409 149.419 98.351L142.9 92.2647C142.428 92.5436 141.893 92.691 141.348 92.6919C140.664 92.693 139.999 92.4667 139.454 92.0475C138.841 92.6557 138.197 93.2423 137.528 93.7999L137.521 93.8071ZM162.167 83.3941C161.886 83.3949 161.606 83.3645 161.331 83.3036L155.481 96.805C155.813 97.062 156.105 97.3669 156.35 97.7101L173.563 90.9142C173.56 90.8431 173.56 90.7718 173.563 90.7006C173.563 90.3298 173.628 89.9619 173.756 89.6144L164.67 82.5143C163.963 83.0901 163.084 83.4041 162.178 83.405L162.167 83.3941ZM51.2622 89.198C51.4999 89.6579 51.6222 90.1703 51.6183 90.6897V90.7621L76.6424 99.3539C76.7536 99.219 76.8725 99.0909 76.9984 98.9701L63.5589 80.4397C62.9815 80.6828 62.3565 80.7861 61.7331 80.7415C61.1097 80.6969 60.5051 80.5056 59.9668 80.1826L51.2622 89.198ZM147.539 78.8321H147.386C146.483 81.8004 145.157 84.6182 143.452 87.1958C143.947 87.649 144.284 88.2533 144.412 88.9179C144.541 89.5826 144.453 90.2717 144.164 90.8816L150.572 96.8557C151.281 96.2831 152.159 95.9716 153.064 95.9722C153.303 95.974 153.541 95.9958 153.776 96.0374L159.647 82.4817C159.185 82.1049 158.812 81.6271 158.556 81.0836C158.3 80.5402 158.168 79.9451 158.169 79.3427L150.18 77.373C149.897 77.8242 149.506 78.1956 149.045 78.4531C148.583 78.7106 148.065 78.8459 147.539 78.8466V78.8321ZM65.9406 75.9139C65.9898 76.1766 66.0161 76.4431 66.019 76.7105C66.0187 77.6686 65.6829 78.5952 65.072 79.3245L78.6859 98.0758C79.0123 97.9883 79.3488 97.9457 79.6863 97.9491V71.2759C79.0111 71.1556 78.3933 70.8135 77.9276 70.3019L65.9406 75.9139ZM165.525 77.1703C165.888 77.7335 166.105 78.3814 166.156 79.0532C166.206 79.725 166.088 80.3989 165.813 81.0118L174.895 88.1155C175.417 87.7468 176.039 87.5497 176.675 87.5506H176.721C178.69 81.0889 179.69 74.3622 179.687 67.5973C179.687 66.149 179.643 64.7213 179.555 63.3141C179.316 63.2605 179.084 63.1778 178.864 63.0679L165.525 77.1703ZM45.6266 63.3032V72.2136C45.9713 77.4178 46.9152 82.5629 48.4391 87.5434H48.4889C48.9767 87.5453 49.4578 87.6605 49.8952 87.8801L58.6211 78.8539C58.23 78.2332 58.0159 77.5144 58.0027 76.7773C57.9895 76.0403 58.1776 75.314 58.5463 74.6793L46.417 63.0172C46.1682 63.1615 45.8993 63.2665 45.6195 63.3286L45.6266 63.3032ZM149.881 73.6546C150.334 74.1846 150.597 74.8543 150.629 75.5555L158.586 77.4998C158.835 77.0155 159.178 76.5871 159.593 76.2401C160.008 75.893 160.488 75.6344 161.003 75.4794L160.252 61.0802C159.959 61.0293 159.674 60.943 159.401 60.8231L149.881 73.6546ZM64.6697 61.1345L63.3702 72.9233C64.0684 73.1773 64.6843 73.622 65.1503 74.2086L77.1266 68.6002C77.1093 68.4658 77.101 68.3303 77.1017 68.1947C77.0987 67.884 77.1444 67.5748 77.237 67.2787L66.8663 60.1207C66.2581 60.6773 65.4962 61.03 64.684 61.1308L64.6697 61.1345ZM48.019 60.7036C47.9697 61.0275 47.8738 61.3423 47.7342 61.6377L59.8386 73.3179C60.3425 72.9947 60.9101 72.7883 61.5012 72.7133L62.8007 60.9208C62.2787 60.731 61.8009 60.4332 61.3977 60.0462C60.9946 59.6592 60.6746 59.1915 60.4581 58.6724L48.019 60.7036ZM162.142 60.9933L162.894 75.3962C163.344 75.4791 163.776 75.6408 164.172 75.8741L177.515 61.7717C177.33 61.4434 177.209 61.082 177.159 60.7072L164.699 58.6833C164.466 59.2358 164.117 59.7295 163.676 60.1293C163.235 60.5292 162.712 60.8254 162.146 60.9969L162.142 60.9933ZM146.691 53.3646C148.288 57.7299 149.078 62.3573 149.023 67.0144V67.2135C149.022 68.8187 148.936 70.4225 148.763 72.0181L157.906 59.7079C157.307 58.9873 156.979 58.0737 156.98 57.13C156.98 56.9726 156.991 56.8153 157.012 56.6594L147.08 52.9554C146.959 53.1029 146.83 53.242 146.691 53.3718V53.3646ZM102.713 52.1553V83.0502H107.516C118.623 83.0502 125.794 78.394 125.794 67.6987V67.5032C125.794 62.351 124.081 58.5855 121.034 56.0511C117.83 53.3899 113.176 52.1553 107.505 52.1553H102.713ZM149.201 38.5851H149.048L146.318 48.3609C146.751 48.6456 147.109 49.0356 147.357 49.4957C147.606 49.9559 147.738 50.4717 147.742 50.9967V51.1487L157.674 54.8599C157.864 54.5681 158.093 54.3049 158.354 54.0778L150.205 38.4584C149.883 38.5407 149.552 38.5821 149.219 38.5815L149.201 38.5851ZM67.1583 54.4001C67.8214 55.1424 68.1894 56.109 68.1907 57.1119C68.1918 57.6065 68.1049 58.0971 67.9343 58.5602L78.3086 65.711C78.7121 65.3917 79.1863 65.1779 79.6899 65.0882V37.3107C79.4232 37.2497 79.1641 37.1586 78.9173 37.0391L67.1583 54.4001ZM46.2461 57.3726C46.8827 57.677 47.4031 58.1859 47.7271 58.8209L60.1875 56.8006C60.2256 56.2345 60.3822 55.6832 60.6469 55.1836C60.9115 54.6841 61.2781 54.2478 61.7219 53.9041L53.9217 36.5865C53.8032 36.5964 53.6841 36.5964 53.5656 36.5865C53.3649 36.5904 53.1644 36.5722 52.9676 36.5322C49.603 43.0491 47.3222 50.0874 46.2176 57.3618L46.2461 57.3726ZM171.598 36.5865C171.48 36.5931 171.361 36.5931 171.242 36.5865L163.463 53.9366C163.905 54.2822 164.27 54.7189 164.535 55.2181C164.799 55.7172 164.957 56.2676 164.998 56.8331L177.458 58.8535C177.776 58.215 178.297 57.7046 178.936 57.4052C177.841 50.127 175.571 43.0828 172.218 36.5576C172.018 36.5871 171.817 36.5968 171.616 36.5865H171.598ZM133.491 37.8972V37.9334C137.739 40.3421 141.344 43.7701 143.993 47.9191C144.169 47.8822 144.347 47.8616 144.527 47.8576L147.261 38.0819C146.472 37.6348 145.856 36.9289 145.513 36.0797L133.491 37.8972ZM153.157 35.3012C152.986 36.1871 152.532 36.9905 151.864 37.5858L160.017 53.198C160.584 53.06 161.173 53.0427 161.747 53.1473L169.53 35.79C169.151 35.4468 168.859 35.0159 168.679 34.5336L153.157 35.3012ZM56.5419 34.3092C56.3731 34.8689 56.0551 35.3701 55.6234 35.7574L63.4059 53.1365C64.1332 52.9991 64.8835 53.0641 65.5775 53.3248L77.4292 35.8624C76.9899 35.2905 76.714 34.6065 76.6318 33.8855L56.5419 34.3092ZM132.764 20.0982L131.575 34.4757C132.28 34.7705 132.857 35.3144 133.199 36.0072L145.21 34.1969C145.269 33.5293 145.49 32.8871 145.855 32.3287L134.106 19.6564C133.687 19.8961 133.229 20.0567 132.754 20.1307L132.764 20.0982ZM92.9905 20.1814C92.4483 20.1816 91.9116 20.0695 91.4134 19.852L83.4707 30.5654C83.84 30.9459 84.1327 31.396 84.3323 31.8906H107.003C107.648 31.8906 108.285 31.8906 108.911 31.9123L95.2583 19.4428C94.5939 19.9058 93.8066 20.1521 93.0012 20.1488L92.9905 20.1814ZM114.903 31.3728C115.017 31.6719 115.087 31.9868 115.11 32.3069C119.522 32.7523 123.862 33.7633 128.026 35.3157C128.464 34.8091 129.048 34.4567 129.695 34.3092L130.888 19.9352C130.464 19.7913 130.066 19.5773 129.71 19.3016L114.903 31.3728ZM65.1219 19.7506C61.6393 23.2575 58.5459 27.1428 55.8975 31.3366C56.17 31.6547 56.3792 32.0236 56.5134 32.4228L76.8596 31.9847C77.1397 31.2291 77.6356 30.5759 78.2836 30.1092L71.7508 16.1444C71.6102 16.1618 71.4688 16.1702 71.3272 16.1698C70.7069 16.1707 70.1 15.9855 69.5826 15.6375C68.0375 16.941 66.5459 18.3132 65.1219 19.7506ZM154.125 16.1553L150.949 30.8949C151.45 31.1412 151.896 31.4909 152.257 31.9216C152.618 32.3523 152.886 32.8547 153.046 33.3968L168.576 32.6292C168.699 32.1538 168.931 31.7147 169.252 31.3475C166.603 27.1539 163.51 23.2686 160.028 19.7614C158.604 18.3132 157.112 16.9482 155.567 15.6484C155.131 15.941 154.631 16.1189 154.111 16.1661L154.125 16.1553ZM73.449 15.3298L80.0388 29.396C80.2285 29.367 80.4201 29.3524 80.6119 29.3525C81.0386 29.3545 81.4624 29.4228 81.8687 29.5553L89.9146 18.6934C89.4062 18.0775 89.0912 17.3208 89.0103 16.521L74.1467 14.4029C73.9741 14.7654 73.7321 15.0891 73.4347 15.3551L73.449 15.3298ZM136.139 16.4956C136.075 17.1524 135.852 17.7829 135.491 18.3313L147.24 31.0035C147.814 30.678 148.458 30.4991 149.116 30.4821L152.281 15.7425C151.728 15.4248 151.284 14.9437 151.006 14.3631L136.139 16.4956ZM96.5613 14.2436C96.8614 14.8314 97.0147 15.4853 97.0079 16.1476C97.0011 16.8099 96.8343 17.4603 96.5222 18.0416L109.862 30.2287C110.216 29.8933 110.641 29.6455 111.104 29.5046L111.585 1.98773C111.358 1.91241 111.141 1.81034 110.937 1.6836L96.5613 14.2436ZM113.461 2.00945L112.984 29.5444C113.243 29.6363 113.49 29.7577 113.721 29.9065L128.521 17.8389C128.254 17.2763 128.121 16.6582 128.132 16.0339C128.142 15.4097 128.296 14.7966 128.581 14.2436L114.216 1.66911C113.982 1.81761 113.73 1.93217 113.465 2.00945H113.461ZM74.3034 12.0169C74.3563 12.1736 74.3956 12.3347 74.4209 12.4984L89.2844 14.6165C89.4828 14.1184 89.7757 13.6649 90.1465 13.2819C90.5172 12.899 90.9585 12.594 91.4452 12.3846C91.9318 12.1751 92.4543 12.0652 92.9827 12.0611C93.5112 12.057 94.0352 12.1589 94.5249 12.3609C94.8112 12.4774 95.0836 12.6268 95.3366 12.8062L109.709 0.238962C109.673 0.159308 109.645 0.0832747 109.616 0C96.9642 0.537687 84.7196 4.70366 74.2963 12.0169H74.3034ZM115.448 0.238962L129.824 12.8134C130.698 12.1893 131.781 11.9436 132.833 12.1303C133.886 12.317 134.823 12.9208 135.438 13.8091C135.612 14.064 135.759 14.3371 135.876 14.6238L150.739 12.5057C150.765 12.342 150.804 12.1809 150.857 12.0241C140.432 4.71511 128.188 0.55297 115.537 0.0181029C115.508 0.101378 115.48 0.177411 115.444 0.257065" fill="white"/>
<path d="M217.396 179.638V158.772H225V156.068H206.74V158.79H214.355V179.652L217.396 179.638ZM194.276 180C199.944 180 203.785 176.553 204.935 171.285L201.959 170.452C201.09 174.5 198.431 177.136 194.276 177.136C189.427 177.136 186.444 173.349 186.444 167.856C186.444 162.364 189.434 158.573 194.276 158.573C198.431 158.573 201.09 161.209 201.959 165.257L204.935 164.424C203.803 159.156 199.951 155.709 194.276 155.709C187.583 155.709 183.272 160.731 183.272 167.856C183.272 174.982 187.583 180 194.276 180ZM179.779 179.638V176.857H167.141V168.957H179.049V166.205H167.141V158.83H179.786V156.068H164.122V179.638H179.779ZM144.299 179.638V160.666L155.934 179.638H159.323V156.068H156.35V175.04L144.716 156.068H141.337V179.638H144.299ZM121.514 179.638V160.666L133.149 179.638H136.542V156.068H133.569V175.04L121.927 156.068H118.552V179.638H121.514ZM103.087 177.125C98.1028 177.125 95.1266 173.338 95.1266 167.846C95.1266 162.353 98.1171 158.559 103.087 158.559C108.057 158.559 111.047 162.324 111.047 167.846C111.047 173.367 108.061 177.125 103.087 177.125ZM103.087 179.989C109.901 179.989 114.212 174.971 114.212 167.846C114.212 160.72 109.898 155.706 103.083 155.706C96.2694 155.706 91.9581 160.713 91.9581 167.853C91.9581 174.993 96.2694 179.996 103.083 179.996L103.087 179.989ZM77.6179 179.996C83.2856 179.996 87.127 176.553 88.2733 171.281L85.3006 170.452C84.432 174.5 81.7725 177.132 77.6179 177.132C72.769 177.132 69.7856 173.349 69.7856 167.853C69.7856 162.357 72.7761 158.569 77.6179 158.569C81.7725 158.569 84.432 161.205 85.3006 165.253L88.2912 164.435C87.1412 159.163 83.2856 155.706 77.6108 155.706C70.9178 155.706 66.6064 160.727 66.6064 167.853C66.6064 174.978 70.9178 179.996 77.6108 179.996H77.6179ZM37.4881 179.634V161.216L42.4723 179.638H47.2002L52.1844 161.216V179.638H56.962V156.068H49.4217L44.8576 173.005L40.2793 156.068H32.7532V179.638L37.4881 179.634ZM29.2394 156.068H24.4047V179.638H29.2394V156.068ZM4.83112 160.557H9.50908C13.7492 160.557 16.2733 163.78 16.2733 167.878C16.2733 171.977 13.7528 175.159 9.50908 175.159H4.83112V160.557ZM9.50908 179.652C16.6899 179.652 21.311 174.717 21.311 167.878C21.311 161.039 16.6827 156.068 9.50908 156.068H0V179.638L9.50908 179.652Z" fill="white"/>
</svg>
