<svg width="77" height="62" viewBox="0 0 77 62" fill="none" xmlns="http://www.w3.org/2000/svg">
<path d="M30.9552 41.2423L30.9023 44.1417C31.1116 44.2116 31.294 44.3471 31.4235 44.5288C31.553 44.7105 31.6231 44.9293 31.6238 45.154V45.1908C33.5989 45.8508 35.6537 46.2303 37.7303 46.3184C37.7363 46.2986 37.744 46.2793 37.7531 46.2607L31.4759 41.0018C31.3229 41.1215 31.146 41.2053 30.9576 41.2472L30.9552 41.2423ZM39.7096 46.2656L39.7313 46.3233C41.8078 46.235 43.8626 45.8555 45.8377 45.1957V45.1589C45.8384 44.9342 45.9085 44.7154 46.0381 44.5337C46.1676 44.352 46.35 44.2165 46.5593 44.1466L46.4979 41.2423C46.3094 41.2009 46.1324 41.117 45.9796 40.9969L39.7096 46.2656ZM24.4736 40.9748C24.4593 41.0488 24.4379 41.1211 24.4098 41.1908C26.0341 42.5324 27.8325 43.6382 29.7539 44.4767C29.889 44.3132 30.0685 44.1941 30.2698 44.1344L30.3227 41.2362C30.1126 41.1808 29.9187 41.0746 29.7573 40.9266C29.5959 40.7786 29.4718 40.5931 29.3955 40.3859L24.4736 40.9748ZM47.1389 41.2362L47.1918 44.1344C47.3926 44.1944 47.5716 44.3134 47.7065 44.4767C49.6285 43.6382 51.4274 42.532 53.0517 41.1896C53.0233 41.1204 53.0019 41.0485 52.988 40.9748L48.0576 40.3834C47.981 40.5905 47.8568 40.7758 47.6954 40.9237C47.5341 41.0717 47.3404 41.178 47.1305 41.2337L47.1389 41.2362ZM32.0098 39.862V39.9061C32.0099 40.1146 31.963 40.3203 31.8727 40.5074L38.1476 45.7675C38.2266 45.7149 38.3124 45.6736 38.4025 45.6448V39.8239C38.1951 39.7732 38.0023 39.6732 37.8399 39.532C37.6775 39.3909 37.5502 39.2126 37.4681 39.0117L32.0098 39.862ZM39.041 39.8301V45.6472C39.1309 45.6755 39.2164 45.7168 39.2948 45.7699L45.5708 40.5061C45.4796 40.3199 45.4326 40.1143 45.4337 39.9061V39.862L39.9742 39.0166C39.8922 39.2174 39.7648 39.3955 39.6024 39.5365C39.44 39.6774 39.2472 39.7772 39.0398 39.8276L39.041 39.8301ZM27.6158 36.4362C27.4339 36.4367 27.2538 36.3991 27.0867 36.3258L24.2896 40.138C24.3303 40.1975 24.3661 40.2603 24.3966 40.3258L29.327 39.7429C29.3644 39.4319 29.5054 39.1435 29.7262 38.9258L28.1906 36.311C28.0135 36.3943 27.8204 36.4362 27.6254 36.4337L27.6158 36.4362ZM33.7126 36.2571C33.6163 36.257 33.5205 36.2438 33.4276 36.2178L31.6563 38.965C31.7318 39.0473 31.7975 39.1383 31.8523 39.2362L37.3839 38.3773C37.3934 38.2609 37.4177 38.1462 37.4561 38.0362L34.3776 36.0153C34.1889 36.1746 33.9515 36.2614 33.7066 36.2607L33.7126 36.2571ZM47.9662 39.2055C48.0613 39.3685 48.1223 39.5498 48.1454 39.738L53.0674 40.327C53.1535 40.1332 53.2947 39.9704 53.4726 39.8595L52.4288 35.7663H52.4072C52.1519 35.7674 51.9016 35.6942 51.6857 35.5552L47.9662 39.2055ZM28.9013 35.5074C28.853 35.6507 28.7815 35.7846 28.6896 35.9037L30.2674 38.5945C30.5458 38.5078 30.8441 38.5143 31.1188 38.6129L32.8925 35.8656C32.8059 35.7607 32.7405 35.6394 32.7001 35.5086L28.9013 35.5074ZM39.9273 37.8485C40.0127 38.012 40.0651 38.1915 40.0812 38.3761L45.6129 39.235C45.6921 39.0945 45.7956 38.9697 45.9183 38.8669L43.9822 34.9847C43.9262 34.994 43.8695 34.9986 43.8127 34.9982C43.6216 34.9994 43.434 34.9467 43.2703 34.846L39.9273 37.8485ZM34.7817 35.5074L37.8036 37.4975C38.0309 37.2819 38.3232 37.1516 38.6327 37.1279C38.9421 37.1043 39.2502 37.1888 39.5064 37.3675L42.4201 34.7466C40.7246 35.2374 38.7801 35.5074 36.5879 35.5074H34.7817ZM53.748 34.2117C53.7562 34.2731 53.7602 34.335 53.76 34.3969C53.7596 34.6466 53.6922 34.8914 53.565 35.1047C53.4378 35.318 53.2557 35.4917 53.0385 35.6067L54.0811 39.6975C54.2446 39.707 54.4037 39.7544 54.5465 39.8362L54.7593 39.6215C56.8919 37.4687 58.5806 34.9021 59.7258 32.073C59.6653 32.0238 59.6101 31.9683 59.561 31.9074L53.748 34.2117ZM17.7406 32.0755C18.8849 34.9038 20.5723 37.4699 22.7034 39.6227L22.9175 39.8374C23.0756 39.745 23.2547 39.6964 23.437 39.6963C23.5549 39.6966 23.6719 39.717 23.7833 39.7564L26.5828 35.9405C26.448 35.7791 26.3525 35.5875 26.3038 35.3814C26.2551 35.1753 26.2547 34.9603 26.3026 34.754L17.933 31.8706C17.8771 31.9464 17.8125 32.0152 17.7406 32.0755ZM47.1545 32.2902C46.4525 32.8791 45.6858 33.3827 44.8697 33.7908C44.8697 33.8325 44.8769 33.873 44.8769 33.9135C44.877 34.0565 44.8487 34.1981 44.7937 34.3297C44.7387 34.4613 44.6582 34.5801 44.557 34.6791L46.4931 38.5638C46.5945 38.5403 46.6982 38.5283 46.8022 38.5282C47.0573 38.5285 47.3072 38.6016 47.5237 38.7393L51.2419 35.089C51.1318 34.9003 51.0681 34.6873 51.0561 34.4681C51.0442 34.2489 51.0844 34.03 51.1734 33.8301L48.9715 31.7675C48.8123 31.862 48.6314 31.9119 48.4472 31.9123C48.2163 31.9126 47.9917 31.8359 47.8075 31.6939C47.6007 31.9 47.383 32.0988 47.1569 32.2877L47.1545 32.2902ZM55.4796 28.7614C55.3846 28.7616 55.2899 28.7513 55.197 28.7307L53.2213 33.3061C53.3332 33.3932 53.4321 33.4966 53.5147 33.6129L59.3289 31.3098C59.3277 31.2857 59.3277 31.2615 59.3289 31.2374C59.3289 31.1118 59.3509 30.9871 59.3939 30.8693L56.325 28.4632C56.0861 28.6583 55.7893 28.7647 55.4832 28.765L55.4796 28.7614ZM18.0184 30.7282C18.0987 30.8841 18.14 31.0577 18.1386 31.2337V31.2583L26.5912 34.1699C26.6288 34.1242 26.6689 34.0808 26.7115 34.0399L22.1719 27.7601C21.9769 27.8425 21.7657 27.8775 21.5552 27.8624C21.3446 27.8473 21.1404 27.7824 20.9586 27.673L18.0184 30.7282ZM50.5384 27.2153H50.4867C50.1818 28.2212 49.7341 29.1762 49.1579 30.0497C49.3252 30.2033 49.439 30.4081 49.4824 30.6333C49.5257 30.8585 49.4963 31.0921 49.3984 31.2988L51.563 33.3233C51.8023 33.1293 52.0991 33.0237 52.4048 33.0239C52.4854 33.0245 52.5658 33.0319 52.6453 33.046L54.6282 28.4521C54.4721 28.3244 54.3462 28.1625 54.2598 27.9783C54.1734 27.7942 54.1287 27.5925 54.1292 27.3883L51.4307 26.7209C51.3349 26.8738 51.203 26.9996 51.0471 27.0869C50.8912 27.1741 50.7163 27.22 50.5384 27.2202V27.2153ZM22.9764 26.2264C22.993 26.3154 23.0019 26.4057 23.0029 26.4963C23.0028 26.821 22.8894 27.135 22.683 27.3822L27.2815 33.7368C27.3917 33.7072 27.5054 33.6927 27.6194 33.6939V24.6546C27.3913 24.6139 27.1826 24.4979 27.0253 24.3245L22.9764 26.2264ZM56.6136 26.6521C56.7365 26.843 56.8098 27.0626 56.8269 27.2903C56.8439 27.5179 56.8041 27.7463 56.711 27.954L59.7787 30.3614C59.9552 30.2364 60.1651 30.1696 60.3799 30.1699H60.3956C61.0607 27.9801 61.3984 25.7005 61.3973 23.408C61.3973 22.9172 61.3825 22.4333 61.3528 21.9564C61.272 21.9383 61.1937 21.9103 61.1195 21.873L56.6136 26.6521ZM16.1148 21.9528V24.9724C16.2312 26.736 16.55 28.4797 17.0648 30.1675H17.0816C17.2464 30.1681 17.4089 30.2072 17.5566 30.2816L20.504 27.2227C20.3719 27.0124 20.2996 26.7688 20.2951 26.519C20.2907 26.2692 20.3542 26.0231 20.4787 25.808L16.3817 21.8558C16.2977 21.9047 16.2069 21.9403 16.1124 21.9613L16.1148 21.9528ZM51.3297 25.4607C51.4826 25.6403 51.5715 25.8673 51.5822 26.1049L54.2699 26.7638C54.3541 26.5997 54.4698 26.4545 54.61 26.3369C54.7503 26.2193 54.9123 26.1316 55.0864 26.0791L54.8327 21.1994C54.7338 21.1822 54.6373 21.1529 54.5453 21.1123L51.3297 25.4607ZM22.5471 21.2178L22.1082 25.2129C22.344 25.299 22.552 25.4497 22.7094 25.6485L26.7548 23.7479C26.7489 23.7023 26.7461 23.6564 26.7464 23.6104C26.7454 23.5051 26.7608 23.4003 26.7921 23.3L23.2891 20.8742C23.0836 21.0629 22.8263 21.1824 22.5519 21.2166L22.5471 21.2178ZM16.9229 21.0718C16.9062 21.1816 16.8738 21.2882 16.8267 21.3883L20.9153 25.3466C21.0855 25.2371 21.2772 25.1671 21.4769 25.1417L21.9158 21.1454C21.7395 21.0811 21.5781 20.9801 21.4419 20.849C21.3057 20.7178 21.1977 20.5593 21.1245 20.3834L16.9229 21.0718ZM55.4712 21.1699L55.725 26.0509C55.877 26.079 56.023 26.1338 56.1567 26.2129L60.6638 21.4337C60.6014 21.3225 60.5605 21.2 60.5435 21.073L56.3346 20.3871C56.2561 20.5744 56.1382 20.7417 55.9892 20.8772C55.8401 21.0127 55.6637 21.113 55.4724 21.1712L55.4712 21.1699ZM50.2522 18.5847C50.7915 20.064 51.0585 21.6322 51.0399 23.2104V23.2779C51.0396 23.8219 51.0103 24.3654 50.9521 24.9061L54.0402 20.7344C53.8378 20.4901 53.727 20.1805 53.7276 19.8607C53.7276 19.8074 53.7312 19.7541 53.7384 19.7012L50.3833 18.446C50.3428 18.496 50.299 18.5431 50.2522 18.5871V18.5847ZM35.3974 18.1748V28.6448H37.0196C40.7715 28.6448 43.1934 27.0669 43.1934 23.4423V23.3761C43.1934 21.6301 42.615 20.354 41.5856 19.4951C40.5033 18.5933 38.9316 18.1748 37.016 18.1748H35.3974ZM51.1 13.5761H51.0483L50.126 16.889C50.2725 16.9854 50.3931 17.1176 50.4771 17.2736C50.5611 17.4295 50.6057 17.6043 50.607 17.7822V17.8337L53.962 19.0914C54.0261 18.9925 54.1034 18.9033 54.1917 18.8264L51.4391 13.5331C51.3302 13.561 51.2183 13.575 51.106 13.5748L51.1 13.5761ZM23.3877 18.9356C23.6117 19.1871 23.736 19.5147 23.7364 19.8546C23.7368 20.0222 23.7075 20.1885 23.6498 20.3454L27.154 22.7687C27.2903 22.6605 27.4505 22.5881 27.6206 22.5577V13.1442C27.5305 13.1235 27.443 13.0926 27.3596 13.0521L23.3877 18.9356ZM16.324 19.9429C16.5391 20.0461 16.7148 20.2185 16.8243 20.4337L21.0331 19.7491C21.046 19.5572 21.0989 19.3704 21.1883 19.2011C21.2777 19.0318 21.4015 18.884 21.5514 18.7675L18.9167 12.8988C18.8766 12.9021 18.8364 12.9021 18.7964 12.8988C18.7286 12.9001 18.6609 12.8939 18.5944 12.8804C17.4579 15.0889 16.6875 17.4741 16.3144 19.9393L16.324 19.9429ZM58.6652 12.8988C58.6251 12.901 58.585 12.901 58.5449 12.8988L55.9174 18.7785C56.0667 18.8956 56.19 19.0436 56.2794 19.2128C56.3687 19.382 56.4219 19.5685 56.4357 19.7601L60.6445 20.4448C60.7518 20.2284 60.9277 20.0555 61.1436 19.954C60.774 17.4875 60.0072 15.1003 58.8744 12.889C58.8071 12.899 58.7391 12.9022 58.6712 12.8988H58.6652ZM45.7933 13.3429V13.3552C47.2283 14.1715 48.4461 15.3332 49.3407 16.7393C49.4001 16.7267 49.4605 16.7198 49.5211 16.7184L50.4446 13.4055C50.1783 13.254 49.9701 13.0148 49.8542 12.727L45.7933 13.3429ZM52.436 12.4632C52.3784 12.7634 52.2249 13.0357 51.9995 13.2374L54.7533 18.5282C54.9449 18.4814 55.1439 18.4756 55.3377 18.511L57.9665 12.6288C57.8385 12.5125 57.74 12.3665 57.6791 12.2031L52.436 12.4632ZM19.8017 12.127C19.7447 12.3167 19.6373 12.4865 19.4915 12.6178L22.1202 18.5074C22.3659 18.4608 22.6193 18.4828 22.8537 18.5712L26.857 12.6534C26.7086 12.4596 26.6154 12.2278 26.5876 11.9834L19.8017 12.127ZM45.5479 7.31104L45.1463 12.1834C45.3844 12.2833 45.5792 12.4677 45.6946 12.7025L49.752 12.089C49.7717 11.8627 49.8465 11.6451 49.9696 11.4558L46.0013 7.16135C45.8597 7.24256 45.7049 7.29701 45.5443 7.32209L45.5479 7.31104ZM32.1133 7.33926C31.9301 7.33932 31.7488 7.30133 31.5805 7.22761L28.8977 10.8583C29.0224 10.9872 29.1213 11.1398 29.1887 11.3074H36.8464C37.0641 11.3074 37.2793 11.3074 37.491 11.3147L32.8793 7.08896C32.6548 7.24585 32.3889 7.32931 32.1169 7.32822L32.1133 7.33926ZM39.5148 11.1319C39.5535 11.2333 39.577 11.34 39.5846 11.4485C41.0751 11.5994 42.541 11.942 43.9474 12.4681C44.0953 12.2964 44.2927 12.177 44.5113 12.127L44.9142 7.25583C44.7709 7.20706 44.6364 7.13452 44.5162 7.0411L39.5148 11.1319ZM22.6998 7.19325C21.5235 8.3817 20.4786 9.69839 19.5841 11.1196C19.6761 11.2274 19.7468 11.3524 19.7921 11.4877L26.6646 11.3393C26.7592 11.0832 26.9267 10.8618 27.1456 10.7037L24.9389 5.97117C24.8915 5.97705 24.8437 5.97992 24.7959 5.97975C24.5863 5.98006 24.3814 5.91732 24.2066 5.79939C23.6847 6.2411 23.1809 6.70614 22.6998 7.19325ZM52.7631 5.97485L51.6905 10.9699C51.8597 11.0534 52.0101 11.1719 52.132 11.3179C52.2539 11.4638 52.3448 11.6341 52.3987 11.8178L57.6442 11.5577C57.6858 11.3966 57.7641 11.2478 57.8727 11.1233C56.978 9.70215 55.9332 8.38548 54.7569 7.19693C54.2759 6.70613 53.772 6.24356 53.2501 5.80307C53.103 5.90223 52.934 5.96253 52.7583 5.97853L52.7631 5.97485ZM25.5126 5.69509L27.7384 10.462C27.8025 10.4521 27.8672 10.4472 27.932 10.4472C28.0762 10.4479 28.2193 10.4711 28.3565 10.516L31.0743 6.83497C30.9026 6.62627 30.7962 6.36982 30.7688 6.09877L25.7482 5.38098C25.6899 5.50382 25.6082 5.61353 25.5077 5.70368L25.5126 5.69509ZM46.6879 6.09018C46.6662 6.31276 46.5911 6.52644 46.4691 6.71227L50.4374 11.0067C50.6316 10.8964 50.849 10.8358 51.0712 10.8301L52.1402 5.83497C51.9536 5.7273 51.8034 5.56426 51.7097 5.36748L46.6879 6.09018ZM33.3194 5.32699C33.4207 5.52621 33.4725 5.74779 33.4702 5.97224C33.4679 6.19668 33.4116 6.41711 33.3062 6.61411L37.812 10.7442C37.9316 10.6305 38.0752 10.5465 38.2317 10.4988L38.3941 1.17362C38.3174 1.1481 38.244 1.1135 38.1752 1.07055L33.3194 5.32699ZM39.0278 1.18098L38.8667 10.5123C38.9539 10.5434 39.0375 10.5846 39.1156 10.635L44.1145 6.5454C44.0246 6.35474 43.9796 6.14527 43.9832 5.93372C43.9867 5.72217 44.0387 5.5144 44.135 5.32699L39.2827 1.06564C39.2038 1.11597 39.1184 1.15479 39.029 1.18098H39.0278ZM25.8012 4.57239C25.819 4.6255 25.8323 4.68011 25.8408 4.73558L30.8614 5.45337C30.9284 5.28456 31.0274 5.13088 31.1526 5.00109C31.2778 4.87131 31.4269 4.76797 31.5913 4.69699C31.7557 4.626 31.9321 4.58875 32.1106 4.58738C32.2891 4.586 32.4661 4.62052 32.6315 4.68896C32.7283 4.72846 32.8202 4.77909 32.9057 4.83988L37.7603 0.580982C37.7483 0.553988 37.7387 0.528221 37.7291 0.5C33.4555 0.682216 29.3195 2.09402 25.7988 4.57239H25.8012ZM39.6988 0.580982L44.5546 4.84233C44.8501 4.63083 45.2157 4.54757 45.5712 4.61083C45.9268 4.67409 46.2432 4.8787 46.451 5.17975C46.5099 5.26612 46.5594 5.35868 46.5989 5.45583L51.6195 4.73804C51.628 4.68256 51.6413 4.62796 51.6592 4.57485C48.138 2.0979 44.0021 0.687395 39.7289 0.506135C39.7193 0.534356 39.7096 0.560123 39.6976 0.587116" fill="white"/>
<path d="M74.1345 61.3773V54.3061H76.7031V53.3896H70.5353V54.3123H73.1076V61.3822L74.1345 61.3773ZM66.3253 61.5C68.2397 61.5 69.5372 60.3319 69.9256 58.5466L68.9203 58.2644C68.6269 59.6362 67.7286 60.5294 66.3253 60.5294C64.6874 60.5294 63.6797 59.246 63.6797 57.3847C63.6797 55.5233 64.6898 54.2387 66.3253 54.2387C67.7286 54.2387 68.6269 55.1319 68.9203 56.5037L69.9256 56.2215C69.5432 54.4362 68.2421 53.2681 66.3253 53.2681C64.0645 53.2681 62.6082 54.9699 62.6082 57.3847C62.6082 59.7994 64.0645 61.5 66.3253 61.5ZM61.4286 61.3773V60.435H57.1596V57.7577H61.182V56.8252H57.1596V54.3258H61.431V53.3896H56.1398V61.3773H61.4286ZM49.4441 61.3773V54.9479L53.374 61.3773H54.5188V53.3896H53.5147V59.819L49.5848 53.3896H48.4436V61.3773H49.4441ZM41.7479 61.3773V54.9479L45.6778 61.3773H46.8238V53.3896H45.8197V59.819L41.8874 53.3896H40.7474V61.3773H41.7479ZM35.5236 60.5258C33.8401 60.5258 32.8348 59.2423 32.8348 57.381C32.8348 55.5196 33.8449 54.2337 35.5236 54.2337C37.2024 54.2337 38.2125 55.5098 38.2125 57.381C38.2125 59.2521 37.2036 60.5258 35.5236 60.5258ZM35.5236 61.4963C37.8253 61.4963 39.2815 59.7957 39.2815 57.381C39.2815 54.9663 37.8241 53.2669 35.5224 53.2669C33.2208 53.2669 31.7645 54.9638 31.7645 57.3834C31.7645 59.8031 33.2208 61.4988 35.5224 61.4988L35.5236 61.4963ZM26.9207 61.4988C28.8351 61.4988 30.1327 60.3319 30.5199 58.5454L29.5158 58.2644C29.2224 59.6362 28.3241 60.5282 26.9207 60.5282C25.2829 60.5282 24.2751 59.246 24.2751 57.3834C24.2751 55.5209 25.2853 54.2374 26.9207 54.2374C28.3241 54.2374 29.2224 55.1307 29.5158 56.5025L30.5259 56.2252C30.1375 54.4386 28.8352 53.2669 26.9183 53.2669C24.6576 53.2669 23.2013 54.9687 23.2013 57.3834C23.2013 59.7982 24.6576 61.4988 26.9183 61.4988H26.9207ZM13.3658 61.3761V55.1344L15.0493 61.3773H16.6463L18.3298 55.1344V61.3773H19.9436V53.3896H17.3967L15.855 59.1294L14.3086 53.3896H11.7664V61.3773L13.3658 61.3761ZM10.5795 53.3896H8.94648V61.3773H10.5795V53.3896ZM2.33497 54.911H3.91508C5.3473 54.911 6.19989 56.0031 6.19989 57.392C6.19989 58.781 5.3485 59.8595 3.91508 59.8595H2.33497V54.911ZM3.91508 61.3822C6.34059 61.3822 7.90149 59.7098 7.90149 57.392C7.90149 55.0742 6.33818 53.3896 3.91508 53.3896H0.703125V61.3773L3.91508 61.3822Z" fill="white"/>
</svg>
