<svg width="165" height="42" viewBox="0 0 165 42" fill="none" xmlns="http://www.w3.org/2000/svg">
<path d="M43.7486 13.4483H40.0728V11.3956H50.0704V13.4483H46.3977V23.9544H43.7486V13.4483Z" fill="white"/>
<path d="M57.9658 7.79715H59.7105V9.84985H57.9658V7.79715ZM55.0264 7.79715H56.7711V9.84985H55.0264V7.79715ZM54.6353 11.3956V19.0497C54.6353 19.4071 54.6547 19.7643 54.6934 20.1196C54.726 20.4713 54.83 20.8124 54.9989 21.121C55.1884 21.4396 55.4643 21.6955 55.7934 21.8581C56.2679 22.0752 56.7863 22.1744 57.3058 22.1474C57.4067 22.1474 57.5594 22.1474 57.7581 22.1287C57.9786 22.1123 58.1969 22.0716 58.4089 22.0074C58.6536 21.9325 58.8863 21.8214 59.0994 21.6778C59.3439 21.5165 59.5521 21.3046 59.7105 21.0557C59.78 20.9597 59.8375 20.8552 59.8816 20.7447C59.9334 20.6065 59.9733 20.4639 60.0008 20.3186C60.039 20.1225 60.0645 19.9241 60.0772 19.7246C60.0955 19.5007 60.1047 19.2301 60.1047 18.9159V11.3956H62.6835V19.2425C62.7108 20.0578 62.5409 20.8673 62.1885 21.6C61.8836 22.2039 61.4441 22.7269 60.9052 23.1271C60.3826 23.5149 59.7912 23.7958 59.1636 23.9544C58.5433 24.1148 57.9061 24.1973 57.2661 24.2001C56.9036 24.1961 56.5414 24.1722 56.1814 24.1286C55.749 24.0769 55.3243 23.9724 54.9164 23.8175C54.4714 23.6517 54.0493 23.428 53.6606 23.152C53.2363 22.8501 52.8809 22.4587 52.6187 22.0043C52.337 21.5593 52.1536 21.0574 52.0809 20.5332C52.0145 19.9937 51.9828 19.4503 51.9862 18.9066V11.3956H54.6353Z" fill="white"/>
<path d="M67.4837 11.3956L70.7134 21.2952L73.9614 11.3956H76.5738L72.0303 23.9544H69.1428L64.5963 11.3956H67.4837Z" fill="white"/>
<path d="M80.5582 16.8384H83.5128C83.6442 16.8384 83.7909 16.8384 83.9559 16.8135C84.1225 16.7951 84.2879 16.766 84.4509 16.7264C84.5972 16.6928 84.7374 16.6361 84.8664 16.5584C84.9467 16.5077 85.0242 16.4527 85.0987 16.3936C85.207 16.3047 85.3017 16.1999 85.3797 16.0826C85.4759 15.9325 85.5529 15.7705 85.6089 15.6005C85.6747 15.3799 85.7057 15.1499 85.7006 14.9194C85.7264 14.5057 85.6261 14.0941 85.4134 13.7406C85.2422 13.4742 85.0079 13.256 84.732 13.1062C84.4777 12.9814 84.2034 12.9045 83.9223 12.8791C83.6442 12.8574 83.4212 12.8449 83.2501 12.8449H80.5582V16.8384ZM78.8838 11.4111H83.8734C84.1187 11.4192 84.3635 11.44 84.6067 11.4734C84.8738 11.509 85.1375 11.5673 85.395 11.6475C85.6547 11.7271 85.9017 11.8444 86.1284 11.9959C86.5663 12.2633 86.9244 12.6472 87.1642 13.1062C87.3847 13.5518 87.4988 14.0441 87.4972 14.5431C87.5008 14.9693 87.4219 15.392 87.265 15.7871C87.1198 16.1591 86.9027 16.4976 86.6264 16.7824C86.4043 17.0196 86.1399 17.2117 85.8472 17.3484C85.5906 17.4573 85.3645 17.5413 85.172 17.6003C85.439 17.6751 85.6972 17.7794 85.942 17.9114C86.1499 18.0223 86.3355 18.1721 86.4889 18.353C86.647 18.5554 86.7681 18.785 86.8464 19.031C86.9482 19.3557 87.0168 19.6903 87.0511 20.0294L87.1794 21.0713C87.2191 21.3978 87.2681 21.7151 87.3261 22.0292C87.3842 22.3433 87.4483 22.6512 87.5216 22.9622C87.603 23.3012 87.7051 23.6346 87.8272 23.9606H85.9939C85.9186 23.7186 85.8564 23.4725 85.8075 23.2235C85.7495 22.9374 85.6975 22.645 85.6547 22.3433C85.612 22.0416 85.5692 21.7431 85.5356 21.4476C85.502 21.1521 85.4653 20.8816 85.4317 20.639C85.388 20.256 85.3134 19.8774 85.2086 19.5069C85.1323 19.2323 84.9858 18.9833 84.7839 18.7853C84.5584 18.5918 84.2882 18.4602 83.9987 18.4028C83.5842 18.3199 83.1622 18.2824 82.7398 18.2908H80.601V23.9544H78.8929L78.8838 11.4111Z" fill="white"/>
<path d="M90.0608 11.3956H91.6832V16.5087C91.9475 16.0444 92.3438 15.6725 92.8199 15.4419C93.3332 15.1862 93.8984 15.0573 94.4698 15.0656C94.7158 15.068 94.9612 15.0919 95.2032 15.1371C95.4668 15.184 95.7249 15.2591 95.9732 15.361C96.2229 15.4672 96.4557 15.6108 96.6637 15.7871C96.8774 15.9714 97.0494 16.2006 97.1679 16.4589C97.2138 16.5515 97.2536 16.6471 97.287 16.7451C97.3288 16.8691 97.3575 16.9974 97.3726 17.1276C97.397 17.2831 97.4154 17.4728 97.4337 17.6937C97.452 17.9145 97.4581 18.1788 97.4581 18.493V23.9544H95.8173V18.7884C95.8173 18.5925 95.8173 18.353 95.7929 18.0762C95.7747 17.796 95.7053 17.5218 95.5882 17.2676C95.4623 16.9989 95.2709 16.7676 95.0321 16.5958C94.7156 16.3933 94.3449 16.2965 93.9718 16.319C93.7053 16.3144 93.4398 16.3554 93.1865 16.4403C92.9761 16.5139 92.7774 16.6187 92.5969 16.7513C92.446 16.8585 92.3112 16.9873 92.1966 17.1338C92.107 17.2464 92.0263 17.366 91.9552 17.4915C91.8092 17.7708 91.7277 18.0803 91.7169 18.3965C91.6955 18.7542 91.6832 19.0683 91.6832 19.3296V23.9544H90.0608V11.3956Z" fill="white"/>
<path d="M105.748 18.7356C105.744 18.4828 105.727 18.2305 105.696 17.9798C105.662 17.6839 105.572 17.3976 105.43 17.1369C105.278 16.8554 105.057 16.6187 104.788 16.4496C104.437 16.2402 104.033 16.1407 103.627 16.1635C103.354 16.1653 103.083 16.2093 102.824 16.2941C102.548 16.3812 102.295 16.5288 102.081 16.7264C101.846 16.9505 101.657 17.2201 101.525 17.5195C101.366 17.9044 101.285 18.318 101.287 18.7356H105.748ZM101.219 19.8832C101.204 20.3015 101.244 20.7199 101.339 21.1273C101.42 21.4841 101.567 21.8219 101.773 22.1225C101.97 22.4043 102.235 22.6302 102.542 22.7788C102.899 22.9438 103.288 23.0236 103.679 23.012C104.164 23.0247 104.638 22.8738 105.03 22.5828C105.228 22.4161 105.391 22.2087 105.505 21.9739C105.62 21.7392 105.685 21.4825 105.696 21.2206H107.303C107.268 21.4994 107.216 21.7756 107.147 22.0479C107.041 22.4258 106.841 22.7696 106.567 23.0462C106.449 23.1767 106.324 23.2993 106.191 23.4132C106.005 23.569 105.8 23.6978 105.58 23.7958C105.308 23.9233 105.025 24.0223 104.733 24.0912C104.36 24.1775 103.979 24.2182 103.597 24.2125C102.242 24.2125 101.24 23.8124 100.59 23.012C99.9402 22.2117 99.6153 21.1221 99.6153 19.7432C99.6066 18.9501 99.7221 18.1606 99.9575 17.4044C100.203 16.6796 100.678 16.0582 101.308 15.6378C101.504 15.4906 101.72 15.3733 101.95 15.2895C102.161 15.2112 102.378 15.1468 102.597 15.0967C102.792 15.0547 102.989 15.0256 103.187 15.0096C103.371 15.0096 103.523 15.0096 103.649 15.0096C104.199 14.9948 104.747 15.0833 105.265 15.2708C105.665 15.4192 106.029 15.6536 106.331 15.9582C106.6 16.2326 106.815 16.5567 106.964 16.913C107.106 17.2597 107.208 17.6218 107.269 17.9922C107.33 18.3393 107.362 18.691 107.364 19.0435V19.8956L101.219 19.8832Z" fill="white"/>
<path d="M109.573 15.2242H111.18V23.9544H109.573V15.2242ZM109.402 11.3956H111.333V13.187H109.402V11.3956Z" fill="white"/>
<path d="M114.034 16.2319L114.019 15.2242H115.623L115.641 16.6331C115.712 16.4955 115.79 16.3616 115.874 16.2319C116.003 16.0322 116.164 15.8557 116.35 15.7094C116.601 15.5143 116.879 15.3591 117.175 15.2491C117.567 15.1058 117.981 15.0383 118.397 15.05C118.67 15.0574 118.942 15.0866 119.21 15.1371C119.571 15.2012 119.917 15.333 120.231 15.5259C120.592 15.7501 120.897 16.0581 121.12 16.4247C121.394 16.9097 121.524 17.4648 121.496 18.0233V23.9544H119.855V18.3934C119.857 18.1184 119.828 17.8439 119.769 17.5755C119.713 17.3167 119.582 17.0808 119.394 16.8975C119.195 16.7078 118.96 16.5617 118.703 16.4683C118.444 16.3701 118.17 16.3196 117.893 16.319C117.604 16.3179 117.317 16.3706 117.047 16.4745C116.777 16.5805 116.535 16.7475 116.338 16.9628C116.119 17.197 115.946 17.4714 115.828 17.7714C115.695 18.1386 115.632 18.528 115.641 18.9191V23.9544H114.034V16.2319Z" fill="white"/>
<path d="M125.807 11.3956H124.2V23.9357H125.807V11.3956Z" fill="white"/>
<path d="M133.705 19.7121C133.564 19.689 133.421 19.6745 133.278 19.6686C133.139 19.6686 132.974 19.6686 132.783 19.6686C132.621 19.6686 132.37 19.6686 132.028 19.6935C131.677 19.7132 131.33 19.778 130.995 19.8863C130.655 19.9906 130.342 20.1713 130.079 20.415C129.944 20.5473 129.84 20.7074 129.772 20.8845C129.704 21.0616 129.674 21.2515 129.684 21.4414C129.688 21.601 129.715 21.7593 129.764 21.911C129.819 22.0947 129.911 22.2643 130.036 22.4086C130.185 22.5777 130.368 22.7114 130.574 22.8005C130.856 22.9136 131.159 22.9666 131.463 22.956C131.822 22.9802 132.181 22.9065 132.504 22.7425C132.826 22.5785 133.099 22.3302 133.296 22.023C133.382 21.8857 133.454 21.7398 133.51 21.5876C133.564 21.4357 133.602 21.2782 133.623 21.1179C133.644 20.9438 133.663 20.7447 133.672 20.5177C133.681 20.2906 133.696 20.0294 133.709 19.7277L133.705 19.7121ZM133.895 23.9699C133.839 23.7589 133.799 23.5436 133.776 23.3261C133.753 23.1071 133.742 22.887 133.742 22.6668C133.578 22.9863 133.361 23.2746 133.101 23.519C132.887 23.7108 132.647 23.87 132.389 23.9917C132.169 24.0941 131.937 24.1642 131.698 24.2001C131.495 24.2273 131.291 24.2418 131.087 24.2436C130.646 24.2508 130.207 24.1825 129.788 24.0415C129.439 23.9255 129.116 23.7394 128.838 23.4941C128.587 23.2687 128.389 22.9893 128.258 22.6761C128.125 22.3574 128.059 22.0144 128.062 21.6684C128.063 21.4699 128.084 21.272 128.123 21.0775C128.166 20.8455 128.24 20.6205 128.343 20.4088C128.465 20.1625 128.618 19.9335 128.798 19.7277C129.018 19.4781 129.277 19.2678 129.565 19.1057C129.803 18.972 130.055 18.8676 130.317 18.7946C130.587 18.7202 130.862 18.6621 131.139 18.6205C131.411 18.58 131.671 18.5552 131.915 18.5427C132.159 18.5303 132.367 18.5241 132.526 18.5241C132.685 18.5241 132.914 18.5241 133.073 18.5241C133.232 18.5241 133.44 18.5458 133.684 18.5676C133.684 18.3001 133.684 18.0669 133.684 17.8647C133.684 17.6626 133.666 17.4853 133.65 17.3422C133.636 17.2089 133.607 17.0775 133.565 16.9503C133.525 16.8361 133.463 16.7306 133.385 16.6393C133.213 16.4107 132.967 16.2511 132.691 16.1883C132.432 16.1136 132.165 16.0728 131.897 16.067C131.568 16.0502 131.241 16.112 130.94 16.2474C130.74 16.3488 130.565 16.4944 130.427 16.6735C130.321 16.8217 130.248 16.9915 130.213 17.1711C130.191 17.2943 130.177 17.4191 130.173 17.5444H128.566C128.592 17.2837 128.635 17.025 128.694 16.7699C128.784 16.4466 128.948 16.15 129.174 15.9053C129.339 15.7163 129.537 15.5602 129.758 15.445C129.983 15.3229 130.221 15.2259 130.467 15.1558C130.717 15.0848 130.972 15.0348 131.231 15.0065C131.468 14.9824 131.707 14.971 131.946 14.9723C132.253 14.9728 132.559 14.9988 132.862 15.05C133.162 15.099 133.457 15.1771 133.742 15.2833C134.004 15.3823 134.252 15.5173 134.479 15.6845C134.685 15.8346 134.855 16.0316 134.974 16.2599C135.097 16.4837 135.181 16.7279 135.221 16.9814C135.249 17.1876 135.263 17.3954 135.264 17.6035L135.203 21.7648C135.203 21.7991 135.203 21.8924 135.203 22.0416C135.203 22.1909 135.203 22.3713 135.218 22.5797C135.233 22.7881 135.236 23.0151 135.252 23.2577C135.267 23.5003 135.294 23.7336 135.331 23.9544L133.895 23.9699Z" fill="white"/>
<path d="M137.953 15.2242H139.557L139.575 16.6331C139.646 16.4955 139.723 16.3616 139.807 16.2319C139.937 16.0322 140.098 15.8557 140.284 15.7094C140.531 15.5154 140.805 15.3603 141.097 15.2491C141.488 15.1058 141.903 15.0383 142.319 15.05C142.592 15.0574 142.863 15.0866 143.132 15.1371C143.497 15.1997 143.847 15.3316 144.164 15.5259C144.526 15.7501 144.831 16.0581 145.054 16.4247C145.327 16.9097 145.458 17.4648 145.429 18.0233V23.9544H143.789V18.3934C143.791 18.1184 143.762 17.8439 143.703 17.5755C143.646 17.3167 143.516 17.0808 143.327 16.8975C143.124 16.7011 142.883 16.5507 142.618 16.4558C142.359 16.3577 142.085 16.3072 141.809 16.3065C141.52 16.3055 141.233 16.3582 140.962 16.462C140.693 16.5681 140.45 16.7351 140.253 16.9503C140.037 17.189 139.866 17.4677 139.752 17.7714C139.62 18.1386 139.557 18.528 139.566 18.9191V23.9544H137.953V15.2242Z" fill="white"/>
<path d="M154.092 19.4571C154.108 18.9421 154.044 18.4278 153.902 17.9331C153.802 17.6023 153.646 17.2918 153.441 17.0156C153.243 16.7596 152.996 16.5478 152.714 16.3936C152.359 16.203 151.962 16.1097 151.562 16.123C151.216 16.1116 150.873 16.1864 150.563 16.3407C150.306 16.4768 150.081 16.6678 149.903 16.9006C149.732 17.1279 149.597 17.3808 149.502 17.6501C149.409 17.9108 149.337 18.1793 149.289 18.4525C149.246 18.6887 149.22 18.9278 149.212 19.1679C149.212 19.3825 149.212 19.538 149.212 19.6313C149.213 20.0251 149.244 20.4183 149.307 20.8069C149.362 21.1857 149.481 21.5519 149.658 21.8892C149.829 22.2079 150.076 22.4776 150.376 22.673C150.736 22.8925 151.152 23.0005 151.571 22.984C152.096 23.0164 152.614 22.8552 153.032 22.5299C153.365 22.2486 153.624 21.8859 153.783 21.4756C153.932 21.0998 154.024 20.7036 154.058 20.3C154.086 19.9143 154.101 19.6375 154.101 19.4602L154.092 19.4571ZM154.049 11.3987H155.656V22.5455C155.656 22.5921 155.656 22.673 155.656 22.7819C155.656 22.8907 155.656 23.0151 155.675 23.1457C155.693 23.2764 155.675 23.4163 155.693 23.5563C155.711 23.6962 155.693 23.8238 155.717 23.9388H154.11L154.077 22.5455C153.996 22.6955 153.907 22.8409 153.811 22.9809C153.673 23.1736 153.502 23.3391 153.307 23.4692C152.973 23.7037 152.6 23.8744 152.207 23.9731C151.874 24.0598 151.532 24.1068 151.189 24.113C150.831 24.1025 150.475 24.0493 150.129 23.9544C149.681 23.8419 149.264 23.6294 148.907 23.3324C148.479 22.9673 148.138 22.5092 147.907 21.9919C147.598 21.2636 147.455 20.4736 147.489 19.681C147.472 18.9509 147.582 18.2234 147.813 17.5319C148 16.9841 148.294 16.4805 148.677 16.0515C149.017 15.6762 149.434 15.3829 149.9 15.1931C150.362 15.0074 150.854 14.9125 151.351 14.9132C151.747 14.9036 152.141 14.9658 152.515 15.0967C152.796 15.1981 153.061 15.3417 153.3 15.5228C153.48 15.6593 153.639 15.8229 153.771 16.008L154.018 16.3905L154.049 11.3987Z" fill="white"/>
<path d="M160.936 13.3114H161.926C162.007 13.3056 162.086 13.2834 162.158 13.2461C162.234 13.21 162.299 13.1529 162.345 13.0813C162.399 12.9872 162.425 12.8792 162.421 12.7703C162.427 12.6543 162.4 12.539 162.345 12.4375C162.301 12.3652 162.238 12.3061 162.164 12.2664C162.093 12.2313 162.015 12.2102 161.935 12.2042H160.936V13.3114ZM160.441 11.7564H162.018C162.157 11.7676 162.295 11.8012 162.424 11.8559C162.563 11.9177 162.686 12.0126 162.782 12.1327C162.893 12.2847 162.947 12.4723 162.934 12.6614C162.934 12.6925 162.934 12.7454 162.934 12.82C162.924 12.906 162.898 12.9892 162.858 13.0657C162.806 13.1673 162.736 13.2589 162.653 13.3363C162.545 13.4368 162.414 13.5084 162.271 13.5447C162.421 13.5702 162.559 13.6457 162.662 13.7593C162.753 13.9055 162.806 14.0722 162.818 14.2445C162.849 14.4746 162.873 14.6768 162.898 14.8665C162.916 15.0472 162.953 15.2254 163.008 15.3984H162.494C162.479 15.3362 162.464 15.2833 162.449 15.2304C162.43 15.1715 162.417 15.1112 162.409 15.05C162.409 14.9816 162.381 14.9007 162.369 14.8043C162.357 14.7079 162.339 14.5866 162.32 14.4435C162.311 14.3277 162.291 14.213 162.259 14.1014C162.234 14.0203 162.19 13.9467 162.131 13.8868C162.068 13.8278 161.989 13.7888 161.905 13.7749C161.789 13.7468 161.672 13.7312 161.553 13.7282H160.942V15.3984H160.447L160.441 11.7564ZM161.663 10.6149C161.272 10.6124 160.885 10.6929 160.527 10.8513C160.178 11.0058 159.86 11.224 159.589 11.4951C159.32 11.7682 159.105 12.0899 158.953 12.4437C158.802 12.8087 158.726 13.2015 158.73 13.5976C158.726 14.0057 158.805 14.4102 158.962 14.7857C159.113 15.1426 159.329 15.4675 159.598 15.7436C159.867 16.0177 160.185 16.2363 160.536 16.3874C160.895 16.5432 161.282 16.6226 161.672 16.6207C162.067 16.6242 162.457 16.5426 162.818 16.3812C163.167 16.2271 163.484 16.0076 163.753 15.7343C164.023 15.4599 164.238 15.1345 164.386 14.7763C164.54 14.4033 164.618 14.0022 164.615 13.5976C164.617 13.2033 164.54 12.8128 164.389 12.4499C164.247 12.0956 164.04 11.7724 163.778 11.4982C163.51 11.222 163.192 11.0003 162.843 10.8451C162.469 10.6842 162.066 10.6068 161.66 10.6181L161.663 10.6149ZM161.66 10.2137C162.106 10.2106 162.548 10.3006 162.959 10.4781C163.355 10.6471 163.715 10.8933 164.019 11.2028C164.324 11.5123 164.568 11.8787 164.737 12.282C164.913 12.7028 165.003 13.1558 165 13.6131C165.003 14.0735 164.914 14.5297 164.737 14.9536C164.565 15.358 164.321 15.7261 164.016 16.0391C163.709 16.3482 163.347 16.5952 162.95 16.7668C162.542 16.9437 162.103 17.0337 161.66 17.0312C161.218 17.0343 160.78 16.9443 160.374 16.7668C159.978 16.5951 159.618 16.3481 159.314 16.0391C159.008 15.7262 158.762 15.3581 158.589 14.9536C158.407 14.5313 158.314 14.0745 158.318 13.6131C158.315 13.1549 158.408 12.7012 158.589 12.282C158.761 11.8777 159.008 11.5112 159.317 11.2028C159.625 10.8958 159.986 10.6501 160.383 10.4781C160.786 10.3013 161.221 10.2113 161.66 10.2137Z" fill="white"/>
<path d="M46.0616 33.0734C46.0067 32.6816 45.8012 32.3281 45.4903 32.0905C45.0928 31.8179 44.618 31.6867 44.1397 31.7173C43.7701 31.7128 43.4024 31.7717 43.052 31.8915C42.7319 32.0015 42.4455 32.1945 42.2209 32.4513C42.0363 32.6517 41.881 32.8779 41.7595 33.1231C41.6449 33.355 41.5528 33.5977 41.4845 33.8478C41.4184 34.0849 41.3724 34.3273 41.347 34.5724C41.3256 34.8119 41.3134 35.0328 41.3134 35.2318C41.3134 35.4308 41.3134 35.6268 41.347 35.8538C41.3732 36.0979 41.415 36.34 41.4723 36.5785C41.5308 36.8273 41.6095 37.0707 41.7075 37.3063C41.8042 37.5373 41.9328 37.753 42.0895 37.947C42.229 38.1034 42.3883 38.2404 42.5631 38.3544C42.7339 38.4654 42.9176 38.5542 43.11 38.6188C43.3088 38.6845 43.5135 38.7304 43.7211 38.7556C43.9318 38.7842 44.1441 38.7987 44.3567 38.7991C44.7556 38.8071 45.1541 38.7706 45.5452 38.6903C45.8528 38.6177 46.0728 38.5617 46.2052 38.5223V35.9658H44.2619V34.9581H47.3846V39.2315L46.908 39.3839C46.7155 39.4429 46.4894 39.502 46.2297 39.558C45.97 39.614 45.6827 39.6607 45.3711 39.7011C45.0345 39.7423 44.6957 39.762 44.3567 39.7602C43.7064 39.7823 43.058 39.6767 42.447 39.4492C42.0061 39.2756 41.6047 39.0121 41.2675 38.6747C40.8484 38.2521 40.5342 37.734 40.3509 37.1632C40.1673 36.5866 40.0745 35.9841 40.0759 35.378C40.0796 35.0982 40.099 34.8189 40.134 34.5413C40.18 34.1739 40.263 33.8123 40.3815 33.4621C40.5162 33.0656 40.7022 32.6891 40.9345 32.3425C41.193 31.9577 41.5218 31.6272 41.9031 31.369C42.1099 31.2282 42.3338 31.1153 42.5692 31.0331C42.7887 30.9584 43.0121 30.8962 43.2384 30.8465C43.4399 30.8053 43.6442 30.7794 43.8495 30.7687C44.0297 30.7687 44.1764 30.7687 44.2864 30.7687C44.4514 30.7687 44.6378 30.7687 44.8456 30.7936C45.063 30.811 45.2781 30.8516 45.4872 30.9149C45.7191 30.983 45.9427 31.078 46.1533 31.1979C46.3899 31.3298 46.6061 31.4965 46.795 31.6924C46.9106 31.8135 47.0131 31.947 47.1005 32.0905C47.1688 32.2073 47.2242 32.3314 47.2655 32.4607C47.2973 32.5706 47.3208 32.6829 47.3358 32.7966C47.3358 32.9023 47.3572 32.9925 47.3663 33.0734H46.0616Z" fill="white"/>
<path d="M53.181 35.9782C53.179 35.8035 53.1668 35.629 53.1442 35.4557C53.1225 35.2517 53.0612 35.054 52.964 34.8741C52.8556 34.6819 52.7037 34.5188 52.521 34.3983C52.2782 34.256 52.0002 34.188 51.7204 34.2023C51.5315 34.2024 51.3438 34.2328 51.1643 34.2925C50.9732 34.3574 50.7981 34.4635 50.651 34.6036C50.4882 34.7575 50.3582 34.9438 50.2691 35.1509C50.16 35.417 50.1039 35.7024 50.104 35.9907L53.181 35.9782ZM50.0582 36.7682C50.0468 37.0568 50.0746 37.3457 50.1407 37.6266C50.197 37.874 50.3009 38.1076 50.4463 38.314C50.5832 38.5084 50.766 38.6645 50.9779 38.768C51.2236 38.8803 51.491 38.9345 51.7601 38.9267C52.0909 38.9283 52.4131 38.819 52.6768 38.6156C52.8132 38.5015 52.9245 38.3595 53.0034 38.1987C53.0824 38.038 53.1273 37.8621 53.1351 37.6826H54.2443C54.2212 37.8745 54.1854 38.0647 54.1373 38.2518C54.0641 38.513 53.9263 38.7507 53.737 38.9422C53.6554 39.0313 53.5687 39.1154 53.4773 39.1941C53.3517 39.3001 53.213 39.389 53.0648 39.4585C52.8779 39.5475 52.6823 39.6163 52.4812 39.6638C52.2243 39.7207 51.9619 39.7478 51.699 39.7446C50.764 39.7446 50.0705 39.4709 49.6243 38.9173C49.145 38.2704 48.9068 37.4714 48.9521 36.6625C48.9461 36.1151 49.0256 35.5703 49.1874 35.0483C49.3534 34.5515 49.6755 34.1241 50.104 33.8322C50.2398 33.7314 50.389 33.6508 50.5471 33.5928C50.6931 33.5394 50.8421 33.4948 50.9932 33.459C51.1272 33.4302 51.263 33.4104 51.3996 33.3999C51.5248 33.3999 51.6318 33.3999 51.7051 33.3999C52.0847 33.389 52.4629 33.4502 52.8204 33.5803C53.0958 33.6834 53.3468 33.8445 53.5568 34.0531C53.7413 34.2446 53.8894 34.4692 53.9937 34.7155C54.0937 34.954 54.1665 35.2034 54.2107 35.4588C54.2523 35.6981 54.2737 35.9405 54.2748 36.1835V36.7713L50.0582 36.7682Z" fill="white"/>
<path d="M55.8912 33.5616H57.0003V34.532C57.048 34.4367 57.101 34.3443 57.1592 34.2552C57.2496 34.1179 57.361 33.9961 57.4892 33.8944C57.6595 33.7633 57.8479 33.6585 58.0483 33.5834C58.3208 33.4849 58.6088 33.4385 58.8978 33.4466C59.0854 33.4517 59.2723 33.4714 59.4569 33.5057C59.7085 33.5509 59.9498 33.6426 60.1689 33.7762C60.4184 33.9311 60.6279 34.1443 60.78 34.3983C60.9681 34.7325 61.0582 35.1146 61.0397 35.4993V39.5767H59.9061V35.7481C59.9075 35.5588 59.8881 35.37 59.848 35.1851C59.8082 35.0071 59.7179 34.8449 59.5883 34.7186C59.4484 34.5815 59.2819 34.4755 59.0994 34.4076C58.9205 34.34 58.7311 34.3052 58.5403 34.305C58.3408 34.3044 58.143 34.3413 57.9566 34.4138C57.7703 34.4856 57.6029 34.6006 57.4678 34.7497C57.3198 34.9137 57.2036 35.1047 57.1256 35.3127C57.0348 35.5666 56.9913 35.8356 56.9973 36.1058V39.5767H55.8881L55.8912 33.5616Z" fill="white"/>
<path d="M66.454 36.6469C66.3528 36.6314 66.2507 36.622 66.1484 36.6189H65.8062C65.6962 36.6189 65.5221 36.6189 65.2868 36.6376C65.0451 36.6511 64.806 36.695 64.5748 36.7682C64.34 36.8417 64.1241 36.967 63.9424 37.1352C63.8503 37.2263 63.7786 37.3365 63.7322 37.4583C63.6858 37.5802 63.6658 37.7108 63.6735 37.8412C63.6762 37.9469 63.6936 38.0516 63.7254 38.1522C63.7632 38.2781 63.8279 38.3938 63.9148 38.4912C64.0163 38.6089 64.1427 38.7014 64.2846 38.7618C64.4788 38.8403 64.6868 38.8773 64.8957 38.8707C65.1431 38.8866 65.3902 38.835 65.6114 38.7213C65.8327 38.6076 66.0202 38.4358 66.1546 38.2238C66.214 38.1251 66.2641 38.021 66.3043 37.9128C66.3402 37.812 66.3658 37.7078 66.3807 37.6017C66.3807 37.4804 66.4082 37.3436 66.4143 37.1881C66.4204 37.0326 66.4142 36.8491 66.4387 36.6407L66.454 36.6469ZM66.567 39.5705C66.5315 39.4239 66.504 39.2754 66.4845 39.1257C66.4693 38.9738 66.4622 38.8212 66.4632 38.6685C66.3505 38.8894 66.2005 39.0884 66.0201 39.2563C65.8748 39.3912 65.7099 39.5024 65.5312 39.586C65.3803 39.6585 65.2197 39.7077 65.0546 39.7322C64.9157 39.7499 64.7759 39.7593 64.636 39.7602C64.3321 39.7666 64.0293 39.7203 63.7407 39.6233C63.5003 39.542 63.278 39.4131 63.0868 39.2439C62.9123 39.0904 62.7753 38.8976 62.6866 38.681C62.5939 38.4609 62.5471 38.2237 62.5491 37.9843C62.5514 37.8475 62.5657 37.7111 62.5918 37.5769C62.6215 37.4169 62.6729 37.262 62.7446 37.1166C62.8258 36.9471 62.9286 36.7892 63.0502 36.6469C63.2032 36.477 63.3829 36.3341 63.5818 36.2239C63.7448 36.1323 63.9183 36.0612 64.0982 36.0124C64.2841 35.9605 64.4728 35.92 64.6635 35.8912C64.8529 35.8632 65.0332 35.8476 65.2012 35.8383C65.3693 35.8289 65.5068 35.8383 65.6321 35.8383H66.0079C66.1179 35.8383 66.2584 35.8383 66.4326 35.8694C66.4326 35.6859 66.4326 35.5242 66.4326 35.3842C66.4304 35.2636 66.4223 35.1432 66.4081 35.0234C66.3995 34.9312 66.3801 34.8403 66.3501 34.7528C66.3239 34.6737 66.2824 34.6007 66.2279 34.5382C66.1084 34.381 65.9387 34.271 65.7481 34.2272C65.5701 34.1757 65.3863 34.1475 65.2012 34.1432C64.9744 34.1318 64.7482 34.1755 64.5412 34.2708C64.4027 34.3394 64.2814 34.4394 64.1868 34.5631C64.1148 34.6654 64.0648 34.7819 64.0401 34.9052C64.0244 34.9905 64.0142 35.0767 64.0096 35.1634H62.9035C62.9226 34.9845 62.9522 34.8069 62.9921 34.6315C63.0477 34.4001 63.159 34.1863 63.316 34.0095C63.4298 33.882 63.5654 33.7766 63.7163 33.6985C63.8716 33.6141 64.0355 33.5474 64.2051 33.4994C64.3753 33.4509 64.549 33.4166 64.7246 33.3968C64.891 33.3777 65.0582 33.3673 65.2257 33.3657C65.4407 33.3661 65.6553 33.3848 65.8673 33.4217C66.0759 33.4544 66.2806 33.5085 66.4784 33.5834C66.6584 33.6511 66.8281 33.7443 66.9826 33.8602C67.1256 33.9627 67.2428 34.098 67.3248 34.2552C67.4104 34.4094 67.4683 34.5779 67.4959 34.7528C67.5163 34.8939 67.5265 35.0363 67.5265 35.1789L67.4776 38.0589C67.4776 38.0807 67.4776 38.146 67.4776 38.2486C67.4776 38.3513 67.4776 38.4788 67.4776 38.6219C67.4776 38.7649 67.4776 38.9329 67.502 39.0884C67.5265 39.2439 67.5326 39.4181 67.554 39.5705H66.567Z" fill="white"/>
<path d="M70.4567 33.5523V37.4276C70.4574 37.5807 70.4696 37.7335 70.4934 37.8848C70.5154 38.0408 70.5741 38.1891 70.6645 38.3171C70.7648 38.4511 70.896 38.5579 71.0464 38.6281C71.2584 38.7207 71.4882 38.7632 71.7186 38.7525C71.988 38.7547 72.255 38.7018 72.5039 38.597C72.7557 38.4943 72.9694 38.3137 73.115 38.0807C73.2366 37.9072 73.3123 37.7048 73.335 37.4929C73.3533 37.2876 73.3625 37.1072 73.3625 36.9548V33.5337H74.5052V38.4477C74.5052 38.4788 74.5052 38.541 74.5052 38.6281C74.5052 38.7152 74.5052 38.8147 74.5052 38.9391C74.5052 39.0635 74.5052 39.1693 74.5052 39.2874C74.5052 39.4056 74.5052 39.5083 74.5052 39.5985H73.3502L73.3258 38.5659C73.2708 38.6685 73.2036 38.7867 73.1211 38.9142C73.0295 39.0509 72.9159 39.1708 72.785 39.2688C72.6184 39.3876 72.435 39.4799 72.2411 39.5425C71.9824 39.6258 71.7118 39.6647 71.4406 39.6575C71.1166 39.665 70.794 39.6145 70.4872 39.5083C70.2374 39.4202 70.01 39.2768 69.8212 39.0884C69.6426 38.9053 69.5078 38.6829 69.427 38.4384C69.337 38.1744 69.2925 37.8966 69.2956 37.6173V33.5741L70.4567 33.5523Z" fill="white"/>
<path d="M77.7868 38.1367H76.4791V39.5767H77.7868V38.1367Z" fill="white"/>
<path d="M84.13 34.6564H86.1681C86.2702 34.6558 86.3722 34.6495 86.4736 34.6378C86.589 34.6269 86.7034 34.6072 86.8158 34.5787C86.9169 34.5558 87.0138 34.517 87.103 34.4636C87.1397 34.4387 87.1947 34.4014 87.2619 34.3485C87.3365 34.2874 87.4014 34.2151 87.4544 34.1339C87.5212 34.0304 87.5746 33.9186 87.6133 33.8011C87.6595 33.6491 87.6811 33.4905 87.6775 33.3315C87.6951 33.0465 87.6258 32.763 87.4789 32.5197C87.3595 32.3423 87.1975 32.1988 87.0083 32.103C86.8329 32.0167 86.6433 31.964 86.4492 31.9475C86.2597 31.9288 86.1039 31.9226 85.9848 31.9226H84.13V34.6564ZM82.9751 30.9242H86.0306C86.1406 30.9242 86.275 30.9242 86.4308 30.9242C86.5867 30.9242 86.7578 30.9429 86.9381 30.9647C87.1222 30.9905 87.304 31.0311 87.4819 31.086C87.6609 31.1421 87.8315 31.2226 87.9891 31.3255C88.2913 31.5128 88.5375 31.7806 88.7011 32.0999C88.8535 32.4075 88.9321 32.7475 88.9303 33.092C88.9292 33.3848 88.871 33.6745 88.7591 33.9442C88.6578 34.2001 88.5072 34.4328 88.3161 34.6284C88.1645 34.7931 87.9829 34.9262 87.7814 35.0203C87.6286 35.0864 87.4725 35.1445 87.3139 35.1945C87.4975 35.2429 87.6757 35.3106 87.8455 35.3966C87.9894 35.4746 88.117 35.5803 88.2214 35.7077C88.333 35.8469 88.418 36.0062 88.4719 36.1773C88.5417 36.4009 88.5888 36.6312 88.6125 36.8646C88.643 37.1197 88.6736 37.3591 88.7011 37.5831C88.7286 37.807 88.7591 38.0278 88.7989 38.2424C88.8386 38.457 88.8844 38.6778 88.9363 38.8956C88.9916 39.1295 89.06 39.36 89.1411 39.586H87.8791C87.8276 39.4184 87.7848 39.2481 87.7508 39.0759C87.7111 38.88 87.6775 38.6778 87.6439 38.4539C87.6103 38.23 87.5858 38.0403 87.5644 37.8319C87.543 37.6235 87.5155 37.4431 87.4911 37.2752C87.4618 37.011 87.4107 36.7499 87.3383 36.4945C87.2842 36.3028 87.1783 36.1304 87.0328 35.9969C86.8787 35.8616 86.692 35.7703 86.4919 35.7325C86.2061 35.6761 85.9153 35.65 85.6242 35.6548H84.1453V39.5767H82.9659L82.9751 30.9242Z" fill="white"/>
<path d="M90.8369 33.5523H91.943V39.5767H90.8369V33.5523ZM90.7177 30.9398H92.0499V32.1839H90.7177V30.9398Z" fill="white"/>
<path d="M97.3542 35.4993C97.3542 35.4277 97.3298 35.322 97.3053 35.1883C97.2804 35.0399 97.2286 34.8975 97.1526 34.7684C97.0661 34.621 96.9468 34.4963 96.8042 34.4045C96.6146 34.289 96.3955 34.2338 96.1748 34.2459C95.8532 34.2243 95.5354 34.3277 95.2857 34.5351C95.0835 34.719 94.9274 34.9493 94.8304 35.2069C94.7382 35.451 94.6825 35.7079 94.6654 35.9689C94.6654 36.2208 94.641 36.4012 94.641 36.5132C94.6409 36.8131 94.6634 37.1125 94.7082 37.4089C94.7452 37.6735 94.8225 37.9306 94.9373 38.1709C95.039 38.385 95.1938 38.5683 95.3865 38.7027C95.6037 38.8446 95.8589 38.9142 96.1168 38.9018C96.3209 38.9085 96.5238 38.8669 96.7095 38.7805C96.8621 38.7096 96.9961 38.603 97.1006 38.4695C97.1984 38.3425 97.272 38.1979 97.3176 38.0434C97.3645 37.8985 97.3923 37.7479 97.4001 37.5955H98.5214C98.5054 37.883 98.4392 38.1652 98.3259 38.429C98.2124 38.6857 98.0504 38.9171 97.8492 39.1102C97.6346 39.315 97.3823 39.4746 97.1068 39.5798C96.7933 39.6994 96.4607 39.7584 96.1259 39.754C96.0251 39.754 95.8968 39.754 95.7379 39.7291C95.5681 39.7108 95.4003 39.6764 95.2368 39.6264C95.047 39.5711 94.8644 39.4928 94.6929 39.3932C94.4997 39.2838 94.3261 39.1418 94.1796 38.9733C94.0831 38.8601 93.9952 38.7394 93.9168 38.6125C93.8213 38.4626 93.7434 38.3019 93.6846 38.1336C93.6118 37.9318 93.5576 37.7235 93.5226 37.5115C93.481 37.2379 93.4616 36.9612 93.4646 36.6842C93.4506 36.1539 93.5378 35.6258 93.7213 35.1292C93.8637 34.7502 94.087 34.4081 94.3751 34.1277C94.6231 33.8892 94.9192 33.7087 95.2429 33.599C95.5387 33.499 95.8479 33.4466 96.1595 33.4435C96.2543 33.4435 96.3765 33.4435 96.5293 33.4683C96.6942 33.4861 96.8569 33.5205 97.0151 33.571C97.1904 33.626 97.3594 33.7 97.5192 33.7918C97.6946 33.8923 97.8492 34.0264 97.9745 34.1868C98.1685 34.3942 98.3064 34.6492 98.3748 34.927C98.4176 35.1261 98.4492 35.3276 98.4695 35.5304L97.3542 35.4993Z" fill="white"/>
<path d="M99.7803 30.9274H100.902V34.4418C101.082 34.1206 101.355 33.8634 101.684 33.7047C102.038 33.529 102.427 33.4406 102.821 33.4466C102.991 33.4476 103.16 33.4632 103.328 33.4932C103.51 33.5254 103.688 33.5776 103.859 33.6487C104.033 33.7267 104.194 33.8316 104.336 33.9597C104.483 34.0861 104.602 34.2431 104.684 34.4201C104.715 34.4854 104.742 34.5507 104.767 34.6191C104.795 34.705 104.814 34.7936 104.825 34.8835C104.825 34.9892 104.855 35.1198 104.868 35.2722C104.88 35.4246 104.868 35.6081 104.868 35.8258V39.5767H103.737V36.0124C103.737 35.8756 103.737 35.7014 103.719 35.521C103.707 35.3281 103.659 35.1392 103.578 34.9643C103.492 34.7792 103.36 34.6197 103.196 34.5009C102.978 34.3604 102.721 34.293 102.463 34.3081C102.279 34.3047 102.097 34.3331 101.922 34.3921C101.777 34.4422 101.641 34.5135 101.516 34.6036C101.412 34.6787 101.318 34.7676 101.238 34.8679C101.177 34.9454 101.122 35.0275 101.073 35.1136C100.973 35.3059 100.917 35.5184 100.908 35.7356C100.908 35.9845 100.886 36.2022 100.886 36.3857V39.5767H99.765L99.7803 30.9274Z" fill="white"/>
<path d="M105.992 33.5305H107.04V32.2709L108.125 31.9102V33.5305H109.445V34.3578H108.125V37.9687C108.125 38.0403 108.125 38.1242 108.125 38.2207C108.131 38.3152 108.162 38.4064 108.213 38.485C108.274 38.5717 108.355 38.6413 108.449 38.6872C108.591 38.7505 108.746 38.7792 108.901 38.7712C109.011 38.7712 109.115 38.7712 109.207 38.7712C109.28 38.7633 109.353 38.7488 109.423 38.7276V39.6047C109.323 39.6047 109.194 39.6358 109.042 39.6513C108.889 39.6669 108.708 39.6762 108.504 39.6762C108.111 39.7062 107.718 39.6116 107.379 39.4056C107.141 39.2252 107.019 38.8862 107.019 38.3917V34.3578H105.971L105.992 33.5305Z" fill="white"/>
<path d="M110.798 33.5523H111.908V39.5767H110.798V33.5523ZM110.682 30.9398H112.015V32.1839H110.682V30.9398Z" fill="white"/>
<path d="M116.28 38.6405C116.555 38.6513 116.828 38.5959 117.077 38.4788C117.275 38.3718 117.446 38.2208 117.579 38.0372C117.631 37.9594 117.686 37.8754 117.734 37.7852C117.791 37.6875 117.835 37.583 117.866 37.4742C117.904 37.3198 117.932 37.1629 117.948 37.0046C117.967 36.8211 117.979 36.5909 117.979 36.3204C117.991 36.0047 117.95 35.6894 117.86 35.3873C117.788 35.1699 117.671 34.9706 117.517 34.8026C117.359 34.6367 117.169 34.5055 116.958 34.4169C116.733 34.3207 116.491 34.272 116.246 34.2739C115.947 34.258 115.651 34.3421 115.403 34.5134C115.2 34.6663 115.037 34.8669 114.926 35.0981C114.817 35.3254 114.742 35.5689 114.706 35.8196C114.675 36.0411 114.657 36.2645 114.654 36.4883C114.656 36.7323 114.677 36.9758 114.719 37.2161C114.76 37.4606 114.841 37.6962 114.96 37.9128C115.08 38.1256 115.25 38.305 115.455 38.4353C115.705 38.5817 115.991 38.6528 116.28 38.6405ZM114.997 40.0432C115.001 40.203 115.029 40.3613 115.079 40.5128C115.124 40.654 115.202 40.7813 115.308 40.8829C115.428 40.9962 115.571 41.0802 115.727 41.1287C115.936 41.1954 116.155 41.2259 116.375 41.2188C116.686 41.2363 116.995 41.1663 117.27 41.0167C117.481 40.8811 117.643 40.6807 117.734 40.4444C117.841 40.1651 117.901 39.8698 117.912 39.5705C117.933 39.2315 117.942 38.8551 117.942 38.4477C117.838 38.676 117.68 38.8739 117.481 39.0231C117.307 39.1542 117.116 39.259 116.912 39.3341C116.738 39.3976 116.556 39.4373 116.372 39.4523C116.204 39.4523 116.066 39.4709 115.99 39.4709C115.842 39.4705 115.694 39.4601 115.547 39.4398C115.383 39.4195 115.221 39.3841 115.064 39.3341C114.898 39.2788 114.739 39.2037 114.59 39.1102C114.431 39.0076 114.291 38.8783 114.175 38.7276C113.924 38.4289 113.744 38.0756 113.649 37.695C113.551 37.307 113.502 36.9077 113.503 36.507C113.493 36.0524 113.562 35.5997 113.707 35.1696C113.83 34.8222 114.023 34.5046 114.273 34.2366C114.508 33.988 114.793 33.7948 115.11 33.6705C115.436 33.5448 115.782 33.4815 116.13 33.4839C116.387 33.4793 116.643 33.5118 116.891 33.5803C117.077 33.6359 117.255 33.7164 117.42 33.8198C117.55 33.9054 117.668 34.0102 117.768 34.1308C117.854 34.2334 117.93 34.3267 117.991 34.4076V33.5803H119.076L119.051 34.6689V38.4384C119.051 38.796 119.051 39.1102 119.051 39.3714C119.051 39.6327 119.027 39.8659 119.009 40.0556C118.994 40.2239 118.964 40.3905 118.92 40.5533C118.884 40.6838 118.837 40.8108 118.779 40.9327C118.663 41.1601 118.497 41.357 118.294 41.5081C118.1 41.6456 117.887 41.7506 117.661 41.8191C117.437 41.8918 117.205 41.9397 116.971 41.9622C116.751 41.9861 116.531 41.9986 116.311 41.9995C115.973 42.0044 115.636 41.9742 115.305 41.9093C115.068 41.8634 114.838 41.7849 114.621 41.676C114.457 41.5936 114.313 41.477 114.196 41.3339C114.096 41.2094 114.016 41.0699 113.958 40.9203C113.904 40.7792 113.868 40.6319 113.851 40.4817C113.851 40.3325 113.823 40.1925 113.817 40.0556L114.997 40.0432Z" fill="white"/>
<path d="M122.278 38.1367H120.97V39.5767H122.278V38.1367Z" fill="white"/>
<path d="M30.7688 25.1456C28.7831 24.7931 26.7713 24.6151 24.7556 24.6137C21.9733 24.6084 19.2015 24.9605 16.5058 25.6619C13.8121 26.3762 11.0395 26.7357 8.25596 26.7318C7.26425 26.7348 6.27302 26.687 5.28602 26.5887L16.4905 6.82056L23.2707 18.7449C20.9852 18.8441 18.7159 19.1849 16.4997 19.7619C14.8947 20.1828 13.2603 20.477 11.6109 20.6421L9.5698 24.2405C11.9112 24.1406 14.2364 23.7967 16.5089 23.2142C19.2037 22.5075 21.9759 22.1532 24.7587 22.1598C26.2599 22.1642 27.7593 22.2681 29.2472 22.4708L27.1084 18.6858L21.5382 8.8857L16.4997 0L0 29.0861C2.6898 29.8226 5.46446 30.1887 8.24984 30.1747C11.0353 30.1894 13.81 29.8233 16.4997 29.0861C19.198 28.3993 21.9682 28.0484 24.7495 28.0411C27.5308 28.0492 30.301 28.4 32.9994 29.0861L30.7688 25.1456Z" fill="white"/>
</svg>
