<svg width="15" height="19" viewBox="0 0 15 19" fill="none" xmlns="http://www.w3.org/2000/svg">
<path d="M14.7604 15.4717C14.7425 15.4237 14.7211 15.3776 14.7014 15.3296C14.4267 14.68 13.9449 14.1379 13.3299 13.7865L10.5602 12.2257C10.4868 12.1834 10.4259 12.1224 10.3838 12.0491C10.3417 11.9758 10.3199 11.8928 10.3207 11.8084V10.8637C10.7875 10.1923 11.138 9.44809 11.3577 8.66187C11.3619 8.65325 11.3655 8.64435 11.3685 8.63523C11.529 8.47879 11.6564 8.29195 11.743 8.08577C11.8296 7.87959 11.8737 7.65826 11.8727 7.43486V6.14392C11.8728 5.79541 11.7641 5.45545 11.5616 5.17084C11.5616 5.17084 11.5705 3.48571 11.5705 3.37916C11.5706 2.89295 11.4683 2.41208 11.2701 1.96748C11.1608 1.71295 11.0176 1.47407 10.8445 1.2572C10.1293 0.42262 9.0118 0 7.4991 0C5.98641 0 4.86351 0.42262 4.15365 1.2572C3.61755 1.92093 3.35378 2.76132 3.41519 3.61V5.16906C3.21423 5.45435 3.10626 5.794 3.10585 6.14215V7.42421C3.10483 7.6476 3.14893 7.86894 3.23553 8.07511C3.32214 8.28129 3.4495 8.46813 3.61008 8.62458C3.82842 9.42477 4.18279 10.182 4.65789 10.8637V11.8013C4.65825 11.8858 4.63612 11.9689 4.59373 12.0422C4.55134 12.1155 4.4902 12.1763 4.4165 12.2186L1.64859 13.7777C0.986187 14.1571 0.479689 14.7563 0.218143 15.4699C0.262844 15.4859 0.78317 15.6723 1.51627 15.8517C1.67607 15.4903 1.94879 15.1895 2.29408 14.994L5.06198 13.4332C5.34995 13.2681 5.5886 13.03 5.75353 12.7433C5.91847 12.4566 6.00377 12.1315 6.00071 11.8013V10.3808L5.84515 10.1854C5.37789 9.55504 5.04341 8.83756 4.86172 8.07588L4.80093 7.80065L4.57206 7.64795C4.53451 7.62364 4.5036 7.5905 4.48208 7.55147C4.46055 7.51243 4.44908 7.46871 4.44868 7.42421V6.14215C4.44891 6.10518 4.45699 6.06867 4.4724 6.03501C4.4878 6.00135 4.51018 5.9713 4.53808 5.94682L4.7598 5.73907V3.4857C4.72665 3.01149 4.87335 2.54213 5.17106 2.16991C5.61092 1.65141 6.39051 1.3886 7.48658 1.38504H7.50804C8.06418 1.36842 8.61772 1.46699 9.13339 1.67448C9.39855 1.7859 9.63461 1.95595 9.82357 2.17168C10.1207 2.54429 10.2679 3.01321 10.2366 3.48748V5.74084L10.4601 5.94682C10.4874 5.97207 10.5092 6.00256 10.5243 6.03644C10.5394 6.07032 10.5473 6.10689 10.5477 6.14392V7.42421C10.5478 7.46885 10.5368 7.51282 10.5156 7.55218C10.4943 7.59154 10.4636 7.62505 10.4261 7.64972L10.1973 7.80243L10.1365 8.07588C9.95372 8.83774 9.61935 9.55559 9.15305 10.1872L8.9957 10.3825V11.8031C8.99306 12.1337 9.07872 12.459 9.24394 12.746C9.40916 13.033 9.64803 13.2713 9.93622 13.4367L12.7041 14.9976C13.0175 15.1761 13.2716 15.4414 13.4354 15.7611L13.4837 15.8552C13.6094 16.1195 13.6742 16.4082 13.6733 16.7005V17.0751C12.7507 16.8833 11.812 16.7787 10.8696 16.7626C9.74856 16.7865 8.6337 16.9342 7.54559 17.203C6.51044 17.4593 5.44922 17.5975 4.38252 17.615C3.98021 17.615 3.20956 17.5528 3.20956 17.5528C2.11793 17.4361 1.04198 17.2039 0 16.8603V18.3128L0.894027 18.5454C2.03689 18.8282 3.20847 18.9807 4.3861 19C5.56274 18.9833 6.73345 18.8308 7.87459 18.5454C8.85127 18.3104 9.8506 18.1806 10.8553 18.1583C11.9011 18.185 12.9411 18.3225 13.9576 18.5685L15 18.8331V16.7076C15.0009 16.2822 14.9208 15.8604 14.764 15.4646" fill="white"/>
</svg>
