<svg width="16" height="8" viewBox="0 0 16 8" fill="none" xmlns="http://www.w3.org/2000/svg">
<path d="M0 4.0219C8.6135 12.9726 15.4029 4.0219 15.4029 4.0219C7.90413 -5.02737 0 4.0219 0 4.0219ZM7.77763 7.32245C5.89239 7.32245 4.3641 5.83904 4.3641 4.00914C4.3641 2.17925 5.89299 0.695836 7.77763 0.695836C9.66227 0.695836 11.1912 2.17925 11.1912 4.00914C11.1912 5.83904 9.66348 7.32245 7.77763 7.32245Z" fill="white" fill-opacity="0.7"/>
<path d="M7.80791 5.90172C8.86197 5.90172 9.71645 5.06545 9.71645 4.03387C9.71645 3.00228 8.86197 2.16601 7.80791 2.16601C6.75385 2.16601 5.89936 3.00228 5.89936 4.03387C5.89936 5.06545 6.75385 5.90172 7.80791 5.90172Z" fill="white" fill-opacity="0.7"/>
</svg>
