<svg width="31" height="34" viewBox="0 0 31 34" fill="none" xmlns="http://www.w3.org/2000/svg">
<g filter="url(#filter0_i_1_7964)">
<path fill-rule="evenodd" clip-rule="evenodd" d="M20.804 4.73033L26.666 10.6374L17.7347 20.455L10.5591 22.4692C10.3016 22.5218 10.1998 22.414 10.2417 22.1608L11.868 14.5479L20.804 4.73033ZM6.53413 22.4554C7.41074 22.4303 8.14363 23.156 8.16758 24.0735C8.19153 24.9909 7.49815 25.7567 6.62155 25.7818C5.01325 25.8282 3.89356 26.7043 3.42412 27.7395C3.23371 28.1594 3.15347 28.6031 3.19658 29.008C3.2337 29.3514 3.37022 29.6735 3.61572 29.9279C4.32586 30.6674 5.8671 30.9908 8.47176 30.3302C8.88371 30.225 9.7148 29.9342 10.7567 29.5695C15.7013 27.8386 24.7859 24.6588 26.2014 29.0769C26.478 29.9467 26.0301 30.8918 25.1978 31.1825C24.3667 31.4733 23.4638 31.0033 23.1872 30.1335C22.7824 28.8688 15.6486 31.3655 11.765 32.7242C10.6525 33.114 9.7639 33.4261 9.21902 33.5639C5.36054 34.5428 2.79301 33.7682 1.37273 32.288C0.584745 31.467 0.146446 30.4481 0.0314817 29.3727C-0.0786921 28.3587 0.102136 27.2959 0.545226 26.3195C1.47572 24.2665 3.58219 22.5406 6.53413 22.4554ZM26.6397 0.396203C26.3678 0.122971 26.0505 -0.00487164 25.6864 0.000141807C25.3236 0.00640862 25.0134 0.155557 24.7559 0.43631L22.665 2.71492L28.533 8.64333L30.6454 6.34215C30.8981 6.07518 31.0035 5.72801 30.9999 5.34573C30.9939 4.96972 30.8646 4.62881 30.6095 4.37061L26.6397 0.396203ZM15.8726 20.0991L11.4716 21.3336C11.3123 21.3662 11.2501 21.301 11.2776 21.1456L12.274 16.4756L15.8726 20.0991Z" fill="#1DAF1A"/>
</g>
<defs>
<filter id="filter0_i_1_7964" x="0" y="0" width="31" height="38" filterUnits="userSpaceOnUse" color-interpolation-filters="sRGB">
<feFlood flood-opacity="0" result="BackgroundImageFix"/>
<feBlend mode="normal" in="SourceGraphic" in2="BackgroundImageFix" result="shape"/>
<feColorMatrix in="SourceAlpha" type="matrix" values="0 0 0 0 0 0 0 0 0 0 0 0 0 0 0 0 0 0 127 0" result="hardAlpha"/>
<feOffset dy="4"/>
<feGaussianBlur stdDeviation="2"/>
<feComposite in2="hardAlpha" operator="arithmetic" k2="-1" k3="1"/>
<feColorMatrix type="matrix" values="0 0 0 0 0 0 0 0 0 0 0 0 0 0 0 0 0 0 0.25 0"/>
<feBlend mode="normal" in2="shape" result="effect1_innerShadow_1_7964"/>
</filter>
</defs>
</svg>
