<svg width="16" height="11" viewBox="0 0 16 11" fill="none" xmlns="http://www.w3.org/2000/svg">
<path fill-rule="evenodd" clip-rule="evenodd" d="M0 1.7131C0 0.76698 0.766981 0 1.7131 0H13.418C14.3608 0 15.125 0.764243 15.125 1.70698V3.40905C15.125 3.42481 15.1121 3.4375 15.0964 3.4375C13.9731 3.4375 13.0625 4.34809 13.0625 5.47135C13.0625 6.59462 13.9731 7.50521 15.0964 7.50521C15.1121 7.50521 15.125 7.5179 15.125 7.53366V9.26457C15.125 10.223 14.348 11 13.3896 11H1.74165C0.779763 11 0 10.2202 0 9.25835V7.53277C0 7.51748 0.0124544 7.50511 0.0277505 7.50521C1.15102 7.50521 2.0616 6.59462 2.0616 5.47135C2.0616 4.34809 1.15102 3.4375 0.0277505 3.4375C0.0124544 3.4376 0 3.42523 0 3.40993V1.7131Z" fill="#0E76BB"/>
</svg>
