<svg width="29" height="29" viewBox="0 0 29 29" fill="none" xmlns="http://www.w3.org/2000/svg">
<g id="Subtract">
<path fill-rule="evenodd" clip-rule="evenodd" d="M1.00001 14.5001C1.00001 7.04419 7.04419 1.00001 14.5001 1.00001C21.9559 1.00001 28.0001 7.04419 28.0001 14.5001C28.0001 21.9559 21.9559 28.0001 14.5001 28.0001C7.04419 28.0001 1.00001 21.9559 1.00001 14.5001ZM14.5001 2.08913C7.6457 2.08913 2.08913 7.6457 2.08913 14.5001C2.08913 17.5934 3.22134 20.4233 5.0934 22.5964C5.18931 22.7078 5.33608 22.7615 5.4812 22.7383C5.62632 22.7151 5.74908 22.6184 5.80556 22.4827C7.22389 19.0757 10.5819 16.6693 14.5001 16.6693C18.4206 16.6693 21.7817 19.0679 23.1982 22.4781C23.2546 22.6139 23.3774 22.7107 23.5226 22.7339C23.6678 22.7571 23.8147 22.7034 23.9106 22.5919C25.7804 20.4194 26.911 17.5912 26.911 14.5001C26.911 7.6457 21.3544 2.08913 14.5001 2.08913ZM9.8643 10.4089C9.8643 7.8486 11.9398 5.77309 14.5001 5.77309C17.0603 5.77309 19.1358 7.8486 19.1358 10.4089C19.1358 12.9691 17.0603 15.0446 14.5001 15.0446C11.9398 15.0446 9.8643 12.9691 9.8643 10.4089ZM14.5001 6.86221C12.5413 6.86221 10.9534 8.4501 10.9534 10.4089C10.9534 12.3676 12.5413 13.9555 14.5001 13.9555C16.4588 13.9555 18.0467 12.3676 18.0467 10.4089C18.0467 8.4501 16.4588 6.86221 14.5001 6.86221ZM14.5001 17.7585C10.7478 17.7585 7.57027 20.2582 6.53215 23.6782C6.48219 23.8428 6.5367 24.0212 6.67009 24.1298C8.80579 25.8684 11.5317 26.911 14.5001 26.911C17.47 26.911 20.1973 25.8673 22.3335 24.127C22.4666 24.0186 22.5211 23.8405 22.4715 23.6761C21.4373 20.2518 18.2578 17.7585 14.5001 17.7585Z" fill="#3E3F3F"/>
<path d="M5.09339 22.5964L4.71457 22.9228L4.71457 22.9228L5.09339 22.5964ZM5.48119 22.7383L5.56002 23.232H5.56002L5.48119 22.7383ZM5.80554 22.4827L5.34395 22.2906H5.34395L5.80554 22.4827ZM23.1982 22.4781L23.6599 22.2863V22.2863L23.1982 22.4781ZM23.5226 22.7339L23.4437 23.2277H23.4437L23.5226 22.7339ZM23.9106 22.5919L23.5316 22.2658L23.5316 22.2658L23.9106 22.5919ZM6.53214 23.6782L6.0537 23.5329L6.0537 23.5329L6.53214 23.6782ZM6.67008 24.1298L6.35442 24.5176L6.35442 24.5176L6.67008 24.1298ZM22.3335 24.127L22.6493 24.5147L22.6493 24.5147L22.3335 24.127ZM22.4715 23.676L22.9501 23.5315V23.5315L22.4715 23.676ZM14.5001 0.5C6.76804 0.5 0.5 6.76804 0.5 14.5001H1.5C1.5 7.32032 7.32032 1.5 14.5001 1.5V0.5ZM28.5001 14.5001C28.5001 6.76804 22.2321 0.5 14.5001 0.5V1.5C21.6798 1.5 27.5001 7.32032 27.5001 14.5001H28.5001ZM14.5001 28.5001C22.2321 28.5001 28.5001 22.2321 28.5001 14.5001H27.5001C27.5001 21.6798 21.6798 27.5001 14.5001 27.5001V28.5001ZM0.5 14.5001C0.5 22.2321 6.76804 28.5001 14.5001 28.5001V27.5001C7.32032 27.5001 1.5 21.6798 1.5 14.5001H0.5ZM2.58912 14.5001C2.58912 7.92183 7.92183 2.58912 14.5001 2.58912V1.58912C7.36954 1.58912 1.58912 7.36954 1.58912 14.5001H2.58912ZM5.47221 22.2701C3.67535 20.1843 2.58912 17.4691 2.58912 14.5001H1.58912C1.58912 17.7176 2.7673 20.6623 4.71457 22.9228L5.47221 22.2701ZM5.40236 22.2445C5.4285 22.2404 5.45493 22.25 5.4722 22.2701L4.71457 22.9228C4.92368 23.1655 5.24363 23.2825 5.56002 23.232L5.40236 22.2445ZM5.34395 22.2906C5.35412 22.2661 5.37622 22.2487 5.40236 22.2445L5.56002 23.232C5.8764 23.1815 6.14401 22.9707 6.26714 22.6749L5.34395 22.2906ZM14.5001 16.1693C10.3717 16.1693 6.83666 18.7049 5.34395 22.2906L6.26714 22.6749C7.6111 19.4465 10.7921 17.1693 14.5001 17.1693V16.1693ZM23.6599 22.2863C22.1688 18.6962 18.6298 16.1693 14.5001 16.1693V17.1693C18.2114 17.1693 21.3947 19.4396 22.7364 22.6699L23.6599 22.2863ZM23.6015 22.2402C23.6277 22.2444 23.6498 22.2618 23.6599 22.2863L22.7364 22.6699C22.8594 22.9659 23.1271 23.1771 23.4437 23.2277L23.6015 22.2402ZM23.5316 22.2658C23.5489 22.2457 23.5754 22.236 23.6015 22.2402L23.4437 23.2277C23.7603 23.2783 24.0804 23.1611 24.2896 22.9181L23.5316 22.2658ZM26.411 14.5001C26.411 17.4671 25.3263 20.1805 23.5316 22.2658L24.2896 22.9181C26.2344 20.6583 27.411 17.7154 27.411 14.5001H26.411ZM14.5001 2.58912C21.0783 2.58912 26.411 7.92183 26.411 14.5001H27.411C27.411 7.36954 21.6306 1.58912 14.5001 1.58912V2.58912ZM14.5001 5.27308C11.6637 5.27308 9.36429 7.57244 9.36429 10.4088H10.3643C10.3643 8.12473 12.2159 6.27308 14.5001 6.27308V5.27308ZM19.6358 10.4088C19.6358 7.57244 17.3365 5.27308 14.5001 5.27308V6.27308C16.7842 6.27308 18.6358 8.12473 18.6358 10.4088H19.6358ZM14.5001 15.5446C17.3365 15.5446 19.6358 13.2453 19.6358 10.4088H18.6358C18.6358 12.693 16.7842 14.5446 14.5001 14.5446V15.5446ZM9.36429 10.4088C9.36429 13.2453 11.6637 15.5446 14.5001 15.5446V14.5446C12.2159 14.5446 10.3643 12.693 10.3643 10.4088H9.36429ZM11.4534 10.4088C11.4534 8.72623 12.8174 7.3622 14.5001 7.3622V6.3622C12.2652 6.3622 10.4534 8.17395 10.4534 10.4088H11.4534ZM14.5001 13.4555C12.8174 13.4555 11.4534 12.0915 11.4534 10.4088H10.4534C10.4534 12.6438 12.2652 14.4555 14.5001 14.4555V13.4555ZM17.5467 10.4088C17.5467 12.0915 16.1827 13.4555 14.5001 13.4555V14.4555C16.735 14.4555 18.5467 12.6438 18.5467 10.4088H17.5467ZM14.5001 7.3622C16.1827 7.3622 17.5467 8.72623 17.5467 10.4088H18.5467C18.5467 8.17395 16.735 6.3622 14.5001 6.3622V7.3622ZM7.01058 23.8234C7.9869 20.607 10.9753 18.2585 14.5001 18.2585V17.2585C10.5202 17.2585 7.15361 19.9094 6.0537 23.5329L7.01058 23.8234ZM6.98574 23.7421C7.00976 23.7616 7.01958 23.7938 7.01058 23.8234L6.0537 23.5329C5.94478 23.8918 6.0636 24.2808 6.35442 24.5176L6.98574 23.7421ZM14.5001 26.411C11.6509 26.411 9.03553 25.4107 6.98574 23.7421L6.35442 24.5176C8.57603 26.3261 11.4126 27.411 14.5001 27.411V26.411ZM22.0177 23.7394C19.9674 25.4096 17.3508 26.411 14.5001 26.411V27.411C17.5892 27.411 20.4271 26.3249 22.6493 24.5147L22.0177 23.7394ZM21.9928 23.8206C21.9839 23.791 21.9937 23.7589 22.0177 23.7394L22.6493 24.5147C22.9395 24.2782 23.0584 23.8899 22.9501 23.5315L21.9928 23.8206ZM14.5001 18.2585C18.0312 18.2585 21.0206 20.6015 21.9928 23.8206L22.9501 23.5315C21.854 19.9022 18.4845 17.2585 14.5001 17.2585V18.2585Z" fill="#3E3F3F"/>
</g>
</svg>
