<svg width="23" height="25" viewBox="0 0 23 25" fill="none" xmlns="http://www.w3.org/2000/svg">
<path d="M7.32127 24.7813C7.3264 24.2739 7.32874 23.7665 7.33808 23.2596C7.34088 23.106 7.23346 23.1107 7.13537 23.0956C5.92659 22.9129 4.86587 22.4088 3.96863 21.5782C2.76825 20.4662 2.08633 19.0892 2.00366 17.4426C1.96676 16.7112 1.99759 15.9764 1.99759 15.2177H0.858398V7.62114C1.21291 7.62114 1.57489 7.61268 1.93593 7.62536C2.09193 7.631 2.16807 7.58402 2.22598 7.43463C3.02888 5.36378 4.35256 3.70964 6.19376 2.48255C7.52818 1.59323 8.99385 1.05532 10.587 0.861291C12.3418 0.648005 14.0401 0.858942 15.6809 1.51853C17.5385 2.26503 19.049 3.46394 20.2246 5.08895C20.7524 5.81807 21.1802 6.60404 21.4936 7.45013C21.5413 7.57933 21.6066 7.62865 21.7463 7.62443C22.1106 7.61409 22.4754 7.62114 22.8584 7.62114V15.197H18.659C19.9415 12.6747 19.9443 10.1599 18.6576 7.62865H20.0242C19.1709 5.26372 16.4357 2.44778 12.4109 2.20067C8.25074 1.9451 4.86587 4.6342 3.67951 7.6155H5.06111C3.77433 10.1486 3.77199 12.6639 5.05644 15.2022H3.42542C3.39833 15.2365 3.38058 15.2487 3.38058 15.2609C3.39413 16.3889 3.23719 17.5342 3.64495 18.626C4.26335 20.282 5.44597 21.2963 7.16386 21.6783C7.19422 21.6848 7.22552 21.6867 7.25634 21.6886C7.27176 21.6895 7.28717 21.6853 7.33388 21.6792V20.5832H12.5422V24.7813H7.32127Z" fill="white"/>
<path d="M18.2227 11.4044C18.2405 14.909 15.3895 17.7842 11.8724 17.8091C8.38479 17.834 5.52024 14.9692 5.49829 11.434C5.47633 7.91664 8.34182 5.02083 11.8547 5.01097C15.3385 5.0011 18.2054 7.87905 18.2232 11.4039L18.2227 11.4044Z" fill="white"/>
</svg>
