<svg width="24" height="18" viewBox="0 0 24 18" fill="none" xmlns="http://www.w3.org/2000/svg">
<path d="M24 5.4097V0.808625C24 0.363881 23.6361 0 23.1914 0H0.808625C0.363881 0 0 0.363881 0 0.808625V5.73315C0 6.00809 0.137466 6.27493 0.380054 6.4124C1.2938 6.938 1.90836 7.92453 1.90836 9.0566C1.90836 10.1887 1.2938 11.1752 0.380054 11.7008C0.137466 11.8383 0 12.1051 0 12.3801V16.9811C0 17.4259 0.363881 17.7898 0.808625 17.7898H23.1914C23.6361 17.7898 24 17.4259 24 16.9811V12.0566C24 11.7817 23.8625 11.5148 23.6199 11.3774C22.7062 10.8518 22.0916 9.86523 22.0916 8.73315C22.0916 7.60108 22.7062 6.61455 23.6199 6.08895C23.8625 5.95148 24 5.68464 24 5.4097ZM14.1671 9.26685C13.9407 9.26685 13.7143 9.26685 13.4879 9.26685C13.1887 9.26685 13.0189 9.39623 12.9218 9.67924C12.8086 10.0027 12.6792 10.3261 12.5256 10.6415C12.3801 10.9326 12.3962 11.1752 12.6469 11.3854C12.8086 11.5229 12.9704 11.6523 13.1159 11.7736C12.841 12.0566 12.6307 12.2749 12.3639 12.5499C12.2426 12.4043 12.1051 12.2426 11.9677 12.0889C11.7412 11.8302 11.4987 11.7978 11.1914 11.9677C10.9084 12.1213 10.6011 12.2426 10.2938 12.3396C9.98652 12.4367 9.8248 12.6146 9.83288 12.9461C9.83288 13.1563 9.83288 13.3585 9.83288 13.593H8.86253C8.86253 13.3908 8.86253 13.1806 8.86253 12.9784C8.87062 12.6388 8.72507 12.4447 8.39353 12.3396C8.08625 12.2426 7.77898 12.1213 7.49596 11.9677C7.18868 11.7978 6.94609 11.8383 6.71968 12.0889C6.58221 12.2426 6.45283 12.4043 6.29919 12.5741C6.04043 12.2992 5.83019 12.0889 5.52291 11.7655C5.68464 11.6442 5.87062 11.5229 6.03235 11.3854C6.28302 11.1752 6.29919 10.9245 6.15364 10.6334C6.00809 10.3342 5.87062 10.027 5.7655 9.7035C5.66846 9.38814 5.48248 9.24259 5.15094 9.25876C4.9407 9.26685 4.73854 9.25876 4.51213 9.25876V8.28032C4.72237 8.28032 4.93261 8.27224 5.15094 8.28032C5.49865 8.2965 5.67655 8.12668 5.77358 7.80323C5.86253 7.50404 5.98383 7.21294 6.12938 6.938C6.29919 6.62264 6.27493 6.36388 6.00809 6.12938C5.85445 6 5.70889 5.87871 5.57143 5.7655C5.84636 5.49865 6.06469 5.28032 6.33962 5.00539C6.46092 5.15094 6.60647 5.32884 6.76011 5.49865C6.94609 5.70889 7.16442 5.73315 7.42318 5.61186C7.75472 5.45822 8.10243 5.31267 8.45013 5.18329C8.71698 5.08625 8.84636 4.91644 8.84636 4.64151C8.84636 4.42318 8.84636 4.20485 8.84636 3.96226H9.81671C9.81671 4.16442 9.81671 4.37466 9.81671 4.57682C9.80863 4.91644 9.96226 5.11051 10.2857 5.20755C10.5849 5.2965 10.876 5.4097 11.1509 5.56334C11.4663 5.74124 11.717 5.71698 11.9596 5.45013C12.0889 5.30458 12.2345 5.16712 12.3962 4.98922C12.6388 5.23989 12.841 5.45013 13.1402 5.75741C12.9623 5.89488 12.7763 6.03234 12.6065 6.18598C12.3801 6.38005 12.3801 6.61455 12.5013 6.8814C12.6469 7.19676 12.8005 7.51213 12.9057 7.84367C13.0108 8.15903 13.1968 8.2965 13.5202 8.28841C13.7224 8.28032 13.9326 8.28841 14.159 8.28841V9.26685H14.1671ZM17.2075 16.124C17.2075 16.3342 17.0377 16.504 16.8275 16.504C16.6173 16.504 16.4474 16.3342 16.4474 16.124V14.814C16.4474 14.6038 16.6173 14.434 16.8275 14.434C17.0377 14.434 17.2075 14.6038 17.2075 14.814V16.124ZM17.2075 12.5094C17.2075 12.7197 17.0377 12.8895 16.8275 12.8895C16.6173 12.8895 16.4474 12.7197 16.4474 12.5094V10.4313C16.4474 10.221 16.6173 10.0512 16.8275 10.0512C17.0377 10.0512 17.2075 10.221 17.2075 10.4313V12.5094ZM17.2075 8.12668C17.2075 8.33693 17.0377 8.50674 16.8275 8.50674C16.6173 8.50674 16.4474 8.33693 16.4474 8.12668V6.04852C16.4474 5.83827 16.6173 5.66846 16.8275 5.66846C17.0377 5.66846 17.2075 5.83827 17.2075 6.04852V8.12668ZM17.2075 3.74394C17.2075 3.95418 17.0377 4.12399 16.8275 4.12399C16.6173 4.12399 16.4474 3.95418 16.4474 3.74394V1.65768C16.4474 1.44744 16.6173 1.27763 16.8275 1.27763C17.0377 1.27763 17.2075 1.44744 17.2075 1.65768V3.74394Z" fill="#0E76BB"/>
<path d="M9.34771 10.1644C10.1114 10.1644 10.7305 9.54534 10.7305 8.78167C10.7305 8.018 10.1114 7.39892 9.34771 7.39892C8.58404 7.39892 7.96496 8.018 7.96496 8.78167C7.96496 9.54534 8.58404 10.1644 9.34771 10.1644Z" fill="#0E76BB"/>
</svg>
