<svg width="25" height="25" viewBox="0 0 25 25" fill="none" xmlns="http://www.w3.org/2000/svg">
<path d="M0 17.2876C0 14.5855 0 11.8833 0 9.18112C0.0158975 9.1273 0.0366864 9.0747 0.045858 9.02027C0.350355 7.18844 1.83982 5.9132 3.70961 5.91076C8.1022 5.90525 12.4954 5.90464 16.888 5.91076C18.992 5.91382 20.5939 7.51872 20.6 9.62333C20.6074 12.0319 20.6104 14.4405 20.5933 16.8491C20.5903 17.2491 20.5273 17.665 20.4032 18.0448C19.8969 19.5879 18.5285 20.5543 16.8843 20.558C14.5902 20.5629 12.2961 20.5568 10.0026 20.5653C9.86254 20.5653 9.69745 20.6198 9.58617 20.7036C7.79281 22.0534 6.00496 23.4106 4.21833 24.7696C3.94685 24.9764 3.66375 25.0846 3.33908 24.9195C3.01685 24.7556 2.92635 24.4681 2.92819 24.125C2.93369 23.002 2.93002 21.8791 2.93002 20.7562C2.93002 20.6687 2.93002 20.5806 2.93002 20.4938C2.8377 20.4662 2.7686 20.4454 2.6989 20.4247C1.50231 20.0742 0.676865 19.3152 0.231125 18.1537C0.124122 17.8766 0.0752072 17.5769 0 17.2876ZM8.3963 14.6827C8.43666 14.5971 8.46784 14.5322 8.49719 14.4668C8.98757 13.3708 8.87812 12.3273 8.12849 11.4001C7.37948 10.4741 6.3761 10.1243 5.20886 10.3854C3.7573 10.7108 2.7845 12.0784 2.94042 13.509C3.10734 15.0368 4.33145 16.1567 5.8735 16.161C8.82553 16.1696 11.7776 16.1714 14.7296 16.161C16.5719 16.1543 17.8956 14.5855 17.6284 12.7555C17.3937 11.1463 15.7935 10.0411 14.161 10.361C12.5883 10.6686 11.5269 12.2784 11.8882 13.8234C11.9561 14.1127 12.0766 14.3891 12.1762 14.6827H8.3963Z" fill="#0E76BB"/>
<path d="M21.7251 0C22.0901 0.105811 22.4772 0.165751 22.8159 0.326609C24.2448 1.0049 24.9835 2.15659 24.992 3.73765C25.0073 6.63492 24.9957 9.5322 24.9969 12.4295C24.9969 13.0766 24.863 13.6906 24.5445 14.2552C24.0003 15.2197 23.1871 15.8277 22.0669 16.0894C22.0669 15.9696 22.0669 15.8766 22.0669 15.7836C22.0669 13.7408 22.0706 11.698 22.0657 9.65513C22.0608 7.36459 20.7321 5.4869 18.5774 4.7187C18.0045 4.51441 17.4095 4.44347 16.803 4.44347C13.264 4.4453 9.72496 4.44408 6.18533 4.44408C6.08811 4.44408 5.99151 4.44408 5.87961 4.44408C5.75671 3.1352 6.0123 1.96271 6.98877 1.02447C7.55129 0.48502 8.21837 0.155353 8.99185 0.0434255C9.03893 0.0366976 9.08356 0.014679 9.12942 0C13.3282 0 17.5263 0 21.7251 0Z" fill="#0E76BB"/>
<path d="M7.32139 13.2393C7.31772 14.0368 6.64942 14.7011 5.85332 14.6974C5.056 14.6937 4.39198 14.0252 4.39565 13.2289C4.39932 12.4313 5.06762 11.7671 5.86372 11.7707C6.66104 11.7744 7.32506 12.4429 7.32139 13.2393Z" fill="#0E76BB"/>
<path d="M14.7461 14.6974C13.95 14.6992 13.2829 14.0344 13.2805 13.2368C13.2787 12.4405 13.9433 11.7732 14.7406 11.7707C15.5367 11.7689 16.2038 12.4338 16.2062 13.2313C16.2081 14.0277 15.5434 14.6949 14.7461 14.6974Z" fill="#0E76BB"/>
</svg>
