<svg width="279" height="69" viewBox="0 0 279 69" fill="none" xmlns="http://www.w3.org/2000/svg">
<path d="M74.2098 22.0936H68.0167V18.7213H84.8611V22.0936H78.6731V39.3536H74.2098V22.0936Z" fill="white"/>
<path d="M98.1636 12.8096H101.103V16.1819H98.1636V12.8096ZM93.2112 12.8096H96.1508V16.1819H93.2112V12.8096ZM92.5522 18.7213V31.2959C92.5521 31.8831 92.5848 32.4699 92.6501 33.0536C92.705 33.6315 92.8803 34.1917 93.1649 34.6988C93.4841 35.2221 93.9489 35.6427 94.5033 35.9098C95.3028 36.2664 96.1763 36.4293 97.0517 36.385C97.2215 36.385 97.4789 36.385 97.8136 36.3543C98.1852 36.3273 98.5529 36.2605 98.9101 36.1551C99.3225 36.0319 99.7145 35.8494 100.074 35.6135C100.485 35.3486 100.836 35.0003 101.103 34.5915C101.22 34.4338 101.317 34.2622 101.391 34.0806C101.479 33.8535 101.546 33.6193 101.592 33.3806C101.657 33.0584 101.7 32.7324 101.721 32.4047C101.752 32.0368 101.767 31.5923 101.767 31.0762V18.7213H106.112V31.6127C106.158 32.952 105.872 34.2821 105.278 35.4857C104.764 36.4779 104.024 37.337 103.116 37.9945C102.236 38.6316 101.239 39.0931 100.182 39.3536C99.1366 39.6171 98.063 39.7527 96.9847 39.7573C96.3739 39.7508 95.7638 39.7115 95.1572 39.6398C94.4287 39.5548 93.7131 39.3833 93.0259 39.1288C92.2761 38.8563 91.5649 38.4888 90.91 38.0354C90.1951 37.5395 89.5963 36.8964 89.1545 36.15C88.68 35.4189 88.3708 34.5943 88.2485 33.7331C88.1365 32.8468 88.0832 31.9541 88.0889 31.0609V18.7213H92.5522Z" fill="white"/>
<path d="M114.2 18.7213L119.641 34.985L125.114 18.7213H129.515L121.86 39.3536H116.995L109.335 18.7213H114.2Z" fill="white"/>
<path d="M136.228 27.663H141.206C141.428 27.663 141.675 27.663 141.953 27.6221C142.234 27.5919 142.512 27.5441 142.787 27.4791C143.033 27.4239 143.27 27.3308 143.487 27.2032C143.622 27.1199 143.753 27.0295 143.878 26.9324C144.061 26.7862 144.22 26.6141 144.352 26.4214C144.514 26.1748 144.644 25.9086 144.738 25.6294C144.849 25.2669 144.901 24.8892 144.892 24.5104C144.936 23.8309 144.767 23.1546 144.409 22.5739C144.12 22.1363 143.725 21.7778 143.261 21.5316C142.832 21.3266 142.37 21.2003 141.896 21.1586C141.428 21.1228 141.052 21.1024 140.764 21.1024H136.228V27.663ZM133.407 18.7469H141.814C142.227 18.7602 142.64 18.7943 143.049 18.8491C143.499 18.9077 143.944 19.0034 144.378 19.1352C144.815 19.266 145.231 19.4587 145.613 19.7075C146.351 20.1469 146.954 20.7775 147.358 21.5316C147.73 22.2637 147.922 23.0725 147.92 23.8922C147.926 24.5924 147.793 25.2869 147.528 25.936C147.284 26.5471 146.918 27.1031 146.452 27.571C146.078 27.9608 145.633 28.2764 145.14 28.501C144.707 28.6798 144.326 28.8178 144.002 28.9149C144.452 29.0377 144.887 29.209 145.299 29.4258C145.65 29.608 145.962 29.8542 146.221 30.1514C146.487 30.4839 146.691 30.8611 146.823 31.2652C146.995 31.7987 147.11 32.3484 147.168 32.9054L147.384 34.6171C147.451 35.1536 147.533 35.6748 147.631 36.1908C147.729 36.7069 147.837 37.2127 147.961 37.7237C148.098 38.2805 148.27 38.8283 148.476 39.3639H145.387C145.26 38.9662 145.155 38.5619 145.073 38.1529C144.975 37.6828 144.887 37.2025 144.815 36.7069C144.743 36.2113 144.671 35.7208 144.614 35.2354C144.558 34.7499 144.496 34.3054 144.439 33.9069C144.366 33.2777 144.24 32.6557 144.064 32.047C143.935 31.5959 143.688 31.1869 143.348 30.8616C142.968 30.5437 142.513 30.3274 142.025 30.2331C141.327 30.097 140.616 30.0353 139.904 30.0492H136.3V39.3536H133.423L133.407 18.7469Z" fill="white"/>
<path d="M152.239 18.7213H154.972V27.1214C155.418 26.3586 156.085 25.7476 156.887 25.3688C157.752 24.9488 158.705 24.737 159.667 24.7506C160.082 24.7546 160.495 24.7939 160.903 24.8681C161.347 24.9452 161.782 25.0685 162.2 25.236C162.621 25.4104 163.013 25.6463 163.364 25.936C163.724 26.2387 164.014 26.6152 164.213 27.0397C164.291 27.1917 164.358 27.3488 164.414 27.5097C164.484 27.7136 164.533 27.9242 164.558 28.1382C164.599 28.3937 164.63 28.7054 164.661 29.0681C164.692 29.4309 164.702 29.8652 164.702 30.3813V39.3536H161.938V30.8667C161.938 30.5448 161.938 30.1514 161.897 29.6966C161.866 29.2363 161.749 28.7858 161.552 28.3681C161.34 27.9267 161.017 27.5467 160.615 27.2645C160.081 26.9319 159.457 26.7729 158.828 26.8097C158.379 26.8022 157.932 26.8696 157.505 27.009C157.151 27.1301 156.816 27.3022 156.512 27.52C156.257 27.6961 156.03 27.9077 155.837 28.1484C155.686 28.3334 155.55 28.5299 155.431 28.736C155.185 29.1949 155.047 29.7034 155.029 30.2229C154.993 30.8105 154.972 31.3266 154.972 31.7558V39.3536H152.239V18.7213Z" fill="white"/>
<path d="M178.669 30.7798C178.663 30.3647 178.634 29.9501 178.581 29.5382C178.524 29.0521 178.372 28.5818 178.133 28.1535C177.877 27.691 177.505 27.3021 177.052 27.0243C176.461 26.6804 175.781 26.5169 175.096 26.5543C174.636 26.5572 174.18 26.6296 173.742 26.7689C173.278 26.912 172.851 27.1544 172.491 27.4791C172.095 27.8472 171.776 28.2902 171.554 28.782C171.287 29.4144 171.15 30.0939 171.153 30.7798H178.669ZM171.039 32.6653C171.014 33.3524 171.081 34.0398 171.24 34.7091C171.377 35.2953 171.625 35.8503 171.971 36.3441C172.304 36.8071 172.751 37.1781 173.269 37.4222C173.869 37.6935 174.524 37.8246 175.184 37.8054C176 37.8263 176.8 37.5783 177.459 37.1003C177.794 36.8265 178.067 36.4856 178.26 36.1C178.454 35.7144 178.563 35.2927 178.581 34.8624H181.289C181.23 35.3204 181.142 35.7743 181.027 36.2215C180.848 36.8424 180.511 37.4072 180.049 37.8617C179.851 38.076 179.639 38.2774 179.415 38.4646C179.103 38.7206 178.757 38.9321 178.386 39.0931C177.928 39.3025 177.45 39.4651 176.96 39.5785C176.332 39.7202 175.689 39.7871 175.045 39.7777C172.762 39.7777 171.074 39.1203 169.979 37.8054C168.884 36.4906 168.337 34.7006 168.337 32.4353C168.322 31.1323 168.517 29.8352 168.913 28.593C169.327 27.4021 170.127 26.3813 171.189 25.6907C171.519 25.4489 171.883 25.2561 172.27 25.1185C172.626 24.9898 172.991 24.884 173.361 24.8017C173.689 24.7327 174.021 24.6849 174.355 24.6586C174.664 24.6586 174.921 24.6586 175.132 24.6586C176.059 24.6342 176.982 24.7797 177.855 25.0878C178.529 25.3315 179.142 25.7167 179.652 26.217C180.105 26.6679 180.466 27.2003 180.718 27.7857C180.957 28.3553 181.13 28.9501 181.233 29.5587C181.335 30.1289 181.388 30.7066 181.392 31.2857V32.6857L171.039 32.6653Z" fill="white"/>
<path d="M185.114 25.0112H187.822V39.3536H185.114V25.0112ZM184.826 18.7213H188.079V21.6644H184.826V18.7213Z" fill="white"/>
<path d="M192.63 26.6667L192.605 25.0112H195.307L195.338 27.3258C195.457 27.0997 195.588 26.8797 195.729 26.6667C195.948 26.3387 196.219 26.0486 196.533 25.8083C196.955 25.4878 197.423 25.2329 197.923 25.052C198.582 24.8166 199.281 24.7057 199.982 24.725C200.441 24.7372 200.899 24.785 201.351 24.8681C201.959 24.9734 202.542 25.1899 203.071 25.5068C203.68 25.8752 204.193 26.3811 204.569 26.9835C205.03 27.7802 205.25 28.6921 205.202 29.6098V39.3536H202.437V30.2178C202.441 29.7659 202.392 29.315 202.293 28.874C202.198 28.4488 201.977 28.0612 201.66 27.7601C201.325 27.4485 200.929 27.2086 200.497 27.055C200.06 26.8938 199.598 26.8108 199.132 26.8097C198.645 26.808 198.162 26.8946 197.706 27.0652C197.252 27.2395 196.844 27.5138 196.512 27.8674C196.143 28.2522 195.852 28.703 195.652 29.1959C195.429 29.7992 195.322 30.4388 195.338 31.0813V39.3536H192.63V26.6667Z" fill="white"/>
<path d="M212.466 18.7213H209.758V39.323H212.466V18.7213Z" fill="white"/>
<path d="M225.773 32.3842C225.535 32.3462 225.294 32.3224 225.053 32.3127C224.819 32.3127 224.541 32.3127 224.219 32.3127C223.946 32.3127 223.524 32.3127 222.947 32.3536C222.356 32.3859 221.771 32.4924 221.207 32.6704C220.633 32.8418 220.106 33.1386 219.663 33.539C219.437 33.7563 219.26 34.0193 219.146 34.3103C219.031 34.6012 218.981 34.9132 218.999 35.2251C219.005 35.4874 219.05 35.7474 219.133 35.9967C219.225 36.2984 219.381 36.5771 219.591 36.8142C219.842 37.0919 220.151 37.3116 220.497 37.458C220.973 37.6438 221.483 37.7308 221.995 37.7135C222.6 37.7531 223.206 37.6321 223.749 37.3627C224.291 37.0933 224.752 36.6853 225.084 36.1806C225.228 35.9551 225.349 35.7154 225.444 35.4653C225.536 35.2158 225.6 34.9571 225.635 34.6937C225.671 34.4076 225.701 34.0806 225.717 33.7076C225.732 33.3346 225.758 32.9054 225.779 32.4098L225.773 32.3842ZM226.093 39.3792C225.998 39.0324 225.931 38.6788 225.892 38.3215C225.854 37.9617 225.835 37.6001 225.835 37.2383C225.559 37.7632 225.193 38.2368 224.754 38.6383C224.394 38.9534 223.99 39.2151 223.555 39.415C223.185 39.5831 222.793 39.6984 222.391 39.7573C222.05 39.8019 221.706 39.8258 221.362 39.8288C220.619 39.8407 219.879 39.7284 219.174 39.4967C218.585 39.3062 218.04 39.0004 217.573 38.5974C217.15 38.2272 216.816 37.7681 216.595 37.2536C216.371 36.7301 216.259 36.1665 216.265 35.5981C216.268 35.272 216.302 34.9468 216.368 34.6273C216.441 34.2461 216.565 33.8766 216.739 33.5288C216.944 33.1241 217.202 32.7478 217.506 32.4098C217.876 31.9997 218.312 31.6542 218.798 31.3879C219.198 31.1682 219.623 30.9967 220.064 30.8769C220.52 30.7547 220.982 30.6591 221.449 30.5908C221.907 30.5244 222.345 30.4835 222.757 30.463C223.169 30.4426 223.519 30.4324 223.786 30.4324C224.054 30.4324 224.44 30.4324 224.708 30.4324C224.976 30.4324 225.326 30.4682 225.737 30.5039C225.737 30.0645 225.737 29.6813 225.737 29.3492C225.737 29.017 225.707 28.7258 225.681 28.4908C225.656 28.2718 225.607 28.056 225.537 27.847C225.469 27.6593 225.366 27.486 225.233 27.336C224.943 26.9605 224.529 26.6982 224.064 26.5951C223.629 26.4723 223.179 26.4053 222.726 26.3959C222.173 26.3683 221.621 26.4698 221.115 26.6922C220.777 26.8588 220.482 27.098 220.25 27.3922C220.071 27.6357 219.949 27.9146 219.889 28.2097C219.851 28.4121 219.829 28.6171 219.822 28.8229H217.114C217.159 28.3946 217.231 27.9696 217.331 27.5506C217.481 27.0194 217.758 26.5321 218.139 26.1302C218.416 25.8196 218.75 25.5631 219.122 25.374C219.502 25.1733 219.902 25.014 220.317 24.8988C220.738 24.7821 221.169 24.7001 221.604 24.6535C222.004 24.6139 222.406 24.5952 222.808 24.5973C223.326 24.5982 223.842 24.6409 224.353 24.725C224.858 24.8055 225.355 24.9338 225.835 25.1083C226.277 25.271 226.695 25.4927 227.076 25.7674C227.424 26.0141 227.71 26.3377 227.91 26.7126C228.118 27.0803 228.259 27.4816 228.327 27.8981C228.373 28.2368 228.397 28.5781 228.399 28.92L228.296 35.7565C228.296 35.8127 228.296 35.966 228.296 36.2113C228.296 36.4565 228.296 36.7529 228.322 37.0952C228.348 37.4376 228.353 37.8106 228.378 38.2091C228.404 38.6076 228.45 38.9909 228.512 39.3536L226.093 39.3792Z" fill="white"/>
<path d="M232.929 25.0112H235.632L235.663 27.3258C235.782 27.0997 235.913 26.8797 236.054 26.6667C236.273 26.3387 236.544 26.0486 236.857 25.8083C237.273 25.4896 237.735 25.2347 238.227 25.052C238.887 24.8166 239.585 24.7057 240.286 24.725C240.745 24.7372 241.203 24.785 241.655 24.8681C242.27 24.9709 242.861 25.1876 243.395 25.5068C244.005 25.8752 244.518 26.3811 244.893 26.9835C245.354 27.7802 245.574 28.6921 245.527 29.6098V39.3536H242.762V30.2178C242.766 29.7659 242.717 29.315 242.618 28.874C242.522 28.4488 242.302 28.0612 241.985 27.7601C241.642 27.4376 241.235 27.1904 240.79 27.0345C240.354 26.8734 239.892 26.7903 239.426 26.7893C238.939 26.7876 238.456 26.8742 238 27.0448C237.546 27.219 237.138 27.4933 236.806 27.847C236.44 28.2391 236.154 28.697 235.962 29.1959C235.738 29.7992 235.632 30.4388 235.647 31.0813V39.3536H232.929V25.0112Z" fill="white"/>
<path d="M260.121 31.9653C260.148 31.1192 260.04 30.2743 259.802 29.4616C259.633 28.9181 259.37 28.408 259.025 27.9543C258.692 27.5336 258.274 27.1857 257.799 26.9324C257.203 26.6192 256.534 26.4659 255.859 26.4878C255.277 26.4691 254.699 26.5919 254.175 26.8455C253.742 27.0691 253.363 27.3828 253.063 27.7652C252.776 28.1388 252.548 28.5541 252.389 28.9966C252.231 29.4249 252.11 29.866 252.029 30.3149C251.957 30.7029 251.914 31.0957 251.9 31.4901C251.9 31.8426 251.9 32.0981 251.9 32.2514C251.9 32.8984 251.954 33.5443 252.059 34.1828C252.152 34.805 252.352 35.4066 252.651 35.9609C252.939 36.4845 253.355 36.9274 253.861 37.2485C254.468 37.609 255.167 37.7866 255.874 37.7595C256.758 37.8127 257.632 37.5478 258.335 37.0135C258.897 36.5513 259.333 35.9555 259.601 35.2813C259.851 34.6639 260.008 34.013 260.065 33.3499C260.111 32.7164 260.137 32.2616 260.137 31.9704L260.121 31.9653ZM260.049 18.7264H262.757V37.039C262.757 37.1157 262.757 37.2485 262.757 37.4273C262.757 37.6062 262.757 37.8106 262.788 38.0252C262.819 38.2398 262.788 38.4697 262.819 38.6996C262.85 38.9295 262.819 39.139 262.86 39.3281H260.152L260.096 37.039C259.96 37.2855 259.81 37.5243 259.648 37.7544C259.416 38.071 259.128 38.3429 258.798 38.5565C258.236 38.9417 257.608 39.2222 256.945 39.3843C256.384 39.5268 255.809 39.604 255.231 39.6142C254.627 39.597 254.027 39.5095 253.444 39.3536C252.69 39.1689 251.987 38.8198 251.385 38.3317C250.665 37.732 250.09 36.9794 249.702 36.1295C249.181 34.933 248.94 33.6352 248.996 32.3331C248.968 31.1336 249.153 29.9384 249.542 28.8024C249.857 27.9024 250.353 27.0751 250.999 26.3703C251.571 25.7537 252.274 25.2719 253.058 24.9601C253.837 24.6551 254.666 24.4991 255.503 24.5002C256.17 24.4846 256.834 24.5866 257.465 24.8017C257.939 24.9683 258.384 25.2043 258.788 25.5017C259.091 25.726 259.359 25.9948 259.581 26.2988L259.998 26.9272L260.049 18.7264Z" fill="white"/>
<path d="M271.653 21.8688H273.321C273.457 21.8592 273.59 21.8227 273.712 21.7615C273.84 21.7021 273.949 21.6083 274.026 21.4907C274.117 21.336 274.162 21.1588 274.155 20.9798C274.164 20.7892 274.12 20.5998 274.026 20.433C273.952 20.3142 273.847 20.2172 273.722 20.152C273.601 20.0942 273.47 20.0595 273.336 20.0498H271.653V21.8688ZM270.819 19.314H273.475C273.711 19.3325 273.942 19.3877 274.16 19.4775C274.395 19.579 274.601 19.735 274.762 19.9323C274.95 20.182 275.041 20.4901 275.02 20.8009C275.02 20.852 275.02 20.9389 275.02 21.0615C275.002 21.2027 274.958 21.3394 274.891 21.4652C274.803 21.6321 274.686 21.7825 274.546 21.9097C274.363 22.0747 274.142 22.1923 273.903 22.252C274.156 22.2939 274.387 22.4179 274.562 22.6046C274.714 22.8447 274.804 23.1186 274.824 23.4017C274.876 23.7798 274.917 24.1119 274.958 24.4236C274.989 24.7204 275.051 25.0131 275.143 25.2973H274.278C274.253 25.1951 274.227 25.1083 274.201 25.0214C274.171 24.9246 274.148 24.8255 274.134 24.725C274.134 24.6126 274.088 24.4798 274.067 24.3214C274.047 24.163 274.016 23.9637 273.985 23.7287C273.97 23.5383 273.936 23.35 273.882 23.1666C273.84 23.0334 273.766 22.9124 273.666 22.8141C273.56 22.717 273.427 22.6531 273.285 22.6301C273.091 22.5841 272.892 22.5584 272.693 22.5535H271.663V25.2973H270.829L270.819 19.314ZM272.878 17.4388C272.22 17.4347 271.567 17.567 270.963 17.8272C270.376 18.081 269.84 18.4394 269.383 18.8848C268.931 19.3334 268.568 19.862 268.312 20.4433C268.057 21.0428 267.929 21.6881 267.936 22.3389C267.929 23.0093 268.063 23.6739 268.327 24.2907C268.582 24.8771 268.945 25.4109 269.398 25.8645C269.851 26.3148 270.388 26.6739 270.979 26.9221C271.584 27.1782 272.236 27.3086 272.894 27.3054C273.558 27.3112 274.216 27.1771 274.824 26.9119C275.412 26.6587 275.946 26.2982 276.399 25.8491C276.854 25.3983 277.216 24.8638 277.465 24.2754C277.725 23.6625 277.856 23.0037 277.851 22.3389C277.855 21.6912 277.726 21.0495 277.47 20.4535C277.232 19.8713 276.882 19.3404 276.441 18.89C275.989 18.4361 275.454 18.0719 274.865 17.8169C274.236 17.5526 273.556 17.4254 272.873 17.444L272.878 17.4388ZM272.873 16.7797C273.625 16.7745 274.369 16.9224 275.061 17.214C275.729 17.4917 276.336 17.8961 276.847 18.4045C277.361 18.9131 277.772 19.5151 278.057 20.1776C278.354 20.8688 278.504 21.6131 278.5 22.3644C278.505 23.1208 278.355 23.8703 278.057 24.5666C277.767 25.2309 277.355 25.8357 276.842 26.3499C276.325 26.8578 275.715 27.2636 275.045 27.5455C274.359 27.8361 273.619 27.9839 272.873 27.9798C272.128 27.985 271.39 27.8371 270.706 27.5455C270.039 27.2634 269.433 26.8576 268.919 26.3499C268.404 25.8359 267.991 25.2312 267.699 24.5666C267.392 23.8728 267.236 23.1224 267.241 22.3644C267.237 21.6116 267.393 20.8663 267.699 20.1776C267.988 19.5134 268.404 18.9113 268.924 18.4045C269.444 17.9003 270.053 17.4966 270.721 17.214C271.401 16.9235 272.133 16.7757 272.873 16.7797Z" fill="white"/>
<path d="M78.1069 54.3348C78.0143 53.6912 77.668 53.1105 77.1442 52.7202C76.4746 52.2723 75.6746 52.0567 74.8687 52.107C74.246 52.0996 73.6264 52.1963 73.0361 52.3932C72.4968 52.5739 72.0142 52.8909 71.6357 53.3129C71.3249 53.6421 71.0632 54.0137 70.8584 54.4165C70.6654 54.7975 70.5102 55.1962 70.3951 55.6071C70.2838 55.9966 70.2062 56.3949 70.1634 56.7976C70.1274 57.191 70.1068 57.5538 70.1068 57.8808C70.1068 58.2078 70.1068 58.5297 70.1634 58.9027C70.2075 59.3037 70.2781 59.7014 70.3745 60.0932C70.4731 60.502 70.6057 60.9019 70.7709 61.2889C70.9337 61.6684 71.1504 62.0229 71.4144 62.3414C71.6495 62.5985 71.9178 62.8236 72.2124 63.0108C72.5001 63.1932 72.8096 63.3391 73.1338 63.4451C73.4688 63.5532 73.8137 63.6285 74.1634 63.6699C74.5184 63.7168 74.8762 63.7407 75.2343 63.7414C75.9064 63.7546 76.5779 63.6946 77.2368 63.5626C77.7551 63.4434 78.1257 63.3514 78.3488 63.2867V59.0867H75.0747V57.4312H80.336V64.4517L79.5329 64.702C79.2086 64.7991 78.8276 64.8962 78.39 64.9882C77.9525 65.0801 77.4685 65.1568 76.9434 65.2232C76.3763 65.2909 75.8055 65.3233 75.2343 65.3203C74.1387 65.3566 73.0462 65.1832 72.0168 64.8093C71.2739 64.5242 70.5975 64.0913 70.0295 63.5371C69.3234 62.8428 68.794 61.9915 68.4851 61.0538C68.1758 60.1066 68.0194 59.1167 68.0219 58.121C68.028 57.6613 68.0607 57.2024 68.1196 56.7465C68.1973 56.1429 68.337 55.5488 68.5367 54.9735C68.7636 54.322 69.077 53.7034 69.4684 53.1341C69.9039 52.5019 70.458 51.9589 71.1004 51.5348C71.4489 51.3035 71.8261 51.118 72.2226 50.9829C72.5925 50.8603 72.9689 50.758 73.3501 50.6764C73.6897 50.6088 74.0338 50.5661 74.3797 50.5486C74.6834 50.5486 74.9305 50.5486 75.1158 50.5486C75.3938 50.5486 75.7079 50.5486 76.058 50.5895C76.4244 50.618 76.7867 50.6848 77.139 50.7888C77.5298 50.9006 77.9064 51.0566 78.2613 51.2537C78.6599 51.4705 79.0241 51.7442 79.3424 52.0662C79.5373 52.265 79.7099 52.4843 79.8572 52.7202C79.9724 52.912 80.0656 53.1159 80.1352 53.3282C80.1887 53.5089 80.2284 53.6934 80.2536 53.88C80.2536 54.0538 80.2897 54.2019 80.3051 54.3348H78.1069Z" fill="white"/>
<path d="M90.1018 59.1071C90.0986 58.82 90.0779 58.5333 90.04 58.2487C90.0033 57.9134 89.9001 57.5887 89.7363 57.2932C89.5537 56.9774 89.2978 56.7094 88.9898 56.5115C88.5808 56.2777 88.1125 56.166 87.6411 56.1896C87.3228 56.1896 87.0066 56.2396 86.7041 56.3377C86.3821 56.4443 86.0871 56.6186 85.8392 56.8487C85.565 57.1016 85.3459 57.4076 85.1957 57.748C85.012 58.185 84.9174 58.6539 84.9177 59.1275L90.1018 59.1071ZM84.8405 60.4049C84.8213 60.8791 84.8681 61.3536 84.9795 61.8152C85.0744 62.2216 85.2493 62.6053 85.4943 62.9444C85.725 63.2637 86.0331 63.5203 86.3901 63.6904C86.8039 63.8748 87.2545 63.9639 87.708 63.9509C88.2654 63.9536 88.8081 63.774 89.2524 63.44C89.4822 63.2525 89.6697 63.0192 89.8028 62.7551C89.9358 62.491 90.0114 62.2021 90.0246 61.9071H91.8934C91.8545 62.2225 91.7942 62.5348 91.7131 62.8422C91.5899 63.2714 91.3577 63.6619 91.0388 63.9765C90.9012 64.1228 90.7551 64.261 90.6012 64.3904C90.3895 64.5645 90.1559 64.7105 89.9062 64.8247C89.5912 64.9709 89.2617 65.084 88.9229 65.1619C88.4901 65.2554 88.0479 65.3 87.605 65.2947C86.0297 65.2947 84.8611 64.8451 84.1095 63.9356C83.3019 62.8729 82.9005 61.5602 82.9769 60.2312C82.9668 59.332 83.1006 58.4369 83.3733 57.5793C83.653 56.7631 84.1958 56.061 84.9177 55.5815C85.1465 55.4159 85.3978 55.2834 85.6642 55.1881C85.9102 55.1005 86.1612 55.0272 86.4158 54.9684C86.6416 54.921 86.8703 54.8886 87.1005 54.8713C87.3116 54.8713 87.4917 54.8713 87.6153 54.8713C88.2548 54.8533 88.892 54.9538 89.4943 55.1676C89.9584 55.3369 90.3812 55.6016 90.735 55.9443C91.0459 56.259 91.2954 56.6279 91.4712 57.0326C91.6397 57.4245 91.7624 57.8342 91.8367 58.2538C91.9069 58.6469 91.943 59.0452 91.9448 59.4443V60.41L84.8405 60.4049Z" fill="white"/>
<path d="M94.6681 55.137H96.5369V56.7312C96.6172 56.5746 96.7065 56.4227 96.8045 56.2764C96.9569 56.0508 97.1447 55.8507 97.3606 55.6837C97.6475 55.4683 97.965 55.2961 98.3026 55.1728C98.7617 55.011 99.2469 54.9347 99.7338 54.9479C100.05 54.9563 100.365 54.9888 100.676 55.045C101.1 55.1193 101.506 55.27 101.875 55.4895C102.296 55.7439 102.649 56.0942 102.905 56.5115C103.222 57.0605 103.374 57.6882 103.343 58.3202V65.0188H101.433V58.729C101.435 58.4181 101.402 58.1078 101.335 57.8042C101.268 57.5117 101.116 57.2452 100.897 57.0377C100.662 56.8124 100.381 56.6384 100.074 56.5268C99.7721 56.4157 99.4531 56.3586 99.1315 56.3582C98.7954 56.3573 98.4621 56.4179 98.1482 56.537C97.8342 56.655 97.5522 56.8439 97.3245 57.0888C97.0751 57.3581 96.8795 57.672 96.7479 58.0137C96.595 58.4309 96.5217 58.8727 96.5317 59.3166V65.0188H94.663L94.6681 55.137Z" fill="white"/>
<path d="M112.465 60.2057C112.294 60.1801 112.122 60.1648 111.95 60.1597H111.374C111.188 60.1597 110.895 60.1597 110.498 60.1903C110.091 60.2125 109.688 60.2846 109.299 60.4049C108.903 60.5256 108.539 60.7315 108.233 61.0078C108.078 61.1574 107.957 61.3385 107.879 61.5387C107.801 61.7389 107.767 61.9534 107.78 62.1677C107.785 62.3413 107.814 62.5133 107.868 62.6787C107.931 62.8854 108.04 63.0756 108.187 63.2356C108.358 63.4289 108.571 63.5809 108.81 63.6801C109.137 63.809 109.487 63.8699 109.839 63.859C110.256 63.8851 110.673 63.8004 111.045 63.6136C111.418 63.4267 111.734 63.1446 111.96 62.7962C112.061 62.6342 112.145 62.4631 112.213 62.2852C112.273 62.1198 112.316 61.9485 112.341 61.7743C112.341 61.575 112.388 61.3502 112.398 61.0947C112.408 60.8392 112.398 60.5378 112.439 60.1954L112.465 60.2057ZM112.655 65.0086C112.596 64.7678 112.549 64.5238 112.516 64.2779C112.491 64.0284 112.479 63.7777 112.48 63.5268C112.291 63.8897 112.038 64.2166 111.734 64.4925C111.489 64.7141 111.211 64.8968 110.91 65.0342C110.656 65.1532 110.385 65.2341 110.107 65.2743C109.873 65.3034 109.638 65.3188 109.402 65.3203C108.89 65.3308 108.38 65.2548 107.893 65.0955C107.488 64.9619 107.114 64.75 106.792 64.4721C106.498 64.2199 106.267 63.9033 106.117 63.5473C105.961 63.1858 105.882 62.796 105.886 62.4027C105.89 62.178 105.914 61.954 105.958 61.7334C106.008 61.4707 106.094 61.2161 106.215 60.9772C106.352 60.6988 106.525 60.4394 106.73 60.2057C106.988 59.9265 107.291 59.6917 107.626 59.5108C107.9 59.3601 108.193 59.2435 108.496 59.1633C108.809 59.0779 109.127 59.0113 109.448 58.964C109.767 58.918 110.071 58.8925 110.354 58.8772C110.637 58.8618 110.869 58.8772 111.08 58.8772H111.713C111.899 58.8772 112.135 58.8772 112.429 58.9283C112.429 58.6268 112.429 58.3611 112.429 58.1312C112.425 57.933 112.411 57.7352 112.388 57.5385C112.373 57.3869 112.34 57.2377 112.29 57.0939C112.246 56.9639 112.176 56.844 112.084 56.7414C111.883 56.483 111.597 56.3023 111.276 56.2304C110.976 56.1458 110.666 56.0995 110.354 56.0925C109.972 56.0737 109.591 56.1455 109.242 56.302C109.009 56.4147 108.804 56.579 108.645 56.7823C108.524 56.9502 108.439 57.1418 108.398 57.3443C108.371 57.4844 108.354 57.6261 108.346 57.7684H106.483C106.515 57.4745 106.565 57.1827 106.632 56.8947C106.726 56.5144 106.913 56.1632 107.178 55.8728C107.37 55.6633 107.598 55.4902 107.852 55.3618C108.114 55.2232 108.39 55.1135 108.676 55.0348C108.963 54.9551 109.255 54.8987 109.551 54.8662C109.831 54.8348 110.113 54.8178 110.395 54.8151C110.758 54.8157 111.119 54.8465 111.476 54.9071C111.828 54.9607 112.173 55.0498 112.506 55.1728C112.809 55.284 113.095 55.437 113.355 55.6275C113.596 55.7958 113.794 56.0181 113.932 56.2764C114.076 56.5298 114.174 56.8066 114.22 57.0939C114.255 57.3257 114.272 57.5597 114.272 57.7939L114.189 62.5254C114.189 62.5611 114.189 62.6684 114.189 62.8371C114.189 63.0057 114.189 63.2152 114.189 63.4502C114.189 63.6852 114.19 63.9612 114.231 64.2166C114.272 64.4721 114.282 64.7582 114.318 65.0086H112.655Z" fill="white"/>
<path d="M119.209 55.1217V61.4881C119.21 61.7397 119.231 61.9908 119.271 62.2392C119.308 62.4956 119.407 62.7392 119.559 62.9495C119.728 63.1696 119.949 63.3451 120.202 63.4604C120.56 63.6125 120.947 63.6824 121.335 63.6648C121.789 63.6685 122.239 63.5816 122.658 63.4093C123.082 63.2406 123.442 62.9439 123.688 62.5611C123.893 62.2761 124.02 61.9435 124.058 61.5954C124.089 61.2582 124.105 60.9619 124.105 60.7115V55.091H126.03V63.1641C126.03 63.2152 126.03 63.3174 126.03 63.4604C126.03 63.6035 126.03 63.767 126.03 63.9714C126.03 64.1758 126.03 64.3495 126.03 64.5436C126.03 64.7378 126.03 64.9064 126.03 65.0546H124.084L124.043 63.3582C123.95 63.5268 123.837 63.721 123.698 63.9305C123.544 64.155 123.352 64.352 123.132 64.513C122.851 64.7081 122.542 64.8598 122.215 64.9626C121.779 65.0995 121.324 65.1634 120.867 65.1517C120.321 65.1639 119.777 65.0809 119.26 64.9064C118.839 64.7617 118.456 64.5261 118.138 64.2166C117.837 63.9158 117.61 63.5504 117.474 63.1487C117.322 62.7152 117.247 62.2588 117.253 61.7998V55.1574L119.209 55.1217Z" fill="white"/>
<path d="M131.559 62.6531H129.356V65.0188H131.559V62.6531Z" fill="white"/>
<path d="M142.246 56.9355H145.68C145.852 56.9345 146.024 56.9242 146.195 56.9049C146.389 56.8871 146.582 56.8546 146.772 56.8078C146.942 56.7703 147.105 56.7065 147.255 56.6188C147.317 56.5779 147.41 56.5166 147.523 56.4297C147.649 56.3294 147.758 56.2104 147.847 56.0771C147.96 55.9071 148.05 55.7233 148.115 55.5304C148.193 55.2807 148.229 55.0202 148.223 54.7589C148.253 54.2907 148.136 53.8249 147.889 53.4253C147.687 53.1338 147.415 52.8981 147.096 52.7406C146.8 52.5988 146.481 52.5122 146.154 52.4851C145.835 52.4545 145.572 52.4443 145.371 52.4443H142.246V56.9355ZM140.3 50.8041H145.448C145.634 50.8041 145.86 50.8041 146.123 50.8041C146.385 50.8041 146.674 50.8348 146.977 50.8705C147.288 50.913 147.594 50.9796 147.894 51.0698C148.195 51.162 148.483 51.2943 148.748 51.4632C149.257 51.771 149.672 52.211 149.948 52.7355C150.205 53.2408 150.337 53.7995 150.334 54.3655C150.332 54.8465 150.234 55.3223 150.046 55.7655C149.875 56.1859 149.621 56.5681 149.299 56.8896C149.044 57.1602 148.738 57.3788 148.398 57.5334C148.141 57.642 147.878 57.7375 147.611 57.8195C147.92 57.899 148.22 58.0103 148.506 58.1516C148.749 58.2798 148.964 58.4533 149.14 58.6626C149.328 58.8913 149.471 59.153 149.562 59.4341C149.679 59.8015 149.759 60.1799 149.799 60.5633C149.85 60.9823 149.902 61.3757 149.948 61.7436C149.994 62.1115 150.046 62.4743 150.113 62.8268C150.18 63.1794 150.257 63.5422 150.344 63.8998C150.437 64.2841 150.553 64.6629 150.689 65.0342H148.563C148.476 64.7588 148.404 64.4791 148.347 64.1962C148.28 63.8743 148.223 63.5422 148.167 63.1743C148.11 62.8064 148.069 62.4947 148.033 62.1524C147.997 61.81 147.95 61.5137 147.909 61.2378C147.86 60.8038 147.774 60.3748 147.652 59.9553C147.561 59.6404 147.382 59.3571 147.137 59.1378C146.877 58.9154 146.563 58.7656 146.226 58.7034C145.744 58.6107 145.254 58.5679 144.764 58.5757H142.272V65.0188H140.285L140.3 50.8041Z" fill="white"/>
<path d="M153.546 55.1217H155.41V65.0188H153.546V55.1217ZM153.346 50.8297H155.59V52.8735H153.346V50.8297Z" fill="white"/>
<path d="M164.527 58.3202C164.527 58.2027 164.486 58.029 164.445 57.8093C164.403 57.5655 164.315 57.3316 164.187 57.1195C164.042 56.8773 163.841 56.6725 163.6 56.5217C163.281 56.3319 162.912 56.2412 162.54 56.2611C161.998 56.2257 161.463 56.3955 161.042 56.7363C160.701 57.0383 160.438 57.4167 160.275 57.8399C160.119 58.241 160.026 58.663 159.997 59.0918C159.997 59.5056 159.956 59.802 159.956 59.9859C159.956 60.4786 159.993 60.9706 160.069 61.4575C160.131 61.8921 160.262 62.3145 160.455 62.7093C160.626 63.061 160.887 63.3622 161.212 63.5831C161.578 63.8161 162.008 63.9304 162.442 63.9101C162.786 63.921 163.128 63.8528 163.441 63.7108C163.698 63.5943 163.924 63.4192 164.1 63.1998C164.265 62.9912 164.389 62.7537 164.465 62.4998C164.545 62.2618 164.591 62.0144 164.604 61.7641H166.494C166.467 62.2363 166.355 62.7 166.164 63.1334C165.973 63.555 165.7 63.9352 165.361 64.2524C164.999 64.589 164.574 64.8512 164.11 65.0239C163.582 65.2204 163.022 65.3174 162.458 65.3101C162.288 65.3101 162.072 65.3101 161.804 65.2692C161.518 65.2391 161.235 65.1827 160.96 65.1006C160.64 65.0097 160.332 64.881 160.043 64.7174C159.718 64.5376 159.425 64.3044 159.178 64.0276C159.016 63.8415 158.868 63.6434 158.736 63.4349C158.575 63.1886 158.443 62.9245 158.344 62.648C158.222 62.3165 158.13 61.9744 158.071 61.6261C158.001 61.1765 157.969 60.7219 157.974 60.267C157.95 59.3956 158.097 58.528 158.406 57.7122C158.646 57.0896 159.022 56.5276 159.508 56.0669C159.926 55.6751 160.425 55.3786 160.97 55.1983C161.468 55.0341 161.989 54.9479 162.514 54.9428C162.674 54.9428 162.88 54.9428 163.137 54.9837C163.415 55.0129 163.689 55.0694 163.956 55.1523C164.251 55.2427 164.536 55.3643 164.805 55.5151C165.101 55.6802 165.361 55.9006 165.572 56.164C165.899 56.5047 166.131 56.9237 166.247 57.3801C166.319 57.7072 166.372 58.0382 166.406 58.3713L164.527 58.3202Z" fill="white"/>
<path d="M168.615 50.8092H170.504V56.583C170.809 56.0553 171.268 55.6327 171.822 55.372C172.418 55.0833 173.074 54.938 173.737 54.9479C174.024 54.9497 174.309 54.9753 174.592 55.0246C174.899 55.0775 175.199 55.1631 175.487 55.2801C175.78 55.4081 176.051 55.5804 176.29 55.791C176.538 55.9986 176.738 56.2564 176.877 56.5472C176.929 56.6545 176.975 56.7618 177.016 56.8742C177.063 57.0154 177.096 57.1609 177.114 57.3085C177.114 57.4823 177.166 57.6969 177.186 57.9472C177.207 58.1976 177.186 58.4991 177.186 58.8567V65.0188H175.281V59.1633C175.281 58.9385 175.281 58.6524 175.251 58.356C175.23 58.0391 175.15 57.7288 175.014 57.4414C174.868 57.1373 174.647 56.8752 174.37 56.6801C174.002 56.4492 173.57 56.3385 173.135 56.3633C172.825 56.3577 172.517 56.4044 172.223 56.5012C171.98 56.5837 171.749 56.7007 171.539 56.8487C171.364 56.9721 171.206 57.1182 171.07 57.283C170.967 57.4103 170.874 57.5452 170.792 57.6866C170.624 58.0026 170.529 58.3517 170.514 58.7086C170.514 59.1173 170.478 59.475 170.478 59.7764V65.0188H168.589L168.615 50.8092Z" fill="white"/>
<path d="M179.081 55.0859H180.846V53.0165L182.674 52.4238V55.0859H184.898V56.445H182.674V62.3772C182.674 62.4947 182.674 62.6327 182.674 62.7911C182.684 62.9464 182.736 63.0962 182.823 63.2254C182.925 63.3679 183.061 63.4822 183.22 63.5575C183.459 63.6615 183.72 63.7087 183.982 63.6955C184.167 63.6955 184.342 63.6955 184.496 63.6955C184.62 63.6826 184.743 63.6587 184.862 63.6239V65.0648C184.692 65.0648 184.476 65.1159 184.218 65.1415C183.961 65.167 183.657 65.1823 183.312 65.1823C182.65 65.2315 181.988 65.0763 181.418 64.7378C181.016 64.4415 180.81 63.8845 180.81 63.0721V56.445H179.045L179.081 55.0859Z" fill="white"/>
<path d="M187.179 55.1217H189.047V65.0188H187.179V55.1217ZM186.983 50.8297H189.227V52.8735H186.983V50.8297Z" fill="white"/>
<path d="M196.414 63.4809C196.877 63.4986 197.337 63.4075 197.758 63.2152C198.091 63.0394 198.379 62.7914 198.602 62.4896C198.69 62.3619 198.782 62.2239 198.865 62.0757C198.959 61.9152 199.034 61.7435 199.086 61.5648C199.15 61.3111 199.197 61.0533 199.225 60.7932C199.256 60.4918 199.277 60.1137 199.277 59.6691C199.296 59.1507 199.228 58.6325 199.076 58.1363C198.954 57.7791 198.758 57.4517 198.499 57.1757C198.232 56.9032 197.911 56.6876 197.557 56.5421C197.177 56.384 196.769 56.3041 196.358 56.3071C195.853 56.2811 195.354 56.4192 194.937 56.7005C194.595 56.9517 194.319 57.2813 194.134 57.6611C193.949 58.0347 193.824 58.4346 193.763 58.8465C193.709 59.2104 193.68 59.5774 193.675 59.9451C193.677 60.3459 193.714 60.7459 193.784 61.1407C193.852 61.5424 193.99 61.9295 194.19 62.2852C194.393 62.6349 194.68 62.9296 195.024 63.1436C195.446 63.3842 195.928 63.5011 196.414 63.4809ZM194.252 65.7853C194.26 66.0478 194.307 66.3078 194.391 66.5568C194.466 66.7887 194.599 66.9979 194.777 67.1648C194.978 67.3509 195.219 67.4889 195.482 67.5685C195.835 67.6781 196.204 67.7282 196.574 67.7167C197.098 67.7453 197.62 67.6304 198.082 67.3846C198.437 67.1619 198.711 66.8325 198.865 66.4444C199.044 65.9856 199.145 65.5003 199.163 65.0086C199.199 64.4517 199.215 63.8334 199.215 63.1641C199.04 63.5391 198.773 63.8643 198.437 64.1093C198.145 64.3248 197.822 64.4969 197.48 64.6203C197.186 64.7246 196.88 64.7898 196.569 64.8144C196.285 64.8144 196.054 64.8451 195.925 64.8451C195.675 64.8444 195.426 64.8273 195.179 64.794C194.903 64.7607 194.631 64.7025 194.365 64.6203C194.086 64.5295 193.818 64.406 193.567 64.2524C193.3 64.084 193.063 63.8714 192.867 63.6239C192.445 63.1332 192.142 62.5528 191.982 61.9276C191.816 61.29 191.733 60.6341 191.735 59.9757C191.719 59.2289 191.835 58.4852 192.08 57.7786C192.287 57.208 192.611 56.6861 193.032 56.2458C193.428 55.8374 193.91 55.52 194.442 55.3158C194.992 55.1093 195.575 55.0053 196.162 55.0093C196.595 55.0017 197.026 55.055 197.444 55.1676C197.757 55.259 198.056 55.3913 198.334 55.5611C198.554 55.7018 198.752 55.874 198.921 56.072C199.065 56.2407 199.194 56.3939 199.297 56.5268V55.1676H201.125L201.083 56.956V63.1487C201.083 63.7363 201.083 64.2524 201.083 64.6816C201.083 65.1108 201.042 65.494 201.011 65.8057C200.987 66.0822 200.937 66.3558 200.862 66.6232C200.802 66.8377 200.723 67.0463 200.625 67.2466C200.43 67.6201 200.149 67.9437 199.807 68.1919C199.481 68.4178 199.122 68.5903 198.741 68.7028C198.363 68.8222 197.973 68.901 197.578 68.9378C197.208 68.9772 196.837 68.9977 196.466 68.9992C195.897 69.0072 195.33 68.9576 194.772 68.851C194.372 68.7756 193.984 68.6467 193.619 68.4678C193.343 68.3323 193.099 68.1408 192.903 67.9057C192.735 67.7012 192.599 67.4719 192.502 67.2262C192.412 66.9944 192.351 66.7524 192.321 66.5057C192.321 66.2605 192.275 66.0305 192.265 65.8057L194.252 65.7853Z" fill="white"/>
<path d="M206.52 62.6531H204.316V65.0188H206.52V62.6531Z" fill="white"/>
<path d="M52.3408 41.3106C48.9952 40.7315 45.6056 40.4391 42.2095 40.4369C37.5217 40.428 32.8516 41.0066 28.3098 42.1588C23.7713 43.3322 19.1 43.923 14.41 43.9165C12.7392 43.9214 11.0691 43.843 9.40615 43.6814L28.284 11.2052L39.7076 30.7952C35.8568 30.9581 32.0335 31.5181 28.2995 32.466C25.5954 33.1574 22.8416 33.6408 20.0626 33.912L16.6237 39.8237C20.5685 39.6595 24.4861 39.0945 28.3149 38.1376C32.8553 36.9767 37.5261 36.3946 42.2147 36.4054C44.744 36.4126 47.2701 36.5833 49.7771 36.9164L46.1735 30.6981L36.7886 14.5979L28.2995 0L0.5 47.7844C5.03191 48.9943 9.70679 49.5958 14.3997 49.5727C19.0927 49.5969 23.7678 48.9954 28.2995 47.7844C32.8457 46.656 37.513 46.0795 42.1992 46.0676C46.8853 46.0807 51.5525 46.6572 56.0989 47.7844L52.3408 41.3106Z" fill="white"/>
</svg>
