<svg width="32" height="37" viewBox="0 0 32 37" fill="none" xmlns="http://www.w3.org/2000/svg">
<g id="Group 3071" filter="url(#filter0_i_1_3854)">
<path id="Star 2" d="M15.5131 21.1706L18.3043 25.2434L23.0402 26.6394L20.0294 30.5525L20.1651 35.4881L15.5131 33.8338L10.8611 35.4881L10.9968 30.5525L7.98599 26.6394L12.7219 25.2434L15.5131 21.1706Z" fill="#FF862E"/>
<g id="Group 3065">
<path id="Vector" d="M30.9716 26.1824C30.7599 24.2139 29.9491 22.544 28.2574 21.3388C26.4975 20.0842 24.5923 19.1159 22.5723 18.3472C21.2376 17.8383 20.1235 17.1527 20.0554 15.527C20.041 15.1718 20.0607 14.8979 20.2688 14.5834C20.6617 13.9896 20.9703 13.3429 21.3111 12.7173C21.3829 12.5848 21.4313 12.4381 21.5192 12.318C22.1435 11.4539 22.3391 10.4431 22.5364 9.4359C22.5615 9.30691 22.5077 9.16554 22.5041 9.02948C22.4969 8.76619 22.4395 8.48876 22.5041 8.24313C23.0459 6.25695 22.6566 4.41567 21.6287 2.67688C20.8931 1.43287 19.6589 0.830302 18.3475 0.427411C16.4997 -0.141584 14.6017 -0.141584 12.7539 0.42211C11.4282 0.826767 10.1616 1.42404 9.45123 2.69986C9.0727 3.37841 8.75696 4.10644 8.53092 4.84684C8.17213 6.03254 8.32103 7.23414 8.62062 8.41984C8.64933 8.53647 8.70494 8.68137 8.66188 8.77325C8.42329 9.2804 8.58474 9.76634 8.70315 10.2594C8.91125 11.1323 9.27901 11.9345 9.75082 12.7014C10.0522 13.1909 10.2065 13.7864 10.5707 14.2158C11.0801 14.8201 11.0604 15.4103 10.9133 16.1119C10.7662 16.8099 10.4379 17.3417 9.82258 17.6793C9.27901 17.9779 8.7175 18.2571 8.13984 18.4868C6.3674 19.1954 4.69184 20.0648 3.10777 21.1268C1.42682 22.2542 0.492168 23.8039 0.154902 25.7494C-0.0406399 26.8804 -0.0298762 28.0113 0.0705859 29.1493C0.108259 29.5804 0.298419 29.8455 0.685916 29.9833C0.784584 30.0187 2.42965 30.4428 4.89815 30.8881C4.84971 30.4834 4.8228 30.0717 4.8228 29.6529C4.8228 23.8375 9.6091 19.1229 15.513 19.1229C21.417 19.1229 26.2033 23.8375 26.2033 29.6529C26.2033 30.0823 26.1746 30.5028 26.1243 30.9181C28.4457 30.4958 30.037 30.0893 30.2881 30.0169C30.6667 29.9073 30.986 29.7024 30.9878 29.2553C30.995 28.2304 31.0775 27.1949 30.9698 26.1806L30.9716 26.1824Z" fill="#FF862E"/>
</g>
</g>
<defs>
<filter id="filter0_i_1_3854" x="0" y="0" width="31.0244" height="39.4881" filterUnits="userSpaceOnUse" color-interpolation-filters="sRGB">
<feFlood flood-opacity="0" result="BackgroundImageFix"/>
<feBlend mode="normal" in="SourceGraphic" in2="BackgroundImageFix" result="shape"/>
<feColorMatrix in="SourceAlpha" type="matrix" values="0 0 0 0 0 0 0 0 0 0 0 0 0 0 0 0 0 0 127 0" result="hardAlpha"/>
<feOffset dy="4"/>
<feGaussianBlur stdDeviation="2"/>
<feComposite in2="hardAlpha" operator="arithmetic" k2="-1" k3="1"/>
<feColorMatrix type="matrix" values="0 0 0 0 0 0 0 0 0 0 0 0 0 0 0 0 0 0 0.25 0"/>
<feBlend mode="normal" in2="shape" result="effect1_innerShadow_1_3854"/>
</filter>
</defs>
</svg>
