<svg width="30" height="30" viewBox="0 0 30 30" fill="none" xmlns="http://www.w3.org/2000/svg">
<rect x="0.5" y="0.5" width="29" height="29" rx="3.5" stroke="white"/>
<path d="M14.6473 13.1779C17.3347 13.1779 19.5133 10.6988 19.5133 7.6407C19.5133 4.5826 17.3347 2.10352 14.6473 2.10352C11.9598 2.10352 9.78125 4.5826 9.78125 7.6407C9.78125 10.6988 11.9598 13.1779 14.6473 13.1779Z" fill="white"/>
<path d="M10.3393 21.0787C10.3545 20.6233 10.4889 20.1832 10.7255 19.814C10.9622 19.4449 11.2905 19.1632 11.6689 19.0046C12.0473 18.8461 12.4588 18.8177 12.8515 18.9232C13.2442 19.0287 13.6003 19.2632 13.8749 19.5972L16.6888 23.0129L21.5 16.4995C19.4403 14.9497 17.1883 14.374 14.7133 14.4119C12.9964 14.3629 11.2909 14.7391 9.7166 15.5141C8.14232 16.289 6.7375 17.4439 5.60091 18.8976C5.50476 19.0423 5.45352 19.2188 5.45511 19.3997V23.8359C5.45494 24.2641 5.60253 24.6755 5.86657 24.9828C6.1306 25.2901 6.4903 25.4692 6.86935 25.4821H13.1168L10.8788 22.766C10.6939 22.5395 10.5509 22.2735 10.4583 21.9838C10.3656 21.694 10.3252 21.3863 10.3393 21.0787Z" fill="white"/>
<path d="M22.61 25.4816C22.9388 25.4716 23.2508 25.3322 23.4799 25.0929C23.7089 24.8536 23.8369 24.5333 23.8368 24.1999V21.7902L20.5928 25.4816H22.61Z" fill="white"/>
<path d="M26.7642 13.4121C26.6909 13.3316 26.6051 13.2695 26.5119 13.2295C26.4187 13.1895 26.3199 13.1724 26.2212 13.1792C26.1225 13.1859 26.0259 13.2164 25.9369 13.2689C25.848 13.3213 25.7685 13.3947 25.7031 13.4848L17.0199 25.2916L13.1341 20.2146C13.0703 20.124 12.9924 20.0495 12.905 19.9954C12.8175 19.9413 12.7221 19.9087 12.6243 19.8995C12.5264 19.8902 12.428 19.9044 12.3347 19.9414C12.2414 19.9783 12.155 20.0372 12.0804 20.1147C12.0104 20.1992 11.9548 20.2996 11.9168 20.4103C11.8789 20.521 11.8594 20.6397 11.8594 20.7596C11.8594 20.8795 11.8789 20.9982 11.9168 21.1089C11.9548 21.2195 12.0104 21.32 12.0804 21.4044L17.0722 27.9436L26.8165 14.6654C26.9422 14.4885 27.0069 14.2595 26.9971 14.026C26.9874 13.7926 26.904 13.5727 26.7642 13.4121Z" fill="white"/>
</svg>
