<svg width="30" height="36" viewBox="0 0 30 36" fill="none" xmlns="http://www.w3.org/2000/svg">
<g id="Group 3070" filter="url(#filter0_i_1_3862)">
<g id="Group 3069">
<g id="Group 3067">
<path id="Vector" d="M29.9486 25.3176C29.7439 23.4141 28.9598 21.7993 27.324 20.634C25.6223 19.4208 23.78 18.4845 21.8267 17.7412C20.5361 17.2491 19.4588 16.5861 19.3929 15.0141C19.379 14.6707 19.3981 14.4058 19.5994 14.1017C19.9793 13.5275 20.2776 12.9022 20.6072 12.2973C20.6766 12.1691 20.7234 12.0273 20.8084 11.9111C21.4121 11.0756 21.6012 10.0982 21.792 9.12423C21.8163 8.9995 21.7643 8.8628 21.7608 8.73123C21.7539 8.47664 21.6984 8.20837 21.7608 7.97086C22.2847 6.05029 21.9083 4.26982 20.9143 2.58847C20.203 1.38554 19.0096 0.802876 17.7415 0.413293C15.9547 -0.136907 14.1194 -0.136907 12.3327 0.408167C11.0507 0.799459 9.826 1.377 9.13905 2.61068C8.77303 3.26682 8.46772 3.9708 8.24915 4.68675C7.9022 5.83328 8.04619 6.9952 8.33588 8.14173C8.36364 8.25451 8.41741 8.39462 8.37578 8.48347C8.14506 8.97387 8.30119 9.44376 8.41568 9.92049C8.6169 10.7646 8.97252 11.5403 9.42875 12.2819C9.72018 12.7552 9.86936 13.331 10.2215 13.7463C10.7142 14.3306 10.6951 14.9013 10.5528 15.5797C10.4106 16.2546 10.0931 16.7689 9.49814 17.0953C8.97252 17.3841 8.42956 17.6541 7.87098 17.8762C6.15709 18.5614 4.53687 19.402 3.00512 20.429C1.3797 21.5191 0.475911 23.0177 0.149786 24.8989C-0.0392976 25.9925 -0.0288893 27.0861 0.0682544 28.1865C0.104683 28.6034 0.288563 28.8597 0.66326 28.993C0.758669 29.0271 2.3494 29.4372 4.73636 29.8678C4.68952 29.4765 4.6635 29.0784 4.6635 28.6734C4.6635 23.0501 9.29171 18.4913 15.0006 18.4913C20.7096 18.4913 25.3378 23.0501 25.3378 28.6734C25.3378 29.0887 25.31 29.4953 25.2614 29.8969C27.5062 29.4885 29.0448 29.0955 29.2877 29.0254C29.6537 28.9195 29.9625 28.7213 29.9642 28.289C29.9712 27.2979 30.051 26.2966 29.9469 25.3158L29.9486 25.3176Z" fill="#878788"/>
</g>
</g>
<circle id="Ellipse 96" cx="14.8729" cy="28.328" r="7.08191" fill="#878788"/>
</g>
<defs>
<filter id="filter0_i_1_3862" x="0" y="0" width="30" height="39.4099" filterUnits="userSpaceOnUse" color-interpolation-filters="sRGB">
<feFlood flood-opacity="0" result="BackgroundImageFix"/>
<feBlend mode="normal" in="SourceGraphic" in2="BackgroundImageFix" result="shape"/>
<feColorMatrix in="SourceAlpha" type="matrix" values="0 0 0 0 0 0 0 0 0 0 0 0 0 0 0 0 0 0 127 0" result="hardAlpha"/>
<feOffset dy="4"/>
<feGaussianBlur stdDeviation="2"/>
<feComposite in2="hardAlpha" operator="arithmetic" k2="-1" k3="1"/>
<feColorMatrix type="matrix" values="0 0 0 0 0 0 0 0 0 0 0 0 0 0 0 0 0 0 0.25 0"/>
<feBlend mode="normal" in2="shape" result="effect1_innerShadow_1_3862"/>
</filter>
</defs>
</svg>
