<svg width="20" height="19" viewBox="0 0 20 19" fill="none" xmlns="http://www.w3.org/2000/svg">
<path d="M7.99987 9.02117C10.4395 9.02117 12.4172 7.00171 12.4172 4.51058C12.4172 2.01946 10.4395 0 7.99987 0C5.56023 0 3.58252 2.01946 3.58252 4.51058C3.58252 7.00171 5.56023 9.02117 7.99987 9.02117Z" fill="#0E76BB"/>
<path d="M0.856171 18C0.343509 18 -0.054262 17.5429 0.00605902 17.023C0.479131 12.9437 3.87771 9.77983 8 9.77983C12.1223 9.77983 15.5209 12.9437 15.9939 17.023C16.0543 17.5429 15.6565 18 15.1438 18H0.856171Z" fill="#0E76BB"/>
<circle cx="15" cy="14" r="5" fill="#F5F7F9"/>
<path d="M19 14.4064C18.8124 14.4064 18.6248 14.4064 18.4372 14.4064C18.1893 14.4064 18.0486 14.5139 17.9682 14.749C17.8744 15.0176 17.7672 15.2863 17.6399 15.5483C17.5193 15.7901 17.5327 15.9916 17.7404 16.1662C17.8744 16.2804 18.0084 16.3879 18.129 16.4887C17.9012 16.7238 17.727 16.9051 17.5059 17.1335C17.4054 17.0126 17.2915 16.8783 17.1776 16.7506C16.9899 16.5357 16.7889 16.5088 16.5343 16.6499C16.2998 16.7775 16.0452 16.8783 15.7906 16.9589C15.536 17.0395 15.402 17.1872 15.4087 17.4626C15.4087 17.6373 15.4087 17.8052 15.4087 18H14.6047C14.6047 17.8321 14.6047 17.6574 14.6047 17.4895C14.6114 17.2074 14.4908 17.0462 14.2161 16.9589C13.9615 16.8783 13.7069 16.7775 13.4724 16.6499C13.2178 16.5088 13.0168 16.5424 12.8291 16.7506C12.7152 16.8783 12.608 17.0126 12.4807 17.1537C12.2663 16.9253 12.0921 16.7506 11.8375 16.4819C11.9715 16.3812 12.1256 16.2804 12.2596 16.1662C12.4673 15.9916 12.4807 15.7834 12.3601 15.5416C12.2395 15.293 12.1256 15.0378 12.0385 14.7691C11.9581 14.5071 11.804 14.3862 11.5293 14.3997C11.3551 14.4064 11.1876 14.3997 11 14.3997V13.5869C11.1742 13.5869 11.3484 13.5802 11.5293 13.5869C11.8174 13.6003 11.9648 13.4593 12.0452 13.1906C12.1189 12.9421 12.2194 12.7003 12.34 12.4719C12.4807 12.2099 12.4606 11.995 12.2395 11.8002C12.1122 11.6927 11.9916 11.5919 11.8777 11.4979C12.1055 11.2762 12.2864 11.0949 12.5142 10.8665C12.6147 10.9874 12.7353 11.1352 12.8626 11.2762C13.0168 11.4509 13.1977 11.471 13.4121 11.3703C13.6868 11.2427 13.9749 11.1217 14.263 11.0143C14.4841 10.9337 14.5913 10.7926 14.5913 10.5642C14.5913 10.3829 14.5913 10.2015 14.5913 10H15.3953C15.3953 10.1679 15.3953 10.3426 15.3953 10.5105C15.3886 10.7926 15.5159 10.9538 15.7839 11.0344C16.0318 11.1083 16.273 11.2024 16.5008 11.33C16.7621 11.4777 16.9698 11.4576 17.1709 11.2359C17.2781 11.115 17.3987 11.0008 17.5327 10.8531C17.7337 11.0613 17.9012 11.2359 18.1491 11.4912C18.0017 11.6054 17.8476 11.7196 17.7069 11.8472C17.5193 12.0084 17.5193 12.2032 17.6198 12.4249C17.7404 12.6868 17.8677 12.9488 17.9548 13.2242C18.0419 13.4861 18.196 13.6003 18.464 13.5936C18.6315 13.5869 18.8057 13.5936 18.9933 13.5936V14.4064H19Z" fill="#0E76BB"/>
<path d="M15.0067 15.152C15.6395 15.152 16.1524 14.6377 16.1524 14.0034C16.1524 13.369 15.6395 12.8547 15.0067 12.8547C14.3739 12.8547 13.861 13.369 13.861 14.0034C13.861 14.6377 14.3739 15.152 15.0067 15.152Z" fill="white"/>
</svg>
