<svg width="29" height="34" viewBox="0 0 29 34" fill="none" xmlns="http://www.w3.org/2000/svg">
<g id="Vector" filter="url(#filter0_i_1_3850)">
<path d="M28.9503 23.5432C28.7525 21.7731 27.9945 20.2715 26.4132 19.1879C24.7682 18.0597 22.9873 17.189 21.0992 16.4978C19.8516 16.0402 18.8102 15.4237 18.7465 13.9618C18.7331 13.6425 18.7515 13.3962 18.946 13.1133C19.3133 12.5795 19.6017 11.9979 19.9203 11.4354C19.9874 11.3163 20.0327 11.1844 20.1148 11.0763C20.6984 10.2993 20.8812 9.39045 21.0656 8.48476C21.0891 8.36876 21.0388 8.24165 21.0354 8.1193C21.0287 7.88255 20.9751 7.63308 21.0354 7.41222C21.5419 5.62625 21.178 3.97057 20.2171 2.40705C19.5296 1.28844 18.3759 0.746607 17.1501 0.384328C15.4229 -0.127312 13.6488 -0.127312 11.9216 0.379561C10.6823 0.743429 9.49846 1.28049 8.83442 2.42771C8.48059 3.03786 8.18546 3.69251 7.97417 4.35827C7.6388 5.42445 7.77798 6.50493 8.05802 7.57112C8.08485 7.67599 8.13683 7.80628 8.09659 7.8889C7.87356 8.34493 8.02448 8.78189 8.13516 9.2252C8.32967 10.0101 8.67344 10.7315 9.11446 11.4211C9.39617 11.8613 9.54039 12.3967 9.88079 12.7828C10.357 13.3263 10.3386 13.857 10.2011 14.4878C10.0636 15.1154 9.75671 15.5937 9.18153 15.8972C8.67344 16.1657 8.14857 16.4168 7.60861 16.6233C5.95185 17.2605 4.38564 18.0422 2.90495 18.9972C1.33371 20.011 0.460048 21.4045 0.144793 23.1539C-0.0379877 24.1708 -0.0279264 25.1877 0.0659793 26.211C0.101194 26.5987 0.278944 26.837 0.641151 26.961C0.73338 26.9928 2.27108 27.3741 4.57848 27.7745C4.5332 27.4107 4.50805 27.0404 4.50805 26.6639C4.50805 21.4346 8.98198 17.1953 14.5006 17.1953C20.0192 17.1953 24.4932 21.4346 24.4932 26.6639C24.4932 27.05 24.4664 27.4281 24.4194 27.8015C26.5893 27.4218 28.0767 27.0563 28.3115 26.9912C28.6653 26.8927 28.9638 26.7083 28.9654 26.3063C28.9721 25.3848 29.0493 24.4536 28.9487 23.5416L28.9503 23.5432Z" fill="#FF6161"/>
<path d="M6.50019 22.2116C6.58068 21.9113 6.70645 21.6364 6.97307 21.4331C7.54825 20.9929 8.35147 21.0883 8.81094 21.6555C9.23352 22.1751 9.10943 22.9394 8.53761 23.343C8.50072 23.3684 8.46383 23.3954 8.42023 23.4256C8.82603 24.3075 9.32071 25.1194 10.1742 25.6739C11.0311 26.2301 11.9467 26.1093 12.6711 25.3641C13.1054 24.9176 13.409 24.3933 13.6236 23.8276C13.8047 23.3557 13.9389 22.8663 14.0931 22.3848C14.0982 22.3674 14.0965 22.3467 14.0982 22.3165C13.6119 22.1735 13.2446 21.8954 13.0384 21.4458C12.8942 21.1312 12.8657 20.8054 12.9545 20.4733C13.1373 19.7933 13.8014 19.3182 14.5476 19.3309C15.2552 19.3436 15.9126 19.8552 16.0635 20.5115C16.2429 21.2916 15.8606 21.897 14.8997 22.3292C14.9651 22.5628 15.0238 22.8027 15.0959 23.0379C15.329 23.7958 15.6325 24.5251 16.1507 25.1544C16.4743 25.5484 16.8633 25.8646 17.3932 25.979C17.9449 26.0966 18.4346 25.9425 18.8806 25.6422C19.5229 25.2116 19.9589 24.6189 20.3177 23.969C20.3999 23.8196 20.4653 23.6639 20.5475 23.5146C20.5877 23.4415 20.5693 23.4065 20.5022 23.3589C20.0612 23.0522 19.87 22.6391 19.979 22.129C20.0813 21.6539 20.3949 21.3441 20.8862 21.2011C21.4932 21.0263 22.1958 21.3584 22.4155 21.924C22.6536 22.5374 22.3719 23.2063 21.7682 23.459C21.7012 23.4876 21.6324 23.5273 21.5637 23.5289C21.3859 23.5336 21.3524 23.6353 21.3239 23.7752C20.9399 25.6978 20.5508 27.6188 20.1618 29.5398C20.1534 29.578 20.1417 29.6161 20.1299 29.6622C20.0679 29.6622 20.0109 29.6622 19.9555 29.6622C16.3133 29.6622 12.6711 29.6622 9.02894 29.6638C8.90988 29.6638 8.86125 29.6415 8.83609 29.5192C8.44706 27.5727 8.04963 25.6279 7.65892 23.683C7.64215 23.602 7.61197 23.5654 7.52812 23.5463C6.98817 23.4304 6.65614 23.1126 6.52535 22.6025C6.51864 22.5787 6.5069 22.558 6.49852 22.5358C6.49852 22.4261 6.49852 22.3181 6.49852 22.2085L6.50019 22.2116Z" fill="#FF6161"/>
<path d="M14.5207 30.2771C16.1876 30.2771 17.8561 30.2819 19.5229 30.2739C19.9237 30.2723 20.2507 30.5202 20.4552 31.2146C20.8024 32.3856 20.4183 33.8363 19.7258 33.9857C19.6637 33.9984 19.6017 34 19.538 34C16.1825 34 12.8254 34 9.46996 34C8.95348 34 8.59462 33.5154 8.46215 32.6446C8.29278 31.5308 8.70194 30.3788 9.29891 30.293C9.38276 30.2819 9.46493 30.2771 9.54877 30.2771C11.2055 30.2771 12.8623 30.2771 14.5207 30.2771Z" fill="#FF6161"/>
</g>
<defs>
<filter id="filter0_i_1_3850" x="0" y="0" width="29" height="38" filterUnits="userSpaceOnUse" color-interpolation-filters="sRGB">
<feFlood flood-opacity="0" result="BackgroundImageFix"/>
<feBlend mode="normal" in="SourceGraphic" in2="BackgroundImageFix" result="shape"/>
<feColorMatrix in="SourceAlpha" type="matrix" values="0 0 0 0 0 0 0 0 0 0 0 0 0 0 0 0 0 0 127 0" result="hardAlpha"/>
<feOffset dy="4"/>
<feGaussianBlur stdDeviation="2"/>
<feComposite in2="hardAlpha" operator="arithmetic" k2="-1" k3="1"/>
<feColorMatrix type="matrix" values="0 0 0 0 0 0 0 0 0 0 0 0 0 0 0 0 0 0 0.25 0"/>
<feBlend mode="normal" in2="shape" result="effect1_innerShadow_1_3850"/>
</filter>
</defs>
</svg>
