<svg width="31" height="33" viewBox="0 0 31 33" fill="none" xmlns="http://www.w3.org/2000/svg">
<g id="Group 3064" filter="url(#filter0_i_1_3851)">
<path id="Vector" d="M18.2357 27.4487C18.2357 27.1797 18.1973 26.9272 18.1205 26.6856C17.9174 27.1358 17.4727 27.4487 16.9457 27.4487L16.8085 27.4377L16.6987 27.4487C16.1277 27.4487 15.6611 26.9766 15.6611 26.4001L15.6666 26.2904L15.6611 26.1531C15.6611 25.6316 15.9741 25.1815 16.4187 24.9784C16.1771 24.9015 15.9246 24.8631 15.6611 24.8631C14.2393 24.8631 13.0865 26.0214 13.0865 27.4487C13.0865 28.876 14.2393 30.0289 15.6611 30.0289C17.083 30.0289 18.2357 28.8759 18.2357 27.4487ZM23.8955 27.4487C23.8955 27.4487 21.0684 21.9591 15.6337 21.9591C10.2209 21.9591 7.42676 27.4487 7.42676 27.4487C7.42676 27.4487 10.457 32.9382 15.6721 32.9382C21.0628 32.9383 23.8955 27.4487 23.8955 27.4487ZM11.8404 27.4487C11.8404 25.3297 13.5477 23.6115 15.6611 23.6115C17.7747 23.6115 19.4818 25.3297 19.4818 27.4487C19.4818 29.5677 17.7747 31.2859 15.6611 31.2859C13.5477 31.2859 11.8404 29.5677 11.8404 27.4487Z" fill="#0E76BB"/>
<path id="Vector_2" d="M30.9469 26.1615C30.7354 24.1945 29.9252 22.526 28.2348 21.3218C26.4763 20.0682 24.5727 19.1006 22.5543 18.3326C21.2206 17.8241 20.1075 17.139 20.0394 15.5146C20.025 15.1597 20.0447 14.886 20.2527 14.5717C20.6452 13.9785 20.9535 13.3322 21.2941 12.7072C21.3658 12.5748 21.4142 12.4282 21.5021 12.3082C22.1259 11.4447 22.3212 10.4348 22.5184 9.42837C22.5435 9.29948 22.4897 9.15823 22.4862 9.02227C22.479 8.75919 22.4216 8.48198 22.4862 8.23656C23.0275 6.25196 22.6385 4.41215 21.6114 2.67475C20.8765 1.43173 19.6432 0.829639 18.3329 0.42707C16.4865 -0.141471 14.59 -0.141471 12.7437 0.421773C11.4191 0.826108 10.1535 1.4229 9.44369 2.6977C9.06546 3.37571 8.74998 4.10316 8.52412 4.84297C8.16561 6.02772 8.31439 7.22837 8.61374 8.41312C8.64242 8.52965 8.69799 8.67444 8.65497 8.76625C8.41656 9.27299 8.57789 9.75855 8.6962 10.2512C8.90413 11.1234 9.2716 11.925 9.74304 12.6913C10.0442 13.1804 10.1983 13.7754 10.5622 14.2045C11.0713 14.8083 11.0516 15.398 10.9046 16.099C10.7576 16.7964 10.4296 17.3279 9.81474 17.6651C9.2716 17.9635 8.71054 18.2425 8.13334 18.4721C6.36232 19.1801 4.6881 20.0488 3.10529 21.1099C1.42568 22.2364 0.491775 23.7849 0.154779 25.7289C-0.0406075 26.8589 -0.0298523 27.9889 0.0705296 29.126C0.108173 29.5568 0.298181 29.8217 0.685368 29.9594C0.783958 29.9947 2.42771 30.4185 4.89424 30.8634C4.84584 30.4591 4.81895 30.0477 4.81895 29.6292C4.81895 23.8185 9.60143 19.1077 15.5007 19.1077C21.3999 19.1077 26.1824 23.8185 26.1824 29.6292C26.1824 30.0583 26.1537 30.4785 26.1035 30.8934C28.423 30.4714 30.013 30.0653 30.264 29.9929C30.6422 29.8835 30.9613 29.6787 30.963 29.2319C30.9702 28.2079 31.0527 27.1732 30.9451 26.1597L30.9469 26.1615Z" fill="#0E76BB"/>
</g>
<defs>
<filter id="filter0_i_1_3851" x="0" y="0" width="31" height="36.9382" filterUnits="userSpaceOnUse" color-interpolation-filters="sRGB">
<feFlood flood-opacity="0" result="BackgroundImageFix"/>
<feBlend mode="normal" in="SourceGraphic" in2="BackgroundImageFix" result="shape"/>
<feColorMatrix in="SourceAlpha" type="matrix" values="0 0 0 0 0 0 0 0 0 0 0 0 0 0 0 0 0 0 127 0" result="hardAlpha"/>
<feOffset dy="4"/>
<feGaussianBlur stdDeviation="2"/>
<feComposite in2="hardAlpha" operator="arithmetic" k2="-1" k3="1"/>
<feColorMatrix type="matrix" values="0 0 0 0 0 0 0 0 0 0 0 0 0 0 0 0 0 0 0.25 0"/>
<feBlend mode="normal" in2="shape" result="effect1_innerShadow_1_3851"/>
</filter>
</defs>
</svg>
