<svg width="30" height="30" viewBox="0 0 30 30" fill="none" xmlns="http://www.w3.org/2000/svg">
<path fill-rule="evenodd" clip-rule="evenodd" d="M0 15C0 6.71573 6.71573 0 15 0C23.2843 0 30 6.71573 30 15C30 23.2843 23.2843 30 15 30C6.71573 30 0 23.2843 0 15ZM15 1.21013C7.38406 1.21013 1.21013 7.38406 1.21013 15C1.21013 18.437 2.46813 21.5813 4.54819 23.9959C4.65476 24.1196 4.81783 24.1793 4.97908 24.1535C5.14032 24.1278 5.27671 24.0203 5.33947 23.8696C6.91539 20.084 10.6465 17.4103 15 17.4103C19.3561 17.4103 23.0907 20.0753 24.6645 23.8644C24.7272 24.0153 24.8637 24.1229 25.025 24.1487C25.1863 24.1745 25.3495 24.1148 25.4561 23.9909C27.5336 21.577 28.7899 18.4346 28.7899 15C28.7899 7.38406 22.6159 1.21013 15 1.21013ZM9.84917 10.4542C9.84917 7.6095 12.1553 5.3034 15 5.3034C17.8447 5.3034 20.1508 7.6095 20.1508 10.4542C20.1508 13.299 17.8447 15.6051 15 15.6051C12.1553 15.6051 9.84917 13.299 9.84917 10.4542ZM15 6.51352C12.8236 6.51352 11.0593 8.27784 11.0593 10.4542C11.0593 12.6306 12.8236 14.3949 15 14.3949C17.1764 14.3949 18.9407 12.6306 18.9407 10.4542C18.9407 8.27784 17.1764 6.51352 15 6.51352ZM15 18.6204C10.8308 18.6204 7.30025 21.3979 6.14679 25.1979C6.09128 25.3807 6.15184 25.579 6.30006 25.6997C8.67305 27.6314 11.7019 28.7899 15 28.7899C18.2999 28.7899 21.3302 27.6302 23.7037 25.6966C23.8517 25.5761 23.9122 25.3782 23.8571 25.1955C22.708 21.3908 19.1753 18.6204 15 18.6204Z" fill="#0E76BB"/>
</svg>
