<svg width="30" height="36" viewBox="0 0 30 36" fill="none" xmlns="http://www.w3.org/2000/svg">
<g id="Group 3068" filter="url(#filter0_i_1_3858)">
<g id="Vector">
<path d="M22.3635 28.9692C22.0054 28.9692 21.6472 28.9692 21.2891 28.9692C20.8158 28.9692 20.5472 29.1744 20.3937 29.6232C20.2146 30.1361 20.01 30.6491 19.7669 31.1492C19.5367 31.6108 19.5623 31.9955 19.9588 32.3289C20.2146 32.5469 20.4704 32.7521 20.7007 32.9445C20.2658 33.3933 19.9332 33.7395 19.5111 34.1755C19.3192 33.9447 19.1018 33.6882 18.8843 33.4446C18.5262 33.0342 18.1424 32.9829 17.6564 33.2522C17.2087 33.4959 16.7226 33.6882 16.2365 33.8421C15.7505 33.996 15.4947 34.2781 15.5074 34.8039C15.5074 35.1373 15.5074 35.4579 15.5074 35.8297H13.9725C13.9725 35.5091 13.9725 35.1757 13.9725 34.8552C13.9853 34.3166 13.7551 34.0088 13.2306 33.8421C12.7445 33.6882 12.2585 33.4959 11.8108 33.2522C11.3247 32.9829 10.941 33.047 10.5828 33.4446C10.3654 33.6882 10.1607 33.9447 9.91768 34.214C9.50836 33.778 9.17579 33.4446 8.68972 32.9316C8.94555 32.7393 9.23975 32.5469 9.49557 32.3289C9.8921 31.9955 9.91768 31.598 9.68744 31.1364C9.4572 30.6619 9.23975 30.1746 9.07346 29.6617C8.91997 29.1615 8.62577 28.9307 8.10133 28.9564C7.76876 28.9692 7.44897 28.9564 7.09082 28.9564V27.4047C7.42339 27.4047 7.75596 27.3919 8.10133 27.4047C8.65135 27.4304 8.93276 27.1611 9.08625 26.6481C9.22696 26.1737 9.41882 25.712 9.64907 25.276C9.91768 24.7759 9.87931 24.3656 9.4572 23.9937C9.21416 23.7885 8.98392 23.5962 8.76647 23.4166C9.20137 22.9935 9.54674 22.6472 9.98164 22.2112C10.1735 22.4421 10.4037 22.7242 10.6468 22.9935C10.941 23.3269 11.2863 23.3653 11.6957 23.173C12.2201 22.9293 12.7701 22.6985 13.3201 22.4933C13.7423 22.3395 13.9469 22.0702 13.9469 21.6342C13.9469 21.2879 13.9469 20.9417 13.9469 20.557H15.4819C15.4819 20.8776 15.4819 21.211 15.4819 21.5316C15.4691 22.0702 15.7121 22.3779 16.2238 22.5318C16.697 22.6729 17.1575 22.8524 17.5924 23.0961C18.0913 23.3782 18.4878 23.3397 18.8715 22.9165C19.0762 22.6857 19.3064 22.4677 19.5623 22.1856C19.946 22.5831 20.2658 22.9165 20.7391 23.4038C20.4577 23.6218 20.1635 23.8398 19.8948 24.0835C19.5367 24.3912 19.5367 24.7631 19.7286 25.1863C19.9588 25.6864 20.2018 26.1865 20.3681 26.7123C20.5344 27.2124 20.8286 27.4304 21.3402 27.4176C21.66 27.4047 21.9926 27.4176 22.3508 27.4176V28.9692H22.3635Z" fill="#1DAF1A"/>
<path d="M14.74 30.3926C15.948 30.3926 16.9273 29.4108 16.9273 28.1998C16.9273 26.9887 15.948 26.007 14.74 26.007C13.532 26.007 12.5527 26.9887 12.5527 28.1998C12.5527 29.4108 13.532 30.3926 14.74 30.3926Z" fill="white"/>
</g>
<g id="Group 3067">
<path id="Vector_2" d="M29.9486 25.3176C29.7439 23.4141 28.9598 21.7994 27.324 20.634C25.6223 19.4208 23.78 18.4845 21.8267 17.7412C20.5361 17.2491 19.4588 16.5861 19.3929 15.0141C19.379 14.6707 19.3981 14.4058 19.5994 14.1017C19.9793 13.5275 20.2776 12.9022 20.6072 12.2973C20.6766 12.1691 20.7234 12.0273 20.8084 11.9111C21.4121 11.0756 21.6012 10.0982 21.792 9.12423C21.8163 8.9995 21.7643 8.8628 21.7608 8.73123C21.7539 8.47664 21.6984 8.20837 21.7608 7.97086C22.2847 6.05029 21.9083 4.26982 20.9143 2.58847C20.203 1.38554 19.0096 0.802876 17.7415 0.413293C15.9547 -0.136907 14.1194 -0.136907 12.3327 0.408167C11.0507 0.799459 9.826 1.377 9.13905 2.61068C8.77303 3.26682 8.46772 3.9708 8.24915 4.68675C7.9022 5.83328 8.04619 6.9952 8.33588 8.14173C8.36364 8.25451 8.41741 8.39462 8.37578 8.48347C8.14506 8.97387 8.30119 9.44376 8.41568 9.92049C8.6169 10.7646 8.97252 11.5403 9.42875 12.2819C9.72018 12.7552 9.86936 13.331 10.2215 13.7463C10.7142 14.3306 10.6951 14.9013 10.5528 15.5797C10.4106 16.2546 10.0931 16.7689 9.49814 17.0953C8.97252 17.3841 8.42956 17.6541 7.87098 17.8762C6.15709 18.5614 4.53687 19.4021 3.00512 20.429C1.3797 21.5191 0.475911 23.0177 0.149786 24.8989C-0.0392976 25.9925 -0.0288893 27.0861 0.0682544 28.1865C0.104683 28.6034 0.288563 28.8597 0.66326 28.993C0.758669 29.0271 2.3494 29.4372 4.73636 29.8678C4.68952 29.4765 4.6635 29.0784 4.6635 28.6734C4.6635 23.0501 9.29171 18.4913 15.0006 18.4913C20.7096 18.4913 25.3378 23.0501 25.3378 28.6734C25.3378 29.0887 25.31 29.4953 25.2614 29.8969C27.5062 29.4885 29.0448 29.0955 29.2877 29.0254C29.6537 28.9195 29.9625 28.7213 29.9642 28.289C29.9712 27.2979 30.051 26.2966 29.9469 25.3158L29.9486 25.3176Z" fill="#1DAF1A"/>
</g>
</g>
<defs>
<filter id="filter0_i_1_3858" x="0" y="0" width="30" height="39.8297" filterUnits="userSpaceOnUse" color-interpolation-filters="sRGB">
<feFlood flood-opacity="0" result="BackgroundImageFix"/>
<feBlend mode="normal" in="SourceGraphic" in2="BackgroundImageFix" result="shape"/>
<feColorMatrix in="SourceAlpha" type="matrix" values="0 0 0 0 0 0 0 0 0 0 0 0 0 0 0 0 0 0 127 0" result="hardAlpha"/>
<feOffset dy="4"/>
<feGaussianBlur stdDeviation="2"/>
<feComposite in2="hardAlpha" operator="arithmetic" k2="-1" k3="1"/>
<feColorMatrix type="matrix" values="0 0 0 0 0 0 0 0 0 0 0 0 0 0 0 0 0 0 0.25 0"/>
<feBlend mode="normal" in2="shape" result="effect1_innerShadow_1_3858"/>
</filter>
</defs>
</svg>
