<svg width="24" height="28" viewBox="0 0 24 28" fill="none" xmlns="http://www.w3.org/2000/svg">
<path d="M16.1266 16.6171C17.8747 17.4125 19.5285 18.1877 21.2003 18.9225C22.5462 19.5134 23.3956 20.5335 23.5798 21.9491C23.7228 23.0638 23.798 24.1869 23.8664 25.3288C23.9358 26.4872 23.013 27.4722 21.8524 27.4722H2.14523C0.985548 27.4722 0.0484613 26.4878 0.0646021 25.3282C0.0842846 23.9142 0.125922 22.5182 0.59545 21.156C0.919015 20.2167 1.53019 19.5157 2.42 19.0955C4.17489 18.2686 5.94326 17.4776 7.81949 16.6193C8.63739 19.1764 9.46653 21.7649 10.3586 24.5466C10.7114 23.558 11.0192 22.767 11.2664 21.9581C11.3203 21.7806 11.1967 21.5267 11.1091 21.3312C10.9787 21.0459 10.7765 20.7942 10.6574 20.5066C10.0597 19.0797 10.754 18.1854 12.3 18.3809C13.3179 18.509 13.7246 19.1494 13.4167 20.1403C13.374 20.2774 13.3605 20.4414 13.2729 20.5403C12.0775 21.9064 13.1988 23.0659 13.6684 24.3152C14.4885 21.7492 15.3064 19.1831 16.1243 16.6215L16.1266 16.6171Z" fill="#3E3F3F"/>
<path d="M17.8657 5.49675C17.832 5.83155 17.7736 6.28544 17.7399 6.74157C17.6995 7.30557 17.2973 7.92124 18.0657 8.37288C18.223 8.46501 18.2477 8.9953 18.1556 9.26269C17.8298 10.1862 17.4253 11.0805 17.0546 11.986C16.9692 12.195 16.9175 12.4197 16.8097 12.6174C16.394 13.3904 16.0704 14.2487 15.5154 14.9093C13.41 17.417 10.2058 17.408 8.25765 14.7768C7.08922 13.1994 6.18594 11.4063 5.768 9.43346C5.65116 8.88295 5.58599 8.37962 6.15673 7.98191C6.28705 7.89203 6.2511 7.47858 6.20167 7.23142C5.47814 3.47896 8.47112 -0.116211 12.2505 0.00287861C13.6594 0.0478182 14.8548 0.591588 15.794 1.66115C15.8884 1.76901 15.9536 1.93528 16.0704 1.98022C17.6568 2.59365 17.7871 3.96206 17.8657 5.4945V5.49675Z" fill="#3E3F3F"/>
</svg>
