<svg width="30" height="34" viewBox="0 0 30 34" fill="none" xmlns="http://www.w3.org/2000/svg">
<g id="Vector">
<path d="M14.9716 19.5913H15.0272C19.4202 19.5913 22.7566 13.7822 22.7566 9.79564C22.7566 3.07538 19.6426 0 15.0272 0H14.9716C10.3563 0 7.24226 3.07538 7.24226 9.79564C7.24226 13.7822 10.5787 19.5913 14.9716 19.5913ZM8.3544 9.79564C8.3544 9.71933 8.3544 9.64188 8.35551 9.56556L9.66117 10.3082V9.34003C9.66117 8.85253 9.69787 7.43672 9.86691 6.74419C9.96478 6.34553 10.1739 6.02318 10.3396 5.81588C11.0791 6.15531 12.7918 6.83417 14.6658 6.83417H15.3331C17.207 6.83417 18.9197 6.15531 19.6593 5.81702C19.825 6.02432 20.0352 6.34667 20.132 6.74533C20.301 7.43558 20.3377 8.85253 20.3377 9.34117V10.3093L21.6434 9.5667C21.6434 9.64415 21.6445 9.72047 21.6445 9.79678C21.6445 11.5828 20.876 13.7765 19.6393 15.5204C18.863 16.6161 17.2304 18.4534 15.0272 18.4534H14.9716C12.7685 18.4534 11.1359 16.6161 10.3596 15.5204C9.12289 13.7765 8.3544 11.5828 8.3544 9.79678V9.79564Z" fill="#3E3F3F"/>
<path d="M21.1029 18.5092H21.0751C21.0751 18.5092 21.0195 19.4774 20.3522 20.6164C18.3537 24.0278 16.9323 25.7967 16.3095 26.5041C16.2428 26.5792 16.1205 26.5337 16.116 26.4323L15.9581 22.7122C15.9514 22.5619 16.0404 22.4206 16.1794 22.3717C16.3507 22.3113 16.5664 22.1985 16.7755 21.9844C17.0247 21.7292 17.1348 21.3659 17.1826 21.0959C17.2115 20.9319 17.0614 20.7952 16.9034 20.8397C16.5475 20.9399 15.8858 21.0732 14.8849 21.0732C13.9652 21.0732 13.4057 20.9604 13.0955 20.8647C12.9353 20.8146 12.7841 20.9604 12.8163 21.129C12.8675 21.3944 12.9776 21.7395 13.2178 21.9844C13.4269 22.1985 13.6437 22.3124 13.8139 22.3717C13.9529 22.4206 14.0419 22.5619 14.0352 22.7122L13.8773 26.4266C13.8728 26.528 13.7505 26.5747 13.6838 26.4984C13.0588 25.7876 11.6408 24.0198 9.64671 20.6176C8.97943 19.4785 8.92382 18.5104 8.92382 18.5104H8.89601C3.98369 18.5092 0 22.5892 0 27.6214V29.4849C0 31.9782 1.97405 34 4.40853 34H25.5915C28.0259 34 30 31.9782 30 29.4849V27.6214C30 22.5892 26.0163 18.5092 21.1029 18.5092ZM25.9407 29.9564C25.9407 30.5203 25.4903 30.9816 24.9398 30.9816H21.7146C21.164 30.9816 20.7136 30.5203 20.7136 29.9564V28.2855C20.7136 27.7217 21.164 27.2604 21.7146 27.2604H24.9398C25.4903 27.2604 25.9407 27.7217 25.9407 28.2855V29.9564Z" fill="#3E3F3F"/>
</g>
</svg>
