<svg width="54" height="54" viewBox="0 0 54 54" fill="none" xmlns="http://www.w3.org/2000/svg">
<g id="Vector">
<path d="M27.0017 53.9866C34.1618 53.9857 41.0284 51.1417 46.0914 46.08C51.1544 41.0183 53.9991 34.1533 54 26.995C54 19.8361 51.1556 12.9703 46.0926 7.90787C41.0295 2.84542 34.1624 0.000885897 27.0017 0C23.4546 -4.34428e-07 19.9424 0.698739 16.6655 2.0562C13.3886 3.41366 10.4114 5.40324 7.90388 7.91137C5.39637 10.4195 3.40773 13.397 2.05155 16.6737C0.695378 19.9504 -0.00175243 23.4622 3.30816e-06 27.0084C0.000889425 34.1673 2.84609 41.0327 7.90979 46.0945C12.9735 51.1563 19.841 54 27.0017 54" fill="#0E76BB"/>
<path d="M43.458 27.172C43.458 27.1453 43.458 27.1152 43.458 27.0885C43.4596 27.0596 43.4596 27.0306 43.458 27.0016V26.9849C43.4596 26.956 43.4596 26.927 43.458 26.8981C43.458 26.8713 43.458 26.8446 43.458 26.8145C43.4564 26.8091 43.4564 26.8034 43.458 26.7979C43.458 26.7678 43.4379 26.7378 43.4279 26.7077C43.4179 26.6776 43.4279 26.6642 43.4279 26.6442C43.4176 26.6209 43.4053 26.5985 43.3911 26.5774V26.5506C43.3911 26.5306 43.3711 26.5106 43.3577 26.4939C43.341 26.4671 43.3176 26.4438 43.2976 26.417C43.2816 26.3955 43.2637 26.3754 43.2441 26.3569C43.2253 26.3365 43.2039 26.3185 43.1806 26.3034L43.1606 26.2868L43.1105 26.2433C43.0934 26.232 43.0755 26.222 43.057 26.2133L42.9735 26.1698H42.9534L11.8786 13.8098C11.706 13.7411 11.517 13.7247 11.3352 13.7628C11.1533 13.8008 10.9867 13.8915 10.8561 14.0236C10.7253 14.155 10.6362 14.3221 10.5999 14.5039C10.5637 14.6858 10.5819 14.8743 10.6523 15.0458L15.5207 27.0517L10.6523 39.0544C10.5819 39.2259 10.5637 39.4144 10.5999 39.5962C10.6362 39.7781 10.7253 39.9452 10.8561 40.0766C11.033 40.2548 11.2733 40.3557 11.5244 40.3571C11.6389 40.3547 11.752 40.3321 11.8586 40.2903L42.9334 27.9303H42.9634C43.0049 27.9118 43.0451 27.8906 43.0837 27.8669C43.1238 27.8397 43.1618 27.8095 43.1973 27.7767L43.2207 27.7499C43.2478 27.722 43.2724 27.6919 43.2942 27.6597L43.3143 27.6363C43.3132 27.6285 43.3132 27.6207 43.3143 27.613C43.3352 27.5796 43.3542 27.545 43.3711 27.5094C43.3773 27.4986 43.3829 27.4874 43.3878 27.476C43.3878 27.476 43.3878 27.4359 43.3878 27.4125C43.3998 27.3831 43.4099 27.353 43.4179 27.3223C43.3979 27.317 43.3809 27.304 43.3706 27.2862C43.3602 27.2683 43.3574 27.2471 43.3627 27.2271C43.3681 27.2072 43.3811 27.1902 43.3989 27.1798C43.4168 27.1695 43.438 27.1667 43.458 27.172ZM37.5838 26.0463H17.1012L13.1751 16.3186L37.5838 26.0463ZM17.1012 27.9403H37.5838L13.165 37.6547L17.1012 27.9403Z" fill="white"/>
</g>
</svg>
