<svg width="22" height="29" viewBox="0 0 22 29" fill="none" xmlns="http://www.w3.org/2000/svg">
<path d="M8.34406 1C8.73546 1.13011 9.15296 1.20936 9.5137 1.39957C10.774 2.06663 11.4538 3.13393 11.519 4.5823C11.5347 4.92243 11.521 5.26455 11.521 5.64101C11.6371 5.64101 11.7284 5.64101 11.8204 5.64101C12.8622 5.64101 13.9033 5.64563 14.9451 5.6377C15.1812 5.63572 15.3619 5.7163 15.5237 5.88075C17.2713 7.65275 19.0248 9.42012 20.7633 11.2014C20.8938 11.3348 20.989 11.5692 20.9897 11.7568C21.0021 16.4493 21.0014 21.1418 20.9975 25.8344C20.9962 27.084 20.0907 27.9974 18.8604 27.998C13.6182 28.0007 8.37537 28.0007 3.13317 27.998C1.91656 27.998 1.00393 27.0853 1.00263 25.8542C0.998716 19.8348 0.999368 13.8154 1.00328 7.79607C1.00393 6.55045 1.91525 5.64695 3.14948 5.64167C3.49587 5.64035 3.84292 5.64167 4.23041 5.64167C4.23041 5.39928 4.23758 5.16614 4.2291 4.933C4.19322 3.88552 4.49656 2.96089 5.20435 2.18617C5.77058 1.56667 6.46467 1.18162 7.29118 1.04953C7.33098 1.04293 7.36816 1.01717 7.40599 1C7.71846 1 8.03159 1 8.34406 1ZM6.2631 6.69443C5.24936 6.69443 4.2702 6.69443 3.29104 6.69443C2.45082 6.69443 2.04637 7.10391 2.04637 7.9559C2.04637 13.8689 2.04637 19.782 2.04637 25.6957C2.04637 26.5305 2.45474 26.9446 3.27669 26.9453C8.42299 26.9453 13.5693 26.9453 18.7156 26.9453C19.5428 26.9453 19.9544 26.5338 19.9544 25.7043C19.955 21.2938 19.9544 16.8826 19.9544 12.4721V12.1788C18.91 12.1788 17.9041 12.1788 16.8988 12.1788C15.4696 12.1782 14.5432 11.243 14.5387 9.7913C14.5354 8.86006 14.5387 7.92882 14.5387 6.99692C14.5387 6.90313 14.5387 6.81001 14.5387 6.70896H11.5268C11.5268 6.81727 11.5268 6.91172 11.5268 7.00616C11.5249 7.9024 11.5366 8.79863 11.5183 9.69487C11.4877 11.1994 9.92142 12.4476 8.46409 12.1438C7.1157 11.8625 6.26701 10.8117 6.2644 9.4155C6.26244 8.52058 6.2644 7.62567 6.2644 6.69443H6.2631ZM6.2644 5.62978C6.2644 5.27578 6.25462 4.95083 6.26636 4.62655C6.3068 3.50246 7.37599 2.75945 8.4119 3.1293C9.07337 3.36574 9.47652 3.99252 9.47783 4.80289C9.48043 6.27901 9.47913 7.75578 9.47848 9.23189C9.47848 9.72327 9.29191 9.98019 8.94095 9.97886C8.59195 9.97754 8.40995 9.72063 8.40995 9.22529C8.40995 7.78418 8.40995 6.34241 8.40995 4.9013C8.40995 4.79629 8.41125 4.68995 8.39951 4.5856C8.3695 4.31482 8.16206 4.11998 7.89851 4.10677C7.62583 4.0929 7.4086 4.25405 7.35055 4.52682C7.3251 4.6457 7.31532 4.76987 7.31467 4.89139C7.31206 6.32392 7.31141 7.75644 7.31467 9.18896C7.31467 9.3904 7.32706 9.59316 7.35185 9.79262C7.45035 10.5852 8.28731 11.2218 9.06163 11.1003C9.93642 10.9629 10.4772 10.3342 10.4792 9.43531C10.4831 7.89712 10.4772 6.35958 10.4818 4.82138C10.4837 4.09753 10.258 3.46811 9.78964 2.91796C8.95791 1.94049 7.32576 1.79519 6.32311 2.59169C5.32634 3.38358 5.19652 4.45483 5.29568 5.62912L6.2644 5.62978ZM19.1148 11.1241C17.9367 9.93065 16.7599 8.73853 15.5824 7.54509C15.5824 8.31056 15.5779 9.09782 15.5837 9.88442C15.5896 10.5951 16.0632 11.1016 16.769 11.1195C17.557 11.1393 18.3457 11.1241 19.1148 11.1241Z" fill="#0E76BB"/>
<path d="M10.972 14.921C9.64444 14.921 8.31693 14.9197 6.98942 14.9224C6.74806 14.9224 6.56931 14.8273 6.46559 14.6067C6.37426 14.4125 6.38927 14.1992 6.54453 14.0724C6.67956 13.9621 6.87918 13.8788 7.05074 13.8769C8.43044 13.8617 9.81014 13.8683 11.1892 13.8683C12.456 13.8683 13.7229 13.867 14.9897 13.8696C15.2891 13.8703 15.4874 14.034 15.5305 14.2956C15.5749 14.5637 15.4535 14.8015 15.2089 14.8841C15.1052 14.9191 14.9878 14.9204 14.8762 14.9204C13.5748 14.923 12.2734 14.921 10.972 14.921Z" fill="#0E76BB"/>
<path d="M10.998 17.6646C12.3171 17.6646 13.6361 17.6639 14.9545 17.6652C15.2533 17.6652 15.4568 17.8006 15.522 18.0311C15.6192 18.3759 15.3981 18.6982 15.0406 18.7147C14.7894 18.7266 14.5376 18.718 14.2858 18.718C11.9172 18.718 9.54855 18.718 7.17925 18.718C7.1101 18.718 7.0403 18.72 6.97116 18.718C6.64107 18.7074 6.41145 18.4848 6.41667 18.183C6.42189 17.8911 6.64694 17.6731 6.96333 17.6672C7.31037 17.6606 7.65742 17.6652 8.00446 17.6652C9.00254 17.6652 9.99997 17.6646 10.998 17.6646Z" fill="#0E76BB"/>
<path d="M10.9817 22.5149C9.66271 22.5149 8.34368 22.513 7.0253 22.5169C6.80024 22.5169 6.61498 22.4575 6.49429 22.2554C6.30446 21.9377 6.4943 21.5269 6.8583 21.4688C6.91766 21.4595 6.97964 21.4615 7.0403 21.4615C9.66923 21.4615 12.2982 21.4615 14.9277 21.4615C15.2493 21.4615 15.4548 21.5903 15.5227 21.8261C15.627 22.1906 15.3863 22.5097 14.991 22.513C14.2969 22.5189 13.6028 22.5149 12.9087 22.5149C12.2668 22.5149 11.6236 22.5149 10.9817 22.5149Z" fill="#0E76BB"/>
<path d="M8.34406 1C8.73546 1.13011 9.15296 1.20936 9.5137 1.39957C10.774 2.06663 11.4538 3.13393 11.519 4.5823C11.5347 4.92243 11.521 5.26455 11.521 5.64101C11.6371 5.64101 11.7284 5.64101 11.8204 5.64101C12.8622 5.64101 13.9033 5.64563 14.9451 5.6377C15.1812 5.63572 15.3619 5.7163 15.5237 5.88075C17.2713 7.65275 19.0248 9.42012 20.7633 11.2014C20.8938 11.3348 20.989 11.5692 20.9897 11.7568C21.0021 16.4493 21.0014 21.1418 20.9975 25.8344C20.9962 27.084 20.0907 27.9974 18.8604 27.998C13.6182 28.0007 8.37537 28.0007 3.13317 27.998C1.91656 27.998 1.00393 27.0853 1.00263 25.8542C0.998716 19.8348 0.999368 13.8154 1.00328 7.79607C1.00393 6.55045 1.91525 5.64695 3.14948 5.64167C3.49587 5.64035 3.84292 5.64167 4.23041 5.64167C4.23041 5.39928 4.23758 5.16614 4.2291 4.933C4.19322 3.88552 4.49656 2.96089 5.20435 2.18617C5.77058 1.56667 6.46467 1.18162 7.29118 1.04953C7.33098 1.04293 7.36816 1.01717 7.40599 1C7.71846 1 8.03159 1 8.34406 1ZM6.2631 6.69443C5.24936 6.69443 4.2702 6.69443 3.29104 6.69443C2.45082 6.69443 2.04637 7.10391 2.04637 7.9559C2.04637 13.8689 2.04637 19.782 2.04637 25.6957C2.04637 26.5305 2.45474 26.9446 3.27669 26.9453C8.42299 26.9453 13.5693 26.9453 18.7156 26.9453C19.5428 26.9453 19.9544 26.5338 19.9544 25.7043C19.955 21.2938 19.9544 16.8826 19.9544 12.4721V12.1788C18.91 12.1788 17.9041 12.1788 16.8988 12.1788C15.4696 12.1782 14.5432 11.243 14.5387 9.7913C14.5354 8.86006 14.5387 7.92882 14.5387 6.99692C14.5387 6.90313 14.5387 6.81001 14.5387 6.70896H11.5268C11.5268 6.81727 11.5268 6.91172 11.5268 7.00616C11.5249 7.9024 11.5366 8.79863 11.5183 9.69487C11.4877 11.1994 9.92142 12.4476 8.46409 12.1438C7.1157 11.8625 6.26701 10.8117 6.2644 9.4155C6.26244 8.52058 6.2644 7.62567 6.2644 6.69443H6.2631ZM6.2644 5.62978C6.2644 5.27578 6.25462 4.95083 6.26636 4.62655C6.3068 3.50246 7.37599 2.75945 8.4119 3.1293C9.07337 3.36574 9.47652 3.99252 9.47783 4.80289C9.48043 6.27901 9.47913 7.75578 9.47848 9.23189C9.47848 9.72327 9.29191 9.98019 8.94095 9.97886C8.59195 9.97754 8.40995 9.72063 8.40995 9.22529C8.40995 7.78418 8.40995 6.34241 8.40995 4.9013C8.40995 4.79629 8.41125 4.68995 8.39951 4.5856C8.3695 4.31482 8.16206 4.11998 7.89851 4.10677C7.62583 4.0929 7.4086 4.25405 7.35055 4.52682C7.3251 4.6457 7.31532 4.76987 7.31467 4.89139C7.31206 6.32392 7.31141 7.75644 7.31467 9.18896C7.31467 9.3904 7.32706 9.59316 7.35185 9.79262C7.45035 10.5852 8.28731 11.2218 9.06163 11.1003C9.93642 10.9629 10.4772 10.3342 10.4792 9.43531C10.4831 7.89712 10.4772 6.35958 10.4818 4.82138C10.4837 4.09753 10.258 3.46811 9.78964 2.91796C8.95791 1.94049 7.32576 1.79519 6.32311 2.59169C5.32634 3.38358 5.19652 4.45483 5.29568 5.62912L6.2644 5.62978ZM19.1148 11.1241C17.9367 9.93065 16.7599 8.73853 15.5824 7.54509C15.5824 8.31056 15.5779 9.09782 15.5837 9.88442C15.5896 10.5951 16.0632 11.1016 16.769 11.1195C17.557 11.1393 18.3457 11.1241 19.1148 11.1241Z" stroke="#0E76BB" stroke-width="0.4"/>
<path d="M10.972 14.921C9.64444 14.921 8.31693 14.9197 6.98942 14.9224C6.74806 14.9224 6.56931 14.8273 6.46559 14.6067C6.37426 14.4125 6.38927 14.1992 6.54453 14.0724C6.67956 13.9621 6.87918 13.8788 7.05074 13.8769C8.43044 13.8617 9.81014 13.8683 11.1892 13.8683C12.456 13.8683 13.7229 13.867 14.9897 13.8696C15.2891 13.8703 15.4874 14.034 15.5305 14.2956C15.5749 14.5637 15.4535 14.8015 15.2089 14.8841C15.1052 14.9191 14.9878 14.9204 14.8762 14.9204C13.5748 14.923 12.2734 14.921 10.972 14.921Z" stroke="#0E76BB" stroke-width="0.4"/>
<path d="M10.998 17.6646C12.3171 17.6646 13.6361 17.6639 14.9545 17.6652C15.2533 17.6652 15.4568 17.8006 15.522 18.0311C15.6192 18.3759 15.3981 18.6982 15.0406 18.7147C14.7894 18.7266 14.5376 18.718 14.2858 18.718C11.9172 18.718 9.54855 18.718 7.17925 18.718C7.1101 18.718 7.0403 18.72 6.97116 18.718C6.64107 18.7074 6.41145 18.4848 6.41667 18.183C6.42189 17.8911 6.64694 17.6731 6.96333 17.6672C7.31037 17.6606 7.65742 17.6652 8.00446 17.6652C9.00254 17.6652 9.99997 17.6646 10.998 17.6646Z" stroke="#0E76BB" stroke-width="0.4"/>
<path d="M10.9817 22.5149C9.66271 22.5149 8.34368 22.513 7.0253 22.5169C6.80024 22.5169 6.61498 22.4575 6.49429 22.2554C6.30446 21.9377 6.4943 21.5269 6.8583 21.4688C6.91766 21.4595 6.97964 21.4615 7.0403 21.4615C9.66923 21.4615 12.2982 21.4615 14.9277 21.4615C15.2493 21.4615 15.4548 21.5903 15.5227 21.8261C15.627 22.1906 15.3863 22.5097 14.991 22.513C14.2969 22.5189 13.6028 22.5149 12.9087 22.5149C12.2668 22.5149 11.6236 22.5149 10.9817 22.5149Z" stroke="#0E76BB" stroke-width="0.4"/>
</svg>
