<svg width="26" height="21" viewBox="0 0 26 21" fill="none" xmlns="http://www.w3.org/2000/svg">
<path d="M25.999 10.5963C25.999 10.5752 25.999 10.5515 25.999 10.5304C26.0003 10.5076 26.0003 10.4847 25.999 10.4619V10.4487C26.0003 10.4259 26.0003 10.403 25.999 10.3802C25.999 10.3591 25.999 10.338 25.999 10.3143C25.9978 10.31 25.9978 10.3054 25.999 10.3011C25.999 10.2774 25.9832 10.2537 25.9752 10.23C25.9673 10.2062 25.9752 10.1956 25.9752 10.1798C25.9671 10.1614 25.9574 10.1438 25.9462 10.1271V10.106C25.9462 10.0902 25.9303 10.0744 25.9198 10.0612C25.9065 10.0401 25.8881 10.0217 25.8722 10.0006C25.8595 9.98359 25.8454 9.96773 25.8299 9.95319C25.815 9.9371 25.7981 9.92289 25.7797 9.91097L25.7638 9.89784L25.7242 9.86354C25.7107 9.85464 25.6966 9.84676 25.6819 9.83986L25.6159 9.80556H25.6L1.02557 0.05293C0.889084 -0.0012887 0.739608 -0.0142014 0.595808 0.0157997C0.452008 0.0458007 0.320257 0.117358 0.216994 0.221596C0.113535 0.325294 0.04305 0.457151 0.0143771 0.600628C-0.0142958 0.744105 0.00012226 0.892837 0.0558103 1.02818L3.90581 10.5014L0.0558103 19.972C0.00012226 20.1074 -0.0142958 20.2561 0.0143771 20.3996C0.04305 20.5431 0.113535 20.6749 0.216994 20.7786C0.356846 20.9193 0.546885 20.9989 0.745476 21C0.835981 20.9981 0.925435 20.9802 1.00972 20.9473L25.5842 11.1947H25.608C25.6407 11.18 25.6725 11.1633 25.7031 11.1446C25.7348 11.1232 25.7648 11.0994 25.7929 11.0734L25.8114 11.0523C25.8328 11.0303 25.8523 11.0065 25.8696 10.9811L25.8854 10.9627C25.8845 10.9566 25.8845 10.9504 25.8854 10.9443C25.9019 10.9179 25.9169 10.8906 25.9303 10.8625C25.9353 10.854 25.9397 10.8452 25.9435 10.8362C25.9435 10.8362 25.9435 10.8045 25.9435 10.7861C25.953 10.7629 25.961 10.7391 25.9673 10.7149C25.9516 10.7107 25.9381 10.7005 25.9299 10.6864C25.9217 10.6723 25.9195 10.6555 25.9237 10.6398C25.9279 10.6241 25.9382 10.6107 25.9523 10.6025C25.9665 10.5943 25.9833 10.5921 25.999 10.5963ZM21.3537 9.70807H5.15567L2.05083 2.03245L21.3537 9.70807ZM5.15567 11.2026H21.3537L2.04291 18.8676L5.15567 11.2026Z" fill="#0E76BB"/>
</svg>
