<svg width="16" height="17" viewBox="0 0 16 17" fill="none" xmlns="http://www.w3.org/2000/svg">
<path d="M4.70027 17C4.704 16.6406 4.7057 16.2812 4.7125 15.9222C4.71453 15.8133 4.63641 15.8167 4.56507 15.806C3.68596 15.6766 2.91453 15.3195 2.26198 14.7312C1.38899 13.9435 0.893041 12.9682 0.832916 11.8018C0.806081 11.2837 0.8285 10.7632 0.8285 10.2258H0V4.84492C0.257823 4.84492 0.521082 4.83893 0.783661 4.84791C0.897117 4.85191 0.952486 4.81863 0.994608 4.71281C1.57853 3.24596 2.54121 2.07428 3.88026 1.20508C4.85075 0.575151 5.91669 0.19413 7.07537 0.0566958C8.35158 -0.0943817 9.58669 0.0550319 10.78 0.522241C12.131 1.05101 13.2295 1.90024 14.0845 3.05129C14.4683 3.56775 14.7795 4.12447 15.0074 4.72379C15.0421 4.8153 15.0896 4.85024 15.1912 4.84725C15.4562 4.83993 15.7215 4.84492 16 4.84492V10.2112H12.9459C13.8786 8.42452 13.8807 6.64321 12.9448 4.85024H13.9388C13.3182 3.17508 11.3289 1.18046 8.40185 1.00542C5.37625 0.824396 2.91453 2.72917 2.05172 4.84093H3.05652C2.12067 6.63522 2.11898 8.41687 3.05312 10.2148H1.86693C1.84723 10.2391 1.83432 10.2478 1.83432 10.2564C1.84417 11.0554 1.73003 11.8667 2.02658 12.6401C2.47633 13.8131 3.33642 14.5315 4.58579 14.8021C4.60787 14.8067 4.63063 14.808 4.65305 14.8094C4.66426 14.81 4.67547 14.807 4.70944 14.8027V14.0264H8.4973V17H4.70027Z" fill="#0E76BB"/>
<path d="M12.6286 7.52471C12.6415 10.0072 10.568 12.0437 8.01019 12.0614C5.47374 12.079 3.39043 10.0498 3.37446 7.54568C3.3585 5.05423 5.44249 3.00304 7.99728 2.99605C10.531 2.98906 12.616 5.02761 12.6289 7.52438L12.6286 7.52471Z" fill="#0E76BB"/>
</svg>
