<svg width="18" height="18" viewBox="0 0 18 18" fill="none" xmlns="http://www.w3.org/2000/svg">
<path d="M9.19688 1.18828C9.00703 1.25859 8.83125 1.41328 8.70469 1.62421C8.53594 1.89843 8.51485 2.025 8.50782 2.66484C8.50782 3.05859 8.48672 3.33281 8.44453 3.51562C8.19844 4.68984 7.43907 5.94843 6.25782 7.15078L5.80782 7.60781L5.70235 7.48828L5.59688 7.36875L3.34688 7.36171C1.77891 7.35468 1.06172 7.36171 0.970316 7.38984C0.885941 7.41093 0.815628 7.46718 0.773441 7.5375C0.710159 7.64296 0.703128 7.74843 0.703128 12.1008C0.703128 17.0367 0.689066 16.7062 0.928128 16.8047C1.09688 16.875 5.4 16.875 5.56875 16.8047C5.77266 16.7203 5.79375 16.657 5.79375 16.0945C5.79375 15.7781 5.80782 15.5883 5.82891 15.5883C5.85 15.5883 6.08203 15.6516 6.34922 15.7219C7.81875 16.1227 9.28828 16.3758 11.0672 16.5445C12.6211 16.6852 14.0695 16.7273 14.4563 16.6359C15.075 16.4883 15.525 16.0312 15.5813 15.4758C15.6023 15.2789 15.5039 14.8852 15.4055 14.7586C15.3563 14.6953 15.3703 14.6883 15.5953 14.5758C16.0031 14.3789 16.2844 14.0273 16.4039 13.5703C16.4953 13.2258 16.4461 12.9516 16.2281 12.4664C16.2211 12.4453 16.2703 12.4102 16.3336 12.382C16.5445 12.3047 16.882 11.9602 17.0297 11.6648C17.1492 11.4187 17.1563 11.3906 17.1563 11.0461C17.1563 10.6453 17.093 10.4484 16.875 10.1672C16.8117 10.0828 16.7625 10.0125 16.7625 10.0055C16.7625 9.99843 16.8258 9.92812 16.8961 9.84375C17.0719 9.64687 17.2266 9.3375 17.2758 9.07031C17.3531 8.6625 17.2055 8.1914 16.8891 7.8539C16.6922 7.63593 16.5094 7.52343 16.2492 7.44609C16.0875 7.39687 15.7641 7.38984 13.5703 7.38984C11.2078 7.38984 11.0813 7.38984 11.1023 7.32656C11.243 6.99609 11.4891 5.99765 11.5734 5.45625C11.6367 4.99921 11.6297 3.95859 11.5594 3.55781C11.3555 2.46796 10.8281 1.64531 10.125 1.30781C9.78047 1.14609 9.42891 1.09687 9.19688 1.18828ZM9.82266 1.94062C10.2164 2.14453 10.6594 2.8125 10.8211 3.4664C10.9125 3.83203 10.9477 4.77421 10.8914 5.22421C10.807 5.85703 10.575 6.74296 10.3008 7.41796C10.1742 7.73437 10.1742 7.83984 10.3008 7.98046L10.3992 8.09296L13.268 8.10703C16.4672 8.12812 16.2492 8.10703 16.4461 8.36718C16.5234 8.47265 16.5445 8.5289 16.5516 8.73984C16.5656 9.07031 16.5445 9.2039 16.432 9.3375C16.2492 9.55546 16.1648 9.57656 15.2016 9.57656C14.7305 9.57656 14.3016 9.59062 14.2594 9.60468C14.0414 9.68906 13.957 9.96328 14.0836 10.1531C14.1961 10.3078 14.3086 10.3289 15.1664 10.3289C15.6516 10.3289 16.0102 10.343 16.0664 10.3641C16.2984 10.4484 16.4461 10.7086 16.4531 11.0109C16.4531 11.2781 16.3969 11.4539 16.2492 11.5945C16.0875 11.7562 15.8555 11.8055 15.3281 11.7984C15.1102 11.7914 14.6953 11.7914 14.407 11.7914L13.8867 11.7984L13.7672 11.918C13.6125 12.0727 13.6055 12.2344 13.7531 12.3891L13.8516 12.5016L14.5688 12.5156C15.3492 12.5367 15.4125 12.5508 15.5813 12.7547C15.6867 12.8742 15.7219 13.0359 15.7219 13.2891C15.7148 13.5281 15.6586 13.6828 15.525 13.8023C15.3492 13.9711 15.2578 13.9852 14.3648 13.9852C13.4438 13.9852 13.3805 13.9992 13.2891 14.2172C13.2258 14.3719 13.2539 14.4984 13.3805 14.625C13.4789 14.7234 13.493 14.7234 13.9711 14.7445C14.2453 14.7516 14.4844 14.7797 14.5266 14.8008C14.857 14.9906 14.9766 15.532 14.7375 15.7641C14.5406 15.9609 14.182 15.9961 12.9023 15.9398C10.2938 15.8273 8.02266 15.4758 6.08203 14.8922L5.80078 14.8078V11.7211V8.63437L6.53907 7.875C7.72032 6.69375 8.39532 5.7375 8.84532 4.62656C9.14063 3.90937 9.25313 3.29062 9.23203 2.50312L9.225 2.01093L9.32344 1.92656C9.44297 1.83515 9.61172 1.83515 9.82266 1.94062ZM5.07657 12.1008V16.1016H3.24844H1.42032V12.1078V8.11406H3.24844H5.07657V12.1008Z" fill="#0E76BB"/>
</svg>
