<svg width="22" height="17" viewBox="0 0 22 17" fill="none" xmlns="http://www.w3.org/2000/svg">
<path d="M1 2.48513C1.0856 2.06902 1.24651 1.69643 1.5796 1.41137C1.92981 1.11163 2.33724 1.00015 2.78772 1.00015C6.91391 1.00113 11.0401 1.00064 15.1663 1.00064C16.5265 1.00064 17.8867 0.998683 19.247 1.00162C19.9591 1.00308 20.5123 1.29939 20.8209 1.95069C20.9315 2.18344 20.9907 2.46264 20.9917 2.72081C21.0019 6.57286 21.0014 10.4254 20.997 14.2774C20.9961 15.2964 20.2668 15.9966 19.2274 15.9971C14.4116 15.9981 9.59524 15.9971 4.7794 15.9971C4.11567 15.9971 3.45145 15.9859 2.78821 15.9996C1.85449 16.0186 1.14625 15.3967 1.02641 14.5845C1.02299 14.5601 1.00929 14.5366 1 14.5126C1 10.5041 1 6.49463 1 2.48513ZM2.53827 1.85535C2.52751 1.87393 2.51675 1.89251 2.50599 1.91109C2.55784 1.94825 2.61408 1.98052 2.66055 2.02306C5.21912 4.35492 7.77671 6.68874 10.3358 9.02061C10.7941 9.43818 11.2054 9.4372 11.6642 9.01865C14.2184 6.69119 16.7711 4.36177 19.3252 2.03431C19.3766 1.98737 19.4387 1.95265 19.4954 1.91207C19.4837 1.89348 19.4715 1.87442 19.4597 1.85583H2.53827V1.85535ZM9.0802 9.00936C6.87771 11.039 4.68109 13.0634 2.45806 15.1126C2.8019 15.2011 19.3164 15.1806 19.5184 15.0916C17.312 13.0585 15.1174 11.0361 12.9183 9.00936C12.664 9.23868 12.4473 9.43476 12.2301 9.63034C11.4417 10.3408 10.5564 10.3403 9.76643 9.6279C9.54926 9.43231 9.33258 9.23624 9.0802 9.00887V9.00936ZM1.89019 2.4465C1.79775 2.75308 1.81047 14.3249 1.89166 14.5024C4.07752 12.4869 6.26485 10.4694 8.46049 8.44461C6.2805 6.45453 4.09513 4.45956 1.89019 2.4465ZM13.5375 8.44461C15.7395 10.4753 17.9268 12.4927 20.1166 14.5121C20.2027 14.2325 20.1856 2.65773 20.0941 2.4597C17.9048 4.45809 15.7195 6.45306 13.537 8.4451L13.5375 8.44461Z" fill="#3E3F3F" stroke="#3E3F3F" stroke-width="0.5"/>
</svg>
