<svg width="25" height="12" viewBox="0 0 25 12" fill="none" xmlns="http://www.w3.org/2000/svg">
<rect width="25" height="11.7143" rx="5.85714" fill="#FF6161"/>
<path d="M9.23299 3.58545V8.56201H8.28963L6.17391 5.10986V8.56201H5.23397V3.58545H6.17391L8.29647 7.04102V3.58545H9.23299ZM13.6984 7.82373V8.56201H11.0529V7.82373H13.6984ZM11.34 3.58545V8.56201H10.4V3.58545H11.34ZM13.3531 5.63965V6.36084H11.0529V5.63965H13.3531ZM13.6881 3.58545V4.32715H11.0529V3.58545H13.6881ZM15.7848 7.6084L16.776 3.58545H17.3127L17.3468 4.43311L16.2873 8.56201H15.7199L15.7848 7.6084ZM15.1593 3.58545L15.9728 7.59473V8.56201H15.3542L14.2262 3.58545H15.1593ZM18.3756 7.57764L19.1755 3.58545H20.112L18.984 8.56201H18.3654L18.3756 7.57764ZM17.569 3.58545L18.5602 7.62207L18.6183 8.56201H18.0509L16.9948 4.42969L17.0358 3.58545H17.569Z" fill="white"/>
</svg>
