<svg width="13" height="15" viewBox="0 0 13 15" fill="none" xmlns="http://www.w3.org/2000/svg">
<path d="M8.78289 1.28613L6.79961 0.144556C6.63523 0.049562 6.44773 0 6.25857 0C5.87116 0 5.51102 0.20816 5.31773 0.544356L0.463195 8.97898L0.100571 9.60841C0.0229246 9.74388 -0.0109424 9.9 0.00310003 10.0553L0.240994 12.5978C0.264123 12.8415 0.403721 13.0596 0.616009 13.1818C0.732478 13.2487 0.862163 13.2826 0.992675 13.2826C1.10088 13.2826 1.20909 13.2595 1.30987 13.2132L3.62769 12.141C3.76976 12.0758 3.88706 11.9676 3.96553 11.8321L4.32815 11.2027L9.18186 2.76804C9.48006 2.24929 9.30081 1.58433 8.78289 1.28613ZM1.11823 9.35565L4.77834 2.99519L5.40281 3.35452L1.8377 9.54977C1.57502 9.49277 1.30574 9.47377 1.03728 9.49607L1.11823 9.35565ZM5.80839 3.58829L6.30317 3.87327L2.79836 9.96361C2.74054 9.92478 2.68189 9.88679 2.62077 9.85127C2.51503 9.79014 2.406 9.7381 2.29531 9.69267L5.80839 3.58829ZM2.19867 11.9709C2.03594 11.8057 1.85091 11.6628 1.64688 11.5455C1.40403 11.4059 1.14466 11.3076 0.874554 11.253L0.785343 10.2998C1.27848 10.1792 1.7997 10.2511 2.24493 10.5063C2.65298 10.7409 2.95778 11.1077 3.11638 11.5463L2.19867 11.9709ZM3.67394 10.8268L3.64173 10.8822C3.5137 10.6542 3.35427 10.446 3.16677 10.2635L6.70958 4.10621L7.33405 4.46553L3.67394 10.826V10.8268ZM8.52765 2.39137L7.71072 3.81132L5.155 2.34098L5.97194 0.921027C6.03306 0.815294 6.14375 0.75582 6.25857 0.75582C6.31474 0.75582 6.37091 0.769863 6.42295 0.7996L8.40623 1.94118C8.564 2.03204 8.61851 2.23359 8.52765 2.39219V2.39137Z" fill="#3E3F3F"/>
<path d="M12.6173 14.9782H0.382698C0.17167 14.9782 0 14.788 0 14.5543C0 14.3205 0.17167 14.1304 0.382698 14.1304H12.6173C12.8283 14.1304 13 14.3205 13 14.5543C13 14.788 12.8283 14.9782 12.6173 14.9782Z" fill="#3E3F3F"/>
</svg>
