<svg width="12" height="13" viewBox="0 0 12 13" fill="none" xmlns="http://www.w3.org/2000/svg">
    <path
        d="M10.5 12C10.5 12.2761 10.7239 12.5 11 12.5C11.2761 12.5 11.5 12.2761 11.5 12H10.5ZM0.646447 3.64645C0.451184 3.84171 0.451184 4.15829 0.646447 4.35355L3.82843 7.53553C4.02369 7.7308 4.34027 7.7308 4.53553 7.53553C4.7308 7.34027 4.7308 7.02369 4.53553 6.82843L1.70711 4L4.53553 1.17157C4.7308 0.976311 4.7308 0.659728 4.53553 0.464466C4.34027 0.269204 4.02369 0.269204 3.82843 0.464466L0.646447 3.64645ZM11.5 12V7H10.5V12H11.5ZM8 3.5H1V4.5H8V3.5ZM11.5 7C11.5 5.067 9.933 3.5 8 3.5V4.5C9.38071 4.5 10.5 5.61929 10.5 7H11.5Z"
        fill="#3E3F3F" />
</svg>