<?xml version="1.0" encoding="UTF-8"?>
<!DOCTYPE svg PUBLIC "-//W3C//DTD SVG 1.1//EN" "http://www.w3.org/Graphics/SVG/1.1/DTD/svg11.dtd">
<!-- Creator: CorelDRAW 2018 (64-Bit) -->
<svg xmlns="http://www.w3.org/2000/svg" xml:space="preserve" width="279.4mm" height="215.9mm" version="1.1" style="shape-rendering:geometricPrecision; text-rendering:geometricPrecision; image-rendering:optimizeQuality; fill-rule:evenodd; clip-rule:evenodd"
viewBox="0 0 27940 21590"
 xmlns:xlink="http://www.w3.org/1999/xlink">
 <defs>
  <style type="text/css">
   <![CDATA[
    .str1 {stroke:#373435;stroke-width:20;stroke-miterlimit:22.9256}
    .str0 {stroke:#373435;stroke-width:17.64;stroke-miterlimit:2.61313}
    .fil7 {fill:none}
    .fil4 {fill:#FEFEFE}
    .fil8 {fill:#FFCC29}
    .fil3 {fill:#00AFEF}
    .fil6 {fill:#201E1E}
    .fil9 {fill:#0051A0}
    .fil5 {fill:#010101}
    .fil2 {fill:#373435;fill-rule:nonzero}
    .fil0 {fill:#FFCC29;fill-rule:nonzero}
    .fil1 {fill:#00AFEF;fill-rule:nonzero}
   ]]>
  </style>
     <clipPath id="id0">
      <path d="M13194.76 11314.09c-810.6,0 -1467.98,-657.38 -1467.98,-1467.99 0,-810.65 657.38,-1468 1467.98,-1468 810.61,0 1467.99,657.35 1467.99,1468 0,810.61 -657.38,1467.99 -1467.99,1467.99z"/>
     </clipPath>
   <clipPath id="id1">
    <rect x="30512.82" y="1994.96" width="8348.12" height="12361.32"/>
   </clipPath>
 </defs>
 <g id="Layer_x0020_1">
  <metadata id="CorelCorpID_0Corel-Layer"/>
  <g id="_1721706259456">
   <path class="fil0" d="M4328.05 9593.04l0 1710.83 -512.58 0 0 -1714.16 -642.4 0 0 -409.4 1794.05 0 0 412.73 -639.07 0zm2106.92 1710.83l-572.5 -835.45 -183.06 0 0 835.45 -495.94 0 0 -2123.56 792.17 0c90.98,0 177.52,14.97 259.62,44.93 82.1,29.96 154.78,72.12 218.02,126.48 63.24,54.37 113.72,121.49 151.44,201.37 37.73,79.89 56.59,169.76 56.59,269.61 0,126.48 -31.62,236.32 -94.86,329.52 -63.25,93.2 -140.36,160.88 -231.33,203.04l675.68 948.61 -575.83 0zm-269.61 -1481.17c0,-79.88 -27.73,-139.24 -83.21,-178.07 -55.47,-38.83 -116.49,-58.25 -183.06,-58.25l-219.68 0 0 475.97 219.68 0c66.57,0 127.59,-18.86 183.06,-56.58 55.48,-37.73 83.21,-98.75 83.21,-183.07zm991.89 1481.17l0 -2123.56 515.91 0 0 2123.56 -515.91 0zm2379.85 -1481.17c0,99.85 -18.3,189.72 -54.92,269.61 -36.61,79.88 -86.54,147.56 -149.78,203.03 -63.24,55.48 -136.47,98.19 -219.68,128.15 -83.21,29.96 -170.3,44.93 -261.28,44.93l-282.92 0 0 835.45 -495.94 0 0 -2123.56 778.86 0c90.98,0 178.07,14.97 261.28,44.93 83.21,29.96 156.44,72.12 219.68,126.48 63.24,54.37 113.17,121.49 149.78,201.37 36.62,79.89 54.92,169.76 54.92,269.61zm-492.61 0c0,-79.88 -27.74,-139.24 -83.21,-178.07 -55.48,-38.83 -116.5,-58.25 -183.07,-58.25l-209.69 0 0 475.97 209.69 0c66.57,0 127.59,-18.86 183.07,-56.58 55.47,-37.73 83.21,-98.75 83.21,-183.07z"/>
   <polygon class="fil1" points="9939.51,11305.54 9939.51,9181.98 10455.42,9181.98 10455.42,10862.85 11307.51,10862.85 11307.51,11305.54 "/>
   <g>
    <path class="fil2" d="M15433.57 12432.7l0 -688.88 72.35 0 0 626.25 320.68 0 0 62.63 -393.03 0zm886.48 -317.45c0,5.76 0,11.52 0,17.28 0,5.76 -0.72,11.16 -2.16,16.2l-41.03 39.95 -327.17 0c-1.44,24.47 2.16,48.41 10.8,71.8 8.64,23.39 21.6,44.09 38.87,62.09 17.28,17.99 38.15,32.57 62.63,43.73 24.47,11.15 51.83,16.73 82.06,16.73 29.51,0 56.51,-3.78 80.98,-11.34 24.47,-7.55 48.59,-19.97 72.34,-37.25l-19.43 75.59c-18.72,10.79 -39.41,19.07 -62.09,24.83 -22.67,5.76 -49.13,8.64 -79.36,8.64 -35.27,0 -68.56,-6.3 -99.88,-18.9 -31.31,-12.6 -58.66,-30.05 -82.06,-52.37 -23.39,-22.31 -41.93,-49.12 -55.6,-80.44 -13.68,-31.31 -20.52,-65.68 -20.52,-103.11 0,-39.59 6.84,-75.05 20.52,-106.36 13.67,-31.31 31.67,-58.13 53.98,-80.44 22.32,-22.32 47.51,-39.41 75.59,-51.29 28.07,-11.88 56.86,-17.81 86.38,-17.81 33.11,0 62.44,5.21 88,15.65 25.55,10.44 46.96,24.3 64.24,41.57 17.28,17.28 30.41,36.89 39.41,58.85 9,21.95 13.5,44.09 13.5,66.4zm-68.03 3.24c0,-14.39 -2.88,-28.97 -8.63,-43.73 -5.76,-14.75 -14.22,-28.25 -25.38,-40.49 -11.16,-12.23 -25.01,-22.31 -41.57,-30.23 -16.55,-7.92 -35.99,-11.88 -58.3,-11.88 -20.16,0 -39.42,3.96 -57.77,11.88 -18.36,7.92 -34.73,18.36 -49.13,31.31 -14.4,12.96 -26.63,27.9 -36.71,44.81 -10.08,16.92 -16.56,34.37 -19.44,52.37l295.85 0c0.72,-2.88 1.08,-7.56 1.08,-14.04zm452.42 -118.77l-160.88 0 0 310.97c0,23.75 7.02,41.39 21.05,52.91 14.04,11.51 31.14,17.27 51.29,17.27 23.04,0 41.75,-3.24 56.15,-9.72l-16.2 63.71c-10.8,3.6 -25.91,5.4 -45.35,5.4 -38.15,0 -70.18,-11.16 -96.1,-33.47 -25.91,-22.32 -38.87,-55.07 -38.87,-98.26l0 -308.81 -101.49 0 0 -56.15 101.49 0 0 -105.81 68.03 -35.63 0 141.44 174.92 0 -14.04 56.15zm632.73 0l-160.88 0 0 310.97c0,23.75 7.02,41.39 21.05,52.91 14.04,11.51 31.14,17.27 51.29,17.27 23.04,0 41.75,-3.24 56.15,-9.72l-16.2 63.71c-10.8,3.6 -25.91,5.4 -45.35,5.4 -38.15,0 -70.18,-11.16 -96.1,-33.47 -25.91,-22.32 -38.87,-55.07 -38.87,-98.26l0 -308.81 -101.49 0 0 -56.15 101.49 0 0 -105.81 68.03 -35.63 0 141.44 174.92 0 -14.04 56.15zm444.85 432.98l0 -322.85c0,-34.55 -11.51,-62.8 -34.55,-84.76 -23.03,-21.95 -56.5,-32.93 -100.41,-32.93 -42.47,0 -76.31,10.98 -101.5,32.93 -25.2,21.96 -37.79,50.21 -37.79,84.76l0 322.85 -68.03 0 0 -768.78 68.03 0 0 334.72c12.23,-17.28 30.77,-32.57 55.6,-45.89 24.84,-13.32 58.13,-19.97 99.88,-19.97 26.64,0 51.29,3.95 73.96,11.87 22.68,7.92 42.47,19.08 59.39,33.48 16.92,14.39 30.05,32.21 39.41,53.44 9.36,21.24 14.04,45.17 14.04,71.81l0 329.32 -68.03 0zm614.38 -317.45c0,5.76 0,11.52 0,17.28 0,5.76 -0.72,11.16 -2.16,16.2l-41.03 39.95 -327.17 0c-1.44,24.47 2.16,48.41 10.8,71.8 8.64,23.39 21.6,44.09 38.87,62.09 17.28,17.99 38.15,32.57 62.63,43.73 24.47,11.15 51.83,16.73 82.06,16.73 29.51,0 56.51,-3.78 80.98,-11.34 24.47,-7.55 48.59,-19.97 72.34,-37.25l-19.43 75.59c-18.72,10.79 -39.41,19.07 -62.09,24.83 -22.67,5.76 -49.13,8.64 -79.36,8.64 -35.27,0 -68.56,-6.3 -99.88,-18.9 -31.31,-12.6 -58.66,-30.05 -82.06,-52.37 -23.39,-22.31 -41.93,-49.12 -55.6,-80.44 -13.68,-31.31 -20.52,-65.68 -20.52,-103.11 0,-39.59 6.84,-75.05 20.52,-106.36 13.67,-31.31 31.67,-58.13 53.98,-80.44 22.32,-22.32 47.51,-39.41 75.59,-51.29 28.07,-11.88 56.86,-17.81 86.38,-17.81 33.11,0 62.44,5.21 88,15.65 25.55,10.44 46.96,24.3 64.24,41.57 17.28,17.28 30.41,36.89 39.41,58.85 9,21.95 13.5,44.09 13.5,66.4zm-68.03 3.24c0,-14.39 -2.88,-28.97 -8.63,-43.73 -5.76,-14.75 -14.22,-28.25 -25.38,-40.49 -11.16,-12.23 -25.01,-22.31 -41.57,-30.23 -16.55,-7.92 -35.99,-11.88 -58.3,-11.88 -20.16,0 -39.42,3.96 -57.77,11.88 -18.36,7.92 -34.73,18.36 -49.13,31.31 -14.4,12.96 -26.63,27.9 -36.71,44.81 -10.08,16.92 -16.56,34.37 -19.44,52.37l295.85 0c0.72,-2.88 1.08,-7.56 1.08,-14.04zm544.2 174.92c0,41.03 -5.4,77.38 -16.2,109.06 -10.8,31.67 -25.37,58.84 -43.73,81.52 -18.35,22.67 -39.41,40.85 -63.16,54.53 -23.76,13.67 -48.23,23.03 -73.43,28.07l-47.5 -48.59c55.42,-11.52 97.89,-35.81 127.41,-72.88 29.51,-37.07 44.27,-90.16 44.27,-159.27l0 -542.03 72.34 0 0 549.59zm647.85 -104.73c0,37.43 -6.48,71.62 -19.43,102.57 -12.96,30.96 -30.96,57.77 -53.99,80.44 -23.04,22.68 -50.21,40.31 -81.52,52.91 -31.32,12.6 -65.33,18.9 -102.04,18.9 -36.71,0 -70.72,-6.3 -102.04,-18.9 -31.31,-12.6 -58.48,-30.23 -81.52,-52.91 -23.03,-22.67 -41.21,-49.48 -54.52,-80.44 -13.32,-30.95 -19.98,-65.14 -19.98,-102.57 0,-37.43 6.66,-71.81 19.98,-103.12 13.31,-31.31 31.49,-58.31 54.52,-80.98 23.04,-22.68 50.21,-40.31 81.52,-52.91 31.32,-12.6 65.33,-18.89 102.04,-18.89 36.71,0 70.72,6.29 102.04,18.89 31.31,12.6 58.48,30.23 81.52,52.91 23.03,22.67 41.03,49.67 53.99,80.98 12.95,31.31 19.43,65.69 19.43,103.12zm-69.1 0c0,-28.8 -4.86,-55.07 -14.58,-78.83 -9.72,-23.75 -23.21,-44.26 -40.49,-61.54 -17.28,-17.28 -37.25,-30.77 -59.93,-40.49 -22.67,-9.72 -46.97,-14.58 -72.88,-14.58 -26.63,0 -51.47,4.86 -74.5,14.58 -23.04,9.72 -43.01,23.21 -59.93,40.49 -16.91,17.28 -30.23,37.79 -39.95,61.54 -9.72,23.76 -14.58,50.03 -14.58,78.83 0,28.79 4.86,55.06 14.58,78.82 9.72,23.75 23.04,44.27 39.95,61.54 16.92,17.28 36.89,30.6 59.93,39.95 23.03,9.36 47.87,14.04 74.5,14.04 25.91,0 50.21,-4.68 72.88,-14.04 22.68,-9.35 42.65,-22.67 59.93,-39.95 17.28,-17.27 30.77,-37.79 40.49,-61.54 9.72,-23.76 14.58,-50.03 14.58,-78.82zm521.51 244.02l-2.16 -59.39c-12.95,18.72 -32.03,35.1 -57.22,49.13 -25.2,14.04 -59.39,21.06 -102.58,21.06 -26.63,0 -51.29,-3.96 -73.96,-11.88 -22.68,-7.92 -42.47,-19.08 -59.39,-33.47 -16.91,-14.4 -30.05,-32.21 -39.41,-53.45 -9.36,-21.23 -14.03,-45.17 -14.03,-71.8l0 -329.33 68.02 0 0 322.85c0,34.55 11.52,62.8 34.55,84.76 23.04,21.95 56.51,32.93 100.42,32.93 42.47,0 76.3,-10.98 101.49,-32.93 25.2,-21.96 37.8,-50.21 37.8,-84.76l0 -322.85 68.02 0 0 489.13 -61.55 0zm440.55 -437.3c-23.04,0 -44.99,4.14 -65.87,12.42 -20.87,8.28 -39.23,20.51 -55.07,36.71 -15.83,16.2 -28.43,36.71 -37.79,61.55 -9.35,24.83 -14.03,53.8 -14.03,86.92l0 239.7 -68.03 0 0 -489.13 64.79 0 3.24 93.94c10.07,-30.23 30.05,-54.53 59.92,-72.88 29.88,-18.36 66.41,-27.54 109.6,-27.54l14.03 58.31 -10.79 0zm434.06 437.3l0 -322.85c0,-34.55 -11.52,-62.8 -34.56,-84.76 -23.03,-21.95 -56.5,-32.93 -100.41,-32.93 -42.47,0 -76.31,10.98 -101.5,32.93 -25.19,21.96 -37.79,50.21 -37.79,84.76l0 322.85 -68.02 0 0 -489.13 61.54 0 2.16 59.39c12.96,-18.72 32.03,-35.09 57.23,-49.13 25.19,-14.04 59.38,-21.05 102.57,-21.05 26.64,0 51.29,3.95 73.97,11.87 22.67,7.92 42.47,19.08 59.38,33.48 16.92,14.39 30.06,32.21 39.41,53.44 9.36,21.24 14.04,45.17 14.04,71.81l0 329.32 -68.02 0zm613.3 -317.45c0,5.76 0,11.52 0,17.28 0,5.76 -0.72,11.16 -2.16,16.2l-41.03 39.95 -327.17 0c-1.44,24.47 2.16,48.41 10.8,71.8 8.64,23.39 21.6,44.09 38.87,62.09 17.28,17.99 38.15,32.57 62.63,43.73 24.47,11.15 51.83,16.73 82.06,16.73 29.51,0 56.51,-3.78 80.98,-11.34 24.47,-7.55 48.59,-19.97 72.34,-37.25l-19.43 75.59c-18.72,10.79 -39.41,19.07 -62.09,24.83 -22.67,5.76 -49.13,8.64 -79.36,8.64 -35.27,0 -68.56,-6.3 -99.88,-18.9 -31.31,-12.6 -58.66,-30.05 -82.06,-52.37 -23.39,-22.31 -41.93,-49.12 -55.6,-80.44 -13.68,-31.31 -20.52,-65.68 -20.52,-103.11 0,-39.59 6.84,-75.05 20.52,-106.36 13.67,-31.31 31.67,-58.13 53.98,-80.44 22.32,-22.32 47.51,-39.41 75.59,-51.29 28.07,-11.88 56.86,-17.81 86.38,-17.81 33.11,0 62.44,5.21 88,15.65 25.55,10.44 46.96,24.3 64.24,41.57 17.28,17.28 30.41,36.89 39.41,58.85 9,21.95 13.5,44.09 13.5,66.4zm-68.03 3.24c0,-14.39 -2.88,-28.97 -8.63,-43.73 -5.76,-14.75 -14.22,-28.25 -25.38,-40.49 -11.16,-12.23 -25.01,-22.31 -41.57,-30.23 -16.55,-7.92 -35.99,-11.88 -58.3,-11.88 -20.16,0 -39.42,3.96 -57.77,11.88 -18.36,7.92 -34.73,18.36 -49.13,31.31 -14.4,12.96 -26.63,27.9 -36.71,44.81 -10.08,16.92 -16.56,34.37 -19.44,52.37l295.85 0c0.72,-2.88 1.08,-7.56 1.08,-14.04zm375.75 272.1c-37.43,87.82 -76.48,154.4 -117.15,199.75 -40.67,45.35 -85.12,76.67 -133.35,93.94l-42.11 -43.19c46.07,-14.39 87.1,-41.21 123.09,-80.44 36,-39.23 69.83,-96.28 101.5,-171.14l-188.96 -445.94 71.27 0 104.73 246.19c7.92,19.43 16.02,39.41 24.3,59.92 8.28,20.52 16.37,41.57 24.29,63.17l2.16 0c7.92,-20.88 15.84,-41.21 23.76,-61.01 7.91,-19.79 16.19,-39.77 24.83,-59.92l105.82 -248.35 65.86 0 -190.04 447.02zm973.93 -163.04c0,32.39 -6.11,61.36 -18.35,86.92 -12.24,25.55 -28.43,46.97 -48.59,64.24 -20.16,17.28 -43.19,30.6 -69.1,39.95 -25.92,9.36 -52.91,14.04 -80.99,14.04l-208.39 0 0 -688.88 169.52 0c23.76,0 46.79,3.96 69.11,11.88 22.31,7.91 42.11,19.07 59.38,33.47 17.28,14.4 30.96,32.21 41.03,53.45 10.08,21.23 15.12,45.17 15.12,71.8 0,27.35 -6.84,53.09 -20.51,77.2 -13.68,24.12 -32.04,41.21 -55.07,51.29 19.43,4.32 37.97,12.06 55.61,23.21 17.63,11.16 33.29,24.84 46.96,41.04 13.68,16.19 24.48,34.73 32.4,55.6 7.92,20.88 11.87,42.47 11.87,64.79zm-144.68 -313.13c0,-35.27 -11.7,-62.09 -35.09,-80.44 -23.4,-18.36 -52.37,-27.53 -86.92,-27.53l-86.38 0 0 215.95 89.62 0c32.39,0 60.28,-9.36 83.68,-28.08 23.39,-18.71 35.09,-45.35 35.09,-79.9zm71.26 313.13c0,-22.32 -4.32,-42.29 -12.96,-59.93 -8.63,-17.63 -20.33,-32.57 -35.09,-44.81 -14.75,-12.24 -32.03,-21.59 -51.83,-28.07 -19.79,-6.48 -40.49,-9.72 -62.08,-9.72l-117.69 0 0 285.05 122.01 0c20.87,0 40.85,-3.23 59.92,-9.71 19.08,-6.48 35.82,-15.66 50.21,-27.54 14.4,-11.87 25.92,-26.63 34.55,-44.27 8.64,-17.63 12.96,-37.97 12.96,-61zm600.34 -112.3c0,5.76 0,11.52 0,17.28 0,5.76 -0.72,11.16 -2.16,16.2l-41.03 39.95 -327.17 0c-1.44,24.47 2.16,48.41 10.8,71.8 8.64,23.39 21.6,44.09 38.87,62.09 17.28,17.99 38.15,32.57 62.63,43.73 24.47,11.15 51.83,16.73 82.06,16.73 29.51,0 56.51,-3.78 80.98,-11.34 24.47,-7.55 48.59,-19.97 72.34,-37.25l-19.43 75.59c-18.72,10.79 -39.41,19.07 -62.09,24.83 -22.67,5.76 -49.13,8.64 -79.36,8.64 -35.27,0 -68.56,-6.3 -99.88,-18.9 -31.31,-12.6 -58.66,-30.05 -82.06,-52.37 -23.39,-22.31 -41.93,-49.12 -55.6,-80.44 -13.68,-31.31 -20.52,-65.68 -20.52,-103.11 0,-39.59 6.84,-75.05 20.52,-106.36 13.67,-31.31 31.67,-58.13 53.98,-80.44 22.32,-22.32 47.51,-39.41 75.59,-51.29 28.07,-11.88 56.86,-17.81 86.38,-17.81 33.11,0 62.44,5.21 88,15.65 25.55,10.44 46.96,24.3 64.24,41.57 17.28,17.28 30.41,36.89 39.41,58.85 9,21.95 13.5,44.09 13.5,66.4zm-68.03 3.24c0,-14.39 -2.88,-28.97 -8.63,-43.73 -5.76,-14.75 -14.22,-28.25 -25.38,-40.49 -11.16,-12.23 -25.01,-22.31 -41.57,-30.23 -16.55,-7.92 -35.99,-11.88 -58.3,-11.88 -20.16,0 -39.42,3.96 -57.77,11.88 -18.36,7.92 -34.73,18.36 -49.13,31.31 -14.4,12.96 -26.63,27.9 -36.71,44.81 -10.08,16.92 -16.56,34.37 -19.44,52.37l295.85 0c0.72,-2.88 1.08,-7.56 1.08,-14.04zm566.87 408.15c0,22.31 -5.22,42.83 -15.65,61.54 -10.44,18.72 -25.2,35.1 -44.27,49.13 -19.08,14.04 -41.75,25.02 -68.03,32.93 -26.27,7.92 -55.24,11.88 -86.92,11.88 -32.39,0 -61.9,-4.32 -88.54,-12.95 -26.63,-8.64 -49.48,-20.52 -68.56,-35.64 -19.08,-15.11 -33.83,-32.93 -44.27,-53.44 -10.44,-20.52 -15.66,-42.65 -15.66,-66.41 0,-20.15 3.24,-38.51 9.72,-55.07 6.48,-16.55 15.12,-31.31 25.92,-44.27 10.79,-12.95 23.21,-23.57 37.25,-31.85 14.03,-8.28 28.25,-14.22 42.65,-17.81l-58.31 -52.91c0,-8.64 1.98,-16.92 5.94,-24.84 3.96,-7.91 9.18,-15.47 15.66,-22.67 6.47,-7.2 13.85,-13.5 22.13,-18.9 8.28,-5.4 16.38,-9.17 24.29,-11.33 -24.47,-12.24 -45.52,-30.42 -63.16,-54.53 -17.64,-24.12 -26.45,-52.37 -26.45,-84.76 0,-23.76 4.49,-45.53 13.49,-65.33 9,-19.79 21.42,-36.89 37.25,-51.28 15.84,-14.4 34.74,-25.56 56.69,-33.48 21.96,-7.92 45.89,-11.87 71.8,-11.87 12.96,0 24.48,0.9 34.56,2.7 10.07,1.79 19.07,3.77 26.99,5.93 15.84,5.04 35.99,7.56 60.47,7.56 14.39,0 28.07,-1.62 41.03,-4.86 12.95,-3.24 24.11,-7.38 33.47,-12.41l14.04 56.14c-5.76,3.6 -15.84,7.02 -30.24,10.26 -14.39,3.24 -26.63,4.86 -36.71,4.86 10.08,10.08 18.54,23.03 25.37,38.87 6.84,15.84 10.26,33.47 10.26,52.91 0,21.59 -4.14,42.29 -12.41,62.08 -8.28,19.8 -20.16,37.26 -35.64,52.37 -15.47,15.12 -34.37,27 -56.68,35.63 -22.32,8.64 -47.15,12.96 -74.51,12.96 -27.35,0 -48.22,3.78 -62.62,11.34 -14.4,7.56 -21.6,16.37 -21.6,26.45 0,2.16 4.5,7.56 13.5,16.2 9,8.64 19.26,14.75 30.77,18.35l126.33 43.19c41.75,14.4 73.97,33.3 96.64,56.69 22.68,23.4 34.01,55.61 34.01,96.64zm-101.49 -431.9c0,-14.4 -2.88,-27.9 -8.64,-40.49 -5.76,-12.6 -13.86,-23.76 -24.3,-33.47 -10.43,-9.72 -22.67,-17.28 -36.71,-22.68 -14.03,-5.4 -28.97,-8.1 -44.81,-8.1 -33.83,0 -61.72,10.26 -83.68,30.78 -21.95,20.51 -32.93,45.16 -32.93,73.96 0,30.23 10.98,55.43 32.93,75.58 21.96,20.16 49.85,30.23 83.68,30.23 15.12,0 29.7,-2.7 43.73,-8.09 14.04,-5.4 26.28,-12.96 36.72,-22.68 10.43,-9.72 18.71,-20.87 24.83,-33.47 6.12,-12.6 9.18,-26.46 9.18,-41.57zm36.71 431.9c0,-23.04 -7.56,-42.47 -22.68,-58.31 -15.11,-15.83 -36.35,-28.07 -63.7,-36.71l-98.26 -30.23c-35.27,0.72 -64.24,11.51 -86.92,32.39 -22.67,20.87 -34.01,47.51 -34.01,79.9 0,14.4 3.42,28.25 10.26,41.57 6.84,13.32 16.91,25.2 30.23,35.63 13.32,10.44 29.51,18.9 48.59,25.38 19.07,6.48 40.85,9.72 65.32,9.72 23.76,0 44.99,-2.88 63.71,-8.64 18.71,-5.76 34.55,-13.32 47.51,-22.68 12.95,-9.36 22.85,-19.97 29.69,-31.85 6.84,-11.88 10.26,-23.93 10.26,-36.17zm268.86 -729.91c0,4.32 -1.62,9.54 -4.86,15.65 -3.24,6.12 -7.38,11.88 -12.42,17.28 -5.03,5.4 -10.07,9.9 -15.11,13.5 -5.04,3.6 -9.72,5.4 -14.04,5.4 -4.32,0 -9,-1.8 -14.04,-5.4 -5.03,-3.6 -9.89,-8.1 -14.57,-13.5 -4.68,-5.4 -8.64,-11.16 -11.88,-17.28 -3.24,-6.11 -4.86,-11.33 -4.86,-15.65 0,-4.32 1.62,-9.54 4.86,-15.66 3.24,-6.12 7.2,-11.88 11.88,-17.28 4.68,-5.39 9.54,-10.07 14.57,-14.03 5.04,-3.96 9.72,-5.94 14.04,-5.94 4.32,0 9,1.98 14.04,5.94 5.04,3.96 10.08,8.64 15.11,14.03 5.04,5.4 9.18,11.16 12.42,17.28 3.24,6.12 4.86,11.34 4.86,15.66zm-80.98 635.97l0 -489.13 69.1 0 0 489.13 -69.1 0zm564.71 0l0 -322.85c0,-34.55 -11.52,-62.8 -34.56,-84.76 -23.03,-21.95 -56.5,-32.93 -100.41,-32.93 -42.47,0 -76.31,10.98 -101.5,32.93 -25.19,21.96 -37.79,50.21 -37.79,84.76l0 322.85 -68.02 0 0 -489.13 61.54 0 2.16 59.39c12.96,-18.72 32.03,-35.09 57.23,-49.13 25.19,-14.04 59.38,-21.05 102.57,-21.05 26.64,0 51.29,3.95 73.97,11.87 22.67,7.92 42.47,19.08 59.38,33.48 16.92,14.39 30.06,32.21 39.41,53.44 9.36,21.24 14.04,45.17 14.04,71.81l0 329.32 -68.02 0zm288.29 -168.44l-57.22 -15.12 -11.88 -552.83 79.9 0 -10.8 567.95zm22.68 119.85c0,5.04 -1.8,10.98 -5.4,17.82 -3.6,6.84 -7.92,13.31 -12.96,19.43 -5.04,6.12 -10.43,11.34 -16.19,15.66 -5.76,4.32 -11.16,6.48 -16.2,6.48 -4.32,0 -9.36,-2.16 -15.12,-6.48 -5.75,-4.32 -11.33,-9.54 -16.73,-15.66 -5.4,-6.12 -9.9,-12.59 -13.5,-19.43 -3.6,-6.84 -5.4,-12.78 -5.4,-17.82 0,-5.04 1.8,-10.98 5.4,-17.81 3.6,-6.84 8.1,-13.32 13.5,-19.44 5.4,-6.12 10.98,-11.34 16.73,-15.66 5.76,-4.32 10.8,-6.47 15.12,-6.47 5.04,0 10.44,2.15 16.2,6.47 5.76,4.32 11.15,9.54 16.19,15.66 5.04,6.12 9.36,12.6 12.96,19.44 3.6,6.83 5.4,12.77 5.4,17.81z"/>
    <path class="fil1" d="M17243.79 11152.87c-184.17,146.45 -446.01,219.68 -785.52,219.68 -146.45,0 -290.13,-23.86 -431.03,-71.57 -140.91,-47.7 -266.83,-118.16 -377.78,-211.35 -110.95,-93.2 -200.27,-209.14 -267.95,-347.83 -67.67,-138.68 -101.51,-299.01 -101.51,-480.96 0,-181.96 34.39,-342.28 103.18,-480.97 68.79,-138.68 158.66,-254.62 269.61,-347.82 110.94,-93.2 235.76,-163.65 374.45,-211.36 138.68,-47.71 277.93,-71.56 417.72,-71.56 148.67,0 280.15,16.09 394.42,48.26 114.28,32.18 208.03,72.67 281.26,121.49l-39.94 452.67c-73.23,-53.25 -159.21,-95.97 -257.96,-128.14 -98.74,-32.18 -206.92,-48.27 -324.52,-48.27 -97.64,0 -189.17,15.54 -274.6,46.6 -85.43,31.07 -159.77,76 -223.01,134.81 -63.24,58.8 -113.72,130.36 -151.45,214.68 -37.72,84.32 -56.58,178.63 -56.58,282.92 0,99.86 17.75,190.28 53.26,271.27 35.5,81 84.32,150.34 146.45,208.03 62.13,57.7 134.8,102.07 218.01,133.14 83.22,31.07 173.64,46.6 271.27,46.6 122.05,0 218.57,-21.08 289.58,-63.24l0 -299.56 -386.1 0 0 -396.09 858.74 0 0 978.57z"/>
    <path class="fil1" d="M19484.01 11152.87c-184.17,146.45 -446.01,219.68 -785.52,219.68 -146.45,0 -290.13,-23.86 -431.03,-71.57 -140.91,-47.7 -266.83,-118.16 -377.78,-211.35 -110.95,-93.2 -200.27,-209.14 -267.95,-347.83 -67.67,-138.68 -101.51,-299.01 -101.51,-480.96 0,-181.96 34.39,-342.28 103.18,-480.97 68.79,-138.68 158.66,-254.62 269.61,-347.82 110.94,-93.2 235.76,-163.65 374.45,-211.36 138.68,-47.71 277.93,-71.56 417.72,-71.56 148.67,0 280.15,16.09 394.42,48.26 114.28,32.18 208.03,72.67 281.26,121.49l-39.94 452.67c-73.23,-53.25 -159.21,-95.97 -257.96,-128.14 -98.74,-32.18 -206.92,-48.27 -324.52,-48.27 -97.64,0 -189.17,15.54 -274.6,46.6 -85.43,31.07 -159.77,76 -223.01,134.81 -63.24,58.8 -113.72,130.36 -151.45,214.68 -37.72,84.32 -56.58,178.63 -56.58,282.92 0,99.86 17.75,190.28 53.26,271.27 35.5,81 84.32,150.34 146.45,208.03 62.13,57.7 134.8,102.07 218.01,133.14 83.22,31.07 173.64,46.6 271.27,46.6 122.05,0 218.57,-21.08 289.58,-63.24l0 -299.56 -386.1 0 0 -396.09 858.74 0 0 978.57z"/>
    <polygon class="fil1" points="19827.01,11322.62 19827.01,9199.06 21065.2,9199.06 21065.2,9621.77 20342.92,9621.77 20342.92,10044.49 20932.06,10044.49 20932.06,10473.86 20342.92,10473.86 20342.92,10899.9 21158.39,10899.9 21158.39,11322.62 "/>
    <path class="fil1" d="M22659.65 11322.62l-572.5 -835.45 -183.06 0 0 835.45 -495.94 0 0 -2123.56 792.17 0c90.98,0 177.52,14.97 259.62,44.93 82.1,29.96 154.78,72.12 218.02,126.48 63.24,54.37 113.72,121.49 151.44,201.37 37.73,79.89 56.59,169.76 56.59,269.61 0,126.48 -31.62,236.32 -94.86,329.52 -63.25,93.2 -140.36,160.88 -231.33,203.04l675.68 948.61 -575.83 0zm-269.61 -1481.17c0,-79.88 -27.73,-139.24 -83.21,-178.07 -55.47,-38.83 -116.49,-58.25 -183.06,-58.25l-219.68 0 0 475.97 219.68 0c66.57,0 127.59,-18.86 183.06,-56.58 55.48,-37.73 83.21,-98.75 83.21,-183.07z"/>
    <path class="fil1" d="M24743.41 10683.55c0,208.59 -66.56,375.57 -199.7,500.94 -133.14,125.37 -330.63,188.06 -592.47,188.06 -133.14,0 -254.07,-15.54 -362.8,-46.6 -108.73,-31.07 -201.93,-75.45 -279.6,-133.14l-46.59 -495.94c204.14,161.98 426.04,242.98 665.69,242.98 95.42,0 168.64,-18.31 219.68,-54.92 51.04,-36.62 76.55,-87.1 76.55,-151.45 0,-62.13 -23.3,-113.17 -69.89,-153.11 -46.6,-39.94 -135.36,-83.21 -266.28,-129.81 -186.4,-64.35 -327.3,-153.66 -422.72,-267.94 -95.41,-114.28 -143.12,-244.64 -143.12,-391.1 0,-88.76 16.64,-172.52 49.93,-251.3 33.28,-78.77 80.99,-147.56 143.12,-206.36 62.13,-58.8 138.69,-104.85 229.66,-138.13 90.98,-33.29 195.27,-49.93 312.88,-49.93 133.14,0 241.31,13.31 324.53,39.94 83.21,26.63 148.11,55.48 194.71,86.54l-39.94 432.7c-51.04,-33.28 -115.94,-63.79 -194.72,-91.53 -78.77,-27.74 -160.32,-41.61 -244.64,-41.61 -93.2,0 -161.43,17.76 -204.7,53.26 -43.27,35.5 -64.9,78.77 -64.9,129.81 0,51.04 22.74,94.31 68.23,129.81 45.49,35.5 131.47,74.34 257.96,116.5 84.32,28.84 162.54,64.9 234.65,108.17 72.12,43.27 134.25,93.75 186.4,151.45 52.14,57.69 93.19,122.04 123.15,193.05 29.96,71.01 44.93,147.56 44.93,229.66z"/>
   </g>
   <g>
    <path class="fil3" d="M12281.78 8100.84c-627.88,329.15 -1056.27,987.23 -1056.27,1745.26 0,538.02 215.77,1024.95 565.25,1380.66l1353.4 1395.42c27.68,28.62 73.52,28.62 101.2,0l1353.41 -1395.42c174.76,-177.62 316.07,-388.64 413.93,-622.08 97.36,-233.43 151.33,-489.31 151.33,-758.58 0,-697.62 -362.86,-1310.59 -910.1,-1660.42 -590.56,-377.53 -1351.75,-410.09 -1972.15,-84.84z"/>
    <path class="fil4" d="M13194.76 11314.09c-810.6,0 -1467.98,-657.38 -1467.98,-1467.99 0,-810.65 657.38,-1468 1467.98,-1468 810.61,0 1467.99,657.35 1467.99,1468 0,810.61 -657.38,1467.99 -1467.99,1467.99z"/>
    <g style="clip-path:url(#id0)">
     <g>
      <g>
       <path id="1" class="fil5" d="M13309.23 8689.3l-25.5 -4.37 -27.04 36.24c-11.65,15.5 -16.3,39.59 -16.52,62.52 -0.46,47.29 33.88,109.6 33.73,126.29 -0.12,12 -12.86,22.19 -18.62,34.77 -7.19,15.68 -7.12,19.38 -22.21,29.15 -34.36,22.22 -41.65,14.69 -79.36,23.07 1.94,-37.27 20.58,-15.42 42.47,-31.75 -9.49,-29.7 -58.92,-17.61 -101.57,-36.07 -51.01,-22.09 -58.46,4.74 -87.52,-53.98 -20.38,-4.94 -80.55,-8.32 -93.62,3.9 -13.17,12.31 -5.71,18.96 -23.55,31.7 -10.46,7.47 -22.83,13.18 -33.85,21.55 -107.64,81.73 -35.67,198.96 -78.06,245.38 -15.1,16.53 -41.74,38 -50.07,60.42 -12.48,33.54 9.29,59.77 30.97,70.33 33.7,16.42 59.49,3.41 93.83,-0.57 -16.3,49.62 -26.47,120.54 22.6,160.22 21.15,17.11 25.37,11.7 21.6,53.25 -5.41,59.64 -8.86,69.51 50.92,83.38 42.15,9.79 70.6,32.11 114.34,31.56 6.58,48.13 13.71,81.62 14.23,133.84 0.27,26.59 -2.14,46.07 -6.31,71.03 -4.22,25.23 0.28,47.93 -4.95,69.38 -10.05,41.18 -30.51,66.72 -32.8,112.92 -4.53,91.62 6.53,54.05 -35.77,114.57 -49.23,70.42 -46.18,137.38 -64.69,231.05 -23.53,119.07 -27.63,37.59 -44.19,102.34 -6.99,27.33 -15.01,15.87 -29.1,82.31 -2.41,11.37 -7.34,12.08 -6.68,26.9 29.28,34.7 76.27,12.25 104.88,29.55 3.41,4.61 -7.04,24.21 -9.06,31.59 -3.64,13.35 -8.97,24.54 -11.32,39.34 10.02,-9.93 12.48,-18.52 19.98,-30.82l15.48 -30.08c36.43,19.6 47.56,20.7 98.81,17.95 36.11,-1.94 75.42,-2.89 93.27,-24.31 4.91,-33.65 -11.64,-42.97 -40.4,-47.99 -37.03,-6.46 -42.23,-9.59 -65.35,-29.74 -24.74,-21.56 -34.18,-17.98 -22.9,-55.15 10.21,-33.66 5.9,-31.92 22.72,-72.29 11.23,-26.93 24.37,-39.55 29.37,-65.68 10.73,-56.04 64.73,-143.4 80.42,-203.53 66.16,12.36 47.21,-6.82 83.35,-49.24 11.8,22 -0.52,31.13 -5.92,55.85 -4.63,21.23 -6.86,43.57 -5.82,66.11 3.28,71.13 38.55,138.51 38.43,210.41 -0.04,23.68 -1.87,3 -9.18,23.53 -7.8,21.9 -18.12,107.08 -11.45,131.69 41.39,8.82 56.79,9.3 93.37,-7.07 21.26,-9.53 104.49,38.16 187.56,-1.61 15.26,-7.31 36.85,-18.78 22.55,-41.86 -9.22,-14.89 -37.82,-14.25 -57.27,-17.86 -53.16,-9.87 -62.85,-35.51 -99.03,-51 -0.08,-25.37 8.22,-21.63 5.34,-46.16 -12.41,-9.97 -26.47,-20.32 -51.24,-16.81 -4.71,-59.92 7.73,-196.23 19.37,-254.89 9.7,-48.86 24.28,-58.86 33.49,-108.7 7.91,-42.76 9.41,-89.35 5.59,-135.09 -1.65,-19.73 -5.79,-37.8 -6.93,-59.51 -1.56,-29.73 6.31,-38.84 6.85,-63.3 2.03,-91.37 -34.93,-67.29 17.36,-180.72 8.44,-18.3 16.92,-29.27 24.78,-45.98 25.78,-54.84 -7.73,-71.08 -57.5,-73.71l4.16 -32.53 201.1 17.81c7.61,19.85 15.48,40.1 6.74,57.26 -5.16,10.12 -26.54,40.4 -10.34,52.85 15.62,-4.15 5.81,4.25 11.45,-16.44l8.91 -20c4.33,83.32 4.22,169.66 6.16,253.36 0.9,39.39 -2,82.64 3.92,118.98 5.17,31.68 3.45,94.38 4.47,129.47 1.21,41.76 3.88,85.03 3.93,126.6l3.17 55.25c2.02,20.38 1.5,45.76 2.19,66.73 2.75,83.91 -0.43,164.79 13.09,247.97 15.65,-100.54 -11.25,-229.4 -2.05,-335.46 1,-11.53 -2.18,-19.34 -3.12,-30.76 -3.38,-40.92 -9.4,-225.02 -6.25,-260.42 3.19,-35.81 -2.55,-89.34 -3.44,-130.14 -1.54,-70.25 -11.8,-197.01 -4.32,-260.42 24.57,-10.75 22.63,-5.33 36.24,-32.21 14.42,-28.47 18.47,-87.61 -0.49,-116.56 -6.94,-10.58 -10.67,-7.82 -21.15,-14.42 -14.61,-9.18 -2.65,-0.63 -8.48,-7.7 -3.9,-4.74 -4.62,-22.36 -41.69,-7.17 -14.98,6.14 -6.74,8.37 1.29,15.73 -24.53,6.49 -25.82,19.36 -34.7,40.61 -51.73,0.11 -121.97,-24.18 -151.07,-51.88 0.17,-32.21 13.26,-67.59 14.96,-102.74 2.1,-43.54 -8.11,-64.58 -21.17,-99.75 -21.86,-58.84 14.54,-66.15 2.75,-93.16 -14.01,-32.07 -39.67,-39.67 -7.93,-75.06l47.38 -1.49c13.74,-19.52 -0.95,-63.31 25.53,-79.45 3.98,-2.43 5.55,-0.82 13.53,-6.05 0.61,-29.12 -18.24,-22.68 -15.17,-54.17 2.98,-30.49 -0.61,-32.8 -5.3,-61.3 7.18,1.74 31.2,10.06 35.75,0.16l-0.68 -5.26c-0.02,-0.47 -0.35,-1.7 -0.35,-2.2l4.66 -14.27c-15.39,5.09 -18.55,-1.24 -24.77,-11.51 -2.81,-4.63 -2.1,-3.89 -9.09,-9.64 -7.68,-6.33 -7.11,-5.58 -13.39,-14.82l-9.33 -12.78c-12.88,-12.46 -28.67,1.97 -36.93,-19.35 -30.12,-0.31 -40.08,-5.33 -73.05,-1.72 -1.49,0.16 -6.05,0.62 -6.37,0.62l-12.73 -2.24c-9.46,-1.65 4.58,-1.48 -5.83,-0.54 -9.07,0.82 -11.88,6.27 -14.5,15.96z"/>
       <path class="fil6 str0" d="M14265.68 11335.45c-25.15,-66.19 -50.06,-126.38 -71.3,-95.08 5.28,-42.25 0.4,-84.52 5.68,-126.77 -82.36,-150.68 -157.15,-259.9 -243.38,-348.63 -93.92,-237.85 -268.23,-273.01 -451.62,-285.23 -20.89,1.1 -53.03,-40.57 -76.86,-40.27 -33.45,0.41 -59.02,42.73 -88.32,44.27 -49.28,-17.42 -35.33,114.91 -223.06,91.08 -89.25,-21.79 -176.1,-0.34 -261.47,47.53 -92.32,-2.97 -249.95,243.7 -323.4,202.99 -161.08,-17.76 -330.88,260.59 -397.61,248.64 -43.98,-10.09 -82.62,43.95 -118.85,126.78 -33.41,8.06 -45.76,64.75 -74.82,51.04 2.64,21.14 0.08,56.51 2.72,77.64 776.48,2.64 1545.82,3.37 2322.29,6.01z"/>
      </g>
     </g>
    </g>
    <path class="fil7" d="M13194.76 11314.09c-810.6,0 -1467.98,-657.38 -1467.98,-1467.99 0,-810.65 657.38,-1468 1467.98,-1468 810.61,0 1467.99,657.35 1467.99,1468 0,810.61 -657.38,1467.99 -1467.99,1467.99z"/>
   </g>
   <path class="fil8" d="M13194.77 13075.32c175.85,0 318.4,142.55 318.4,318.4 0,175.85 -142.55,318.41 -318.4,318.41 -175.85,0 -318.4,-142.56 -318.4,-318.41 0,-175.85 142.55,-318.4 318.4,-318.4z"/>
  </g>
  <g style="clip-path:url(#id1)">
   <image x="30512.82" y="1994.96" width="8348.12" height="12361.32" xlink:href="Final Logo-TripLoggers_Images\Final Logo-TripLoggers_ImgID1.png"/>
  </g>
  <path class="fil9 str1" d="M14598.77 11226.76c174.76,-177.62 316.07,-388.64 413.93,-622.08 97.36,-233.43 151.33,-489.31 151.33,-758.58 0,-697.62 -362.86,-1310.59 -910.1,-1660.42 -590.56,-377.53 -1351.75,-410.09 -1972.15,-84.84 -627.88,329.15 -1056.27,987.23 -1056.27,1745.26 0,538.02 215.77,1024.95 565.25,1380.66l1353.4 1395.42c27.68,28.62 73.52,28.62 101.2,0l1353.41 -1395.42zm-1404.01 87.33c-810.6,0 -1467.98,-657.38 -1467.98,-1467.99 0,-810.65 657.38,-1468 1467.98,-1468 810.61,0 1467.99,657.35 1467.99,1468 0,810.61 -657.38,1467.99 -1467.99,1467.99z"/>
  <polygon class="fil9 str1" points="11307.51,11305.54 11307.51,10862.85 10455.42,10862.85 10455.42,9181.98 9939.51,9181.98 9939.51,11305.54 "/>
  <path class="fil9 str1" d="M15649.46 11089.63c110.95,93.19 236.87,163.65 377.78,211.35 140.9,47.71 284.58,71.57 431.03,71.57 339.51,0 601.35,-73.23 785.52,-219.68l0 -978.57 -858.74 0 0 396.09 386.1 0 0 299.56c-71.01,42.16 -167.53,63.24 -289.58,63.24 -97.63,0 -188.05,-15.53 -271.27,-46.6 -83.21,-31.07 -155.88,-75.44 -218.01,-133.14 -62.13,-57.69 -110.95,-127.03 -146.45,-208.03 -35.51,-80.99 -53.26,-171.41 -53.26,-271.27 0,-104.29 18.86,-198.6 56.58,-282.92 37.73,-84.32 88.21,-155.88 151.45,-214.68 63.24,-58.81 137.58,-103.74 223.01,-134.81 85.43,-31.06 176.96,-46.6 274.6,-46.6 117.6,0 225.78,16.09 324.52,48.27 98.75,32.17 184.73,74.89 257.96,128.14l39.94 -452.67c-73.23,-48.82 -166.98,-89.31 -281.26,-121.49 -114.27,-32.17 -245.75,-48.26 -394.42,-48.26 -139.79,0 -279.04,23.85 -417.72,71.56 -138.69,47.71 -263.51,118.16 -374.45,211.36 -110.95,93.2 -200.82,209.14 -269.61,347.82 -68.79,138.69 -103.18,299.01 -103.18,480.97 0,181.95 33.84,342.28 101.51,480.96 67.68,138.69 157,254.63 267.95,347.83z"/>
  <path class="fil9 str1" d="M17889.68 11089.63c110.95,93.19 236.87,163.65 377.78,211.35 140.9,47.71 284.58,71.57 431.03,71.57 339.51,0 601.35,-73.23 785.52,-219.68l0 -978.57 -858.74 0 0 396.09 386.1 0 0 299.56c-71.01,42.16 -167.53,63.24 -289.58,63.24 -97.63,0 -188.05,-15.53 -271.27,-46.6 -83.21,-31.07 -155.88,-75.44 -218.01,-133.14 -62.13,-57.69 -110.95,-127.03 -146.45,-208.03 -35.51,-80.99 -53.26,-171.41 -53.26,-271.27 0,-104.29 18.86,-198.6 56.58,-282.92 37.73,-84.32 88.21,-155.88 151.45,-214.68 63.24,-58.81 137.58,-103.74 223.01,-134.81 85.43,-31.06 176.96,-46.6 274.6,-46.6 117.6,0 225.78,16.09 324.52,48.27 98.75,32.17 184.73,74.89 257.96,128.14l39.94 -452.67c-73.23,-48.82 -166.98,-89.31 -281.26,-121.49 -114.27,-32.17 -245.75,-48.26 -394.42,-48.26 -139.79,0 -279.04,23.85 -417.72,71.56 -138.69,47.71 -263.51,118.16 -374.45,211.36 -110.95,93.2 -200.82,209.14 -269.61,347.82 -68.79,138.69 -103.18,299.01 -103.18,480.97 0,181.95 33.84,342.28 101.51,480.96 67.68,138.69 157,254.63 267.95,347.83z"/>
  <polygon class="fil9 str1" points="19827.01,9199.06 19827.01,11322.62 21158.39,11322.62 21158.39,10899.9 20342.92,10899.9 20342.92,10473.86 20932.06,10473.86 20932.06,10044.49 20342.92,10044.49 20342.92,9621.77 21065.2,9621.77 21065.2,9199.06 "/>
  <path class="fil9 str1" d="M21408.15 9199.06l0 2123.56 495.94 0 0 -835.45 183.06 0 572.5 835.45 575.83 0 -675.68 -948.61c90.97,-42.16 168.08,-109.84 231.33,-203.04 63.24,-93.2 94.86,-203.04 94.86,-329.52 0,-99.85 -18.86,-189.72 -56.59,-269.61 -37.72,-79.88 -88.2,-147 -151.44,-201.37 -63.24,-54.36 -135.92,-96.52 -218.02,-126.48 -82.1,-29.96 -168.64,-44.93 -259.62,-44.93l-792.17 0zm898.68 825.46c-55.47,37.72 -116.49,56.58 -183.06,56.58l-219.68 0 0 -475.97 219.68 0c66.57,0 127.59,19.42 183.06,58.25 55.48,38.83 83.21,98.19 83.21,178.07 0,84.32 -27.73,145.34 -83.21,183.07z"/>
  <path class="fil9 str1" d="M23262.25 10696.87l46.59 495.94c77.67,57.69 170.87,102.07 279.6,133.14 108.73,31.06 229.66,46.6 362.8,46.6 261.84,0 459.33,-62.69 592.47,-188.06 133.14,-125.37 199.7,-292.35 199.7,-500.94 0,-82.1 -14.97,-158.65 -44.93,-229.66 -29.96,-71.01 -71.01,-135.36 -123.15,-193.05 -52.15,-57.7 -114.28,-108.18 -186.4,-151.45 -72.11,-43.27 -150.33,-79.33 -234.65,-108.17 -126.49,-42.16 -212.47,-81 -257.96,-116.5 -45.49,-35.5 -68.23,-78.77 -68.23,-129.81 0,-51.04 21.63,-94.31 64.9,-129.81 43.27,-35.5 111.5,-53.26 204.7,-53.26 84.32,0 165.87,13.87 244.64,41.61 78.78,27.74 143.68,58.25 194.72,91.53l39.94 -432.7c-46.6,-31.06 -111.5,-59.91 -194.71,-86.54 -83.22,-26.63 -191.39,-39.94 -324.53,-39.94 -117.61,0 -221.9,16.64 -312.88,49.93 -90.97,33.28 -167.53,79.33 -229.66,138.13 -62.13,58.8 -109.84,127.59 -143.12,206.36 -33.29,78.78 -49.93,162.54 -49.93,251.3 0,146.46 47.71,276.82 143.12,391.1 95.42,114.28 236.32,203.59 422.72,267.94 130.92,46.6 219.68,89.87 266.28,129.81 46.59,39.94 69.89,90.98 69.89,153.11 0,64.35 -25.51,114.83 -76.55,151.45 -51.04,36.61 -124.26,54.92 -219.68,54.92 -239.65,0 -461.55,-81 -665.69,-242.98z"/>
 </g>
</svg>
